<?xml version="1.0" encoding="utf-8"?>
<!-- Generator: Adobe Illustrator 16.0.3, SVG Export Plug-In . SVG Version: 6.00 Build 0)  -->
<!DOCTYPE svg PUBLIC "-//W3C//DTD SVG 1.1//EN" "http://www.w3.org/Graphics/SVG/1.1/DTD/svg11.dtd">
<svg version="1.1" id="Layer_1" xmlns="http://www.w3.org/2000/svg" xmlns:xlink="http://www.w3.org/1999/xlink" x="0px" y="0px"
	 width="720px" height="216px" viewBox="0 0 720 216" enable-background="new 0 0 720 216" xml:space="preserve">
<g>
	<defs>
		<rect id="SVGID_3_" x="4.266" y="3.643" width="144.331" height="137.27"/>
	</defs>
	<clipPath id="SVGID_2_">
		<use xlink:href="#SVGID_3_"  overflow="visible"/>
	</clipPath>
	<path clip-path="url(#SVGID_2_)" fill="#251182" d="M148.575,56.078v0.004c-1.483,4.566-3.701,8.975-6.673,13.07
		c-9.166,12.612-23.44,19.315-37.918,19.331c11.704,8.527,19.312,22.338,19.312,37.927c0,5.06-0.8,9.935-2.285,14.502
		c-4.802,0-9.685-0.745-14.499-2.309c-14.828-4.816-25.615-16.324-30.102-30.091c-4.487,13.767-15.273,25.274-30.102,30.091
		c-4.813,1.563-9.696,2.309-14.498,2.309c-1.484-4.567-2.286-9.442-2.286-14.502c0-15.589,7.608-29.399,19.313-37.927
		c-14.48-0.016-28.753-6.719-37.918-19.331c-2.972-4.096-5.189-8.507-6.674-13.074c3.884-2.82,8.273-5.091,13.086-6.654
		c14.829-4.818,30.318-1.85,42.041,6.65c-4.461-13.776-2.498-29.426,6.667-42.041c2.977-4.097,6.488-7.566,10.372-10.391
		c3.884,2.824,7.396,6.294,10.372,10.391c9.165,12.615,11.126,28.265,6.667,42.041c11.723-8.5,27.212-11.469,42.041-6.65
		C140.303,50.987,144.691,53.258,148.575,56.078"/>
	<path clip-path="url(#SVGID_2_)" fill="#C6B90B" d="M70.891,83.151c1.216-1.366,2.862-2.375,4.788-2.792
		C74.365,81.829,72.677,82.767,70.891,83.151"/>
	<path clip-path="url(#SVGID_2_)" fill="#C6B90B" d="M75.678,80.359c0.991,1.701,1.359,3.592,1.175,5.41
		C75.932,84.191,75.482,82.317,75.678,80.359"/>
	<path clip-path="url(#SVGID_2_)" fill="#C6B90B" d="M81.193,80.914c-1.787,0.392-3.709,0.239-5.515-0.554
		C77.604,79.94,79.52,80.176,81.193,80.914"/>
	<path clip-path="url(#SVGID_2_)" fill="#C6B90B" d="M75.678,80.359c0.991,1.701,1.359,3.592,1.175,5.41
		C75.932,84.191,75.482,82.317,75.678,80.359"/>
	<path clip-path="url(#SVGID_2_)" fill="#C6B90B" d="M75.678,80.359c0.196-1.959,1.012-3.709,2.232-5.067
		C77.729,77.111,76.989,78.892,75.678,80.359"/>
	<path clip-path="url(#SVGID_2_)" fill="#C6B90B" d="M81.193,80.914c-1.787,0.392-3.709,0.239-5.515-0.554
		C77.604,79.94,79.52,80.176,81.193,80.914"/>
	<path clip-path="url(#SVGID_2_)" fill="#C6B90B" d="M75.678,80.359c0.196-1.959,1.012-3.709,2.232-5.067
		C77.729,77.111,76.989,78.892,75.678,80.359"/>
	<path clip-path="url(#SVGID_2_)" fill="#C6B90B" d="M81.193,80.914c-1.787,0.392-3.709,0.239-5.515-0.554
		C77.604,79.94,79.52,80.176,81.193,80.914"/>
	<path clip-path="url(#SVGID_2_)" fill="#C6B90B" d="M70.891,83.151c1.216-1.366,2.862-2.375,4.788-2.792
		C74.365,81.829,72.677,82.767,70.891,83.151"/>
	<path clip-path="url(#SVGID_2_)" fill="#C6B90B" d="M77.91,75.292c-0.181,1.819-0.921,3.6-2.232,5.067
		C75.875,78.4,76.688,76.65,77.91,75.292"/>
	<path clip-path="url(#SVGID_2_)" fill="#FECA0A" d="M88.2,73.06c0.382-3.758-1.661-7.496-5.306-9.099
		c-3.646-1.604-7.778-0.585-10.292,2.231c-3.456-1.521-7.638-0.733-10.29,2.237c-2.653,2.971-2.961,7.219-1.056,10.48
		c-2.517,2.815-3.059,7.034-1.054,10.475c2.004,3.44,5.95,5.045,9.637,4.244c1.903,3.258,5.75,5.082,9.639,4.236
		c3.89-0.845,6.635-4.099,7.015-7.853c3.688-0.801,6.613-3.896,7.01-7.858C93.902,78.193,91.658,74.578,88.2,73.06 M75.678,80.359
		c-1.313,1.47-3,2.407-4.788,2.792C72.106,81.785,73.753,80.776,75.678,80.359c0.196-1.959,1.012-3.709,2.232-5.067
		C77.729,77.111,76.989,78.892,75.678,80.359c1.925-0.419,3.841-0.184,5.515,0.555C79.406,81.306,77.483,81.153,75.678,80.359
		c0.991,1.701,1.359,3.592,1.175,5.41C75.932,84.191,75.482,82.317,75.678,80.359"/>
	<path clip-path="url(#SVGID_2_)" fill="#C6B90B" d="M70.891,83.151c1.216-1.366,2.862-2.375,4.788-2.792
		C74.365,81.829,72.677,82.767,70.891,83.151"/>
	<path clip-path="url(#SVGID_2_)" fill="#C6B90B" d="M76.854,85.77c-0.922-1.578-1.371-3.451-1.175-5.409
		C76.669,82.06,77.037,83.951,76.854,85.77"/>
	<path clip-path="url(#SVGID_2_)" fill="#F1F5F6" d="M84.662,78.526c1.09,5.02-2.096,9.974-7.116,11.063
		c-5.02,1.091-9.973-2.096-11.063-7.115c-1.09-5.021,2.096-9.974,7.116-11.063C78.619,70.321,83.572,73.507,84.662,78.526"/>
</g>
<g>
	<defs>
		<rect id="SVGID_5_" x="147.117" y="72.277" width="144.33" height="137.27"/>
	</defs>
	<clipPath id="SVGID_4_">
		<use xlink:href="#SVGID_5_"  overflow="visible"/>
	</clipPath>
	<path clip-path="url(#SVGID_4_)" fill="#251182" d="M291.426,124.714v0.004c-1.484,4.566-3.701,8.975-6.673,13.07
		c-9.165,12.611-23.44,19.315-37.918,19.331c11.704,8.527,19.312,22.338,19.312,37.926c0,5.061-0.801,9.936-2.285,14.502
		c-4.802,0-9.685-0.744-14.499-2.308c-14.828-4.817-25.614-16.324-30.101-30.091c-4.487,13.767-15.273,25.273-30.102,30.091
		c-4.813,1.563-9.696,2.308-14.499,2.308c-1.484-4.566-2.285-9.441-2.285-14.502c0-15.588,7.608-29.398,19.313-37.926
		c-14.48-0.016-28.754-6.72-37.918-19.331c-2.973-4.096-5.189-8.508-6.675-13.074c3.885-2.821,8.273-5.091,13.087-6.655
		c14.829-4.818,30.317-1.849,42.041,6.65c-4.461-13.776-2.498-29.425,6.667-42.04c2.976-4.097,6.488-7.566,10.372-10.392
		c3.884,2.825,7.396,6.295,10.372,10.392c9.164,12.615,11.126,28.264,6.667,42.04c11.723-8.499,27.212-11.469,42.041-6.65
		C283.154,119.623,287.542,121.893,291.426,124.714"/>
	<path clip-path="url(#SVGID_4_)" fill="#C6B90B" d="M213.742,151.786c1.216-1.366,2.862-2.374,4.788-2.792
		C217.216,150.465,215.528,151.401,213.742,151.786"/>
	<path clip-path="url(#SVGID_4_)" fill="#C6B90B" d="M218.529,148.994c0.991,1.702,1.359,3.592,1.175,5.411
		C218.783,152.827,218.333,150.952,218.529,148.994"/>
	<path clip-path="url(#SVGID_4_)" fill="#C6B90B" d="M224.044,149.549c-1.787,0.392-3.709,0.24-5.515-0.554
		C220.455,148.576,222.37,148.812,224.044,149.549"/>
	<path clip-path="url(#SVGID_4_)" fill="#C6B90B" d="M218.529,148.994c0.991,1.702,1.359,3.592,1.175,5.411
		C218.783,152.827,218.333,150.952,218.529,148.994"/>
	<path clip-path="url(#SVGID_4_)" fill="#C6B90B" d="M218.529,148.994c0.196-1.959,1.011-3.708,2.232-5.067
		C220.58,145.747,219.84,147.527,218.529,148.994"/>
	<path clip-path="url(#SVGID_4_)" fill="#C6B90B" d="M224.044,149.549c-1.787,0.392-3.709,0.24-5.515-0.554
		C220.455,148.576,222.37,148.812,224.044,149.549"/>
	<path clip-path="url(#SVGID_4_)" fill="#C6B90B" d="M218.529,148.994c0.196-1.959,1.011-3.708,2.232-5.067
		C220.58,145.747,219.84,147.527,218.529,148.994"/>
	<path clip-path="url(#SVGID_4_)" fill="#C6B90B" d="M224.044,149.549c-1.787,0.392-3.709,0.24-5.515-0.554
		C220.455,148.576,222.37,148.812,224.044,149.549"/>
	<path clip-path="url(#SVGID_4_)" fill="#C6B90B" d="M213.742,151.786c1.216-1.366,2.862-2.374,4.788-2.792
		C217.216,150.465,215.528,151.401,213.742,151.786"/>
	<path clip-path="url(#SVGID_4_)" fill="#C6B90B" d="M220.761,143.927c-0.181,1.82-0.921,3.601-2.232,5.067
		C218.726,147.035,219.54,145.285,220.761,143.927"/>
	<path clip-path="url(#SVGID_4_)" fill="#FECA0A" d="M231.051,141.695c0.382-3.758-1.661-7.496-5.307-9.1s-7.778-0.585-10.291,2.232
		c-3.456-1.522-7.638-0.734-10.29,2.237c-2.653,2.97-2.962,7.219-1.056,10.479c-2.518,2.815-3.059,7.035-1.055,10.475
		c2.004,3.441,5.951,5.045,9.637,4.244c1.903,3.259,5.749,5.082,9.639,4.237s6.635-4.099,7.014-7.854
		c3.688-0.801,6.614-3.896,7.01-7.857C236.752,146.828,234.509,143.213,231.051,141.695 M218.529,148.994
		c-1.313,1.471-3,2.407-4.788,2.792C214.958,150.42,216.604,149.412,218.529,148.994c0.196-1.959,1.011-3.708,2.232-5.067
		C220.58,145.747,219.84,147.527,218.529,148.994c1.925-0.418,3.841-0.183,5.515,0.555
		C222.257,149.94,220.334,149.789,218.529,148.994c0.991,1.702,1.359,3.592,1.175,5.411
		C218.783,152.827,218.333,150.952,218.529,148.994"/>
	<path clip-path="url(#SVGID_4_)" fill="#C6B90B" d="M213.742,151.786c1.216-1.366,2.862-2.374,4.788-2.792
		C217.216,150.465,215.528,151.401,213.742,151.786"/>
	<path clip-path="url(#SVGID_4_)" fill="#C6B90B" d="M219.704,154.405c-0.921-1.578-1.371-3.452-1.175-5.41
		C219.521,150.695,219.888,152.586,219.704,154.405"/>
	<path clip-path="url(#SVGID_4_)" fill="#F1F5F6" d="M227.513,147.162c1.09,5.02-2.096,9.973-7.116,11.063
		c-5.02,1.091-9.973-2.096-11.063-7.115c-1.09-5.02,2.095-9.973,7.115-11.063C221.469,138.956,226.423,142.143,227.513,147.162"/>
</g>
<g>
	<defs>
		<rect id="SVGID_7_" x="289.968" y="3.643" width="144.331" height="137.27"/>
	</defs>
	<clipPath id="SVGID_6_">
		<use xlink:href="#SVGID_7_"  overflow="visible"/>
	</clipPath>
	<path clip-path="url(#SVGID_6_)" fill="#251182" d="M434.276,56.078v0.004c-1.483,4.566-3.7,8.975-6.672,13.07
		c-9.166,12.612-23.44,19.315-37.919,19.331c11.704,8.527,19.313,22.338,19.313,37.927c0,5.06-0.801,9.935-2.286,14.502
		c-4.802,0-9.684-0.745-14.498-2.309c-14.828-4.816-25.615-16.324-30.102-30.091c-4.487,13.767-15.273,25.274-30.102,30.091
		c-4.813,1.563-9.696,2.309-14.498,2.309c-1.484-4.567-2.286-9.442-2.286-14.502c0-15.589,7.608-29.399,19.313-37.927
		c-14.479-0.016-28.753-6.719-37.918-19.331c-2.973-4.096-5.189-8.507-6.675-13.074c3.885-2.82,8.273-5.091,13.087-6.654
		c14.828-4.818,30.318-1.85,42.041,6.65c-4.462-13.776-2.498-29.426,6.666-42.041c2.977-4.097,6.489-7.566,10.373-10.391
		c3.885,2.824,7.396,6.294,10.372,10.391c9.165,12.615,11.126,28.265,6.667,42.041c11.722-8.5,27.211-11.469,42.04-6.65
		C426.005,50.987,430.395,53.258,434.276,56.078"/>
	<path clip-path="url(#SVGID_6_)" fill="#C6B90B" d="M356.593,83.151c1.217-1.366,2.861-2.375,4.788-2.792
		C360.067,81.829,358.378,82.767,356.593,83.151"/>
	<path clip-path="url(#SVGID_6_)" fill="#C6B90B" d="M361.381,80.359c0.99,1.701,1.359,3.592,1.175,5.41
		C361.634,84.191,361.185,82.317,361.381,80.359"/>
	<path clip-path="url(#SVGID_6_)" fill="#C6B90B" d="M366.895,80.914c-1.785,0.392-3.708,0.239-5.515-0.554
		C363.306,79.94,365.222,80.176,366.895,80.914"/>
	<path clip-path="url(#SVGID_6_)" fill="#C6B90B" d="M361.381,80.359c0.99,1.701,1.359,3.592,1.175,5.41
		C361.634,84.191,361.185,82.317,361.381,80.359"/>
	<path clip-path="url(#SVGID_6_)" fill="#C6B90B" d="M361.381,80.359c0.196-1.959,1.012-3.709,2.232-5.067
		C363.433,77.111,362.691,78.892,361.381,80.359"/>
	<path clip-path="url(#SVGID_6_)" fill="#C6B90B" d="M366.895,80.914c-1.785,0.392-3.708,0.239-5.515-0.554
		C363.306,79.94,365.222,80.176,366.895,80.914"/>
	<path clip-path="url(#SVGID_6_)" fill="#C6B90B" d="M361.381,80.359c0.196-1.959,1.012-3.709,2.232-5.067
		C363.433,77.111,362.691,78.892,361.381,80.359"/>
	<path clip-path="url(#SVGID_6_)" fill="#C6B90B" d="M366.895,80.914c-1.785,0.392-3.708,0.239-5.515-0.554
		C363.306,79.94,365.222,80.176,366.895,80.914"/>
	<path clip-path="url(#SVGID_6_)" fill="#C6B90B" d="M356.593,83.151c1.217-1.366,2.861-2.375,4.788-2.792
		C360.067,81.829,358.378,82.767,356.593,83.151"/>
	<path clip-path="url(#SVGID_6_)" fill="#C6B90B" d="M363.613,75.292c-0.181,1.819-0.922,3.6-2.232,5.067
		C361.577,78.4,362.392,76.65,363.613,75.292"/>
	<path clip-path="url(#SVGID_6_)" fill="#FECA0A" d="M373.903,73.06c0.381-3.758-1.662-7.496-5.307-9.099
		c-3.646-1.604-7.778-0.585-10.292,2.231c-3.456-1.521-7.639-0.733-10.291,2.237c-2.651,2.971-2.961,7.219-1.055,10.48
		c-2.518,2.815-3.06,7.034-1.054,10.475c2.004,3.44,5.949,5.045,9.636,4.244c1.903,3.258,5.75,5.082,9.64,4.236
		c3.89-0.845,6.635-4.099,7.014-7.853c3.688-0.801,6.614-3.896,7.011-7.858C379.604,78.193,377.36,74.578,373.903,73.06
		 M361.381,80.359c-1.313,1.47-3,2.407-4.788,2.792C357.809,81.785,359.456,80.776,361.381,80.359
		c0.196-1.959,1.012-3.709,2.232-5.067C363.433,77.111,362.691,78.892,361.381,80.359c1.925-0.419,3.841-0.184,5.514,0.555
		C365.109,81.306,363.187,81.153,361.381,80.359c0.99,1.701,1.359,3.592,1.175,5.41C361.634,84.191,361.185,82.317,361.381,80.359"
		/>
	<path clip-path="url(#SVGID_6_)" fill="#C6B90B" d="M356.593,83.151c1.217-1.366,2.861-2.375,4.788-2.792
		C360.067,81.829,358.378,82.767,356.593,83.151"/>
	<path clip-path="url(#SVGID_6_)" fill="#C6B90B" d="M362.556,85.77c-0.922-1.578-1.371-3.451-1.175-5.409
		C362.371,82.06,362.74,83.951,362.556,85.77"/>
	<path clip-path="url(#SVGID_6_)" fill="#F1F5F6" d="M370.365,78.526c1.089,5.02-2.097,9.974-7.117,11.063
		c-5.019,1.091-9.973-2.096-11.062-7.115c-1.09-5.021,2.095-9.974,7.114-11.063C364.321,70.321,369.275,73.507,370.365,78.526"/>
</g>
<g>
	<defs>
		<rect id="SVGID_9_" x="432.82" y="72.276" width="144.329" height="137.27"/>
	</defs>
	<clipPath id="SVGID_8_">
		<use xlink:href="#SVGID_9_"  overflow="visible"/>
	</clipPath>
	<path clip-path="url(#SVGID_8_)" fill="#251182" d="M577.128,124.713v0.003c-1.483,4.567-3.7,8.975-6.672,13.071
		c-9.167,12.611-23.441,19.315-37.92,19.331c11.704,8.527,19.313,22.338,19.313,37.926c0,5.061-0.801,9.936-2.285,14.502
		c-4.803,0-9.685-0.744-14.499-2.308c-14.828-4.817-25.615-16.325-30.102-30.091c-4.486,13.766-15.272,25.273-30.102,30.091
		c-4.813,1.563-9.696,2.308-14.497,2.308c-1.485-4.566-2.287-9.441-2.287-14.502c0-15.588,7.608-29.398,19.313-37.926
		c-14.48-0.016-28.754-6.72-37.918-19.331c-2.974-4.097-5.19-8.508-6.675-13.074c3.884-2.821,8.272-5.091,13.087-6.655
		c14.828-4.818,30.317-1.849,42.041,6.65c-4.462-13.776-2.499-29.425,6.666-42.04c2.977-4.097,6.488-7.567,10.371-10.392
		c3.885,2.824,7.396,6.295,10.373,10.392c9.164,12.615,11.126,28.264,6.666,42.04c11.722-8.499,27.212-11.469,42.041-6.65
		C568.856,119.622,573.245,121.892,577.128,124.713"/>
	<path clip-path="url(#SVGID_8_)" fill="#C6B90B" d="M499.444,151.785c1.217-1.366,2.861-2.374,4.788-2.792
		C502.918,150.464,501.23,151.4,499.444,151.785"/>
	<path clip-path="url(#SVGID_8_)" fill="#C6B90B" d="M504.232,148.993c0.99,1.702,1.358,3.592,1.175,5.411
		C504.485,152.825,504.036,150.951,504.232,148.993"/>
	<path clip-path="url(#SVGID_8_)" fill="#C6B90B" d="M509.746,149.548c-1.786,0.392-3.709,0.24-5.515-0.554
		C506.157,148.575,508.072,148.81,509.746,149.548"/>
	<path clip-path="url(#SVGID_8_)" fill="#C6B90B" d="M504.232,148.993c0.99,1.702,1.358,3.592,1.175,5.411
		C504.485,152.825,504.036,150.951,504.232,148.993"/>
	<path clip-path="url(#SVGID_8_)" fill="#C6B90B" d="M504.232,148.993c0.195-1.959,1.011-3.708,2.231-5.067
		C506.283,145.746,505.542,147.526,504.232,148.993"/>
	<path clip-path="url(#SVGID_8_)" fill="#C6B90B" d="M509.746,149.548c-1.786,0.392-3.709,0.24-5.515-0.554
		C506.157,148.575,508.072,148.81,509.746,149.548"/>
	<path clip-path="url(#SVGID_8_)" fill="#C6B90B" d="M504.232,148.993c0.195-1.959,1.011-3.708,2.231-5.067
		C506.283,145.746,505.542,147.526,504.232,148.993"/>
	<path clip-path="url(#SVGID_8_)" fill="#C6B90B" d="M509.746,149.548c-1.786,0.392-3.709,0.24-5.515-0.554
		C506.157,148.575,508.072,148.81,509.746,149.548"/>
	<path clip-path="url(#SVGID_8_)" fill="#C6B90B" d="M499.444,151.785c1.217-1.366,2.861-2.374,4.788-2.792
		C502.918,150.464,501.23,151.4,499.444,151.785"/>
	<path clip-path="url(#SVGID_8_)" fill="#C6B90B" d="M506.464,143.926c-0.181,1.82-0.922,3.601-2.231,5.067
		C504.428,147.034,505.242,145.284,506.464,143.926"/>
	<path clip-path="url(#SVGID_8_)" fill="#FECA0A" d="M516.754,141.694c0.382-3.759-1.661-7.496-5.307-9.1s-7.778-0.585-10.291,2.232
		c-3.455-1.522-7.639-0.734-10.29,2.237c-2.652,2.97-2.961,7.219-1.056,10.479c-2.518,2.815-3.059,7.035-1.054,10.475
		c2.004,3.441,5.949,5.045,9.636,4.244c1.903,3.259,5.75,5.082,9.64,4.237c3.891-0.845,6.636-4.099,7.015-7.854
		c3.688-0.801,6.614-3.896,7.01-7.857C522.455,146.827,520.212,143.212,516.754,141.694 M504.232,148.993
		c-1.314,1.471-3,2.407-4.788,2.792C500.66,150.419,502.308,149.411,504.232,148.993c0.195-1.959,1.011-3.708,2.231-5.067
		C506.283,145.746,505.542,147.526,504.232,148.993c1.925-0.418,3.84-0.184,5.514,0.555
		C507.96,149.939,506.037,149.788,504.232,148.993c0.99,1.702,1.358,3.592,1.175,5.411
		C504.485,152.825,504.036,150.951,504.232,148.993"/>
	<path clip-path="url(#SVGID_8_)" fill="#C6B90B" d="M499.444,151.785c1.217-1.366,2.861-2.374,4.788-2.792
		C502.918,150.464,501.23,151.4,499.444,151.785"/>
	<path clip-path="url(#SVGID_8_)" fill="#C6B90B" d="M505.407,154.404c-0.922-1.579-1.371-3.452-1.175-5.41
		C505.223,150.694,505.591,152.585,505.407,154.404"/>
	<path clip-path="url(#SVGID_8_)" fill="#F1F5F6" d="M513.216,147.161c1.09,5.02-2.097,9.973-7.117,11.063
		c-5.019,1.091-9.972-2.096-11.062-7.115c-1.09-5.021,2.096-9.973,7.115-11.063C507.173,138.955,512.126,142.142,513.216,147.161"/>
</g>
<g>
	<defs>
		<rect id="SVGID_11_" x="575.671" y="3.643" width="144.329" height="137.27"/>
	</defs>
	<clipPath id="SVGID_10_">
		<use xlink:href="#SVGID_11_"  overflow="visible"/>
	</clipPath>
	<path clip-path="url(#SVGID_10_)" fill="#251182" d="M719.979,56.079v0.003c-1.483,4.567-3.7,8.975-6.673,13.071
		c-9.166,12.611-23.44,19.315-37.919,19.331c11.704,8.527,19.313,22.338,19.313,37.926c0,5.061-0.801,9.936-2.285,14.502
		c-4.803,0-9.685-0.744-14.499-2.308c-14.828-4.817-25.615-16.325-30.102-30.091c-4.486,13.766-15.272,25.273-30.102,30.091
		c-4.813,1.563-9.695,2.308-14.498,2.308c-1.484-4.566-2.285-9.441-2.285-14.502c0-15.588,7.607-29.398,19.313-37.926
		c-14.48-0.016-28.754-6.72-37.918-19.331c-2.973-4.097-5.19-8.508-6.675-13.074c3.884-2.821,8.272-5.091,13.087-6.655
		c14.828-4.818,30.317-1.849,42.041,6.65c-4.462-13.776-2.499-29.425,6.666-42.04c2.977-4.097,6.488-7.567,10.371-10.392
		c3.885,2.824,7.396,6.295,10.373,10.392c9.164,12.615,11.126,28.264,6.666,42.04c11.722-8.499,27.212-11.469,42.041-6.65
		C711.707,50.988,716.096,53.258,719.979,56.079"/>
	<path clip-path="url(#SVGID_10_)" fill="#C6B90B" d="M642.295,83.151c1.217-1.366,2.861-2.374,4.788-2.792
		C645.769,81.83,644.081,82.767,642.295,83.151"/>
	<path clip-path="url(#SVGID_10_)" fill="#C6B90B" d="M647.083,80.359c0.99,1.702,1.358,3.592,1.174,5.411
		C647.336,84.191,646.887,82.317,647.083,80.359"/>
	<path clip-path="url(#SVGID_10_)" fill="#C6B90B" d="M652.597,80.914c-1.786,0.392-3.709,0.24-5.515-0.554
		C649.007,79.941,650.923,80.176,652.597,80.914"/>
	<path clip-path="url(#SVGID_10_)" fill="#C6B90B" d="M647.083,80.359c0.99,1.702,1.358,3.592,1.174,5.411
		C647.336,84.191,646.887,82.317,647.083,80.359"/>
	<path clip-path="url(#SVGID_10_)" fill="#C6B90B" d="M647.083,80.359c0.195-1.959,1.011-3.708,2.231-5.067
		C649.134,77.112,648.393,78.893,647.083,80.359"/>
	<path clip-path="url(#SVGID_10_)" fill="#C6B90B" d="M652.597,80.914c-1.786,0.392-3.709,0.24-5.515-0.554
		C649.007,79.941,650.923,80.176,652.597,80.914"/>
	<path clip-path="url(#SVGID_10_)" fill="#C6B90B" d="M647.083,80.359c0.195-1.959,1.011-3.708,2.231-5.067
		C649.134,77.112,648.393,78.893,647.083,80.359"/>
	<path clip-path="url(#SVGID_10_)" fill="#C6B90B" d="M652.597,80.914c-1.786,0.392-3.709,0.24-5.515-0.554
		C649.007,79.941,650.923,80.176,652.597,80.914"/>
	<path clip-path="url(#SVGID_10_)" fill="#C6B90B" d="M642.295,83.151c1.217-1.366,2.861-2.374,4.788-2.792
		C645.769,81.83,644.081,82.767,642.295,83.151"/>
	<path clip-path="url(#SVGID_10_)" fill="#C6B90B" d="M649.314,75.292c-0.181,1.82-0.922,3.601-2.231,5.067
		C647.278,78.4,648.093,76.65,649.314,75.292"/>
	<path clip-path="url(#SVGID_10_)" fill="#FECA0A" d="M659.604,73.061c0.382-3.759-1.661-7.496-5.307-9.1
		c-3.646-1.604-7.778-0.585-10.291,2.232c-3.455-1.522-7.639-0.734-10.29,2.237c-2.652,2.97-2.962,7.219-1.056,10.479
		c-2.518,2.815-3.059,7.035-1.054,10.475c2.004,3.441,5.949,5.045,9.636,4.244c1.903,3.259,5.75,5.082,9.64,4.237
		c3.891-0.845,6.636-4.099,7.015-7.854c3.688-0.801,6.614-3.896,7.01-7.857C665.306,78.193,663.062,74.578,659.604,73.061
		 M647.083,80.359c-1.314,1.471-3,2.407-4.788,2.792C643.511,81.785,645.158,80.777,647.083,80.359
		c0.195-1.959,1.011-3.708,2.231-5.067C649.134,77.112,648.393,78.893,647.083,80.359c1.924-0.418,3.84-0.184,5.514,0.555
		C650.811,81.306,648.888,81.154,647.083,80.359c0.99,1.702,1.358,3.592,1.174,5.411C647.336,84.191,646.887,82.317,647.083,80.359"
		/>
	<path clip-path="url(#SVGID_10_)" fill="#C6B90B" d="M642.295,83.151c1.217-1.366,2.861-2.374,4.788-2.792
		C645.769,81.83,644.081,82.767,642.295,83.151"/>
	<path clip-path="url(#SVGID_10_)" fill="#C6B90B" d="M648.257,85.771c-0.921-1.579-1.37-3.452-1.174-5.41
		C648.073,82.061,648.441,83.951,648.257,85.771"/>
	<path clip-path="url(#SVGID_10_)" fill="#F1F5F6" d="M656.066,78.527c1.09,5.02-2.097,9.973-7.117,11.063
		c-5.019,1.091-9.972-2.096-11.062-7.115c-1.09-5.021,2.096-9.973,7.115-11.063C650.022,70.321,654.977,73.508,656.066,78.527"/>
</g>
</svg>
