<?xml version="1.0" encoding="utf-8"?>
<!-- Generator: Adobe Illustrator 16.0.3, SVG Export Plug-In . SVG Version: 6.00 Build 0)  -->
<!DOCTYPE svg PUBLIC "-//W3C//DTD SVG 1.1//EN" "http://www.w3.org/Graphics/SVG/1.1/DTD/svg11.dtd">
<svg version="1.1" id="Layer_1" xmlns="http://www.w3.org/2000/svg" xmlns:xlink="http://www.w3.org/1999/xlink" x="0px" y="0px"
	 width="216px" height="216px" viewBox="0 0 216 216" enable-background="new 0 0 216 216" xml:space="preserve">
<g>
	<path fill="#BB526C" d="M103.234,111.37c-56.984,128.045-132.889,30.417-4.845-6.231c-128.044,36.648-100.955-85.093,1.729-7.771
		C-2.565,20.046,107.12-34.135,107.12,93.91c0-128.045,109.685-73.864,7.001,3.458c102.684-77.322,129.773,44.419,1.729,7.771
		c128.045,36.648,52.14,134.276-4.845,6.231C167.989,239.415,46.25,239.415,103.234,111.37z"/>
	<path fill="none" stroke="#000000" stroke-width="0.5774" stroke-miterlimit="10" d="M103.234,111.37
		c-56.984,128.045-132.889,30.417-4.845-6.231c-128.044,36.648-100.955-85.093,1.729-7.771
		C-2.565,20.046,107.12-34.135,107.12,93.91c0-128.045,109.685-73.864,7.001,3.458c102.684-77.322,129.773,44.419,1.729,7.771
		c128.045,36.648,52.14,134.276-4.845,6.231C167.989,239.415,46.25,239.415,103.234,111.37z"/>
</g>
<g>
	<path fill="#2D2B7B" d="M104.345,108.876c-40.705,91.461-94.922,21.727-3.461-4.451c-91.461,26.178-72.11-60.781,1.235-5.551
		c-73.346-55.23,5.001-93.931,5.001-2.47c0-91.461,78.346-52.761,5,2.47c73.346-55.23,92.696,31.729,1.235,5.551
		c91.461,26.178,37.244,95.912-3.461,4.451C150.6,200.337,63.64,200.337,104.345,108.876z"/>
</g>
<circle fill="#FFCB0E" cx="107.119" cy="102.641" r="34.307"/>
</svg>
