<?xml version="1.0" encoding="utf-8"?>
<!-- Generator: Adobe Illustrator 25.0.0, SVG Export Plug-In . SVG Version: 6.00 Build 0)  -->
<svg version="1.1" id="Layer_1" xmlns="http://www.w3.org/2000/svg" xmlns:xlink="http://www.w3.org/1999/xlink" x="0px" y="0px"
	 viewBox="0 0 800 600" style="enable-background:new 0 0 800 600;" xml:space="preserve">
<style type="text/css">
	.st0{clip-path:url(#SVGID_2_);}
	.st1{clip-path:url(#SVGID_4_);fill:#FFFFFF;}
</style>
<g id="Artwork_6_1_">
	<g>
		<defs>
			<polygon id="SVGID_1_" points="617.65,215.32 244.24,213.76 242.65,462.19 616.06,463.76 			"/>
		</defs>
		<use xlink:href="#SVGID_1_"  style="overflow:visible;fill:#FFFFFF;"/>
		<clipPath id="SVGID_2_">
			<use xlink:href="#SVGID_1_"  style="overflow:visible;"/>
		</clipPath>
		<g class="st0">
			<defs>
				<polygon id="SVGID_3_" points="617.65,215.32 244.24,213.76 242.65,462.19 616.06,463.76 				"/>
			</defs>
			<use xlink:href="#SVGID_3_"  style="overflow:visible;fill:#FFFFFF;"/>
			<clipPath id="SVGID_4_">
				<use xlink:href="#SVGID_3_"  style="overflow:visible;"/>
			</clipPath>
			<path class="st1" d="M490.42,461.96c21.39,0.09,41.2-13.46,54.37-37.17l0.47-0.85l0.87,0.28c5.18,1.67,10.61,2.53,16.14,2.55
				c29.14,0.12,52.99-23.09,53.17-51.75c0.08-12.89-4.67-25.27-13.39-34.86l-0.64-0.59l0.02-1.18c3.21-8.65,4.9-17.88,5-27.43
				c0-34.88-21.15-63.68-47.14-64.18c-8.69,0.08-17.2,3.45-24.61,9.74l-1.35,1.15l-0.5-1.78c-0.08-0.28-0.17-0.55-0.29-0.83
				c-8.22-23.29-29.23-38.96-52.3-39.05c-19.91-0.08-38.02,10.84-48.45,29.23l-0.93,1.63l-1.03-1.56
				c-8.29-12.53-18.77-19.45-29.5-19.5c-14.7-0.06-28.86,12.86-37.88,34.58l-0.31,0.75l-0.77,0c-25.09-0.11-46.97,14.34-52.05,34.36
				l-0.23,0.92l-0.89,0.01c-34.93,0.45-63.51,27.04-63.72,59.28c-0.21,32.85,28.59,59.69,64.2,59.84
				c12.96,0.05,25.48-3.42,36.21-10.04l1.37-0.85l0.36,1.65c3.85,17.77,14.97,29.74,27.7,29.79c8.73,0.04,16.99-5.59,22.65-15.45
				l1.14-1.99l0.92,2.12c6.94,16.04,18.31,25.64,30.41,25.69c5.83,0.02,11.42-2.06,16.6-6.19l0.84-0.67l0.71,0.82
				C459.6,454.26,474.8,461.9,490.42,461.96"/>
			<path class="st1" d="M480.24,217.28c22.59,0.09,43.16,15.43,51.18,38.17l0.03,0.07l0.03,0.07c0.09,0.22,0.17,0.45,0.24,0.67
				l0.99,3.56l2.71-2.3c7.2-6.11,15.47-9.39,23.92-9.46c25.29,0.49,45.92,28.72,45.93,62.93c-0.1,9.36-1.76,18.44-4.92,26.95
				l-0.63,1.7l1.3,1.18l0.22,0.25c8.49,9.34,13.13,21.4,13.05,33.96c-0.18,27.96-23.5,50.6-51.99,50.48
				c-5.42-0.02-10.73-0.86-15.81-2.5l-1.75-0.57l-0.94,1.69c-12.95,23.32-32.4,36.65-53.36,36.56
				c-15.29-0.06-30.19-7.56-41.96-21.11l-1.43-1.64l-1.68,1.34c-4.98,3.97-10.32,5.97-15.9,5.94c-11.63-0.05-22.6-9.38-29.35-24.96
				l-1.83-4.24l-2.29,3.98c-5.44,9.47-13.33,14.88-21.65,14.85c-12.17-0.05-22.84-11.63-26.56-28.82l-0.71-3.3l-2.74,1.69
				c-10.55,6.52-22.86,9.93-35.62,9.88c-34.96-0.15-63.24-26.42-63.04-58.57c0.2-31.55,28.26-57.58,62.55-58.02l1.77-0.02l0.47-1.85
				c4.94-19.47,26.34-33.53,50.88-33.42l1.53,0.01l0.65-1.51c8.82-21.24,22.58-33.88,36.8-33.82c10.5,0.04,20.37,6.6,28.55,18.97
				l2.06,3.11l1.86-3.27C443.01,227.9,460.75,217.2,480.24,217.28 M480.26,214.75c-20.9-0.09-39.27,11.88-49.46,29.83
				c-8.26-12.48-18.85-19.98-30.45-20.03c-15.88-0.07-30.03,13.84-38.95,35.33l-0.02,0c-26.14-0.11-48.03,15.06-53.16,35.29
				c-35.72,0.46-64.67,27.36-64.88,60.55c-0.21,33.59,29.06,60.96,65.37,61.12c13.6,0.06,26.28-3.72,36.8-10.21
				c3.86,17.81,15.26,30.71,28.83,30.77c9.49,0.04,18.01-6.21,23.66-16.05c6.9,15.92,18.38,26.37,31.47,26.42
				c6.2,0.03,12.09-2.28,17.3-6.44c11.84,13.64,27.06,21.84,43.66,21.91c22.5,0.09,42.58-14.73,55.39-37.79
				c5.18,1.67,10.72,2.58,16.47,2.6c29.83,0.13,54.17-23.6,54.36-53.01c0.09-13.74-5.12-26.29-13.72-35.75
				c-0.12-0.13-0.23-0.28-0.37-0.41c3.13-8.43,4.98-17.88,5.09-27.89c-0.01-35.85-21.47-64.94-48.29-65.46
				c-9.3,0.09-17.99,3.75-25.36,10.01c-0.09-0.33-0.21-0.66-0.35-0.99C525.43,231.34,504.66,214.85,480.26,214.75"/>
		</g>
	</g>
</g>
</svg>
