<?xml version="1.0" encoding="utf-8"?>
<!-- Generator: Adobe Illustrator 16.0.3, SVG Export Plug-In . SVG Version: 6.00 Build 0)  -->
<!DOCTYPE svg PUBLIC "-//W3C//DTD SVG 1.1//EN" "http://www.w3.org/Graphics/SVG/1.1/DTD/svg11.dtd">
<svg version="1.1" id="Layer_1" xmlns="http://www.w3.org/2000/svg" xmlns:xlink="http://www.w3.org/1999/xlink" x="0px" y="0px"
	 width="360px" height="360px" viewBox="0 0 360 360" enable-background="new 0 0 360 360" xml:space="preserve">
<g>
	<path fill="#2D2B7B" d="M164.47,237.96c-36.461,136.08-126.516,84.087-26.898-15.53c-99.617,99.617-151.611,9.561-15.531-26.9
		c-136.08,36.461-136.08-67.524,0-31.061c-136.08-36.464-84.086-126.516,15.531-26.898c-99.617-99.617-9.563-151.61,26.898-15.53
		c-36.461-136.08,67.521-136.08,31.061,0c36.461-136.08,126.515-84.087,26.898,15.53c99.616-99.617,151.611-9.565,15.531,26.898
		c136.08-36.464,136.08,67.521,0,31.061c136.08,36.461,84.085,126.518-15.531,26.9c99.616,99.617,9.563,151.61-26.898,15.53
		C231.991,374.04,128.009,374.04,164.47,237.96z"/>
</g>
<circle fill="#FFCB0E" cx="180" cy="176.718" r="89.881"/>
</svg>
