<?xml version="1.0" encoding="utf-8"?>
<!-- Generator: Adobe Illustrator 16.0.3, SVG Export Plug-In . SVG Version: 6.00 Build 0)  -->
<!DOCTYPE svg PUBLIC "-//W3C//DTD SVG 1.1//EN" "http://www.w3.org/Graphics/SVG/1.1/DTD/svg11.dtd">
<svg version="1.1" id="Layer_1" xmlns="http://www.w3.org/2000/svg" xmlns:xlink="http://www.w3.org/1999/xlink" x="0px" y="0px"
	 width="1524.96px" height="432px" viewBox="0 0 1524.96 432" enable-background="new 0 0 1524.96 432" xml:space="preserve">
<g>
	<g>
		<path fill="#2D2B7B" d="M144.076,308.956c-32.699,122.039-113.462,75.411-24.124-13.929
			c-89.338,89.34-135.968,8.574-13.928-24.125c-122.04,32.699-122.04-60.559,0-27.855c-122.04-32.703-75.41-113.463,13.928-24.123
			c-89.338-89.34-8.575-135.968,24.124-13.929c-32.699-122.039,60.556-122.039,27.855,0c32.7-122.039,113.462-75.411,24.124,13.929
			c89.338-89.34,135.968-8.58,13.928,24.123c122.04-32.703,122.04,60.555,0,27.855c122.04,32.699,75.41,113.465-13.928,24.125
			c89.338,89.34,8.576,135.968-24.124,13.929C204.631,430.995,111.376,430.995,144.076,308.956z"/>
	</g>
	<circle fill="#FFCB0E" cx="158.003" cy="254.032" r="80.607"/>
</g>
<g>
	<g>
		<path fill="#2D2B7B" d="M449.428,214.864c-32.699,122.039-113.462,75.411-24.123-13.929c-89.339,89.34-135.97,8.574-13.929-24.125
			c-122.041,32.699-122.041-60.559,0-27.855c-122.041-32.703-75.411-113.463,13.929-24.123
			c-89.339-89.34-8.576-135.968,24.123-13.929c-32.699-122.039,60.555-122.039,27.855,0
			c32.699-122.039,113.462-75.411,24.124,13.929c89.338-89.34,135.97-8.58,13.929,24.123c122.041-32.703,122.041,60.555,0,27.855
			c122.041,32.699,75.409,113.465-13.929,24.125c89.338,89.34,8.575,135.968-24.124,13.929
			C509.983,336.903,416.729,336.903,449.428,214.864z"/>
	</g>
	<circle fill="#FFCB0E" cx="463.356" cy="159.94" r="80.608"/>
</g>
<g>
	<g>
		<path fill="#2D2B7B" d="M754.756,308.956c-32.701,122.039-113.464,75.411-24.124-13.929c-89.34,89.34-135.968,8.574-13.929-24.125
			c-122.039,32.699-122.039-60.559,0-27.855c-122.039-32.703-75.411-113.463,13.929-24.123
			c-89.34-89.34-8.577-135.968,24.124-13.929c-32.701-122.039,60.555-122.039,27.855,0c32.699-122.039,113.462-75.411,24.124,13.929
			c89.338-89.34,135.968-8.58,13.929,24.123c122.039-32.703,122.039,60.555,0,27.855c122.039,32.699,75.409,113.465-13.929,24.125
			c89.338,89.34,8.575,135.968-24.124,13.929C815.311,430.995,722.055,430.995,754.756,308.956z"/>
	</g>
	<circle fill="#FFCB0E" cx="768.684" cy="254.032" r="80.607"/>
</g>
<g>
	<g>
		<path fill="#2D2B7B" d="M1060.084,214.864c-32.699,122.039-113.462,75.411-24.124-13.929
			c-89.338,89.34-135.968,8.574-13.929-24.125c-122.039,32.699-122.039-60.559,0-27.855
			c-122.039-32.703-75.409-113.463,13.929-24.123c-89.338-89.34-8.575-135.968,24.124-13.929
			c-32.699-122.039,60.555-122.039,27.855,0c32.699-122.039,113.462-75.411,24.124,13.929c89.338-89.34,135.968-8.58,13.929,24.123
			c122.039-32.703,122.039,60.555,0,27.855c122.039,32.699,75.409,113.465-13.929,24.125c89.338,89.34,8.575,135.968-24.124,13.929
			C1120.639,336.903,1027.385,336.903,1060.084,214.864z"/>
	</g>
	<circle fill="#FFCB0E" cx="1074.012" cy="159.94" r="80.607"/>
</g>
<g>
	<g>
		<path fill="#2D2B7B" d="M1365.412,308.956c-32.699,122.039-113.462,75.411-24.124-13.929
			c-89.338,89.34-135.969,8.574-13.928-24.125c-122.041,32.699-122.041-60.559,0-27.855
			c-122.041-32.703-75.41-113.463,13.928-24.123c-89.338-89.34-8.575-135.968,24.124-13.929
			c-32.699-122.039,60.555-122.039,27.855,0c32.699-122.039,113.462-75.411,24.124,13.929c89.338-89.34,135.969-8.58,13.928,24.123
			c122.041-32.703,122.041,60.555,0,27.855c122.041,32.699,75.41,113.465-13.928,24.125c89.338,89.34,8.575,135.968-24.124,13.929
			C1425.966,430.995,1332.712,430.995,1365.412,308.956z"/>
	</g>
	<circle fill="#FFCB0E" cx="1379.339" cy="254.032" r="80.607"/>
</g>
</svg>
