<?xml version="1.0" encoding="utf-8"?>
<!-- Generator: Adobe Illustrator 16.0.3, SVG Export Plug-In . SVG Version: 6.00 Build 0)  -->
<!DOCTYPE svg PUBLIC "-//W3C//DTD SVG 1.1//EN" "http://www.w3.org/Graphics/SVG/1.1/DTD/svg11.dtd">
<svg version="1.1" id="Layer_1" xmlns="http://www.w3.org/2000/svg" xmlns:xlink="http://www.w3.org/1999/xlink" x="0px" y="0px"
	 width="216.089px" height="208.906px" viewBox="0 0 216.089 208.906" enable-background="new 0 0 216.089 208.906"
	 xml:space="preserve">
<g>
	<g>
		<defs>
			<polygon id="SVGID_1_" points="104.99,13.374 14.449,103.915 14.449,103.916 104.99,194.457 195.531,103.916 			"/>
		</defs>
		<clipPath id="SVGID_2_">
			<use xlink:href="#SVGID_1_"  overflow="visible"/>
		</clipPath>
		<path clip-path="url(#SVGID_2_)" fill="#312F7D" d="M117.064,181.362c-0.193,0.193-0.389,0.387-0.585,0.578
			c-3.32,3.236-6.978,6.096-10.869,8.5c-4.652-2.783-8.949-6.183-12.772-10.104c-6.069-6.225-10.7-13.466-13.766-21.523
			c-2.961-7.781-4.335-15.965-4.083-24.324l0.004-0.142l-0.142,0.006c-17.918,0.795-35.372-6.111-47.885-18.949
			c-3.233-3.318-6.094-6.974-8.502-10.867c2.645-4.421,5.85-8.525,9.526-12.202c0.191-0.192,0.384-0.383,0.579-0.572
			c6.225-6.068,13.466-10.7,21.522-13.766c7.782-2.962,15.966-4.336,24.325-4.084l0.142,0.005l-0.006-0.142
			c-0.384-8.646,0.973-17.119,4.032-25.182c3.163-8.334,7.985-15.778,14.333-22.126c0.194-0.194,0.388-0.386,0.585-0.578
			c3.32-3.237,6.977-6.097,10.869-8.5c4.652,2.783,8.949,6.183,12.772,10.104c6.068,6.225,10.699,13.466,13.765,21.521
			c2.961,7.781,4.335,15.966,4.084,24.326l-0.004,0.142l0.142-0.006c17.918-0.796,35.372,6.111,47.885,18.949
			c3.236,3.32,6.096,6.978,8.501,10.869c-2.646,4.421-5.849,8.524-9.525,12.2c-0.191,0.192-0.385,0.382-0.579,0.572
			c-6.224,6.068-13.465,10.7-21.522,13.766c-7.782,2.962-15.966,4.336-24.325,4.084l-0.142-0.004l0.006,0.142
			c0.383,8.646-0.973,17.117-4.031,25.18C128.234,167.57,123.412,175.015,117.064,181.362"/>
		<path clip-path="url(#SVGID_2_)" d="M92.823,26.375l0.187,0.187c0.193-0.193,0.388-0.385,0.584-0.577
			c3.293-3.21,6.919-6.049,10.778-8.441c4.616,2.771,8.88,6.148,12.677,10.042c6.056,6.212,10.677,13.438,13.736,21.477
			c2.956,7.766,4.326,15.933,4.076,24.275l-0.008,0.283l0.283-0.013c8.763-0.388,17.338,1.012,25.488,4.162
			c8.434,3.26,15.936,8.222,22.298,14.749c3.211,3.294,6.05,6.919,8.44,10.777c-2.631,4.385-5.815,8.458-9.465,12.107
			c-0.191,0.191-0.383,0.381-0.577,0.57c-6.211,6.056-13.438,10.678-21.477,13.736c-7.767,2.955-15.933,4.326-24.274,4.075
			l-0.284-0.009l0.013,0.283c0.383,8.629-0.971,17.083-4.024,25.128c-3.156,8.317-7.968,15.746-14.302,22.081
			c-0.193,0.193-0.388,0.385-0.584,0.576c-3.294,3.211-6.92,6.051-10.778,8.441c-4.616-2.771-8.88-6.148-12.677-10.042
			c-6.055-6.212-10.677-13.438-13.736-21.478c-2.956-7.767-4.327-15.933-4.076-24.274l0.009-0.284l-0.283,0.014
			c-8.763,0.389-17.338-1.012-25.488-4.162c-8.434-3.26-15.935-8.222-22.297-14.748c-3.208-3.291-6.048-6.916-8.442-10.776
			c2.632-4.386,5.816-8.459,9.467-12.109c0.191-0.191,0.382-0.381,0.577-0.57c6.211-6.056,13.437-10.677,21.477-13.736
			c7.766-2.955,15.933-4.326,24.274-4.075l0.284,0.008l-0.013-0.283c-0.382-8.628,0.971-17.082,4.023-25.127
			c3.156-8.317,7.968-15.746,14.303-22.081L92.823,26.375 M92.823,26.375C79.818,39.38,73.662,56.698,74.42,73.781
			c-16.505-0.497-33.184,5.447-45.943,17.887c-0.195,0.19-0.388,0.381-0.58,0.572c-3.773,3.772-6.97,7.91-9.587,12.296l-0.002,0.001
			c2.392,3.879,5.248,7.559,8.563,10.959c13.067,13.405,30.646,19.759,47.985,18.989c-0.498,16.504,5.447,33.184,17.887,45.943
			c3.925,4.026,8.258,7.416,12.867,10.166c3.881-2.39,7.56-5.246,10.96-8.561c0.197-0.191,0.393-0.385,0.586-0.579
			c13.005-13.004,19.161-30.322,18.403-47.406c16.504,0.498,33.184-5.446,45.943-17.887c0.195-0.189,0.388-0.38,0.58-0.571
			c3.772-3.772,6.97-7.909,9.587-12.296c-2.391-3.881-5.247-7.56-8.561-10.96c-13.067-13.406-30.647-19.759-47.986-18.989
			c0.496-16.506-5.447-33.184-17.886-45.943c-3.925-4.026-8.258-7.417-12.868-10.167c-3.881,2.391-7.56,5.247-10.96,8.561
			C93.212,25.989,93.017,26.182,92.823,26.375"/>
	</g>
	<g>
		<defs>
			<rect id="SVGID_3_" x="45.234" y="45.457" width="117.263" height="117.334"/>
		</defs>
		<clipPath id="SVGID_4_">
			<use xlink:href="#SVGID_3_"  overflow="visible"/>
		</clipPath>
		<path clip-path="url(#SVGID_4_)" fill="#BB516C" d="M89.956,118.153c2.431,9.798,7.34,18.634,14.033,25.794
			c-10.907,11.825-26.621,19.124-43.972,18.836c-4.4-0.073-8.68-0.631-12.786-1.622c-1.202-4.829-1.799-9.896-1.712-15.106
			c0.274-16.514,7.367-31.314,18.551-41.763c7.185,6.631,16.044,11.487,25.887,13.859V118.153z"/>
		<path clip-path="url(#SVGID_4_)" fill="#BB516C" d="M45.243,60.32c0.073-4.4,0.63-8.68,1.62-12.786h0.002
			c4.83-1.202,9.895-1.8,15.106-1.713c16.514,0.274,31.314,7.366,41.763,18.551c-6.631,7.186-11.487,16.044-13.859,25.887
			c-9.798,2.432-18.636,7.341-25.796,14.033C52.253,93.386,44.955,77.672,45.243,60.32"/>
		<path clip-path="url(#SVGID_4_)" fill="#BB516C" d="M162.489,148c-0.074,4.399-0.63,8.68-1.622,12.786
			c-4.829,1.201-9.895,1.799-15.105,1.712c-16.514-0.274-31.315-7.366-41.763-18.551c6.631-7.186,11.487-16.044,13.859-25.887
			c9.798-2.431,18.636-7.34,25.796-14.033C155.479,114.934,162.778,130.648,162.489,148"/>
		<path clip-path="url(#SVGID_4_)" fill="#BB516C" d="M117.777,90.098c-2.431-9.798-7.34-18.636-14.033-25.796
			c10.906-11.826,26.621-19.124,43.972-18.836c4.4,0.073,8.68,0.63,12.786,1.619v0.003c1.203,4.829,1.8,9.895,1.713,15.105
			c-0.274,16.514-7.367,31.314-18.552,41.764C136.479,97.325,127.621,92.469,117.777,90.098"/>
	</g>
	<g>
		<defs>
			
				<rect id="SVGID_5_" x="63.396" y="64.179" transform="matrix(-0.9999 -0.0139 0.0139 -0.9999 206.0862 210.3786)" width="80.758" height="80.586"/>
		</defs>
		<clipPath id="SVGID_6_">
			<use xlink:href="#SVGID_5_"  overflow="visible"/>
		</clipPath>
		<path clip-path="url(#SVGID_6_)" fill="#FFFFFF" d="M104.019,144.59c-6.855-7.311-11.76-16.271-14.19-25.92l0.001-0.084
			l-0.097-0.024c-9.711-2.309-18.754-7.096-26.161-13.849c7.33-6.844,16.314-11.739,25.993-14.163
			c4.968-1.248,10.114-1.844,15.297-1.772c4.381,0.062,8.74,0.602,12.956,1.605c9.711,2.308,18.755,7.095,26.162,13.848
			c-7.33,6.844-16.314,11.74-25.993,14.163l-0.073,0.019l-0.018,0.073C115.583,128.176,110.786,137.199,104.019,144.59"/>
		<path clip-path="url(#SVGID_6_)" d="M104.86,88.901c4.372,0.061,8.722,0.6,12.929,1.602c9.647,2.293,18.635,7.038,26.007,13.729
			c-7.297,6.781-16.226,11.634-25.841,14.042l-0.146,0.036l-0.035,0.146c-2.297,9.626-7.051,18.594-13.757,25.951
			c-6.789-7.274-11.65-16.173-14.065-25.754l0.002-0.167l-0.193-0.046c-9.647-2.293-18.634-7.038-26.007-13.729
			c7.296-6.781,16.226-11.635,25.841-14.042C94.552,89.425,99.688,88.83,104.86,88.901 M104.863,88.654
			c-5.29-0.074-10.43,0.545-15.329,1.775c-9.938,2.489-18.896,7.485-26.146,14.284c7.312,6.697,16.317,11.592,26.315,13.968v0.002
			c2.495,9.918,7.502,18.854,14.316,26.089c6.711-7.297,11.616-16.282,13.996-26.259c9.939-2.489,18.896-7.484,26.146-14.283
			c-7.312-6.697-16.318-11.593-26.315-13.968C113.676,89.27,109.33,88.717,104.863,88.654"/>
		<path clip-path="url(#SVGID_6_)" fill="#FFFFFF" d="M104.019,144.59c-6.855-7.311-11.76-16.271-14.19-25.92l-0.004-0.019
			c-1.251-4.957-1.849-10.093-1.777-15.265c0.061-4.371,0.602-8.721,1.607-12.928c2.312-9.691,7.109-18.715,13.877-26.105
			c6.858,7.314,11.765,16.28,14.194,25.939l0.018,0.072l0.073,0.018c9.711,2.308,18.755,7.095,26.162,13.848
			c-7.33,6.844-16.314,11.74-25.993,14.163l-0.073,0.019l-0.018,0.073C115.583,128.176,110.786,137.199,104.019,144.59"/>
		<path clip-path="url(#SVGID_6_)" d="M103.533,64.536c6.796,7.28,11.66,16.191,14.073,25.786l0.037,0.146l0.147,0.034
			c9.647,2.293,18.634,7.038,26.007,13.729c-7.297,6.781-16.226,11.634-25.841,14.042l-0.146,0.036l-0.035,0.146
			c-2.297,9.627-7.051,18.595-13.757,25.951c-6.789-7.273-11.65-16.172-14.065-25.752v-0.003l-0.008-0.032
			c-1.249-4.945-1.845-10.07-1.773-15.231c0.061-4.362,0.601-8.703,1.604-12.901C92.072,80.86,96.827,71.893,103.533,64.536
			 M103.531,64.172C96.82,71.468,91.915,80.453,89.534,90.43c-0.995,4.162-1.549,8.498-1.61,12.955
			c-0.074,5.278,0.547,10.408,1.78,15.297v0.002c2.495,9.918,7.502,18.854,14.316,26.089c6.711-7.297,11.616-16.282,13.996-26.259
			c9.939-2.489,18.896-7.484,26.146-14.284c-7.312-6.696-16.318-11.592-26.315-13.967C115.352,80.345,110.344,71.406,103.531,64.172
			"/>
		<path clip-path="url(#SVGID_6_)" fill="#CFA4AD" d="M144.162,104.23c-7.25,6.799-16.207,11.794-26.146,14.283
			c-4.898,1.23-10.039,1.85-15.329,1.776c-4.466-0.063-8.813-0.615-12.983-1.606v-0.002c-9.998-2.376-19.003-7.271-26.315-13.968
			c7.25-6.799,16.207-11.795,26.146-14.284c2.38-9.977,7.285-18.962,13.996-26.258c6.813,7.234,11.821,16.173,14.316,26.091
			C127.844,92.638,136.85,97.533,144.162,104.23"/>
		<path clip-path="url(#SVGID_6_)" fill="#CFA4AD" d="M119.626,105.559c-0.062,4.457-0.616,8.793-1.611,12.955
			c-2.38,9.977-7.285,18.962-13.996,26.259c-6.813-7.234-11.821-16.171-14.316-26.089v-0.002
			c-9.997-2.376-19.003-7.271-26.315-13.968c7.25-6.799,16.207-11.795,26.146-14.284c2.38-9.976,7.286-18.962,13.997-26.258
			c6.813,7.234,11.821,16.173,14.315,26.091C119.08,95.15,119.7,100.28,119.626,105.559"/>
	</g>
	<g>
		<defs>
			
				<rect id="SVGID_7_" x="43.898" y="44.18" transform="matrix(-0.9999 -0.0124 0.0124 -0.9999 205.9123 209.0579)" width="119.417" height="119.416"/>
		</defs>
		<clipPath id="SVGID_8_">
			<use xlink:href="#SVGID_7_"  overflow="visible"/>
		</clipPath>
		<path clip-path="url(#SVGID_8_)" fill="#FFFFFF" d="M163.325,103.44c-10.705,10.091-23.939,17.514-38.631,21.225
			c-3.498,14.788-10.731,28.114-20.64,38.941c-10.09-10.705-17.514-23.936-21.224-38.627v-0.004
			c-14.789-3.498-28.115-10.732-38.942-20.64c10.705-10.091,23.94-17.515,38.631-21.225c3.498-14.789,10.731-28.115,20.64-38.942
			c10.091,10.706,17.515,23.94,21.225,38.632C139.172,86.299,152.499,93.532,163.325,103.44"/>
	</g>
	<g>
		<defs>
			
				<rect id="SVGID_9_" x="80.265" y="80.473" transform="matrix(-1 -0.01 0.01 -1 206.3789 208.8704)" width="46.892" height="46.892"/>
		</defs>
		<clipPath id="SVGID_10_">
			<use xlink:href="#SVGID_9_"  overflow="visible"/>
		</clipPath>
		<path clip-path="url(#SVGID_10_)" fill="#FECA0A" d="M127.143,105.436c-0.065,6.602-0.859,13.026-2.305,19.196
			c-7.232,1.852-14.826,2.798-22.643,2.72c-6.602-0.066-13.027-0.859-19.197-2.303v-0.003c-1.851-7.232-2.797-14.825-2.719-22.644
			c0.066-6.601,0.859-13.026,2.306-19.196c7.232-1.851,14.825-2.797,22.643-2.719c6.601,0.065,13.027,0.858,19.197,2.306
			C126.275,90.025,127.221,97.618,127.143,105.436"/>
	</g>
</g>
</svg>
