<?xml version="1.0" encoding="utf-8"?>
<!-- Generator: Adobe Illustrator 16.0.3, SVG Export Plug-In . SVG Version: 6.00 Build 0)  -->
<!DOCTYPE svg PUBLIC "-//W3C//DTD SVG 1.1//EN" "http://www.w3.org/Graphics/SVG/1.1/DTD/svg11.dtd">
<svg version="1.1" id="Layer_1" xmlns="http://www.w3.org/2000/svg" xmlns:xlink="http://www.w3.org/1999/xlink" x="0px" y="0px"
	 width="720px" height="216px" viewBox="0 0 720 216" enable-background="new 0 0 720 216" xml:space="preserve">
<g>
	<g>
		<path fill="#BB526C" d="M70.447,75.312c-40.609,91.246-94.699,21.673-3.453-4.44c-91.246,26.113-71.942-60.639,1.232-5.537
			c-73.175-55.102,4.989-93.711,4.989-2.465c0-91.246,78.163-52.637,4.989,2.465c73.174-55.102,92.479,31.65,1.232,5.537
			c91.246,26.113,37.155,95.687-3.453,4.44C116.592,166.558,29.837,166.558,70.447,75.312z"/>
		<path fill="none" stroke="#000000" stroke-width="0.4115" stroke-miterlimit="10" d="M70.447,75.312
			c-40.609,91.246-94.699,21.673-3.453-4.44c-91.246,26.113-71.942-60.639,1.232-5.537c-73.175-55.102,4.989-93.711,4.989-2.465
			c0-91.246,78.163-52.637,4.989,2.465c73.174-55.102,92.479,31.65,1.232,5.537c91.246,26.113,37.155,95.687-3.453,4.44
			C116.592,166.558,29.837,166.558,70.447,75.312z"/>
	</g>
	<g>
		<path fill="#2D2B7B" d="M71.238,73.535c-29.005,65.176-67.641,15.48-2.466-3.172c-65.175,18.652-51.386-43.313,0.88-3.955
			c-52.267-39.357,3.563-66.937,3.563-1.761c0-65.176,55.833-37.597,3.564,1.761c52.269-39.357,66.055,22.607,0.88,3.955
			c65.175,18.652,26.541,68.348-2.466,3.172C104.2,138.711,42.233,138.711,71.238,73.535z"/>
	</g>
	<circle fill="#FFCB0E" cx="73.216" cy="69.091" r="24.448"/>
</g>
<g>
	<g>
		<path fill="#BB526C" d="M207.912,140.794c-40.607,91.246-94.698,21.671-3.452-4.44c-91.246,26.111-71.941-60.639,1.232-5.537
			c-73.173-55.102,4.989-93.711,4.989-2.465c0-91.246,78.164-52.637,4.988,2.465c73.176-55.102,92.479,31.648,1.232,5.537
			c91.246,26.111,37.155,95.687-3.452,4.44C254.058,232.04,167.305,232.04,207.912,140.794z"/>
		<path fill="none" stroke="#000000" stroke-width="0.4115" stroke-miterlimit="10" d="M207.912,140.794
			c-40.607,91.246-94.698,21.671-3.452-4.44c-91.246,26.111-71.941-60.639,1.232-5.537c-73.173-55.102,4.989-93.711,4.989-2.465
			c0-91.246,78.164-52.637,4.988,2.465c73.176-55.102,92.479,31.648,1.232,5.537c91.246,26.111,37.155,95.687-3.452,4.44
			C254.058,232.04,167.305,232.04,207.912,140.794z"/>
	</g>
	<g>
		<path fill="#2D2B7B" d="M208.704,139.017c-29.01,65.176-67.643,15.483-2.466-3.171c-65.177,18.654-51.391-43.312,0.88-3.956
			c-52.271-39.355,3.563-66.936,3.563-1.76c0-65.176,55.832-37.596,3.564,1.76c52.268-39.355,66.056,22.61,0.88,3.956
			c65.176,18.654,26.542,68.347-2.466,3.171C241.668,204.192,179.694,204.192,208.704,139.017z"/>
	</g>
	<circle fill="#FFCB0E" cx="210.68" cy="134.573" r="24.448"/>
</g>
<g>
	<g>
		<path fill="#BB526C" d="M347.087,75.313c-40.607,91.246-94.698,21.672-3.452-4.441c-91.246,26.113-71.943-60.639,1.232-5.537
			c-73.176-55.102,4.988-93.711,4.988-2.465c0-91.246,78.161-52.637,4.989,2.465c73.172-55.102,92.479,31.65,1.232,5.537
			c91.246,26.113,37.155,95.688-3.452,4.441C393.232,166.559,306.479,166.559,347.087,75.313z"/>
		<path fill="none" stroke="#000000" stroke-width="0.4115" stroke-miterlimit="10" d="M347.087,75.313
			c-40.607,91.246-94.698,21.672-3.452-4.441c-91.246,26.113-71.943-60.639,1.232-5.537c-73.176-55.102,4.988-93.711,4.988-2.465
			c0-91.246,78.161-52.637,4.989,2.465c73.172-55.102,92.479,31.65,1.232,5.537c91.246,26.113,37.155,95.688-3.452,4.441
			C393.232,166.559,306.479,166.559,347.087,75.313z"/>
	</g>
	<g>
		<path fill="#2D2B7B" d="M347.878,73.535c-29.006,65.176-67.643,15.48-2.466-3.172c-65.177,18.652-51.388-43.313,0.88-3.955
			c-52.268-39.357,3.563-66.937,3.563-1.761c0-65.176,55.829-37.597,3.563,1.761c52.266-39.357,66.058,22.607,0.88,3.955
			c65.178,18.652,26.544,68.348-2.466,3.172C380.843,138.711,318.872,138.711,347.878,73.535z"/>
	</g>
	<circle fill="#FFCB0E" cx="349.856" cy="69.092" r="24.446"/>
</g>
<g>
	<g>
		<path fill="#BB526C" d="M501.731,140.794c-40.607,91.246-94.698,21.671-3.452-4.44c-91.246,26.111-71.943-60.642,1.232-5.538
			c-73.176-55.104,4.988-93.71,4.988-2.464c0-91.246,78.163-52.64,4.989,2.464c73.174-55.104,92.479,31.649,1.232,5.538
			c91.246,26.111,37.155,95.687-3.452,4.44C547.877,232.04,461.124,232.04,501.731,140.794z"/>
		<path fill="none" stroke="#000000" stroke-width="0.4115" stroke-miterlimit="10" d="M501.731,140.794
			c-40.607,91.246-94.698,21.671-3.452-4.44c-91.246,26.111-71.943-60.642,1.232-5.538c-73.176-55.104,4.988-93.71,4.988-2.464
			c0-91.246,78.163-52.64,4.989,2.464c73.174-55.104,92.479,31.649,1.232,5.538c91.246,26.111,37.155,95.687-3.452,4.44
			C547.877,232.04,461.124,232.04,501.731,140.794z"/>
	</g>
	<g>
		<path fill="#2D2B7B" d="M502.522,139.017c-29.008,65.176-67.642,15.48-2.466-3.172c-65.176,18.652-51.388-43.313,0.88-3.955
			c-52.268-39.357,3.563-66.936,3.563-1.76c0-65.176,55.833-37.598,3.563,1.76c52.27-39.357,66.056,22.607,0.88,3.955
			c65.176,18.652,26.542,68.348-2.466,3.172C535.485,204.192,473.515,204.192,502.522,139.017z"/>
	</g>
	<circle fill="#FFCB0E" cx="504.501" cy="134.573" r="24.447"/>
</g>
<g>
	<g>
		<path fill="#BB526C" d="M640.128,75.312c-40.605,91.246-94.698,21.671-3.452-4.44c-91.246,26.111-71.941-60.64,1.232-5.538
			c-73.174-55.102,4.989-93.71,4.989-2.464c0-91.246,78.162-52.638,4.988,2.464c73.174-55.102,92.479,31.649,1.232,5.538
			c91.246,26.111,37.155,95.687-3.452,4.44C686.273,166.558,599.522,166.558,640.128,75.312z"/>
		<path fill="none" stroke="#000000" stroke-width="0.4115" stroke-miterlimit="10" d="M640.128,75.312
			c-40.605,91.246-94.698,21.671-3.452-4.44c-91.246,26.111-71.941-60.64,1.232-5.538c-73.174-55.102,4.989-93.71,4.989-2.464
			c0-91.246,78.162-52.638,4.988,2.464c73.174-55.102,92.479,31.649,1.232,5.538c91.246,26.111,37.155,95.687-3.452,4.44
			C686.273,166.558,599.522,166.558,640.128,75.312z"/>
	</g>
	<g>
		<path fill="#2D2B7B" d="M640.918,73.534c-29.004,65.176-67.642,15.482-2.466-3.172c-65.176,18.654-51.383-43.313,0.881-3.955
			c-52.264-39.357,3.565-66.936,3.563-1.76c0.002-65.176,55.835-37.598,3.563,1.76c52.271-39.357,66.056,22.609,0.88,3.955
			c65.176,18.654,26.544,68.348-2.466,3.172C673.884,138.71,611.914,138.71,640.918,73.534z"/>
	</g>
	<circle fill="#FFCB0E" cx="642.897" cy="69.091" r="24.447"/>
</g>
</svg>
