<?xml version="1.0" encoding="utf-8"?>
<!-- Generator: Adobe Illustrator 16.0.3, SVG Export Plug-In . SVG Version: 6.00 Build 0)  -->
<!DOCTYPE svg PUBLIC "-//W3C//DTD SVG 1.1//EN" "http://www.w3.org/Graphics/SVG/1.1/DTD/svg11.dtd">
<svg version="1.1" xmlns="http://www.w3.org/2000/svg" xmlns:xlink="http://www.w3.org/1999/xlink" x="0px" y="0px" width="216px"
	 height="216px" viewBox="0 0 216 216" enable-background="new 0 0 216 216" xml:space="preserve">
<g id="Layer_2">
	<g>
		<g>
			<path fill="#BB526C" d="M85.83,165.144c-27.217,65.707-98.476-5.553-32.769-32.77c-65.707,27.217-65.707-73.561,0-46.342
				c-65.707-27.219,5.552-98.475,32.769-32.768c-27.217-65.707,73.559-65.707,46.342,0c27.217-65.707,98.476,5.549,32.769,32.768
				c65.707-27.219,65.707,73.559,0,46.342c65.707,27.217-5.552,98.477-32.769,32.77C159.389,230.851,58.613,230.851,85.83,165.144z"
				/>
		</g>
		<circle fill="#FFCB0E" cx="109.001" cy="109.204" r="63.339"/>
	</g>
</g>
<g id="Layer_3" display="none">
	<g display="inline">
		<g>
			<path fill="#BB526C" d="M68.928,162.021c-41.244,66.732-90.401-92.351-23.667-76.597
				c-66.734-15.754,61.963-114.071,61.965-47.337c-0.002-66.734,128.701,31.583,61.969,47.337
				c66.732-15.754,17.574,143.329-23.67,76.597C186.769,228.754,27.684,228.754,68.928,162.021z"/>
		</g>
		<circle fill="#FFCE1C" stroke="#58595B" stroke-width="1.7889" stroke-miterlimit="10" cx="107.227" cy="109.332" r="59.504"/>
	</g>
</g>
<g id="Color_Chart" display="none">
</g>
<g id="Layer_5" display="none">
	<g display="inline">
		<g>
			<path fill="#BB526C" d="M106.204,114.309c-57.57,129.361-134.257,30.728-4.896-6.296c-129.361,37.023-101.993-85.97,1.747-7.851
				c-103.74-78.119,7.073-132.855,7.073-3.494c0-129.361,110.812-74.625,7.073,3.494c103.738-78.119,131.108,44.874,1.747,7.851
				c129.361,37.023,52.678,135.657-4.895,6.296C171.627,243.67,48.634,243.67,106.204,114.309z"/>
			<path fill="none" stroke="#000000" stroke-width="0.5833" stroke-miterlimit="10" d="M106.204,114.309
				c-57.57,129.361-134.257,30.728-4.896-6.296c-129.361,37.023-101.993-85.97,1.747-7.851
				c-103.74-78.119,7.073-132.855,7.073-3.494c0-129.361,110.812-74.625,7.073,3.494c103.738-78.119,131.108,44.874,1.747,7.851
				c129.361,37.023,52.678,135.657-4.895,6.296C171.627,243.67,48.634,243.67,106.204,114.309z"/>
		</g>
		<g>
			<path fill="#2D2B7B" d="M107.325,111.788c-41.121,92.402-95.896,21.95-3.496-4.497c-92.4,26.447-72.852-61.404,1.248-5.607
				c-74.1-55.797,5.052-94.897,5.052-2.495c0-92.402,79.154-53.302,5.053,2.495c74.102-55.797,93.648,32.055,1.248,5.607
				c92.4,26.447,37.625,96.899-3.496,4.497C154.055,204.19,66.204,204.19,107.325,111.788z"/>
		</g>
		<circle fill="#FFCB0E" cx="110.129" cy="105.489" r="34.66"/>
	</g>
</g>
<g id="Layer_6" display="none">
	<g display="inline">
		<g>
			<path fill="#BB526C" d="M116.99,110.593c131.848,75.713-89.864,135.677-14.152,3.827C27.126,246.27-32.838,24.556,99.01,100.269
				c-131.848-75.713,89.865-135.677,14.152-3.827C188.875-35.408,248.838,186.306,116.99,110.593z"/>
			<path fill="none" stroke="#2E2E79" stroke-width="1.5663" stroke-miterlimit="10" d="M116.99,110.593
				c131.848,75.713-89.864,135.677-14.152,3.827C27.126,246.27-32.838,24.556,99.01,100.269
				c-131.848-75.713,89.865-135.677,14.152-3.827C188.875-35.408,248.838,186.306,116.99,110.593z"/>
		</g>
		<g>
			<path fill="#BB526C" d="M111.706,115.111c54.355,141.992-155.38,48.381-13.388-5.975c-141.992,54.355-48.38-155.38,5.976-13.388
				c-54.355-141.992,155.38-48.382,13.388,5.976C259.674,47.367,166.062,257.104,111.706,115.111z"/>
			<path fill="none" stroke="#2E2E79" stroke-width="1.0442" stroke-miterlimit="10" d="M111.706,115.111
				c54.355,141.992-155.38,48.381-13.388-5.975c-141.992,54.355-48.38-155.38,5.976-13.388
				c-54.355-141.992,155.38-48.382,13.388,5.976C259.674,47.367,166.062,257.104,111.706,115.111z"/>
		</g>
		<circle fill="#FFCB0E" stroke="#FFFFFF" stroke-width="5.2209" stroke-miterlimit="10" cx="108" cy="105.431" r="46.926"/>
	</g>
</g>
<g id="Layer_7" display="none">
	<g display="inline">
		<g>
			<path fill="#2D2B7B" d="M98.334,142.857c-21.928,81.838-76.088,50.569-16.178-9.341c-59.91,59.91-91.179,5.751-9.341-16.177
				c-81.838,21.928-81.838-40.61,0-18.681c-81.838-21.93-50.569-76.087,9.341-16.177c-59.91-59.91-5.75-91.178,16.178-9.34
				c-21.928-81.838,40.606-81.838,18.679,0c21.928-81.838,76.087-50.57,16.177,9.34c59.91-59.91,91.179-5.753,9.341,16.177
				c81.838-21.93,81.838,40.608,0,18.681c81.838,21.928,50.569,76.087-9.341,16.177c59.91,59.91,5.751,91.179-16.177,9.341
				C138.94,224.695,76.406,224.695,98.334,142.857z"/>
		</g>
		<circle fill="#FFCB0E" cx="107.673" cy="106.026" r="54.055"/>
	</g>
</g>
<g id="Layer_4" display="none">
	<g display="inline">
		<g>
			<path fill="#BB526C" d="M118.049,113.771c147.379,84.629-100.447,151.655-15.818,4.278
				C17.602,265.426-49.427,17.601,97.952,102.229c-147.379-84.629,100.449-151.656,15.818-4.278
				C198.401-49.427,265.428,198.399,118.049,113.771z"/>
			<path fill="none" stroke="#2E2E79" stroke-width="1.7508" stroke-miterlimit="10" d="M118.049,113.771
				c147.379,84.629-100.447,151.655-15.818,4.278C17.602,265.426-49.427,17.601,97.952,102.229
				c-147.379-84.629,100.449-151.656,15.818-4.278C198.401-49.427,265.428,198.399,118.049,113.771z"/>
		</g>
		<g>
			<path fill="#BB526C" d="M112.143,118.821C172.9,277.538-61.538,172.9,97.179,112.143C-61.538,172.9,43.1-61.538,103.857,97.179
				C43.1-61.538,277.539,43.1,118.822,103.857C277.539,43.1,172.9,277.538,112.143,118.821z"/>
			<path fill="none" stroke="#2E2E79" stroke-width="1.1672" stroke-miterlimit="10" d="M112.143,118.821
				C172.9,277.538-61.538,172.9,97.179,112.143C-61.538,172.9,43.1-61.538,103.857,97.179C43.1-61.538,277.539,43.1,118.822,103.857
				C277.539,43.1,172.9,277.538,112.143,118.821z"/>
		</g>
		<circle fill="#FFCB0E" stroke="#FFFFFF" stroke-width="5.8358" stroke-miterlimit="10" cx="108" cy="108" r="52.453"/>
	</g>
</g>
</svg>
