<?xml version="1.0" encoding="utf-8"?>
<!-- Generator: Adobe Illustrator 16.0.3, SVG Export Plug-In . SVG Version: 6.00 Build 0)  -->
<!DOCTYPE svg PUBLIC "-//W3C//DTD SVG 1.1//EN" "http://www.w3.org/Graphics/SVG/1.1/DTD/svg11.dtd">
<svg version="1.1" id="Layer_1" xmlns="http://www.w3.org/2000/svg" xmlns:xlink="http://www.w3.org/1999/xlink" x="0px" y="0px"
	 width="216px" height="216px" viewBox="0 0 216 216" enable-background="new 0 0 216 216" xml:space="preserve">
<g>
	<defs>
		<rect id="SVGID_1_" x="3" y="8.136" width="210" height="199.727"/>
	</defs>
	<clipPath id="SVGID_2_">
		<use xlink:href="#SVGID_1_"  overflow="visible"/>
	</clipPath>
	<path clip-path="url(#SVGID_2_)" fill="#251182" d="M212.969,84.43v0.006c-2.159,6.645-5.385,13.058-9.71,19.018
		c-13.335,18.351-34.104,28.104-55.171,28.127c17.029,12.407,28.099,32.501,28.099,55.182c0,7.363-1.165,14.456-3.325,21.101
		c-6.987,0-14.091-1.083-21.096-3.358c-21.574-7.009-37.269-23.752-43.797-43.781c-6.528,20.029-22.222,36.772-43.797,43.781
		c-7.003,2.275-14.107,3.358-21.095,3.358c-2.159-6.645-3.325-13.737-3.325-21.101c0-22.681,11.069-42.774,28.1-55.182
		c-21.068-0.022-41.837-9.776-55.171-28.127c-4.325-5.959-7.55-12.378-9.711-19.023c5.652-4.104,12.037-7.407,19.041-9.683
		c21.576-7.01,44.112-2.69,61.169,9.677c-6.491-20.045-3.634-42.813,9.7-61.169c4.331-5.961,9.44-11.009,15.09-15.119
		c5.652,4.11,10.761,9.158,15.091,15.119c13.334,18.355,16.189,41.124,9.7,61.169c17.057-12.367,39.593-16.687,61.169-9.677
		C200.933,77.023,207.318,80.326,212.969,84.43"/>
	<path clip-path="url(#SVGID_2_)" fill="#C6B90B" d="M99.939,123.822c1.769-1.988,4.164-3.455,6.966-4.063
		C104.994,121.899,102.538,123.261,99.939,123.822"/>
	<path clip-path="url(#SVGID_2_)" fill="#C6B90B" d="M106.904,119.759c1.442,2.476,1.978,5.226,1.71,7.872
		C107.273,125.334,106.62,122.609,106.904,119.759"/>
	<path clip-path="url(#SVGID_2_)" fill="#C6B90B" d="M114.928,120.567c-2.599,0.569-5.396,0.348-8.024-0.807
		C109.706,119.15,112.493,119.493,114.928,120.567"/>
	<path clip-path="url(#SVGID_2_)" fill="#C6B90B" d="M106.904,119.759c1.442,2.476,1.978,5.226,1.71,7.872
		C107.273,125.334,106.62,122.609,106.904,119.759"/>
	<path clip-path="url(#SVGID_2_)" fill="#C6B90B" d="M106.904,119.759c0.286-2.851,1.472-5.396,3.247-7.373
		C109.889,115.035,108.812,117.625,106.904,119.759"/>
	<path clip-path="url(#SVGID_2_)" fill="#C6B90B" d="M114.928,120.567c-2.599,0.569-5.396,0.348-8.024-0.807
		C109.706,119.15,112.493,119.493,114.928,120.567"/>
	<path clip-path="url(#SVGID_2_)" fill="#C6B90B" d="M106.904,119.759c0.286-2.851,1.472-5.396,3.247-7.373
		C109.889,115.035,108.812,117.625,106.904,119.759"/>
	<path clip-path="url(#SVGID_2_)" fill="#C6B90B" d="M114.928,120.567c-2.599,0.569-5.396,0.348-8.024-0.807
		C109.706,119.15,112.493,119.493,114.928,120.567"/>
	<path clip-path="url(#SVGID_2_)" fill="#C6B90B" d="M99.939,123.822c1.769-1.988,4.164-3.455,6.966-4.063
		C104.994,121.899,102.538,123.261,99.939,123.822"/>
	<path clip-path="url(#SVGID_2_)" fill="#C6B90B" d="M110.151,112.386c-0.263,2.648-1.34,5.237-3.247,7.373
		C107.19,116.909,108.374,114.363,110.151,112.386"/>
	<path clip-path="url(#SVGID_2_)" fill="#FECA0A" d="M125.124,109.138c0.556-5.467-2.417-10.906-7.721-13.238
		c-5.305-2.333-11.317-0.852-14.974,3.247c-5.028-2.214-11.113-1.067-14.972,3.254c-3.859,4.322-4.309,10.504-1.536,15.25
		c-3.663,4.096-4.451,10.235-1.534,15.24c2.916,5.007,8.658,7.34,14.022,6.176c2.769,4.74,8.365,7.394,14.025,6.164
		c5.66-1.229,9.654-5.963,10.206-11.426c5.365-1.166,9.622-5.668,10.199-11.434C133.419,116.608,130.155,111.347,125.124,109.138
		 M106.904,119.759c-1.911,2.14-4.365,3.502-6.966,4.063C101.708,121.833,104.104,120.367,106.904,119.759
		c0.286-2.851,1.472-5.396,3.247-7.373C109.889,115.035,108.812,117.625,106.904,119.759c2.802-0.608,5.589-0.268,8.023,0.808
		C112.329,121.136,109.531,120.915,106.904,119.759c1.442,2.476,1.978,5.226,1.71,7.872
		C107.273,125.334,106.62,122.609,106.904,119.759"/>
	<path clip-path="url(#SVGID_2_)" fill="#C6B90B" d="M99.939,123.822c1.769-1.988,4.164-3.455,6.966-4.063
		C104.994,121.899,102.538,123.261,99.939,123.822"/>
	<path clip-path="url(#SVGID_2_)" fill="#C6B90B" d="M108.614,127.631c-1.341-2.297-1.995-5.021-1.71-7.871
		C108.347,122.234,108.882,124.985,108.614,127.631"/>
	<path clip-path="url(#SVGID_2_)" fill="#F1F5F6" d="M119.976,117.093c1.586,7.304-3.05,14.511-10.354,16.097
		s-14.51-3.05-16.096-10.354c-1.586-7.304,3.049-14.51,10.353-16.096S118.39,109.79,119.976,117.093"/>
</g>
</svg>
