<?xml version="1.0" encoding="utf-8"?>
<!-- Generator: Adobe Illustrator 16.0.3, SVG Export Plug-In . SVG Version: 6.00 Build 0)  -->
<!DOCTYPE svg PUBLIC "-//W3C//DTD SVG 1.1//EN" "http://www.w3.org/Graphics/SVG/1.1/DTD/svg11.dtd">
<svg version="1.1" id="Layer_1" xmlns="http://www.w3.org/2000/svg" xmlns:xlink="http://www.w3.org/1999/xlink" x="0px" y="0px"
	 width="787.461px" height="190.491px" viewBox="0 0 787.461 190.491" enable-background="new 0 0 787.461 190.491"
	 xml:space="preserve">
<g>
	<g>
		<defs>
			<polygon id="SVGID_11_" points="92.939,39.51 23.88,108.569 23.88,108.569 92.939,177.629 161.999,108.569 			"/>
		</defs>
		<clipPath id="SVGID_2_">
			<use xlink:href="#SVGID_11_"  overflow="visible"/>
		</clipPath>
		<path clip-path="url(#SVGID_2_)" fill="#312F7D" d="M102.148,167.641c-0.147,0.148-0.296,0.295-0.446,0.441
			c-2.532,2.469-5.322,4.649-8.291,6.483c-3.548-2.123-6.826-4.716-9.742-7.706c-4.629-4.749-8.161-10.271-10.5-16.417
			c-2.259-5.936-3.307-12.177-3.115-18.553l0.003-0.108l-0.108,0.005c-13.667,0.606-26.979-4.662-36.524-14.454
			c-2.466-2.53-4.648-5.318-6.485-8.288c2.018-3.373,4.462-6.504,7.266-9.308c0.146-0.146,0.293-0.292,0.442-0.437
			c4.748-4.629,10.271-8.161,16.416-10.5c5.936-2.259,12.178-3.307,18.553-3.114l0.108,0.003l-0.004-0.108
			c-0.293-6.594,0.742-13.056,3.075-19.205c2.412-6.357,6.09-12.036,10.932-16.877c0.148-0.148,0.296-0.295,0.447-0.441
			c2.532-2.468,5.321-4.649,8.29-6.483c3.548,2.123,6.826,4.716,9.742,7.706c4.628,4.748,8.161,10.271,10.499,16.416
			c2.259,5.936,3.307,12.177,3.115,18.555l-0.003,0.107l0.108-0.004c13.667-0.606,26.979,4.661,36.523,14.453
			c2.469,2.532,4.65,5.322,6.484,8.29c-2.018,3.372-4.461,6.502-7.265,9.306c-0.146,0.146-0.294,0.291-0.442,0.437
			c-4.748,4.629-10.271,8.161-16.416,10.5c-5.936,2.259-12.178,3.307-18.554,3.114l-0.108-0.003l0.005,0.108
			c0.292,6.594-0.742,13.056-3.075,19.205C110.668,157.121,106.99,162.8,102.148,167.641"/>
		<path clip-path="url(#SVGID_2_)" d="M83.659,49.427l0.142,0.142c0.147-0.147,0.296-0.293,0.445-0.439
			c2.512-2.449,5.278-4.614,8.221-6.438c3.521,2.113,6.773,4.689,9.669,7.659c4.619,4.738,8.144,10.25,10.477,16.382
			c2.254,5.922,3.3,12.151,3.109,18.515l-0.006,0.217l0.216-0.01c6.684-0.296,13.224,0.771,19.44,3.174
			c6.433,2.486,12.154,6.271,17.007,11.25c2.449,2.513,4.615,5.277,6.438,8.221c-2.006,3.345-4.435,6.451-7.219,9.234
			c-0.146,0.146-0.292,0.29-0.44,0.436c-4.738,4.618-10.25,8.144-16.381,10.478c-5.924,2.253-12.152,3.3-18.515,3.107l-0.217-0.007
			l0.01,0.217c0.292,6.581-0.74,13.029-3.069,19.166c-2.407,6.344-6.077,12.01-10.909,16.842c-0.147,0.147-0.296,0.293-0.446,0.439
			c-2.512,2.449-5.278,4.615-8.221,6.438c-3.521-2.112-6.773-4.689-9.669-7.659c-4.619-4.738-8.144-10.25-10.478-16.382
			c-2.254-5.924-3.3-12.152-3.108-18.515l0.007-0.217l-0.216,0.01c-6.684,0.297-13.225-0.771-19.441-3.174
			c-6.433-2.487-12.154-6.271-17.006-11.249c-2.447-2.511-4.613-5.275-6.439-8.22c2.007-3.345,4.436-6.452,7.22-9.236
			c0.146-0.146,0.292-0.29,0.44-0.435c4.738-4.619,10.249-8.145,16.381-10.479c5.923-2.254,12.152-3.299,18.515-3.107l0.217,0.006
			l-0.01-0.216c-0.292-6.581,0.74-13.029,3.069-19.166c2.407-6.344,6.078-12.01,10.909-16.842L83.659,49.427 M83.659,49.427
			c-9.919,9.919-14.615,23.128-14.037,36.159c-12.589-0.381-25.311,4.153-35.042,13.642c-0.149,0.146-0.296,0.291-0.442,0.437
			c-2.878,2.878-5.316,6.033-7.313,9.379l-0.001,0.001c1.824,2.958,4.003,5.765,6.531,8.358c9.967,10.225,23.375,15.07,36.6,14.483
			c-0.379,12.589,4.155,25.312,13.643,35.043c2.994,3.071,6.299,5.657,9.814,7.754c2.959-1.822,5.766-4.001,8.359-6.529
			c0.15-0.146,0.299-0.293,0.447-0.441c9.919-9.919,14.615-23.128,14.037-36.158c12.588,0.38,25.311-4.154,35.042-13.643
			c0.149-0.146,0.295-0.291,0.442-0.437c2.877-2.877,5.316-6.033,7.313-9.379c-1.824-2.959-4.002-5.766-6.53-8.359
			c-9.966-10.225-23.375-15.07-36.6-14.483c0.378-12.591-4.155-25.312-13.642-35.043c-2.995-3.07-6.299-5.657-9.815-7.755
			c-2.959,1.823-5.766,4.002-8.359,6.529C83.956,49.132,83.807,49.278,83.659,49.427"/>
	</g>
	<g>
		<defs>
			<rect id="SVGID_13_" x="47.361" y="63.981" width="89.441" height="89.494"/>
		</defs>
		<clipPath id="SVGID_4_">
			<use xlink:href="#SVGID_13_"  overflow="visible"/>
		</clipPath>
		<path clip-path="url(#SVGID_4_)" fill="#BB516C" d="M81.472,119.43c1.854,7.473,5.599,14.212,10.704,19.674
			c-8.319,9.02-20.305,14.586-33.54,14.366c-3.356-0.056-6.621-0.48-9.752-1.236c-0.917-3.684-1.373-7.548-1.306-11.522
			c0.209-12.596,5.619-23.885,14.149-31.854c5.48,5.059,12.237,8.762,19.745,10.571V119.43z"/>
		<path clip-path="url(#SVGID_4_)" fill="#BB516C" d="M47.368,75.317c0.056-3.356,0.481-6.62,1.235-9.752h0.002
			c3.684-0.918,7.547-1.373,11.521-1.307c12.596,0.209,23.885,5.618,31.854,14.149c-5.058,5.48-8.762,12.237-10.571,19.745
			c-7.473,1.854-14.214,5.599-19.676,10.703C52.714,100.538,47.147,88.552,47.368,75.317"/>
		<path clip-path="url(#SVGID_4_)" fill="#BB516C" d="M136.796,142.194c-0.056,3.355-0.481,6.62-1.237,9.752
			c-3.683,0.917-7.547,1.372-11.521,1.307c-12.596-0.21-23.885-5.619-31.854-14.149c5.058-5.48,8.762-12.237,10.571-19.745
			c7.473-1.854,14.214-5.599,19.675-10.703C131.45,116.974,137.017,128.96,136.796,142.194"/>
		<path clip-path="url(#SVGID_4_)" fill="#BB516C" d="M102.693,98.03c-1.854-7.474-5.599-14.215-10.704-19.676
			c8.319-9.02,20.305-14.587,33.539-14.367c3.356,0.057,6.621,0.48,9.752,1.235v0.002c0.917,3.684,1.373,7.548,1.307,11.521
			c-0.209,12.596-5.62,23.886-14.15,31.854C116.958,103.543,110.201,99.839,102.693,98.03"/>
	</g>
	<g>
		<defs>
			
				<rect id="SVGID_15_" x="61.214" y="78.261" transform="matrix(-0.9999 -0.0139 0.0139 -0.9999 182.4993 219.2575)" width="61.598" height="61.466"/>
		</defs>
		<clipPath id="SVGID_6_">
			<use xlink:href="#SVGID_15_"  overflow="visible"/>
		</clipPath>
		<path clip-path="url(#SVGID_6_)" fill="#FFFFFF" d="M92.198,139.594c-5.229-5.577-8.97-12.411-10.824-19.771l0.001-0.064
			l-0.074-0.019c-7.407-1.761-14.305-5.412-19.954-10.563c5.59-5.22,12.444-8.954,19.826-10.803
			c3.789-0.952,7.714-1.407,11.667-1.352c3.342,0.046,6.666,0.459,9.882,1.225c7.408,1.76,14.305,5.411,19.955,10.563
			c-5.591,5.219-12.444,8.953-19.826,10.802l-0.056,0.015l-0.014,0.056C101.019,127.073,97.36,133.956,92.198,139.594"/>
		<path clip-path="url(#SVGID_6_)" d="M92.84,97.118c3.335,0.046,6.653,0.457,9.862,1.222c7.358,1.748,14.213,5.367,19.837,10.472
			c-5.566,5.172-12.376,8.873-19.71,10.71l-0.111,0.027l-0.027,0.111c-1.752,7.343-5.378,14.183-10.493,19.795
			c-5.178-5.549-8.886-12.336-10.729-19.644l0.002-0.128l-0.147-0.035c-7.358-1.749-14.213-5.367-19.837-10.472
			c5.565-5.173,12.376-8.874,19.71-10.711C84.978,97.517,88.895,97.063,92.84,97.118 M92.842,96.929
			c-4.034-0.056-7.955,0.416-11.691,1.354c-7.581,1.898-14.413,5.709-19.943,10.896c5.577,5.107,12.446,8.841,20.072,10.653v0.001
			c1.903,7.565,5.723,14.382,10.919,19.899c5.119-5.564,8.86-12.419,10.675-20.028c7.581-1.898,14.413-5.709,19.942-10.895
			c-5.577-5.108-12.446-8.842-20.071-10.653C99.564,97.398,96.25,96.977,92.842,96.929"/>
		<path clip-path="url(#SVGID_6_)" fill="#FFFFFF" d="M92.198,139.594c-5.229-5.577-8.97-12.411-10.824-19.771l-0.003-0.015
			c-0.954-3.781-1.41-7.698-1.355-11.643c0.046-3.334,0.459-6.651,1.226-9.861c1.764-7.391,5.422-14.273,10.584-19.911
			c5.231,5.579,8.974,12.418,10.827,19.785l0.014,0.056l0.056,0.014c7.408,1.76,14.305,5.411,19.955,10.563
			c-5.591,5.219-12.444,8.953-19.826,10.802l-0.056,0.015l-0.014,0.056C101.019,127.073,97.36,133.956,92.198,139.594"/>
		<path clip-path="url(#SVGID_6_)" d="M91.828,78.533c5.184,5.553,8.894,12.351,10.734,19.668l0.028,0.112l0.112,0.026
			c7.358,1.748,14.213,5.367,19.837,10.472c-5.566,5.172-12.376,8.873-19.71,10.71l-0.111,0.027l-0.027,0.111
			c-1.752,7.343-5.378,14.183-10.493,19.794c-5.178-5.548-8.886-12.335-10.729-19.643v-0.002l-0.006-0.024
			c-0.952-3.772-1.407-7.682-1.352-11.617c0.047-3.328,0.458-6.639,1.224-9.841C83.086,90.984,86.713,84.145,91.828,78.533
			 M91.826,78.255c-5.119,5.565-8.86,12.419-10.675,20.028c-0.759,3.174-1.182,6.482-1.229,9.882
			c-0.056,4.025,0.417,7.938,1.358,11.667v0.001c1.903,7.566,5.722,14.382,10.919,19.899c5.119-5.564,8.86-12.419,10.675-20.028
			c7.581-1.898,14.413-5.709,19.942-10.895c-5.577-5.108-12.446-8.842-20.071-10.653C100.843,90.591,97.023,83.773,91.826,78.255"/>
		<path clip-path="url(#SVGID_6_)" fill="#CFA4AD" d="M122.817,108.81c-5.529,5.186-12.361,8.996-19.942,10.895
			c-3.736,0.938-7.657,1.41-11.692,1.354c-3.406-0.048-6.721-0.469-9.903-1.226v-0.001c-7.625-1.813-14.494-5.546-20.072-10.653
			c5.53-5.187,12.362-8.997,19.943-10.896c1.815-7.609,5.556-14.463,10.675-20.028c5.197,5.519,9.017,12.336,10.919,19.901
			C110.371,99.968,117.24,103.701,122.817,108.81"/>
		<path clip-path="url(#SVGID_6_)" fill="#CFA4AD" d="M104.103,109.822c-0.047,3.4-0.47,6.708-1.229,9.882
			c-1.815,7.609-5.557,14.464-10.675,20.028c-5.197-5.518-9.017-12.334-10.919-19.898v-0.002
			c-7.625-1.813-14.494-5.546-20.071-10.653c5.529-5.187,12.361-8.997,19.942-10.896c1.815-7.609,5.557-14.463,10.675-20.028
			c5.197,5.519,9.017,12.336,10.919,19.901C103.686,101.884,104.159,105.797,104.103,109.822"/>
	</g>
	<g>
		<defs>
			
				<rect id="SVGID_17_" x="46.342" y="63.006" transform="matrix(-0.9999 -0.0125 0.0125 -0.9999 182.4091 218.233)" width="91.084" height="91.084"/>
		</defs>
		<clipPath id="SVGID_8_">
			<use xlink:href="#SVGID_17_"  overflow="visible"/>
		</clipPath>
		<path clip-path="url(#SVGID_8_)" fill="#FFFFFF" d="M137.434,108.207c-8.165,7.696-18.26,13.358-29.465,16.188
			c-2.668,11.28-8.186,21.444-15.743,29.703c-7.696-8.166-13.358-18.257-16.188-29.463l0-0.003
			c-11.28-2.668-21.445-8.186-29.703-15.743c8.166-7.696,18.26-13.358,29.466-16.188c2.668-11.28,8.186-21.445,15.743-29.703
			c7.697,8.166,13.359,18.261,16.188,29.467C119.011,95.132,129.176,100.65,137.434,108.207"/>
	</g>
	<g>
		<defs>
			
				<rect id="SVGID_19_" x="74.08" y="90.689" transform="matrix(-1 -0.01 0.01 -1 182.8382 218.0571)" width="35.767" height="35.766"/>
		</defs>
		<clipPath id="SVGID_10_">
			<use xlink:href="#SVGID_19_"  overflow="visible"/>
		</clipPath>
		<path clip-path="url(#SVGID_10_)" fill="#FECA0A" d="M109.836,109.729c-0.05,5.035-0.655,9.937-1.758,14.643
			c-5.517,1.411-11.308,2.134-17.271,2.073c-5.035-0.05-9.936-0.655-14.642-1.755v-0.003c-1.412-5.517-2.134-11.309-2.074-17.271
			c0.05-5.036,0.655-9.937,1.759-14.643c5.516-1.411,11.308-2.134,17.27-2.074c5.035,0.051,9.937,0.656,14.643,1.76
			C109.174,97.975,109.896,103.767,109.836,109.729"/>
	</g>
</g>
<g>
	<g>
		<defs>
			<polygon id="SVGID_21_" points="241.172,11.482 172.113,80.542 172.113,80.542 241.172,149.602 310.232,80.542 			"/>
		</defs>
		<clipPath id="SVGID_12_">
			<use xlink:href="#SVGID_21_"  overflow="visible"/>
		</clipPath>
		<path clip-path="url(#SVGID_12_)" fill="#312F7D" d="M250.381,139.613c-0.147,0.148-0.296,0.295-0.446,0.441
			c-2.532,2.469-5.322,4.649-8.291,6.483c-3.548-2.123-6.826-4.716-9.742-7.706c-4.629-4.749-8.161-10.271-10.5-16.417
			c-2.259-5.936-3.307-12.178-3.115-18.554l0.003-0.107l-0.108,0.005c-13.667,0.605-26.979-4.662-36.524-14.454
			c-2.466-2.53-4.648-5.318-6.485-8.288c2.018-3.373,4.462-6.504,7.267-9.308c0.146-0.146,0.293-0.292,0.441-0.437
			c4.748-4.629,10.271-8.161,16.416-10.5c5.936-2.259,12.178-3.307,18.554-3.114l0.108,0.003l-0.004-0.108
			c-0.293-6.594,0.742-13.056,3.075-19.206c2.412-6.356,6.09-12.035,10.932-16.876c0.147-0.148,0.296-0.295,0.446-0.441
			c2.532-2.468,5.321-4.649,8.29-6.483c3.548,2.123,6.826,4.716,9.742,7.706c4.628,4.748,8.161,10.271,10.499,16.416
			c2.259,5.935,3.307,12.177,3.115,18.555l-0.003,0.107l0.108-0.005c13.667-0.605,26.98,4.662,36.524,14.454
			c2.468,2.532,4.649,5.322,6.483,8.29c-2.017,3.372-4.46,6.502-7.265,9.306c-0.146,0.146-0.293,0.291-0.441,0.437
			c-4.748,4.629-10.271,8.161-16.416,10.5c-5.936,2.259-12.178,3.307-18.554,3.114l-0.108-0.003l0.005,0.108
			c0.292,6.594-0.742,13.056-3.075,19.205C258.901,129.094,255.223,134.772,250.381,139.613"/>
		<path clip-path="url(#SVGID_12_)" d="M231.892,21.399l0.142,0.142c0.147-0.147,0.296-0.293,0.445-0.439
			c2.512-2.449,5.278-4.615,8.221-6.438c3.521,2.113,6.773,4.689,9.669,7.659c4.619,4.738,8.144,10.25,10.477,16.382
			c2.254,5.922,3.299,12.151,3.108,18.515l-0.006,0.217l0.215-0.01c6.684-0.297,13.225,0.771,19.441,3.174
			c6.433,2.486,12.155,6.271,17.007,11.249c2.449,2.513,4.615,5.278,6.438,8.222c-2.007,3.345-4.436,6.451-7.219,9.234
			c-0.146,0.146-0.292,0.29-0.44,0.436c-4.738,4.618-10.25,8.144-16.381,10.478c-5.924,2.253-12.153,3.299-18.515,3.107
			l-0.217-0.007l0.01,0.217c0.292,6.581-0.741,13.029-3.069,19.166c-2.407,6.344-6.077,12.01-10.909,16.842
			c-0.147,0.147-0.296,0.293-0.445,0.439c-2.513,2.449-5.278,4.615-8.221,6.438c-3.521-2.113-6.773-4.689-9.669-7.659
			c-4.619-4.738-8.144-10.25-10.478-16.382c-2.254-5.924-3.3-12.152-3.108-18.515l0.007-0.217l-0.216,0.01
			c-6.684,0.297-13.224-0.771-19.441-3.174c-6.433-2.487-12.154-6.271-17.006-11.249c-2.447-2.511-4.613-5.275-6.439-8.221
			c2.007-3.344,4.436-6.451,7.22-9.235c0.146-0.146,0.292-0.29,0.44-0.436c4.738-4.618,10.25-8.144,16.381-10.478
			c5.923-2.254,12.152-3.299,18.515-3.107l0.217,0.006l-0.01-0.216c-0.292-6.581,0.74-13.029,3.069-19.166
			c2.407-6.344,6.078-12.01,10.909-16.842L231.892,21.399 M231.892,21.399c-9.919,9.919-14.615,23.128-14.037,36.158
			c-12.589-0.38-25.311,4.154-35.042,13.643c-0.149,0.146-0.296,0.291-0.442,0.437c-2.877,2.878-5.316,6.033-7.312,9.378
			l-0.001,0.002c1.824,2.958,4.003,5.765,6.53,8.358c9.967,10.225,23.375,15.07,36.601,14.483
			c-0.38,12.589,4.154,25.312,13.643,35.043c2.994,3.07,6.299,5.657,9.814,7.754c2.96-1.822,5.766-4.001,8.36-6.529
			c0.15-0.146,0.299-0.293,0.447-0.441c9.919-9.919,14.615-23.128,14.037-36.158c12.588,0.38,25.311-4.154,35.043-13.643
			c0.149-0.146,0.295-0.291,0.442-0.437c2.877-2.878,5.316-6.033,7.312-9.379c-1.823-2.96-4.002-5.766-6.53-8.359
			c-9.966-10.225-23.375-15.07-36.6-14.484c0.378-12.59-4.155-25.311-13.642-35.042c-2.995-3.07-6.299-5.657-9.815-7.755
			c-2.96,1.823-5.767,4.002-8.36,6.529C232.189,21.104,232.04,21.251,231.892,21.399"/>
	</g>
	<g>
		<defs>
			<rect id="SVGID_23_" x="195.594" y="35.954" width="89.441" height="89.494"/>
		</defs>
		<clipPath id="SVGID_14_">
			<use xlink:href="#SVGID_23_"  overflow="visible"/>
		</clipPath>
		<path clip-path="url(#SVGID_14_)" fill="#BB516C" d="M229.705,91.402c1.854,7.473,5.599,14.212,10.704,19.674
			c-8.319,9.02-20.305,14.586-33.54,14.366c-3.356-0.056-6.62-0.48-9.752-1.237c-0.917-3.684-1.373-7.547-1.306-11.522
			c0.209-12.595,5.619-23.884,14.149-31.854c5.48,5.058,12.238,8.762,19.745,10.571V91.402z"/>
		<path clip-path="url(#SVGID_14_)" fill="#BB516C" d="M195.601,47.29c0.056-3.356,0.481-6.62,1.235-9.753h0.002
			c3.684-0.917,7.547-1.372,11.522-1.306c12.596,0.209,23.884,5.618,31.854,14.149c-5.058,5.48-8.762,12.237-10.571,19.745
			c-7.473,1.854-14.214,5.599-19.676,10.703C200.947,72.511,195.381,60.524,195.601,47.29"/>
		<path clip-path="url(#SVGID_14_)" fill="#BB516C" d="M285.03,114.167c-0.056,3.355-0.481,6.62-1.238,9.752
			c-3.684,0.917-7.547,1.372-11.521,1.307c-12.596-0.21-23.885-5.619-31.854-14.149c5.058-5.48,8.762-12.237,10.571-19.745
			c7.473-1.854,14.214-5.599,19.675-10.704C279.683,88.946,285.25,100.933,285.03,114.167"/>
		<path clip-path="url(#SVGID_14_)" fill="#BB516C" d="M250.926,70.003c-1.854-7.474-5.599-14.215-10.704-19.676
			c8.319-9.02,20.305-14.587,33.539-14.367c3.356,0.057,6.621,0.48,9.753,1.235v0.002c0.917,3.684,1.373,7.547,1.307,11.521
			c-0.209,12.596-5.62,23.885-14.15,31.854C265.19,75.516,258.434,71.812,250.926,70.003"/>
	</g>
	<g>
		<defs>
			
				<rect id="SVGID_25_" x="209.447" y="50.233" transform="matrix(-0.9999 -0.0139 0.0139 -0.9999 479.3414 165.269)" width="61.597" height="61.466"/>
		</defs>
		<clipPath id="SVGID_16_">
			<use xlink:href="#SVGID_25_"  overflow="visible"/>
		</clipPath>
		<path clip-path="url(#SVGID_16_)" fill="#FFFFFF" d="M240.431,111.566c-5.228-5.577-8.97-12.411-10.823-19.771l0-0.063
			l-0.073-0.019c-7.408-1.761-14.305-5.412-19.955-10.563c5.591-5.22,12.444-8.954,19.826-10.803
			c3.789-0.952,7.714-1.407,11.667-1.352c3.342,0.046,6.667,0.458,9.882,1.225c7.408,1.76,14.305,5.411,19.955,10.563
			c-5.591,5.219-12.443,8.953-19.826,10.802l-0.056,0.014l-0.014,0.057C249.252,99.046,245.593,105.929,240.431,111.566"/>
		<path clip-path="url(#SVGID_16_)" d="M241.073,69.09c3.334,0.047,6.652,0.458,9.862,1.222c7.358,1.749,14.213,5.368,19.836,10.473
			c-5.565,5.172-12.376,8.873-19.71,10.71l-0.111,0.027l-0.027,0.111c-1.751,7.343-5.378,14.183-10.493,19.795
			c-5.178-5.549-8.886-12.336-10.729-19.644l0.002-0.128l-0.147-0.035c-7.358-1.749-14.213-5.367-19.837-10.472
			c5.565-5.173,12.376-8.874,19.71-10.711C233.211,69.489,237.128,69.035,241.073,69.09 M241.076,68.901
			c-4.035-0.056-7.956,0.416-11.692,1.354c-7.581,1.898-14.413,5.709-19.942,10.896c5.577,5.107,12.446,8.841,20.071,10.653v0.001
			c1.903,7.565,5.723,14.382,10.919,19.899c5.119-5.565,8.86-12.419,10.675-20.028c7.581-1.898,14.413-5.709,19.943-10.895
			c-5.577-5.108-12.446-8.842-20.072-10.653C247.797,69.371,244.482,68.949,241.076,68.901"/>
		<path clip-path="url(#SVGID_16_)" fill="#FFFFFF" d="M240.431,111.566c-5.228-5.577-8.97-12.411-10.823-19.771l-0.003-0.014
			c-0.954-3.781-1.41-7.698-1.355-11.643c0.046-3.334,0.459-6.651,1.226-9.861c1.764-7.391,5.422-14.273,10.584-19.911
			c5.231,5.579,8.974,12.418,10.827,19.785l0.014,0.056l0.056,0.014c7.408,1.76,14.305,5.411,19.955,10.563
			c-5.591,5.219-12.443,8.953-19.826,10.802l-0.056,0.014l-0.014,0.057C249.252,99.046,245.593,105.929,240.431,111.566"/>
		<path clip-path="url(#SVGID_16_)" d="M240.061,50.506c5.184,5.553,8.894,12.351,10.734,19.668l0.028,0.111l0.112,0.026
			c7.357,1.749,14.212,5.368,19.836,10.473c-5.565,5.172-12.376,8.873-19.71,10.71l-0.111,0.027l-0.027,0.111
			c-1.751,7.343-5.378,14.183-10.493,19.794c-5.178-5.548-8.885-12.335-10.728-19.643v-0.002l-0.006-0.024
			c-0.952-3.772-1.407-7.682-1.352-11.617c0.046-3.328,0.458-6.639,1.224-9.841C231.319,62.957,234.946,56.117,240.061,50.506
			 M240.059,50.228c-5.119,5.565-8.86,12.419-10.675,20.028c-0.759,3.174-1.182,6.481-1.229,9.882
			c-0.056,4.025,0.417,7.938,1.357,11.667v0.001c1.903,7.565,5.723,14.382,10.919,19.899c5.119-5.565,8.86-12.419,10.675-20.028
			c7.581-1.898,14.413-5.709,19.943-10.895c-5.577-5.108-12.446-8.842-20.072-10.653C249.076,62.563,245.256,55.746,240.059,50.228"
			/>
		<path clip-path="url(#SVGID_16_)" fill="#CFA4AD" d="M271.05,80.782c-5.53,5.186-12.362,8.996-19.943,10.895
			c-3.736,0.938-7.657,1.41-11.692,1.354c-3.406-0.048-6.721-0.47-9.903-1.226v-0.001c-7.625-1.813-14.494-5.546-20.071-10.653
			c5.529-5.187,12.362-8.997,19.942-10.896c1.815-7.609,5.557-14.463,10.675-20.028c5.197,5.519,9.017,12.336,10.92,19.901
			C258.604,71.94,265.473,75.674,271.05,80.782"/>
		<path clip-path="url(#SVGID_16_)" fill="#CFA4AD" d="M252.336,81.795c-0.047,3.399-0.469,6.707-1.229,9.882
			c-1.815,7.609-5.557,14.463-10.675,20.028c-5.197-5.518-9.016-12.334-10.919-19.898v-0.002
			c-7.625-1.813-14.494-5.546-20.071-10.653c5.529-5.187,12.361-8.997,19.942-10.896c1.815-7.609,5.557-14.463,10.675-20.028
			c5.197,5.519,9.017,12.336,10.919,19.901C251.919,73.856,252.393,77.77,252.336,81.795"/>
	</g>
	<g>
		<defs>
			
				<rect id="SVGID_27_" x="194.575" y="34.979" transform="matrix(-0.9999 -0.0125 0.0125 -0.9999 479.2126 164.0272)" width="91.084" height="91.084"/>
		</defs>
		<clipPath id="SVGID_18_">
			<use xlink:href="#SVGID_27_"  overflow="visible"/>
		</clipPath>
		<path clip-path="url(#SVGID_18_)" fill="#FFFFFF" d="M285.667,80.18c-8.166,7.696-18.26,13.358-29.466,16.188
			c-2.667,11.28-8.185,21.444-15.743,29.703c-7.696-8.166-13.359-18.258-16.189-29.463v-0.003
			c-11.28-2.668-21.444-8.186-29.703-15.743c8.166-7.696,18.26-13.358,29.466-16.188c2.668-11.28,8.186-21.445,15.743-29.703
			c7.697,8.166,13.359,18.261,16.189,29.466C267.244,67.104,277.409,72.623,285.667,80.18"/>
	</g>
	<g>
		<defs>
			
				<rect id="SVGID_29_" x="222.314" y="62.661" transform="matrix(-1 -0.01 0.01 -1 479.5771 163.4852)" width="35.766" height="35.766"/>
		</defs>
		<clipPath id="SVGID_20_">
			<use xlink:href="#SVGID_29_"  overflow="visible"/>
		</clipPath>
		<path clip-path="url(#SVGID_20_)" fill="#FECA0A" d="M258.069,81.701c-0.05,5.035-0.655,9.936-1.758,14.643
			c-5.516,1.411-11.308,2.134-17.271,2.073c-5.035-0.05-9.936-0.655-14.642-1.755v-0.003c-1.412-5.517-2.134-11.309-2.074-17.271
			c0.051-5.036,0.655-9.937,1.759-14.643c5.516-1.411,11.308-2.134,17.271-2.074c5.035,0.051,9.936,0.655,14.642,1.76
			C257.408,69.947,258.129,75.738,258.069,81.701"/>
	</g>
</g>
<g>
	<g>
		<defs>
			<polygon id="SVGID_31_" points="389.405,39.51 320.346,108.569 320.346,108.569 389.405,177.629 458.465,108.569 			"/>
		</defs>
		<clipPath id="SVGID_22_">
			<use xlink:href="#SVGID_31_"  overflow="visible"/>
		</clipPath>
		<path clip-path="url(#SVGID_22_)" fill="#312F7D" d="M398.614,167.641c-0.147,0.148-0.297,0.295-0.447,0.441
			c-2.531,2.468-5.321,4.649-8.289,6.483c-3.55-2.123-6.826-4.716-9.742-7.706c-4.629-4.749-8.161-10.271-10.5-16.417
			c-2.26-5.936-3.307-12.178-3.115-18.554l0.004-0.107l-0.108,0.005c-13.667,0.605-26.979-4.662-36.523-14.454
			c-2.467-2.53-4.648-5.318-6.485-8.288c2.018-3.373,4.462-6.504,7.267-9.308c0.146-0.146,0.293-0.292,0.441-0.437
			c4.748-4.629,10.271-8.161,16.416-10.5c5.937-2.259,12.179-3.307,18.554-3.114l0.108,0.003l-0.005-0.108
			c-0.293-6.594,0.742-13.056,3.075-19.206c2.412-6.356,6.09-12.035,10.932-16.876c0.148-0.148,0.297-0.295,0.447-0.441
			c2.531-2.469,5.321-4.649,8.289-6.483c3.549,2.123,6.826,4.716,9.742,7.706c4.629,4.748,8.161,10.271,10.5,16.416
			c2.259,5.935,3.307,12.177,3.115,18.555l-0.004,0.107l0.108-0.005c13.667-0.605,26.979,4.662,36.523,14.454
			c2.469,2.532,4.65,5.322,6.484,8.29c-2.018,3.372-4.461,6.502-7.266,9.306c-0.146,0.146-0.293,0.291-0.441,0.437
			c-4.747,4.629-10.271,8.161-16.416,10.5c-5.937,2.259-12.178,3.307-18.554,3.114l-0.108-0.003l0.005,0.108
			c0.293,6.594-0.742,13.056-3.075,19.205C407.134,157.121,403.456,162.8,398.614,167.641"/>
		<path clip-path="url(#SVGID_22_)" d="M380.125,49.427l0.142,0.142c0.147-0.147,0.296-0.293,0.445-0.439
			c2.513-2.449,5.278-4.615,8.221-6.438c3.521,2.113,6.774,4.689,9.67,7.659c4.618,4.738,8.144,10.25,10.477,16.382
			c2.255,5.922,3.3,12.151,3.109,18.515l-0.007,0.217l0.216-0.01c6.685-0.297,13.225,0.771,19.441,3.174
			c6.433,2.486,12.154,6.271,17.007,11.249c2.449,2.513,4.614,5.278,6.438,8.222c-2.007,3.345-4.436,6.451-7.22,9.234
			c-0.146,0.146-0.292,0.29-0.44,0.436c-4.737,4.618-10.249,8.144-16.381,10.478c-5.925,2.253-12.153,3.299-18.516,3.107
			l-0.217-0.007l0.01,0.217c0.293,6.581-0.74,13.029-3.069,19.166c-2.406,6.344-6.077,12.01-10.908,16.842
			c-0.147,0.147-0.296,0.293-0.445,0.439c-2.513,2.449-5.278,4.615-8.221,6.438c-3.521-2.113-6.774-4.689-9.67-7.659
			c-4.618-4.738-8.144-10.25-10.478-16.382c-2.255-5.924-3.3-12.152-3.108-18.515l0.007-0.217l-0.216,0.01
			c-6.684,0.297-13.225-0.771-19.441-3.174c-6.433-2.487-12.153-6.271-17.006-11.249c-2.447-2.511-4.613-5.275-6.439-8.221
			c2.007-3.344,4.436-6.451,7.221-9.235c0.146-0.146,0.291-0.29,0.439-0.436c4.738-4.618,10.249-8.144,16.381-10.478
			c5.924-2.254,12.153-3.299,18.516-3.107l0.217,0.006l-0.01-0.216c-0.293-6.581,0.74-13.029,3.068-19.166
			c2.407-6.344,6.078-12.01,10.909-16.842L380.125,49.427 M380.125,49.427c-9.92,9.919-14.615,23.128-14.037,36.158
			c-12.589-0.38-25.311,4.154-35.043,13.643c-0.148,0.146-0.295,0.291-0.442,0.437c-2.878,2.878-5.316,6.033-7.312,9.378
			l-0.001,0.002c1.824,2.958,4.003,5.765,6.53,8.358c9.967,10.225,23.375,15.07,36.601,14.483
			c-0.38,12.589,4.154,25.312,13.643,35.043c2.994,3.07,6.299,5.657,9.814,7.754c2.96-1.822,5.767-4.001,8.359-6.529
			c0.15-0.146,0.3-0.293,0.447-0.441c9.92-9.919,14.615-23.128,14.037-36.158c12.588,0.38,25.311-4.154,35.043-13.643
			c0.148-0.146,0.296-0.291,0.442-0.437c2.877-2.878,5.316-6.033,7.313-9.379c-1.823-2.96-4.002-5.766-6.53-8.359
			c-9.966-10.225-23.376-15.07-36.601-14.484c0.378-12.59-4.154-25.311-13.642-35.042c-2.994-3.07-6.3-5.657-9.815-7.755
			c-2.96,1.823-5.767,4.002-8.359,6.529C380.422,49.132,380.272,49.278,380.125,49.427"/>
	</g>
	<g>
		<defs>
			<rect id="SVGID_33_" x="343.827" y="63.981" width="89.44" height="89.494"/>
		</defs>
		<clipPath id="SVGID_24_">
			<use xlink:href="#SVGID_33_"  overflow="visible"/>
		</clipPath>
		<path clip-path="url(#SVGID_24_)" fill="#BB516C" d="M377.938,119.43c1.854,7.473,5.599,14.212,10.704,19.673
			c-8.319,9.021-20.305,14.587-33.54,14.367c-3.355-0.056-6.62-0.48-9.753-1.237c-0.916-3.684-1.372-7.547-1.306-11.522
			c0.209-12.595,5.619-23.884,14.149-31.854c5.48,5.058,12.237,8.762,19.745,10.571V119.43z"/>
		<path clip-path="url(#SVGID_24_)" fill="#BB516C" d="M343.833,75.317c0.056-3.356,0.48-6.62,1.235-9.753h0.002
			c3.684-0.917,7.547-1.372,11.521-1.306c12.596,0.209,23.885,5.618,31.854,14.149c-5.058,5.48-8.762,12.237-10.57,19.745
			c-7.474,1.854-14.215,5.599-19.676,10.703C349.18,100.538,343.613,88.552,343.833,75.317"/>
		<path clip-path="url(#SVGID_24_)" fill="#BB516C" d="M433.263,142.194c-0.057,3.355-0.481,6.62-1.238,9.752
			c-3.684,0.917-7.548,1.372-11.521,1.307c-12.596-0.21-23.886-5.619-31.854-14.15c5.059-5.479,8.762-12.236,10.57-19.745
			c7.475-1.854,14.215-5.598,19.676-10.703C427.915,116.974,433.482,128.96,433.263,142.194"/>
		<path clip-path="url(#SVGID_24_)" fill="#BB516C" d="M399.158,98.03c-1.854-7.474-5.6-14.215-10.703-19.676
			c8.318-9.02,20.305-14.587,33.538-14.367c3.357,0.057,6.622,0.48,9.753,1.235v0.002c0.918,3.684,1.373,7.547,1.308,11.521
			c-0.21,12.596-5.62,23.885-14.15,31.854C413.423,103.543,406.666,99.839,399.158,98.03"/>
	</g>
	<g>
		<defs>
			
				<rect id="SVGID_35_" x="357.679" y="78.261" transform="matrix(-0.9999 -0.0139 0.0139 -0.9999 775.4012 223.3843)" width="61.598" height="61.466"/>
		</defs>
		<clipPath id="SVGID_26_">
			<use xlink:href="#SVGID_35_"  overflow="visible"/>
		</clipPath>
		<path clip-path="url(#SVGID_26_)" fill="#FFFFFF" d="M388.664,139.594c-5.229-5.577-8.971-12.411-10.824-19.771l0.001-0.063
			l-0.073-0.019c-7.407-1.761-14.305-5.412-19.955-10.563c5.592-5.221,12.444-8.954,19.826-10.804
			c3.79-0.951,7.715-1.406,11.668-1.351c3.342,0.046,6.667,0.458,9.883,1.225c7.406,1.76,14.304,5.411,19.954,10.563
			c-5.592,5.219-12.444,8.953-19.827,10.802l-0.055,0.014l-0.015,0.057C397.484,127.073,393.825,133.956,388.664,139.594"/>
		<path clip-path="url(#SVGID_26_)" d="M389.306,97.117c3.334,0.047,6.652,0.458,9.861,1.222
			c7.359,1.749,14.214,5.368,19.837,10.473c-5.565,5.172-12.376,8.873-19.71,10.71l-0.111,0.027l-0.027,0.111
			c-1.751,7.343-5.378,14.183-10.491,19.795c-5.179-5.549-8.887-12.336-10.729-19.644l0.002-0.128l-0.147-0.035
			c-7.358-1.749-14.213-5.368-19.837-10.472c5.565-5.173,12.376-8.874,19.71-10.711C381.443,97.517,385.36,97.063,389.306,97.117
			 M389.308,96.929c-4.034-0.056-7.955,0.416-11.691,1.354c-7.58,1.898-14.413,5.709-19.942,10.896
			c5.577,5.107,12.446,8.841,20.071,10.653v0.001c1.903,7.565,5.723,14.382,10.92,19.899c5.118-5.565,8.859-12.419,10.675-20.028
			c7.581-1.898,14.413-5.709,19.942-10.895c-5.577-5.108-12.446-8.843-20.071-10.653C396.029,97.398,392.715,96.977,389.308,96.929"
			/>
		<path clip-path="url(#SVGID_26_)" fill="#FFFFFF" d="M388.664,139.594c-5.229-5.577-8.971-12.411-10.824-19.771l-0.003-0.014
			c-0.954-3.781-1.409-7.698-1.354-11.643c0.046-3.334,0.458-6.651,1.227-9.861c1.763-7.391,5.422-14.273,10.584-19.911
			c5.23,5.579,8.974,12.418,10.826,19.785l0.014,0.056l0.057,0.014c7.406,1.76,14.304,5.411,19.954,10.563
			c-5.592,5.219-12.444,8.953-19.827,10.802l-0.055,0.014l-0.015,0.057C397.484,127.073,393.825,133.956,388.664,139.594"/>
		<path clip-path="url(#SVGID_26_)" d="M388.294,78.533c5.183,5.553,8.893,12.351,10.732,19.668l0.029,0.111l0.111,0.026
			c7.358,1.749,14.214,5.368,19.837,10.473c-5.565,5.172-12.376,8.873-19.71,10.71l-0.111,0.027l-0.027,0.111
			c-1.751,7.343-5.378,14.183-10.492,19.794c-5.178-5.548-8.886-12.335-10.729-19.643v-0.002l-0.006-0.024
			c-0.952-3.772-1.406-7.682-1.353-11.617c0.047-3.328,0.459-6.64,1.225-9.841C379.552,90.984,383.179,84.145,388.294,78.533
			 M388.292,78.255c-5.119,5.565-8.86,12.419-10.676,20.028c-0.759,3.174-1.182,6.481-1.229,9.882
			c-0.057,4.025,0.417,7.938,1.357,11.667v0.001c1.903,7.565,5.723,14.382,10.92,19.899c5.118-5.565,8.859-12.419,10.675-20.028
			c7.581-1.898,14.413-5.709,19.942-10.895c-5.577-5.108-12.446-8.843-20.071-10.653C397.308,90.591,393.488,83.773,388.292,78.255"
			/>
		<path clip-path="url(#SVGID_26_)" fill="#CFA4AD" d="M419.282,108.81c-5.529,5.186-12.361,8.996-19.942,10.895
			c-3.736,0.938-7.657,1.41-11.691,1.354c-3.406-0.048-6.722-0.47-9.903-1.226v-0.001c-7.625-1.813-14.494-5.546-20.071-10.653
			c5.529-5.187,12.362-8.997,19.942-10.896c1.815-7.609,5.557-14.463,10.676-20.028c5.196,5.519,9.016,12.336,10.919,19.901
			C406.836,99.967,413.705,103.701,419.282,108.81"/>
		<path clip-path="url(#SVGID_26_)" fill="#CFA4AD" d="M400.568,109.822c-0.047,3.399-0.469,6.707-1.229,9.882
			c-1.815,7.609-5.557,14.463-10.675,20.028c-5.197-5.518-9.017-12.334-10.92-19.898v-0.002
			c-7.625-1.813-14.494-5.546-20.071-10.653c5.529-5.187,12.361-8.997,19.942-10.896c1.815-7.609,5.557-14.463,10.676-20.028
			c5.196,5.519,9.016,12.336,10.919,19.901C400.151,101.884,400.624,105.797,400.568,109.822"/>
	</g>
	<g>
		<defs>
			
				<rect id="SVGID_37_" x="342.808" y="63.006" transform="matrix(-0.9999 -0.0125 0.0125 -0.9999 775.3177 221.9266)" width="91.083" height="91.084"/>
		</defs>
		<clipPath id="SVGID_28_">
			<use xlink:href="#SVGID_37_"  overflow="visible"/>
		</clipPath>
		<path clip-path="url(#SVGID_28_)" fill="#FFFFFF" d="M433.899,108.207c-8.165,7.696-18.26,13.358-29.466,16.188
			c-2.667,11.28-8.186,21.444-15.742,29.703c-7.697-8.166-13.358-18.258-16.189-29.463v-0.003
			c-11.279-2.668-21.443-8.186-29.702-15.743c8.165-7.696,18.26-13.358,29.465-16.188c2.669-11.28,8.186-21.445,15.743-29.703
			c7.696,8.166,13.359,18.261,16.188,29.466C415.477,95.132,425.642,100.65,433.899,108.207"/>
	</g>
	<g>
		<defs>
			
				<rect id="SVGID_39_" x="370.546" y="90.689" transform="matrix(-1 -0.01 0.01 -1 775.754 221.0197)" width="35.767" height="35.766"/>
		</defs>
		<clipPath id="SVGID_30_">
			<use xlink:href="#SVGID_39_"  overflow="visible"/>
		</clipPath>
		<path clip-path="url(#SVGID_30_)" fill="#FECA0A" d="M406.302,109.729c-0.05,5.035-0.655,9.936-1.759,14.643
			c-5.517,1.411-11.308,2.134-17.27,2.073c-5.036-0.05-9.937-0.655-14.643-1.755v-0.003c-1.412-5.517-2.134-11.309-2.074-17.271
			c0.05-5.036,0.656-9.937,1.759-14.643c5.517-1.411,11.308-2.134,17.27-2.074c5.036,0.051,9.938,0.655,14.644,1.76
			C405.64,97.975,406.361,103.766,406.302,109.729"/>
	</g>
</g>
<g>
	<g>
		<defs>
			<polygon id="SVGID_41_" points="537.637,11.482 468.578,80.542 468.578,80.542 537.637,149.602 606.697,80.542 			"/>
		</defs>
		<clipPath id="SVGID_32_">
			<use xlink:href="#SVGID_41_"  overflow="visible"/>
		</clipPath>
		<path clip-path="url(#SVGID_32_)" fill="#312F7D" d="M546.847,139.613c-0.147,0.148-0.297,0.295-0.447,0.441
			c-2.532,2.468-5.322,4.649-8.29,6.483c-3.549-2.123-6.826-4.716-9.742-7.706c-4.628-4.749-8.161-10.271-10.5-16.417
			c-2.26-5.936-3.307-12.178-3.115-18.554l0.003-0.107l-0.108,0.005c-13.667,0.605-26.979-4.662-36.523-14.454
			c-2.467-2.53-4.648-5.318-6.485-8.288c2.018-3.373,4.462-6.504,7.267-9.308c0.146-0.146,0.292-0.292,0.441-0.437
			c4.748-4.629,10.271-8.161,16.416-10.5c5.936-2.259,12.178-3.307,18.553-3.114l0.108,0.003l-0.005-0.108
			c-0.292-6.594,0.742-13.056,3.075-19.206c2.412-6.356,6.09-12.035,10.932-16.876c0.148-0.148,0.296-0.295,0.447-0.441
			c2.532-2.469,5.321-4.649,8.29-6.483c3.548,2.123,6.826,4.716,9.742,7.706c4.628,4.748,8.161,10.271,10.5,16.416
			c2.259,5.935,3.307,12.177,3.115,18.555l-0.003,0.107l0.108-0.005c13.667-0.605,26.979,4.662,36.524,14.454
			c2.468,2.532,4.649,5.322,6.483,8.29c-2.018,3.372-4.461,6.502-7.266,9.306c-0.146,0.146-0.293,0.291-0.441,0.437
			c-4.747,4.629-10.271,8.161-16.416,10.5c-5.936,2.259-12.178,3.307-18.554,3.114l-0.108-0.003l0.005,0.108
			c0.293,6.594-0.742,13.056-3.075,19.205C555.366,129.094,551.688,134.772,546.847,139.613"/>
		<path clip-path="url(#SVGID_32_)" d="M528.357,21.399l0.142,0.142c0.148-0.147,0.296-0.293,0.446-0.439
			c2.512-2.449,5.278-4.615,8.221-6.438c3.521,2.113,6.774,4.689,9.669,7.659c4.619,4.738,8.144,10.25,10.477,16.382
			c2.255,5.922,3.3,12.151,3.109,18.515l-0.006,0.217l0.216-0.01c6.684-0.297,13.224,0.771,19.441,3.174
			c6.433,2.486,12.154,6.271,17.007,11.249c2.449,2.513,4.615,5.278,6.438,8.222c-2.007,3.345-4.436,6.451-7.22,9.234
			c-0.146,0.146-0.292,0.29-0.439,0.436c-4.738,4.618-10.25,8.144-16.382,10.478c-5.924,2.253-12.153,3.299-18.516,3.107
			l-0.216-0.007l0.01,0.217c0.292,6.581-0.741,13.029-3.069,19.166c-2.407,6.344-6.077,12.01-10.908,16.842
			c-0.148,0.147-0.296,0.293-0.446,0.439c-2.513,2.449-5.278,4.615-8.221,6.438c-3.521-2.113-6.774-4.689-9.67-7.659
			c-4.618-4.738-8.144-10.25-10.477-16.382c-2.255-5.924-3.3-12.152-3.108-18.515l0.006-0.217l-0.216,0.01
			c-6.684,0.297-13.225-0.771-19.441-3.174c-6.432-2.487-12.153-6.271-17.006-11.249c-2.447-2.511-4.613-5.275-6.439-8.221
			c2.007-3.344,4.436-6.451,7.221-9.235c0.145-0.146,0.292-0.29,0.44-0.436c4.738-4.618,10.249-8.144,16.381-10.478
			c5.924-2.254,12.153-3.299,18.515-3.107l0.217,0.006l-0.01-0.216c-0.292-6.581,0.74-13.029,3.068-19.166
			c2.407-6.344,6.078-12.01,10.909-16.842L528.357,21.399 M528.357,21.399c-9.919,9.919-14.615,23.128-14.037,36.158
			c-12.588-0.38-25.31,4.154-35.042,13.643c-0.149,0.146-0.295,0.291-0.442,0.437c-2.878,2.878-5.316,6.033-7.312,9.378
			l-0.001,0.002c1.824,2.958,4.003,5.765,6.53,8.358c9.967,10.225,23.375,15.07,36.601,14.483
			c-0.379,12.589,4.155,25.312,13.643,35.043c2.994,3.07,6.299,5.657,9.814,7.754c2.96-1.822,5.767-4.001,8.359-6.529
			c0.151-0.146,0.3-0.293,0.447-0.441c9.92-9.919,14.615-23.128,14.037-36.158c12.588,0.38,25.311-4.154,35.043-13.643
			c0.149-0.146,0.296-0.291,0.442-0.437c2.877-2.878,5.316-6.033,7.313-9.379c-1.823-2.96-4.002-5.766-6.53-8.359
			c-9.966-10.225-23.375-15.07-36.6-14.484c0.378-12.59-4.155-25.311-13.642-35.042c-2.994-3.07-6.3-5.657-9.815-7.755
			c-2.96,1.823-5.766,4.002-8.359,6.529C528.654,21.104,528.505,21.251,528.357,21.399"/>
	</g>
	<g>
		<defs>
			<rect id="SVGID_43_" x="492.06" y="35.954" width="89.44" height="89.494"/>
		</defs>
		<clipPath id="SVGID_34_">
			<use xlink:href="#SVGID_43_"  overflow="visible"/>
		</clipPath>
		<path clip-path="url(#SVGID_34_)" fill="#BB516C" d="M526.17,91.402c1.854,7.473,5.599,14.212,10.704,19.673
			c-8.319,9.021-20.305,14.587-33.54,14.367c-3.355-0.056-6.62-0.48-9.752-1.237c-0.917-3.684-1.372-7.547-1.306-11.522
			c0.209-12.595,5.619-23.884,14.149-31.854c5.48,5.058,12.237,8.762,19.745,10.571V91.402z"/>
		<path clip-path="url(#SVGID_34_)" fill="#BB516C" d="M492.066,47.29c0.056-3.356,0.48-6.62,1.235-9.753h0.002
			c3.684-0.917,7.547-1.372,11.521-1.306c12.596,0.209,23.885,5.618,31.854,14.149c-5.058,5.48-8.762,12.237-10.571,19.745
			c-7.473,1.854-14.215,5.599-19.676,10.703C497.413,72.511,491.846,60.524,492.066,47.29"/>
		<path clip-path="url(#SVGID_34_)" fill="#BB516C" d="M581.495,114.167c-0.057,3.355-0.481,6.62-1.238,9.752
			c-3.684,0.917-7.547,1.372-11.521,1.307c-12.596-0.21-23.885-5.619-31.854-14.15c5.058-5.479,8.762-12.236,10.57-19.745
			c7.474-1.854,14.214-5.598,19.675-10.703C576.148,88.946,581.715,100.933,581.495,114.167"/>
		<path clip-path="url(#SVGID_34_)" fill="#BB516C" d="M547.391,70.003c-1.854-7.474-5.599-14.215-10.703-19.676
			c8.318-9.02,20.305-14.587,33.539-14.367c3.357,0.057,6.622,0.48,9.753,1.235v0.002c0.917,3.684,1.373,7.547,1.307,11.521
			c-0.209,12.596-5.62,23.885-14.15,31.854C561.655,75.516,554.898,71.812,547.391,70.003"/>
	</g>
	<g>
		<defs>
			
				<rect id="SVGID_45_" x="505.912" y="50.233" transform="matrix(-0.9999 -0.0139 0.0139 -0.9999 1072.2424 169.3957)" width="61.597" height="61.466"/>
		</defs>
		<clipPath id="SVGID_36_">
			<use xlink:href="#SVGID_45_"  overflow="visible"/>
		</clipPath>
		<path clip-path="url(#SVGID_36_)" fill="#FFFFFF" d="M536.896,111.566c-5.229-5.577-8.97-12.411-10.823-19.771l0.001-0.063
			L526,91.713c-7.407-1.761-14.305-5.412-19.955-10.563c5.591-5.221,12.444-8.954,19.826-10.804
			c3.79-0.951,7.714-1.406,11.668-1.351c3.341,0.046,6.667,0.458,9.882,1.225c7.406,1.76,14.304,5.411,19.954,10.563
			c-5.591,5.219-12.444,8.953-19.827,10.802l-0.055,0.014l-0.014,0.057C545.717,99.046,542.058,105.929,536.896,111.566"/>
		<path clip-path="url(#SVGID_36_)" d="M537.538,69.09c3.334,0.047,6.652,0.458,9.861,1.222c7.359,1.749,14.214,5.368,19.837,10.473
			c-5.565,5.172-12.376,8.873-19.709,10.71l-0.111,0.027l-0.027,0.111c-1.751,7.343-5.378,14.183-10.492,19.795
			c-5.178-5.549-8.886-12.336-10.729-19.644l0.001-0.128l-0.147-0.035c-7.358-1.749-14.213-5.368-19.836-10.472
			c5.565-5.173,12.376-8.874,19.71-10.711C529.676,69.489,533.593,69.035,537.538,69.09 M537.54,68.901
			c-4.034-0.056-7.955,0.416-11.691,1.354c-7.58,1.898-14.413,5.709-19.942,10.896c5.577,5.107,12.446,8.841,20.072,10.653v0.001
			c1.903,7.565,5.722,14.382,10.919,19.899c5.119-5.565,8.86-12.419,10.675-20.028c7.582-1.898,14.413-5.709,19.942-10.895
			c-5.577-5.108-12.446-8.843-20.071-10.653C544.262,69.371,540.948,68.949,537.54,68.901"/>
		<path clip-path="url(#SVGID_36_)" fill="#FFFFFF" d="M536.896,111.566c-5.229-5.577-8.97-12.411-10.823-19.771l-0.003-0.014
			c-0.954-3.781-1.41-7.698-1.355-11.643c0.046-3.334,0.458-6.651,1.227-9.861c1.763-7.391,5.422-14.273,10.583-19.911
			c5.231,5.579,8.974,12.418,10.827,19.785l0.014,0.056l0.057,0.014c7.406,1.76,14.304,5.411,19.954,10.563
			c-5.591,5.219-12.444,8.953-19.827,10.802l-0.055,0.014l-0.014,0.057C545.717,99.046,542.058,105.929,536.896,111.566"/>
		<path clip-path="url(#SVGID_36_)" d="M536.526,50.506c5.184,5.553,8.893,12.351,10.733,19.668l0.029,0.111l0.111,0.026
			c7.358,1.749,14.214,5.368,19.837,10.473c-5.565,5.172-12.376,8.873-19.709,10.71l-0.111,0.027l-0.027,0.111
			c-1.751,7.343-5.378,14.183-10.493,19.794c-5.178-5.548-8.885-12.335-10.728-19.643v-0.002l-0.006-0.024
			c-0.952-3.772-1.406-7.682-1.352-11.617c0.047-3.328,0.458-6.64,1.224-9.841C527.785,62.957,531.411,56.117,536.526,50.506
			 M536.524,50.228c-5.119,5.565-8.86,12.419-10.676,20.028c-0.759,3.174-1.181,6.481-1.229,9.882
			c-0.056,4.025,0.417,7.938,1.358,11.667v0.001c1.903,7.565,5.722,14.382,10.919,19.899c5.119-5.565,8.86-12.419,10.675-20.028
			c7.582-1.898,14.413-5.709,19.942-10.895c-5.577-5.108-12.446-8.843-20.071-10.653C545.54,62.563,541.721,55.746,536.524,50.228"
			/>
		<path clip-path="url(#SVGID_36_)" fill="#CFA4AD" d="M567.515,80.782c-5.529,5.186-12.361,8.996-19.942,10.895
			c-3.736,0.938-7.657,1.41-11.691,1.354c-3.406-0.048-6.722-0.47-9.903-1.226v-0.001c-7.625-1.813-14.494-5.546-20.072-10.653
			c5.53-5.187,12.362-8.997,19.942-10.896c1.815-7.609,5.557-14.463,10.675-20.028c5.197,5.519,9.016,12.336,10.92,19.901
			C555.069,71.939,561.938,75.674,567.515,80.782"/>
		<path clip-path="url(#SVGID_36_)" fill="#CFA4AD" d="M548.801,81.795c-0.047,3.399-0.469,6.707-1.229,9.882
			c-1.815,7.609-5.557,14.463-10.675,20.028c-5.197-5.518-9.016-12.334-10.919-19.898v-0.002
			c-7.625-1.813-14.494-5.546-20.072-10.653c5.53-5.187,12.362-8.997,19.942-10.896c1.815-7.609,5.557-14.463,10.676-20.028
			c5.196,5.519,9.016,12.336,10.919,19.901C548.384,73.856,548.857,77.77,548.801,81.795"/>
	</g>
	<g>
		<defs>
			
				<rect id="SVGID_47_" x="491.041" y="34.979" transform="matrix(-0.9999 -0.0125 0.0125 -0.9999 1072.1202 167.7208)" width="91.083" height="91.084"/>
		</defs>
		<clipPath id="SVGID_38_">
			<use xlink:href="#SVGID_47_"  overflow="visible"/>
		</clipPath>
		<path clip-path="url(#SVGID_38_)" fill="#FFFFFF" d="M582.132,80.18c-8.165,7.696-18.26,13.358-29.466,16.188
			c-2.667,11.28-8.185,21.444-15.742,29.703c-7.697-8.166-13.358-18.258-16.189-29.463v-0.003
			c-11.279-2.668-21.443-8.186-29.702-15.743c8.165-7.696,18.26-13.358,29.465-16.188c2.668-11.28,8.186-21.445,15.743-29.703
			c7.697,8.166,13.359,18.261,16.189,29.466C563.709,67.104,573.874,72.623,582.132,80.18"/>
	</g>
	<g>
		<defs>
			
				<rect id="SVGID_49_" x="518.778" y="62.661" transform="matrix(-1 -0.01 0.01 -1 1072.4921 166.4477)" width="35.767" height="35.766"/>
		</defs>
		<clipPath id="SVGID_40_">
			<use xlink:href="#SVGID_49_"  overflow="visible"/>
		</clipPath>
		<path clip-path="url(#SVGID_40_)" fill="#FECA0A" d="M554.534,81.701c-0.049,5.035-0.655,9.936-1.758,14.643
			c-5.517,1.411-11.308,2.134-17.27,2.073c-5.036-0.05-9.937-0.655-14.642-1.755v-0.003c-1.412-5.517-2.134-11.309-2.075-17.271
			c0.05-5.036,0.656-9.937,1.759-14.643c5.517-1.411,11.308-2.134,17.27-2.074c5.036,0.051,9.937,0.655,14.643,1.76
			C553.873,69.947,554.594,75.738,554.534,81.701"/>
	</g>
</g>
<g>
	<g>
		<defs>
			<polygon id="SVGID_51_" points="685.87,39.51 616.812,108.569 616.812,108.569 685.87,177.629 754.931,108.569 			"/>
		</defs>
		<clipPath id="SVGID_42_">
			<use xlink:href="#SVGID_51_"  overflow="visible"/>
		</clipPath>
		<path clip-path="url(#SVGID_42_)" fill="#312F7D" d="M695.079,167.641c-0.146,0.148-0.297,0.295-0.446,0.441
			c-2.532,2.468-5.321,4.649-8.29,6.483c-3.549-2.123-6.826-4.716-9.742-7.706c-4.628-4.749-8.16-10.271-10.499-16.417
			c-2.26-5.936-3.308-12.178-3.115-18.554l0.003-0.107l-0.107,0.005c-13.667,0.605-26.98-4.662-36.523-14.454
			c-2.467-2.53-4.648-5.318-6.485-8.288c2.018-3.373,4.462-6.504,7.267-9.308c0.146-0.146,0.293-0.292,0.441-0.437
			c4.748-4.629,10.271-8.161,16.416-10.5c5.936-2.259,12.178-3.307,18.553-3.114l0.109,0.003l-0.006-0.108
			c-0.292-6.594,0.742-13.056,3.076-19.206c2.412-6.356,6.09-12.035,10.932-16.876c0.148-0.148,0.297-0.295,0.447-0.441
			c2.531-2.469,5.32-4.649,8.289-6.483c3.549,2.123,6.826,4.716,9.742,7.706c4.629,4.748,8.161,10.271,10.5,16.416
			c2.258,5.935,3.307,12.177,3.115,18.555l-0.004,0.107l0.108-0.005c13.667-0.605,26.979,4.662,36.524,14.454
			c2.467,2.532,4.648,5.322,6.482,8.29c-2.018,3.372-4.461,6.502-7.266,9.306c-0.145,0.146-0.293,0.291-0.441,0.437
			c-4.746,4.629-10.27,8.161-16.416,10.5c-5.936,2.259-12.178,3.307-18.553,3.114l-0.109-0.003l0.006,0.108
			c0.293,6.594-0.742,13.056-3.076,19.205C703.599,157.121,699.921,162.8,695.079,167.641"/>
		<path clip-path="url(#SVGID_42_)" d="M676.591,49.427l0.141,0.142c0.148-0.147,0.297-0.293,0.446-0.439
			c2.513-2.449,5.278-4.615,8.221-6.438c3.521,2.113,6.774,4.689,9.669,7.659c4.619,4.738,8.145,10.25,10.477,16.382
			c2.256,5.922,3.301,12.151,3.109,18.515l-0.006,0.217l0.216-0.01c6.685-0.297,13.224,0.771,19.44,3.174
			c6.434,2.486,12.154,6.271,17.008,11.249c2.449,2.513,4.615,5.278,6.438,8.222c-2.006,3.345-4.436,6.451-7.219,9.234
			c-0.146,0.146-0.293,0.29-0.439,0.436c-4.738,4.618-10.25,8.144-16.383,10.478c-5.924,2.253-12.152,3.299-18.516,3.107
			l-0.216-0.007l0.01,0.217c0.292,6.581-0.741,13.029-3.069,19.166c-2.406,6.344-6.077,12.01-10.908,16.842
			c-0.148,0.147-0.296,0.293-0.445,0.439c-2.514,2.449-5.279,4.615-8.221,6.438c-3.521-2.113-6.775-4.689-9.67-7.659
			c-4.619-4.738-8.145-10.25-10.478-16.382c-2.255-5.924-3.3-12.152-3.108-18.515l0.006-0.217l-0.215,0.01
			c-6.684,0.297-13.225-0.771-19.441-3.174c-6.433-2.487-12.154-6.271-17.006-11.249c-2.447-2.511-4.613-5.275-6.439-8.221
			c2.006-3.344,4.436-6.451,7.221-9.235c0.145-0.146,0.291-0.29,0.439-0.436c4.738-4.618,10.249-8.144,16.381-10.478
			c5.924-2.254,12.152-3.299,18.516-3.107l0.217,0.006l-0.01-0.216c-0.293-6.581,0.74-13.029,3.068-19.166
			c2.406-6.344,6.078-12.01,10.908-16.842L676.591,49.427 M676.591,49.427c-9.92,9.919-14.615,23.128-14.037,36.158
			c-12.589-0.38-25.311,4.154-35.043,13.643c-0.148,0.146-0.295,0.291-0.442,0.437c-2.878,2.878-5.316,6.033-7.312,9.378
			l-0.002,0.002c1.824,2.958,4.004,5.765,6.531,8.358c9.967,10.225,23.375,15.07,36.6,14.483
			c-0.379,12.589,4.155,25.312,13.644,35.043c2.993,3.07,6.299,5.657,9.813,7.754c2.961-1.822,5.768-4.001,8.359-6.529
			c0.151-0.146,0.301-0.293,0.447-0.441c9.92-9.919,14.615-23.128,14.037-36.158c12.589,0.38,25.312-4.154,35.043-13.643
			c0.15-0.146,0.297-0.291,0.443-0.437c2.877-2.878,5.316-6.033,7.313-9.379c-1.824-2.96-4.002-5.766-6.531-8.359
			c-9.965-10.225-23.375-15.07-36.6-14.484c0.378-12.59-4.154-25.311-13.643-35.042c-2.994-3.07-6.299-5.657-9.814-7.755
			c-2.961,1.823-5.767,4.002-8.359,6.529C676.888,49.132,676.737,49.278,676.591,49.427"/>
	</g>
	<g>
		<defs>
			<rect id="SVGID_53_" x="640.293" y="63.981" width="89.44" height="89.494"/>
		</defs>
		<clipPath id="SVGID_44_">
			<use xlink:href="#SVGID_53_"  overflow="visible"/>
		</clipPath>
		<path clip-path="url(#SVGID_44_)" fill="#BB516C" d="M674.403,119.43c1.854,7.473,5.598,14.212,10.703,19.673
			c-8.318,9.021-20.305,14.587-33.539,14.367c-3.355-0.056-6.621-0.48-9.753-1.237c-0.917-3.684-1.372-7.547-1.306-11.522
			c0.209-12.595,5.619-23.884,14.149-31.854c5.48,5.058,12.237,8.762,19.745,10.571V119.43z"/>
		<path clip-path="url(#SVGID_44_)" fill="#BB516C" d="M640.299,75.317c0.056-3.356,0.48-6.62,1.235-9.753h0.002
			c3.684-0.917,7.547-1.372,11.521-1.306c12.596,0.209,23.885,5.618,31.854,14.149c-5.058,5.48-8.762,12.237-10.571,19.745
			c-7.473,1.854-14.215,5.599-19.676,10.703C645.646,100.538,640.079,88.552,640.299,75.317"/>
		<path clip-path="url(#SVGID_44_)" fill="#BB516C" d="M729.728,142.194c-0.057,3.355-0.48,6.62-1.238,9.752
			c-3.684,0.917-7.547,1.372-11.521,1.307c-12.596-0.21-23.885-5.619-31.854-14.15c5.059-5.479,8.762-12.236,10.57-19.745
			c7.475-1.854,14.215-5.598,19.676-10.703C724.381,116.974,729.948,128.96,729.728,142.194"/>
		<path clip-path="url(#SVGID_44_)" fill="#BB516C" d="M695.624,98.03c-1.855-7.474-5.6-14.215-10.703-19.676
			c8.318-9.02,20.305-14.587,33.538-14.367c3.356,0.057,6.622,0.48,9.753,1.235v0.002c0.918,3.684,1.373,7.547,1.307,11.521
			c-0.209,12.596-5.619,23.885-14.149,31.854C709.888,103.543,703.132,99.839,695.624,98.03"/>
	</g>
	<g>
		<defs>
			
				<rect id="SVGID_55_" x="654.144" y="78.261" transform="matrix(-0.9999 -0.0139 0.0139 -0.9999 1368.3032 227.511)" width="61.598" height="61.466"/>
		</defs>
		<clipPath id="SVGID_46_">
			<use xlink:href="#SVGID_55_"  overflow="visible"/>
		</clipPath>
		<path clip-path="url(#SVGID_46_)" fill="#FFFFFF" d="M685.129,139.594c-5.229-5.577-8.97-12.411-10.823-19.771l0.001-0.063
			l-0.073-0.019c-7.408-1.761-14.305-5.412-19.955-10.563c5.592-5.221,12.443-8.954,19.826-10.804
			c3.789-0.951,7.715-1.406,11.668-1.351c3.342,0.046,6.666,0.458,9.883,1.225c7.406,1.76,14.304,5.411,19.953,10.563
			c-5.591,5.219-12.443,8.953-19.826,10.802l-0.055,0.014l-0.015,0.057C693.95,127.073,690.291,133.956,685.129,139.594"/>
		<path clip-path="url(#SVGID_46_)" d="M685.771,97.117c3.335,0.047,6.652,0.458,9.861,1.222
			c7.359,1.749,14.215,5.368,19.838,10.473c-5.566,5.172-12.377,8.873-19.71,10.71l-0.111,0.027l-0.027,0.111
			c-1.751,7.343-5.378,14.183-10.492,19.795c-5.179-5.549-8.886-12.336-10.729-19.644l0.001-0.128l-0.146-0.035
			c-7.358-1.749-14.213-5.368-19.837-10.472c5.565-5.173,12.376-8.874,19.71-10.711C677.909,97.517,681.826,97.063,685.771,97.117
			 M685.772,96.929c-4.033-0.056-7.954,0.416-11.691,1.354c-7.58,1.898-14.412,5.709-19.941,10.896
			c5.576,5.107,12.445,8.841,20.071,10.653v0.001c1.903,7.565,5.722,14.382,10.919,19.899c5.119-5.565,8.86-12.419,10.676-20.028
			c7.581-1.898,14.412-5.709,19.941-10.895c-5.576-5.108-12.445-8.843-20.07-10.653C692.495,97.398,689.181,96.977,685.772,96.929"
			/>
		<path clip-path="url(#SVGID_46_)" fill="#FFFFFF" d="M685.129,139.594c-5.229-5.577-8.97-12.411-10.823-19.771l-0.003-0.014
			c-0.954-3.781-1.409-7.698-1.354-11.643c0.046-3.334,0.458-6.651,1.227-9.861c1.762-7.391,5.422-14.273,10.583-19.911
			c5.231,5.579,8.974,12.418,10.827,19.785l0.014,0.056l0.057,0.014c7.406,1.76,14.304,5.411,19.953,10.563
			c-5.591,5.219-12.443,8.953-19.826,10.802l-0.055,0.014l-0.015,0.057C693.95,127.073,690.291,133.956,685.129,139.594"/>
		<path clip-path="url(#SVGID_46_)" d="M684.759,78.533c5.184,5.553,8.893,12.351,10.733,19.668l0.028,0.111l0.111,0.026
			c7.359,1.749,14.215,5.368,19.838,10.473c-5.566,5.172-12.377,8.873-19.71,10.71l-0.111,0.027l-0.027,0.111
			c-1.751,7.343-5.378,14.183-10.493,19.794c-5.178-5.548-8.885-12.335-10.728-19.643v-0.002l-0.007-0.024
			c-0.951-3.772-1.406-7.682-1.352-11.617c0.047-3.328,0.459-6.64,1.225-9.841C676.018,90.984,679.644,84.145,684.759,78.533
			 M684.757,78.255c-5.119,5.565-8.859,12.419-10.676,20.028c-0.758,3.174-1.181,6.481-1.229,9.882
			c-0.056,4.025,0.418,7.938,1.358,11.667v0.001c1.903,7.565,5.722,14.382,10.919,19.899c5.119-5.565,8.86-12.419,10.676-20.028
			c7.581-1.898,14.412-5.709,19.941-10.895c-5.576-5.108-12.445-8.843-20.07-10.653C693.772,90.591,689.954,83.773,684.757,78.255"
			/>
		<path clip-path="url(#SVGID_46_)" fill="#CFA4AD" d="M715.747,108.81c-5.529,5.186-12.36,8.996-19.941,10.895
			c-3.736,0.938-7.657,1.41-11.691,1.354c-3.406-0.048-6.723-0.47-9.903-1.226v-0.001c-7.626-1.813-14.494-5.546-20.071-10.653
			c5.529-5.187,12.361-8.997,19.941-10.896c1.816-7.609,5.557-14.463,10.676-20.028c5.197,5.519,9.016,12.336,10.92,19.901
			C703.302,99.967,710.171,103.701,715.747,108.81"/>
		<path clip-path="url(#SVGID_46_)" fill="#CFA4AD" d="M697.034,109.822c-0.047,3.399-0.469,6.707-1.229,9.882
			c-1.815,7.609-5.557,14.463-10.676,20.028c-5.197-5.518-9.016-12.334-10.919-19.898v-0.002
			c-7.626-1.813-14.494-5.546-20.071-10.653c5.529-5.187,12.361-8.997,19.941-10.896c1.816-7.609,5.557-14.463,10.676-20.028
			c5.197,5.519,9.016,12.336,10.92,19.901C696.616,101.884,697.09,105.797,697.034,109.822"/>
	</g>
	<g>
		<defs>
			
				<rect id="SVGID_57_" x="639.274" y="63.006" transform="matrix(-0.9999 -0.0125 0.0125 -0.9999 1368.2253 225.6201)" width="91.083" height="91.084"/>
		</defs>
		<clipPath id="SVGID_48_">
			<use xlink:href="#SVGID_57_"  overflow="visible"/>
		</clipPath>
		<path clip-path="url(#SVGID_48_)" fill="#FFFFFF" d="M730.364,108.207c-8.164,7.696-18.26,13.358-29.465,16.188
			c-2.668,11.28-8.186,21.444-15.742,29.703c-7.697-8.166-13.359-18.258-16.189-29.463v-0.003
			c-11.279-2.668-21.443-8.186-29.702-15.743c8.165-7.696,18.26-13.358,29.465-16.188c2.669-11.28,8.186-21.445,15.743-29.703
			c7.696,8.166,13.359,18.261,16.188,29.466C711.942,95.132,722.106,100.65,730.364,108.207"/>
	</g>
	<g>
		<defs>
			
				<rect id="SVGID_59_" x="667.011" y="90.689" transform="matrix(-1 -0.01 0.01 -1 1368.6699 223.9823)" width="35.767" height="35.766"/>
		</defs>
		<clipPath id="SVGID_50_">
			<use xlink:href="#SVGID_59_"  overflow="visible"/>
		</clipPath>
		<path clip-path="url(#SVGID_50_)" fill="#FECA0A" d="M702.767,109.729c-0.049,5.035-0.654,9.936-1.758,14.643
			c-5.517,1.411-11.308,2.134-17.27,2.073c-5.036-0.05-9.938-0.655-14.643-1.755v-0.003c-1.412-5.517-2.134-11.309-2.074-17.271
			c0.05-5.036,0.656-9.937,1.758-14.643c5.518-1.411,11.309-2.134,17.271-2.074c5.036,0.051,9.937,0.655,14.644,1.76
			C702.105,97.975,702.827,103.766,702.767,109.729"/>
	</g>
</g>
</svg>
