<?xml version="1.0" encoding="utf-8"?>
<!-- Generator: Adobe Illustrator 16.0.3, SVG Export Plug-In . SVG Version: 6.00 Build 0)  -->
<!DOCTYPE svg PUBLIC "-//W3C//DTD SVG 1.1//EN" "http://www.w3.org/Graphics/SVG/1.1/DTD/svg11.dtd">
<svg version="1.1" id="Layer_2" xmlns="http://www.w3.org/2000/svg" xmlns:xlink="http://www.w3.org/1999/xlink" x="0px" y="0px"
	 width="720px" height="216px" viewBox="0 0 720 216" enable-background="new 0 0 720 216" xml:space="preserve">
<g>
	<path fill="#FECA01" stroke="#BB516C" stroke-width="0.5178" stroke-miterlimit="10" d="M72.466,55.354
		c0-18.786-15.229-34.014-34.015-34.014c-18.784,0-34.012,15.228-34.012,34.014c0,5.313,1.254,10.324,3.427,14.804
		c-2.173,4.482-3.427,9.492-3.427,14.807c0,18.785,15.228,34.013,34.012,34.013c18.785,0,34.015-15.228,34.015-34.013
		c0-5.314-1.254-10.324-3.428-14.807C71.212,65.679,72.466,60.668,72.466,55.354z"/>
	<path fill="#251182" d="M54.318,85.072c-9.577,1.689-18.232-2.001-19.332-8.239c-1.101-6.24,5.771-12.666,15.347-14.355
		c9.577-1.688,18.231,2.001,19.332,8.239C70.765,76.956,63.894,83.382,54.318,85.072"/>
	<path fill="#251182" d="M50.333,73.313c9.577,1.688,18.231-2.002,19.332-8.24c1.1-6.238-5.771-12.666-15.347-14.354
		c-9.576-1.689-18.231,2-19.331,8.238C33.886,65.195,40.758,71.623,50.333,73.313"/>
	<path fill="#FECA01" stroke="#BB516C" stroke-width="0.5178" stroke-miterlimit="10" d="M142.389,55.785
		c0-18.108-14.681-32.789-32.787-32.789c-18.107,0-32.787,14.681-32.787,32.789c0,5.121,1.21,9.952,3.303,14.271
		c-2.093,4.317-3.303,9.148-3.303,14.27c0,18.108,14.68,32.789,32.787,32.789c18.106,0,32.787-14.681,32.787-32.789
		c0-5.121-1.21-9.952-3.305-14.27C141.179,65.737,142.389,60.906,142.389,55.785z"/>
	<path fill="#251182" d="M93.41,51.943c9.229-1.628,17.574,1.929,18.634,7.943c1.06,6.013-5.563,12.21-14.794,13.836
		c-9.23,1.628-17.574-1.928-18.634-7.941C77.555,59.766,84.178,53.571,93.41,51.943"/>
	<path fill="#251182" d="M97.249,66.227c-9.23-1.627-17.574,1.93-18.634,7.942c-1.06,6.015,5.563,12.21,14.794,13.838
		c9.229,1.626,17.574-1.93,18.634-7.944C113.103,74.05,106.48,67.854,97.249,66.227"/>
	<path fill="#FECA01" stroke="#BB516C" stroke-width="0.5178" stroke-miterlimit="10" d="M93.256,77.134
		c-6.899,0-13.403,1.627-19.22,4.45c-5.818-2.823-12.322-4.45-19.223-4.45c-24.389,0-44.159,19.77-44.159,44.157
		c0,24.389,19.77,44.159,44.159,44.159c6.901,0,13.405-1.629,19.223-4.45c5.817,2.821,12.321,4.45,19.22,4.45
		c24.39,0,44.161-19.771,44.161-44.159C137.417,96.903,117.646,77.134,93.256,77.134z"/>
	<path fill="#251182" d="M99.937,99.483c2.193,12.434-2.597,23.669-10.696,25.097c-8.101,1.429-16.445-7.492-18.638-19.926
		c-2.192-12.433,2.599-23.668,10.698-25.096C89.4,78.128,97.744,87.05,99.937,99.483"/>
	<path fill="#251182" d="M77.669,104.654c2.192-12.433-2.598-23.668-10.697-25.096c-8.101-1.431-16.444,7.491-18.636,19.925
		c-2.192,12.434,2.597,23.669,10.697,25.097C67.133,126.009,75.476,117.088,77.669,104.654"/>
	<path fill="#F1F5F6" d="M85.22,73.29c0,6.178-5.009,11.186-11.184,11.186c-6.178,0-11.186-5.008-11.186-11.186
		s5.008-11.186,11.186-11.186C80.211,62.104,85.22,67.112,85.22,73.29"/>
</g>
<g>
	<path fill="#FECA01" stroke="#BB516C" stroke-width="0.5178" stroke-miterlimit="10" d="M215.42,86.08
		c0-18.786-15.229-34.014-34.015-34.014c-18.784,0-34.012,15.228-34.012,34.014c0,5.313,1.254,10.324,3.427,14.804
		c-2.173,4.482-3.427,9.492-3.427,14.807c0,18.785,15.228,34.013,34.012,34.013c18.785,0,34.015-15.228,34.015-34.013
		c0-5.314-1.254-10.324-3.429-14.807C214.166,96.404,215.42,91.394,215.42,86.08z"/>
	<path fill="#251182" d="M197.272,115.799c-9.577,1.688-18.231-2.002-19.332-8.24c-1.101-6.24,5.771-12.666,15.347-14.354
		c9.577-1.689,18.231,2,19.332,8.238C213.719,107.682,206.848,114.107,197.272,115.799"/>
	<path fill="#251182" d="M193.287,104.038c9.577,1.688,18.231-2.002,19.332-8.239c1.1-6.239-5.771-12.667-15.347-14.355
		c-9.576-1.689-18.231,2-19.331,8.238C176.84,95.922,183.711,102.349,193.287,104.038"/>
	<path fill="#FECA01" stroke="#BB516C" stroke-width="0.5178" stroke-miterlimit="10" d="M285.343,86.511
		c0-18.108-14.682-32.789-32.787-32.789c-18.107,0-32.787,14.681-32.787,32.789c0,5.121,1.21,9.952,3.303,14.271
		c-2.093,4.317-3.303,9.148-3.303,14.27c0,18.108,14.68,32.789,32.787,32.789c18.105,0,32.787-14.681,32.787-32.789
		c0-5.121-1.21-9.952-3.305-14.27C284.133,96.463,285.343,91.632,285.343,86.511z"/>
	<path fill="#251182" d="M236.364,82.669c9.229-1.628,17.574,1.929,18.634,7.943c1.06,6.014-5.563,12.21-14.794,13.836
		c-9.23,1.628-17.574-1.928-18.634-7.941C220.509,90.491,227.132,84.298,236.364,82.669"/>
	<path fill="#251182" d="M240.203,96.952c-9.23-1.627-17.574,1.93-18.634,7.943s5.563,12.209,14.794,13.837
		c9.229,1.626,17.574-1.93,18.634-7.943C256.057,104.775,249.435,98.58,240.203,96.952"/>
	<path fill="#FECA01" stroke="#BB516C" stroke-width="0.5178" stroke-miterlimit="10" d="M236.21,107.859
		c-6.899,0-13.403,1.628-19.22,4.45c-5.818-2.822-12.323-4.45-19.224-4.45c-24.389,0-44.159,19.77-44.159,44.157
		c0,24.389,19.771,44.159,44.159,44.159c6.901,0,13.405-1.629,19.224-4.45c5.817,2.821,12.321,4.45,19.22,4.45
		c24.39,0,44.161-19.771,44.161-44.159C280.371,127.629,260.6,107.859,236.21,107.859z"/>
	<path fill="#251182" d="M242.891,130.21c2.193,12.433-2.597,23.669-10.696,25.096c-8.101,1.429-16.445-7.492-18.638-19.926
		c-2.192-12.432,2.599-23.668,10.698-25.096C232.354,108.854,240.698,117.776,242.891,130.21"/>
	<path fill="#251182" d="M220.623,135.38c2.193-12.432-2.597-23.668-10.696-25.096c-8.101-1.431-16.444,7.492-18.636,19.926
		c-2.192,12.433,2.597,23.669,10.697,25.096C210.087,156.734,218.43,147.813,220.623,135.38"/>
	<path fill="#F1F5F6" d="M228.174,104.016c0,6.178-5.009,11.186-11.184,11.186c-6.178,0-11.186-5.008-11.186-11.186
		s5.008-11.186,11.186-11.186C223.165,92.83,228.174,97.838,228.174,104.016"/>
</g>
<g>
	<path fill="#FECA01" stroke="#BB516C" stroke-width="0.5178" stroke-miterlimit="10" d="M360.271,55.354
		c0-18.786-15.231-34.014-34.016-34.014c-18.784,0-34.012,15.228-34.012,34.014c0,5.313,1.254,10.324,3.427,14.804
		c-2.173,4.482-3.427,9.492-3.427,14.807c0,18.785,15.228,34.013,34.012,34.013c18.785,0,34.016-15.228,34.016-34.013
		c0-5.314-1.254-10.324-3.429-14.807C359.018,65.679,360.271,60.668,360.271,55.354z"/>
	<path fill="#251182" d="M342.123,85.073c-9.577,1.688-18.231-2.002-19.331-8.24c-1.101-6.24,5.771-12.666,15.346-14.354
		c9.578-1.689,18.233,2,19.333,8.238C358.569,76.956,351.699,83.382,342.123,85.073"/>
	<path fill="#251182" d="M338.137,73.313c9.578,1.688,18.233-2.002,19.333-8.239c1.1-6.239-5.771-12.667-15.348-14.355
		c-9.576-1.689-18.23,2-19.33,8.238C321.69,65.196,328.562,71.623,338.137,73.313"/>
	<path fill="#FECA01" stroke="#BB516C" stroke-width="0.5178" stroke-miterlimit="10" d="M430.193,55.785
		c0-18.108-14.681-32.789-32.787-32.789c-18.107,0-32.786,14.681-32.786,32.789c0,5.121,1.209,9.952,3.303,14.271
		c-2.094,4.317-3.303,9.148-3.303,14.27c0,18.108,14.679,32.789,32.786,32.789c18.106,0,32.787-14.681,32.787-32.789
		c0-5.121-1.209-9.952-3.305-14.27C428.984,65.737,430.193,60.906,430.193,55.785z"/>
	<path fill="#251182" d="M381.215,51.943c9.229-1.628,17.574,1.929,18.634,7.943c1.06,6.014-5.563,12.21-14.795,13.836
		c-9.229,1.628-17.573-1.928-18.633-7.941C365.36,59.766,371.982,53.572,381.215,51.943"/>
	<path fill="#251182" d="M385.054,66.227c-9.229-1.627-17.573,1.93-18.633,7.943c-1.061,6.014,5.562,12.209,14.794,13.837
		c9.229,1.626,17.574-1.93,18.634-7.943S394.285,67.854,385.054,66.227"/>
	<path fill="#FECA01" stroke="#BB516C" stroke-width="0.5178" stroke-miterlimit="10" d="M381.062,77.134
		c-6.9,0-13.403,1.628-19.221,4.45c-5.818-2.822-12.323-4.45-19.224-4.45c-24.389,0-44.159,19.77-44.159,44.157
		c0,24.389,19.77,44.159,44.159,44.159c6.901,0,13.406-1.629,19.224-4.45c5.817,2.821,12.32,4.45,19.221,4.45
		c24.39,0,44.16-19.771,44.16-44.159C425.222,96.903,405.451,77.134,381.062,77.134z"/>
	<path fill="#251182" d="M387.742,99.484c2.193,12.433-2.598,23.669-10.696,25.096c-8.101,1.429-16.445-7.492-18.638-19.926
		c-2.191-12.432,2.6-23.668,10.698-25.096C377.206,78.128,385.55,87.051,387.742,99.484"/>
	<path fill="#251182" d="M365.474,104.654c2.192-12.432-2.597-23.668-10.697-25.096c-8.102-1.431-16.443,7.492-18.636,19.926
		c-2.192,12.433,2.596,23.669,10.696,25.096C354.938,126.009,363.281,117.088,365.474,104.654"/>
	<path fill="#F1F5F6" d="M373.024,73.29c0,6.178-5.009,11.186-11.184,11.186c-6.178,0-11.186-5.008-11.186-11.186
		s5.008-11.186,11.186-11.186C368.016,62.104,373.024,67.112,373.024,73.29"/>
</g>
<g>
	<path fill="#FECA01" stroke="#BB516C" stroke-width="0.5178" stroke-miterlimit="10" d="M503.676,86.08
		c0-18.786-15.23-34.014-34.016-34.014c-18.783,0-34.012,15.228-34.012,34.014c0,5.313,1.254,10.324,3.428,14.804
		c-2.174,4.482-3.428,9.492-3.428,14.807c0,18.785,15.229,34.013,34.012,34.013c18.785,0,34.016-15.228,34.016-34.013
		c0-5.314-1.254-10.324-3.43-14.807C502.422,96.404,503.676,91.394,503.676,86.08z"/>
	<path fill="#251182" d="M485.527,115.799c-9.576,1.688-18.23-2.002-19.33-8.24c-1.102-6.24,5.77-12.666,15.346-14.354
		c9.578-1.689,18.23,2,19.33,8.238C501.975,107.682,495.104,114.107,485.527,115.799"/>
	<path fill="#251182" d="M481.543,104.038c9.578,1.688,18.23-2.002,19.33-8.239c1.102-6.239-5.77-12.667-15.346-14.355
		c-9.576-1.689-18.23,2-19.33,8.238C465.096,95.922,471.967,102.349,481.543,104.038"/>
	<path fill="#FECA01" stroke="#BB516C" stroke-width="0.5178" stroke-miterlimit="10" d="M573.598,86.511
		c0-18.108-14.682-32.789-32.787-32.789c-18.107,0-32.787,14.681-32.787,32.789c0,5.121,1.211,9.952,3.305,14.271
		c-2.094,4.317-3.305,9.148-3.305,14.27c0,18.108,14.68,32.789,32.787,32.789c18.105,0,32.787-14.681,32.787-32.789
		c0-5.121-1.209-9.952-3.305-14.27C572.389,96.463,573.598,91.632,573.598,86.511z"/>
	<path fill="#251182" d="M524.619,82.669c9.23-1.628,17.574,1.929,18.633,7.943c1.061,6.014-5.563,12.21-14.793,13.836
		c-9.23,1.628-17.574-1.928-18.633-7.941C508.764,90.491,515.387,84.298,524.619,82.669"/>
	<path fill="#251182" d="M528.459,96.952c-9.23-1.627-17.574,1.93-18.633,7.943c-1.063,6.014,5.561,12.209,14.793,13.837
		c9.23,1.626,17.574-1.93,18.633-7.943C544.313,104.775,537.689,98.58,528.459,96.952"/>
	<path fill="#FECA01" stroke="#BB516C" stroke-width="0.5178" stroke-miterlimit="10" d="M524.467,107.859
		c-6.9,0-13.404,1.628-19.221,4.45c-5.818-2.822-12.322-4.45-19.225-4.45c-24.389,0-44.158,19.77-44.158,44.157
		c0,24.389,19.77,44.159,44.158,44.159c6.902,0,13.406-1.629,19.225-4.45c5.816,2.821,12.32,4.45,19.221,4.45
		c24.389,0,44.16-19.771,44.16-44.159C568.627,127.629,548.855,107.859,524.467,107.859z"/>
	<path fill="#251182" d="M531.146,130.21c2.193,12.433-2.598,23.669-10.695,25.096c-8.102,1.429-16.445-7.492-18.639-19.926
		c-2.191-12.432,2.6-23.668,10.697-25.096C520.609,108.854,528.953,117.776,531.146,130.21"/>
	<path fill="#251182" d="M508.877,135.38c2.193-12.432-2.596-23.668-10.695-25.096c-8.102-1.431-16.443,7.492-18.637,19.926
		c-2.191,12.433,2.598,23.669,10.697,25.096C498.344,156.734,506.686,147.813,508.877,135.38"/>
	<path fill="#F1F5F6" d="M516.43,104.016c0,6.178-5.01,11.186-11.184,11.186c-6.178,0-11.188-5.008-11.188-11.186
		s5.01-11.186,11.188-11.186C511.42,92.83,516.43,97.838,516.43,104.016"/>
</g>
<g>
	<path fill="#FECA01" stroke="#BB516C" stroke-width="0.5178" stroke-miterlimit="10" d="M648.076,55.354
		c0-18.786-15.23-34.014-34.016-34.014c-18.784,0-34.013,15.228-34.013,34.014c0,5.313,1.255,10.324,3.428,14.804
		c-2.173,4.482-3.428,9.492-3.428,14.807c0,18.785,15.229,34.013,34.013,34.013c18.785,0,34.016-15.228,34.016-34.013
		c0-5.314-1.254-10.324-3.43-14.807C646.822,65.679,648.076,60.668,648.076,55.354z"/>
	<path fill="#251182" d="M629.928,85.073c-9.577,1.688-18.231-2.002-19.331-8.24c-1.102-6.24,5.77-12.666,15.346-14.354
		c9.578-1.689,18.231,2,19.331,8.238C646.374,76.956,639.503,83.382,629.928,85.073"/>
	<path fill="#251182" d="M625.942,73.313c9.578,1.688,18.231-2.002,19.331-8.239c1.101-6.239-5.771-12.667-15.347-14.355
		c-9.576-1.689-18.23,2-19.33,8.238C609.495,65.196,616.366,71.623,625.942,73.313"/>
	<path fill="#FECA01" stroke="#BB516C" stroke-width="0.5178" stroke-miterlimit="10" d="M717.998,55.785
		c0-18.108-14.682-32.789-32.787-32.789c-18.107,0-32.787,14.681-32.787,32.789c0,5.121,1.21,9.952,3.304,14.271
		c-2.094,4.317-3.304,9.148-3.304,14.27c0,18.108,14.68,32.789,32.787,32.789c18.105,0,32.787-14.681,32.787-32.789
		c0-5.121-1.21-9.952-3.305-14.27C716.788,65.737,717.998,60.906,717.998,55.785z"/>
	<path fill="#251182" d="M669.019,51.943c9.23-1.628,17.575,1.929,18.634,7.943c1.061,6.014-5.563,12.21-14.794,13.836
		c-9.229,1.628-17.574-1.928-18.633-7.941C653.164,59.766,659.787,53.572,669.019,51.943"/>
	<path fill="#251182" d="M672.858,66.227c-9.229-1.627-17.574,1.93-18.633,7.943c-1.062,6.014,5.562,12.209,14.793,13.837
		c9.23,1.626,17.575-1.93,18.634-7.943C688.713,74.05,682.089,67.854,672.858,66.227"/>
	<path fill="#FECA01" stroke="#BB516C" stroke-width="0.5178" stroke-miterlimit="10" d="M668.866,77.134
		c-6.9,0-13.403,1.628-19.221,4.45c-5.818-2.822-12.322-4.45-19.224-4.45c-24.389,0-44.159,19.77-44.159,44.157
		c0,24.389,19.771,44.159,44.159,44.159c6.901,0,13.405-1.629,19.224-4.45c5.817,2.821,12.32,4.45,19.221,4.45
		c24.39,0,44.16-19.771,44.16-44.159C713.026,96.903,693.256,77.134,668.866,77.134z"/>
	<path fill="#251182" d="M675.547,99.484c2.192,12.433-2.598,23.669-10.696,25.096c-8.102,1.429-16.445-7.492-18.638-19.926
		c-2.192-12.432,2.599-23.668,10.697-25.096C665.01,78.128,673.354,87.051,675.547,99.484"/>
	<path fill="#251182" d="M653.277,104.654c2.193-12.432-2.596-23.668-10.695-25.096c-8.102-1.431-16.444,7.492-18.637,19.926
		c-2.191,12.433,2.597,23.669,10.697,25.096C642.743,126.009,651.085,117.088,653.277,104.654"/>
	<path fill="#F1F5F6" d="M660.829,73.29c0,6.178-5.009,11.186-11.184,11.186c-6.178,0-11.187-5.008-11.187-11.186
		s5.009-11.186,11.187-11.186C655.82,62.104,660.829,67.112,660.829,73.29"/>
</g>
</svg>
