<?xml version="1.0" encoding="utf-8"?>
<!-- Generator: Adobe Illustrator 16.0.3, SVG Export Plug-In . SVG Version: 6.00 Build 0)  -->
<!DOCTYPE svg PUBLIC "-//W3C//DTD SVG 1.1//EN" "http://www.w3.org/Graphics/SVG/1.1/DTD/svg11.dtd">
<svg version="1.1" id="Layer_1" xmlns="http://www.w3.org/2000/svg" xmlns:xlink="http://www.w3.org/1999/xlink" x="0px" y="0px"
	 width="360px" height="360px" viewBox="0 0 360 360" enable-background="new 0 0 360 360" xml:space="preserve">
<g>
	<path fill="#BB526C" d="M169.668,186.001c-98.691,221.76-230.15,52.679-8.391-10.792c-221.76,63.471-174.844-147.373,2.995-13.459
		c-177.839-133.914,12.125-227.749,12.125-5.989c0-221.76,189.965-127.925,12.125,5.989c177.84-133.914,224.755,76.93,2.995,13.459
		c221.76,63.471,90.301,232.552-8.391,10.792C281.818,407.761,70.977,407.761,169.668,186.001z"/>
	<path fill="none" stroke="#000000" stroke-miterlimit="10" d="M169.668,186.001c-98.691,221.76-230.15,52.679-8.391-10.792
		c-221.76,63.471-174.844-147.373,2.995-13.459c-177.839-133.914,12.125-227.749,12.125-5.989
		c0-221.76,189.965-127.925,12.125,5.989c177.84-133.914,224.755,76.93,2.995,13.459c221.76,63.471,90.301,232.552-8.391,10.792
		C281.818,407.761,70.977,407.761,169.668,186.001z"/>
</g>
<g>
	<path fill="#2D2B7B" d="M171.591,181.681c-70.494,158.4-164.394,37.629-5.993-7.709c-158.4,45.338-124.889-105.267,2.139-9.612
		c-127.027-95.654,8.661-162.679,8.661-4.278c0-158.4,135.688-91.376,8.661,4.278c127.027-95.654,160.539,54.95,2.139,9.612
		c158.4,45.338,64.501,166.109-5.993,7.709C251.698,340.081,101.097,340.081,171.591,181.681z"/>
</g>
<circle fill="#FFCB0E" cx="176.397" cy="170.881" r="59.416"/>
</svg>
