<?xml version="1.0" encoding="utf-8"?>
<!-- Generator: Adobe Illustrator 16.0.3, SVG Export Plug-In . SVG Version: 6.00 Build 0)  -->
<!DOCTYPE svg PUBLIC "-//W3C//DTD SVG 1.1//EN" "http://www.w3.org/Graphics/SVG/1.1/DTD/svg11.dtd">
<svg version="1.1" id="Layer_1" xmlns="http://www.w3.org/2000/svg" xmlns:xlink="http://www.w3.org/1999/xlink" x="0px" y="0px"
	 width="1920px" height="1080px" viewBox="0 0 1920 1080" enable-background="new 0 0 1920 1080" xml:space="preserve">
<g>
	<defs>
		<rect id="SVGID_1_" width="1920" height="1080"/>
	</defs>
	<clipPath id="SVGID_2_">
		<use xlink:href="#SVGID_1_"  overflow="visible"/>
	</clipPath>
	<path clip-path="url(#SVGID_2_)" fill="#EAA307" d="M921.934,459.42c-2.008,0-3.874-0.391-5.545-1.161
		c-11.904-5.485-14.417-30.897-6.896-69.72c7.683-39.663,24.708-89.27,47.939-139.685c21.508-46.675,46.359-89.532,69.978-120.677
		c23.343-30.782,43.585-47.735,56.998-47.735c2.009,0,3.874,0.391,5.545,1.161c11.904,5.485,14.418,30.897,6.897,69.72
		c-7.684,39.663-24.709,89.27-47.94,139.685c-21.508,46.675-46.359,89.533-69.978,120.677
		C955.589,442.467,935.348,459.42,921.934,459.42"/>
	<path clip-path="url(#SVGID_2_)" d="M1084.409,79.803v1.277h0.001c1.914,0,3.688,0.371,5.275,1.102
		c11.614,5.352,13.996,30.509,6.537,69.02c-7.675,39.613-24.684,89.169-47.894,139.538c-21.489,46.634-46.315,89.45-69.906,120.559
		c-23.219,30.619-43.281,47.482-56.49,47.482c-1.915,0-3.691-0.371-5.277-1.102c-11.615-5.352-13.998-30.508-6.537-69.019
		c7.674-39.614,24.683-89.17,47.893-139.539c21.489-46.633,46.315-89.448,69.906-120.557c23.219-30.618,43.28-47.482,56.49-47.484
		L1084.409,79.803 M1084.408,79.803c-28.013,0.004-82.822,71.706-127.557,168.784c-48.075,104.331-66.311,198.465-40.73,210.252
		c1.778,0.819,3.72,1.219,5.812,1.219c28.013,0,82.823-71.705,127.556-168.783c48.076-104.332,66.313-198.465,40.73-210.253
		C1088.441,80.203,1086.501,79.803,1084.408,79.803"/>
	<path clip-path="url(#SVGID_2_)" fill="#EAA307" d="M705.144,988.693c-2.116,0-4.068-0.423-5.802-1.259
		c-11.806-5.691-13.878-31.144-5.682-69.831c8.372-39.522,26.257-88.826,50.362-138.828
		c45.67-94.738,101.39-166.181,129.609-166.181c2.117,0,4.068,0.424,5.802,1.259c11.806,5.691,13.878,31.145,5.682,69.831
		c-8.372,39.522-26.258,88.826-50.362,138.829C789.082,917.252,733.363,988.693,705.144,988.693"/>
	<path clip-path="url(#SVGID_2_)" d="M873.632,611.956v1.277c2.019,0,3.877,0.402,5.523,1.196
		c11.52,5.553,13.464,30.747,5.335,69.122c-8.362,39.475-26.23,88.727-50.313,138.685c-22.216,46.086-47.699,88.354-71.754,119.021
		c-23.673,30.179-44.015,46.798-57.279,46.798c-2.02,0-3.879-0.402-5.525-1.195c-11.521-5.554-13.464-30.748-5.335-69.123
		c8.362-39.475,26.23-88.727,50.313-138.684c22.217-46.086,47.7-88.354,71.755-119.021c23.672-30.178,44.014-46.798,57.279-46.799
		L873.632,611.956 M873.631,611.956c-28.103,0.002-83.927,70.585-130.185,166.542c-49.883,103.479-69.754,197.28-44.381,209.512
		c1.844,0.889,3.876,1.322,6.079,1.322c28.102,0,83.926-70.585,130.184-166.541c49.884-103.479,69.754-197.281,44.382-209.513
		C877.865,612.39,875.834,611.956,873.631,611.956"/>
	<path clip-path="url(#SVGID_2_)" fill="#EAA307" d="M897.981,455.477c-0.697,0-1.395-0.059-2.074-0.176
		c-12.918-2.217-21.923-26.113-24.707-65.56c-2.844-40.3,0.762-92.623,10.154-147.332c9.129-53.182,22.752-102.721,38.361-139.491
		c15.476-36.458,31.203-56.537,44.282-56.537c0.696,0,1.395,0.06,2.073,0.176c12.918,2.217,21.924,26.113,24.707,65.56
		c2.844,40.3-0.762,92.624-10.153,147.333c-9.129,53.181-22.753,102.72-38.362,139.49
		C926.786,435.398,911.06,455.477,897.981,455.477"/>
	<path clip-path="url(#SVGID_2_)" d="M964.002,45.743v1.277c0.657,0,1.317,0.056,1.961,0.167
		c12.604,2.163,21.416,25.846,24.178,64.975c2.84,40.25-0.763,92.52-10.146,147.18c-9.121,53.134-22.73,102.623-38.321,139.349
		c-15.147,35.682-31.073,56.148-43.694,56.148c-0.66,0-1.322-0.056-1.965-0.167c-12.604-2.163-21.416-25.846-24.178-64.975
		c-2.84-40.251,0.763-92.52,10.146-147.18c9.12-53.132,22.73-102.62,38.32-139.346c15.147-35.68,31.073-56.147,43.694-56.151
		L964.002,45.743 M963.997,45.743c-27.551,0.009-64.343,86.283-83.273,196.558c-19.435,113.219-12.686,208.865,15.075,213.63
		c0.721,0.124,1.446,0.185,2.181,0.185c27.552,0,64.344-86.283,83.274-196.558c19.435-113.219,12.686-208.865-15.075-213.63
		C965.457,45.804,964.732,45.743,963.997,45.743"/>
	<path clip-path="url(#SVGID_2_)" fill="#EAA307" d="M825.506,1022.834c-0.772,0-1.542-0.071-2.29-0.214
		c-12.877-2.441-21.465-26.49-23.563-65.979c-2.142-40.343,2.374-92.596,12.715-147.133
		c10.024-52.858,24.461-102.049,40.653-138.511c16.052-36.146,32.093-56.052,45.17-56.052c0.771,0,1.542,0.071,2.289,0.214
		c12.878,2.441,21.466,26.49,23.563,65.98c2.142,40.343-2.374,92.596-12.715,147.133c-10.024,52.858-24.461,102.049-40.653,138.511
		C854.624,1002.928,838.583,1022.834,825.506,1022.834"/>
	<path clip-path="url(#SVGID_2_)" d="M898.191,614.307v1.277h0.001c0.731,0,1.461,0.068,2.169,0.203
		c12.565,2.382,20.964,26.215,23.044,65.386c2.139,40.294-2.373,92.492-12.705,146.98c-10.014,52.812-24.436,101.952-40.609,138.37
		c-15.712,35.381-31.963,55.673-44.586,55.673c-0.732,0-1.462-0.068-2.17-0.203c-12.565-2.382-20.964-26.215-23.044-65.386
		c-2.14-40.294,2.373-92.492,12.705-146.98c10.014-52.811,24.436-101.951,40.609-138.369c15.711-35.38,31.962-55.672,44.585-55.674
		L898.191,614.307 M898.19,614.307c-27.53,0.004-65.661,85.455-86.449,195.082c-21.402,112.864-16.318,208.612,11.356,213.859
		c0.794,0.15,1.595,0.226,2.408,0.226c27.531,0,65.662-85.456,86.45-195.082c21.402-112.864,16.318-208.612-11.356-213.86
		C899.806,614.381,899.003,614.307,898.19,614.307"/>
	<path clip-path="url(#SVGID_2_)" fill="#EAA307" d="M874.242,457.796c-27.27,0-57.793-90.582-68.042-201.922
		c-5.089-55.276-4.597-107.721,1.387-147.676c5.857-39.109,16.701-62.228,29.753-63.429c0.37-0.034,0.742-0.051,1.114-0.051
		c27.269,0,57.794,90.582,68.043,201.922c5.089,55.276,4.596,107.721-1.387,147.676c-5.857,39.108-16.701,62.228-29.753,63.429
		C874.986,457.779,874.614,457.796,874.242,457.796"/>
	<path clip-path="url(#SVGID_2_)" d="M838.455,45.355c12.655,0,27.103,21.173,39.639,58.088
		c12.899,37.984,22.761,88.859,27.768,143.255c5.084,55.226,4.593,107.617-1.383,147.522c-5.81,38.794-16.445,61.716-29.18,62.888
		c-0.349,0.032-0.704,0.049-1.056,0.049c-12.656,0-27.103-21.171-39.639-58.085c-12.899-37.982-22.761-88.859-27.768-143.258
		c-5.084-55.226-4.593-107.616,1.383-147.522c5.81-38.794,16.445-61.715,29.18-62.888C837.748,45.373,838.103,45.355,838.455,45.355
		 M838.455,44.079c-0.392,0-0.783,0.018-1.173,0.054c-28.048,2.582-42.249,97.408-31.718,211.8
		c10.384,112.799,40.937,202.502,68.679,202.502c0.391,0,0.783-0.018,1.173-0.054c28.048-2.582,42.248-97.407,31.718-211.799
		C896.75,133.783,866.196,44.079,838.455,44.079"/>
	<path clip-path="url(#SVGID_2_)" fill="#EAA307" d="M951.073,1024.581c-27.347,0-56.385-91.101-64.732-203.078
		c-4.126-55.355-2.721-107.784,3.957-147.629c6.536-39.001,17.781-61.928,30.851-62.902c0.3-0.022,0.603-0.033,0.903-0.033
		c27.347,0,56.386,91.101,64.733,203.079c4.126,55.354,2.721,107.783-3.957,147.628c-6.536,39.001-17.781,61.928-30.852,62.902
		C951.677,1024.57,951.373,1024.581,951.073,1024.581"/>
	<path clip-path="url(#SVGID_2_)" d="M922.055,610.3v1.277c12.673,0,26.789,21.313,38.728,58.474
		c12.284,38.233,21.293,89.378,25.365,144.013c4.122,55.307,2.72,107.681-3.95,147.476c-6.483,38.688-17.517,61.421-30.269,62.371
		c-0.283,0.021-0.571,0.032-0.856,0.032c-12.673,0-26.789-21.312-38.729-58.472c-12.285-38.232-21.294-89.378-25.366-144.015
		c-4.123-55.306-2.72-107.681,3.949-147.476c6.484-38.688,17.517-61.421,30.27-62.371c0.282-0.021,0.57-0.032,0.855-0.032
		L922.055,610.3 M922.052,610.3c-0.315,0-0.635,0.012-0.95,0.035c-28.089,2.094-43.937,96.658-35.398,211.216
		c8.443,113.27,37.563,203.669,65.369,203.669c0.316,0,0.635-0.012,0.951-0.035c28.088-2.094,43.937-96.658,35.397-211.216
		C978.979,700.698,949.858,610.292,922.052,610.3"/>
	<path clip-path="url(#SVGID_2_)" fill="#EAA307" d="M851.697,466.195c-13.229,0-32.182-18.001-53.368-50.688
		c-21.414-33.039-43.162-78.204-61.238-127.176c-19.222-52.075-32.32-102.861-36.881-143.003
		c-4.465-39.292,0.026-64.43,12.322-68.969c1.385-0.511,2.88-0.77,4.443-0.77c13.228,0,32.18,18.001,53.367,50.686
		c21.414,33.038,43.163,78.204,61.24,127.178c19.221,52.075,32.319,102.861,36.88,143.002c4.465,39.293-0.026,64.431-12.322,68.969
		C854.755,465.936,853.26,466.195,851.697,466.195"/>
	<path clip-path="url(#SVGID_2_)" d="M716.98,76.227c13.005,0,31.767,17.899,52.831,50.4
		c21.387,32.998,43.112,78.118,61.172,127.047c19.204,52.028,32.289,102.761,36.845,142.853
		c4.429,38.976,0.088,63.869-11.909,68.298c-1.314,0.485-2.735,0.731-4.222,0.731c-13.004,0-31.766-17.898-52.83-50.395
		c-21.39-33-43.116-78.121-61.177-127.052c-19.204-52.028-32.29-102.761-36.845-142.853c-4.43-38.976-0.089-63.869,11.908-68.298
		c1.313-0.485,2.734-0.73,4.225-0.731H716.98 M716.975,74.95c-1.632,0-3.193,0.267-4.664,0.81
		c-26.424,9.753-15.598,105.023,24.181,212.792C774.056,390.321,824,466.833,851.697,466.833c1.633,0,3.194-0.267,4.664-0.81
		c26.424-9.753,15.598-105.023-24.18-212.792C794.617,151.462,744.672,74.94,716.975,74.95"/>
	<path clip-path="url(#SVGID_2_)" fill="#EAA307" d="M1072.641,993.777c-27.419,0-76.502-78.991-111.743-179.833
		c-18.313-52.401-30.525-103.407-34.387-143.622c-3.781-39.363,1.147-64.42,13.52-68.744c1.32-0.461,2.735-0.695,4.207-0.695
		c27.419,0,76.502,78.993,111.744,179.834c18.313,52.401,30.524,103.407,34.387,143.622c3.781,39.363-1.147,64.419-13.521,68.744
		C1075.528,993.544,1074.112,993.777,1072.641,993.777"/>
	<path clip-path="url(#SVGID_2_)" d="M944.241,601.521c12.969,0,31.435,18.116,51.996,51.011
		c20.875,33.396,41.877,78.995,59.142,128.395c18.297,52.354,30.497,103.308,34.354,143.473c3.75,39.047-1.022,63.861-13.095,68.08
		c-1.253,0.438-2.597,0.66-3.997,0.66c-12.969,0-31.435-18.115-51.996-51.009c-20.875-33.396-41.88-78.995-59.145-128.396
		c-18.296-52.354-30.496-103.308-34.354-143.473c-3.75-39.047,1.023-63.861,13.095-68.081
		C941.493,601.744,942.838,601.522,944.241,601.521L944.241,601.521 M944.238,600.244c-1.539,0.001-3.016,0.241-4.418,0.731
		c-26.59,9.292-17.423,104.736,20.475,213.18c35.898,102.726,84.697,180.262,112.346,180.262c1.539,0,3.016-0.241,4.418-0.731
		c26.59-9.292,17.423-104.736-20.475-213.18C1020.686,677.78,971.886,600.238,944.238,600.244"/>
	<path clip-path="url(#SVGID_2_)" fill="#EAA307" d="M831.003,480.259c-14.154,0-37.147-14.159-64.745-39.867
		c-28.005-26.089-59.087-62.605-87.521-102.824c-32.044-45.326-57.84-90.991-72.635-128.584
		c-14.483-36.798-16.65-62.242-5.948-69.808c2.294-1.622,5.175-2.444,8.563-2.444c14.153,0,37.146,14.158,64.744,39.867
		c28.005,26.088,59.087,62.605,87.521,102.824c32.044,45.325,57.84,90.991,72.636,128.584c14.482,36.797,16.65,62.242,5.948,69.808
		C837.272,479.438,834.391,480.259,831.003,480.259"/>
	<path clip-path="url(#SVGID_2_)" d="M608.721,136.093v1.277h0.001c13.992,0,36.83,14.098,64.308,39.698
		c27.972,26.059,59.021,62.54,87.431,102.723c32.015,45.285,57.785,90.903,72.563,128.45c14.365,36.501,16.615,61.67,6.173,69.053
		c-2.184,1.544-4.94,2.326-8.194,2.326c-13.992,0-36.83-14.097-64.309-39.695c-27.974-26.06-59.025-62.541-87.435-102.726
		c-32.016-45.285-57.786-90.902-72.563-128.449c-14.366-36.502-16.616-61.67-6.173-69.053c2.182-1.543,4.94-2.326,8.194-2.327
		L608.721,136.093 M608.717,136.093c-3.488,0.001-6.491,0.835-8.932,2.561c-22.999,16.26,12.116,105.482,78.431,199.283
		c59.277,83.844,123.413,142.961,152.787,142.961c3.488,0,6.49-0.836,8.932-2.561c22.999-16.261-12.116-105.482-78.431-199.283
		C702.227,195.209,638.091,136.087,608.717,136.093"/>
	<path clip-path="url(#SVGID_2_)" fill="#EAA307" d="M1181.08,932.668c-14.063,0-36.815-14.44-64.064-40.663
		c-27.642-26.6-58.205-63.768-86.058-104.657c-31.252-45.876-56.249-91.983-70.388-129.829c-13.841-37.044-15.566-62.521-4.734-69.9
		c2.239-1.525,5.012-2.298,8.241-2.298c14.064,0,36.815,14.44,64.064,40.663c27.642,26.601,58.205,63.769,86.059,104.658
		c31.252,45.876,56.249,91.983,70.389,129.828c13.84,37.044,15.564,62.521,4.732,69.9
		C1187.083,931.896,1184.311,932.668,1181.08,932.668"/>
	<path clip-path="url(#SVGID_2_)" d="M964.078,584.682v1.277c13.898,0,36.494,14.378,63.624,40.486
		c27.608,26.57,58.142,63.702,85.971,104.556c31.222,45.835,56.195,91.895,70.317,129.692c13.729,36.746,15.541,61.95,4.972,69.149
		c-2.131,1.451-4.782,2.188-7.881,2.188c-13.899,0-36.493-14.378-63.622-40.485c-27.611-26.57-58.144-63.703-85.974-104.558
		c-31.224-45.835-56.196-91.894-70.317-129.692c-13.729-36.745-15.541-61.949-4.972-69.149c2.13-1.451,4.782-2.187,7.881-2.187
		L964.078,584.682 M964.077,584.682c-3.33,0-6.217,0.785-8.6,2.408c-23.278,15.857,10.279,105.677,74.953,200.617
		c58.054,85.223,121.445,145.601,150.651,145.601c3.33,0,6.217-0.786,8.6-2.409c23.278-15.857-10.278-105.677-74.952-200.616
		C1056.675,645.06,993.283,584.68,964.077,584.682"/>
	<path clip-path="url(#SVGID_2_)" fill="#EAA307" d="M811.504,499.542c-33.525,0-106.058-40.838-176.388-99.311
		c-42.684-35.487-79.42-72.92-103.441-105.403c-23.513-31.795-32.192-55.811-23.813-65.89c3.017-3.628,8.15-5.468,15.259-5.468
		c33.525,0,106.058,40.838,176.388,99.311c42.683,35.487,79.419,72.92,103.441,105.403c23.512,31.795,32.192,55.812,23.813,65.89
		C823.746,497.703,818.612,499.542,811.504,499.542"/>
	<path clip-path="url(#SVGID_2_)" d="M523.125,222.831v1.277h0.001c15.959,0,41.865,9.566,72.944,26.935
		c32.24,18.017,67.867,42.994,103.03,72.229c42.646,35.455,79.345,72.849,103.336,105.292
		c23.324,31.539,32.012,55.268,23.836,65.102c-2.89,3.475-7.858,5.237-14.768,5.237c-15.959,0-41.864-9.565-72.944-26.933
		c-32.243-18.018-67.872-42.994-103.036-72.23c-42.645-35.455-79.343-72.849-103.335-105.292
		c-23.323-31.539-32.011-55.268-23.836-65.102c2.889-3.474,7.858-5.237,14.768-5.238L523.125,222.831 M523.121,222.831
		c-7.164,0.001-12.542,1.84-15.75,5.699c-18.007,21.658,39.003,98.752,127.337,172.193c72.596,60.356,143.749,99.458,176.796,99.458
		c7.164,0,12.542-1.84,15.75-5.699c18.007-21.658-39.003-98.752-127.337-172.193C627.322,261.933,556.168,222.827,523.121,222.831"
		/>
	<path clip-path="url(#SVGID_2_)" fill="#EAA307" d="M1267.078,845.894c-33.25,0-105.35-42.097-175.332-102.371
		c-42.061-36.224-78.139-74.29-101.592-107.187c-22.956-32.2-31.217-56.363-22.663-66.294c2.976-3.456,7.906-5.208,14.653-5.208
		c33.249,0,105.349,42.097,175.332,102.372c42.06,36.224,78.139,74.291,101.591,107.186c22.956,32.2,31.217,56.363,22.663,66.294
		C1278.755,844.142,1273.824,845.894,1267.078,845.894"/>
	<path clip-path="url(#SVGID_2_)" d="M982.148,565.473c33.107,0,105.033,42.033,174.911,102.216
		c42.021,36.192,78.063,74.219,101.488,107.074c22.771,31.94,31.045,55.816,22.699,65.507c-2.85,3.308-7.616,4.985-14.169,4.985
		c-33.11,0-105.038-42.032-174.916-102.216c-42.021-36.192-78.064-74.218-101.487-107.072c-22.771-31.941-31.045-55.818-22.7-65.508
		c2.85-3.309,7.617-4.985,14.172-4.986H982.148 M982.145,564.195c-6.813,0.001-11.972,1.754-15.138,5.43
		c-18.381,21.342,37.28,99.416,124.322,174.383c72.05,62.054,143.014,102.524,175.749,102.524c6.812,0,11.971-1.754,15.137-5.43
		c18.381-21.342-37.279-99.415-124.321-174.382C1085.843,604.666,1014.879,564.192,982.145,564.195"/>
	<path clip-path="url(#SVGID_2_)" fill="#EAA307" d="M787.144,524.297c-39.822,0-108.006-20.02-177.944-52.248
		c-50.414-23.231-95.586-49.88-127.196-75.039c-30.941-24.627-45.541-45.578-40.056-57.482c3.378-7.33,14.257-11.204,31.461-11.204
		c39.822,0,108.006,20.02,177.944,52.247c50.415,23.231,95.587,49.881,127.197,75.04c30.941,24.626,45.54,45.578,40.055,57.482
		C815.227,520.422,804.349,524.297,787.144,524.297"/>
	<path clip-path="url(#SVGID_2_)" d="M473.417,328.963c39.731,0,107.809,19.997,177.668,52.188
		c50.369,23.211,95.495,49.831,127.066,74.959c30.692,24.429,45.225,45.1,39.873,56.715c-3.265,7.087-13.944,10.833-30.881,10.833
		c-39.735,0-107.817-19.998-177.676-52.189c-50.369-23.21-95.495-49.831-127.066-74.959c-30.692-24.429-45.225-45.1-39.873-56.715
		c3.265-7.085,13.944-10.831,30.887-10.832H473.417 M473.409,327.685c-17.042,0.001-28.424,3.725-32.042,11.576
		c-11.787,25.581,63.234,85.292,167.565,133.368c72.314,33.323,139.72,52.306,178.211,52.306c17.043,0,28.424-3.725,32.041-11.575
		c11.788-25.582-63.233-85.293-167.564-133.369C579.306,346.669,511.901,327.683,473.409,327.685"/>
	<path clip-path="url(#SVGID_2_)" fill="#EAA307" d="M1318.072,740.812c-39.556,0-108.126-21.21-178.952-55.353
		c-50.002-24.104-94.704-51.536-125.871-77.241c-30.509-25.161-44.741-46.362-39.05-58.169c3.366-6.982,13.639-10.672,29.709-10.672
		c39.556,0,108.125,21.209,178.95,55.352c50.003,24.104,94.705,51.536,125.872,77.241c30.508,25.161,44.74,46.362,39.05,58.17
		C1344.414,737.121,1334.142,740.812,1318.072,740.812"/>
	<path clip-path="url(#SVGID_2_)" d="M1003.909,538.738v1.277c18.907,0,45.253,5.003,76.19,14.466
		c31.86,9.746,67.298,23.862,102.481,40.823c49.958,24.083,94.614,51.485,125.743,77.158c30.262,24.959,44.434,45.88,38.88,57.401
		c-3.252,6.744-13.325,10.31-29.133,10.31c-18.906,0-45.252-5.002-76.188-14.465c-31.861-9.746-67.3-23.862-102.485-40.824
		c-49.957-24.083-94.613-51.484-125.742-77.158c-30.263-24.959-44.435-45.88-38.881-57.399c3.252-6.745,13.326-10.312,29.134-10.312
		L1003.909,538.738 M1003.908,538.738c-15.964,0-26.676,3.547-30.284,11.034c-12.231,25.372,61.74,86.379,165.219,136.263
		c72.948,35.166,141.087,55.416,179.229,55.416c15.964,0,26.675-3.548,30.284-11.033c12.23-25.372-61.74-86.38-165.22-136.263
		C1110.188,558.988,1042.051,538.738,1003.908,538.738"/>
	<path clip-path="url(#SVGID_2_)" fill="#EAA307" d="M721.635,559.218c-35.508,0-76.617-3.835-118.881-11.091
		c-54.709-9.391-105.24-23.441-142.284-39.561c-36.26-15.779-55.785-32.238-53.568-45.156c2.756-16.057,37.9-25.643,94.01-25.643
		c35.508,0,76.617,3.835,118.883,11.09c54.708,9.391,105.239,23.441,142.283,39.562c36.261,15.779,55.786,32.237,53.568,45.155
		C812.89,549.631,777.745,559.218,721.635,559.218"/>
	<path clip-path="url(#SVGID_2_)" d="M500.922,438.405c35.467,0,76.534,3.832,118.764,11.081
		c54.66,9.383,105.139,23.417,142.138,39.518c35.968,15.652,55.356,31.858,53.192,44.462c-1.32,7.694-10.674,14.078-27.051,18.463
		c-16.251,4.351-39.188,6.65-66.329,6.65c-35.473,0-76.544-3.832-118.774-11.081c-54.66-9.383-105.139-23.417-142.138-39.518
		c-35.968-15.652-55.356-31.858-53.193-44.462c1.321-7.694,10.675-14.077,27.051-18.462c16.251-4.35,39.187-6.65,66.337-6.651
		H500.922 M500.913,437.128c-54.5,0.001-91.713,9.125-94.64,26.174c-4.765,27.761,83.154,66.02,196.373,85.455
		c43.688,7.499,84.748,11.101,118.991,11.101c54.5,0,91.713-9.125,94.639-26.175c4.766-27.76-83.154-66.02-196.373-85.454
		C576.216,440.728,535.156,437.128,500.913,437.128"/>
	<path clip-path="url(#SVGID_2_)" fill="#EAA307" d="M1296.627,630.341c-37.299,0-81.136-4.575-126.773-13.229
		c-54.537-10.341-104.816-25.268-141.574-42.03c-35.98-16.407-55.217-33.203-52.774-46.08c2.858-15.076,35.136-24.076,86.341-24.076
		c37.299,0,81.135,4.574,126.772,13.228c54.537,10.342,104.815,25.269,141.573,42.031c35.981,16.408,55.217,33.204,52.774,46.081
		C1380.107,621.34,1347.831,630.341,1296.627,630.341"/>
	<path clip-path="url(#SVGID_2_)" d="M1061.848,505.563c37.257,0,81.053,4.571,126.651,13.218
		c54.488,10.332,104.715,25.242,141.428,41.983c35.69,16.276,54.794,32.816,52.412,45.381c-2.797,14.75-34.839,23.556-85.714,23.556
		c-37.258,0-81.055-4.57-126.653-13.217c-54.488-10.332-104.715-25.242-141.428-41.984c-35.691-16.275-54.794-32.816-52.412-45.381
		c2.797-14.75,34.84-23.555,85.714-23.556H1061.848 M1061.846,504.286c-50.065,0-83.908,8.456-86.969,24.595
		c-5.247,27.674,81.992,67.457,194.857,88.858c47.042,8.921,91.109,13.239,126.891,13.239c50.065,0,83.908-8.456,86.969-24.595
		c5.248-27.673-81.993-67.457-194.856-88.859C1141.694,508.605,1097.627,504.286,1061.846,504.286"/>
	<path clip-path="url(#SVGID_2_)" fill="#EAA307" d="M543.188,626.755c-80.681,0-136.168-13.91-138.075-34.614
		c-1.201-13.052,19.55-27.935,56.932-40.833c38.191-13.177,89.665-23.236,144.94-28.324c25.036-2.305,49.607-3.474,73.03-3.474
		c80.681,0,136.169,13.911,138.075,34.614c1.202,13.052-19.549,27.935-56.932,40.833c-38.19,13.177-89.664,23.236-144.94,28.325
		C591.183,625.587,566.611,626.755,543.188,626.755"/>
	<path clip-path="url(#SVGID_2_)" d="M680.034,520.148c39.276,0,73.152,3.25,97.965,9.398c24.541,6.08,38.553,14.83,39.455,24.638
		c1.173,12.733-19.422,27.376-56.503,40.17c-38.144,13.16-89.565,23.208-144.79,28.292c-25.018,2.304-49.569,3.471-72.972,3.471
		c-39.285,0-73.166-3.249-97.98-9.396c-24.543-6.079-38.556-14.829-39.459-24.637c-1.172-12.735,19.423-27.377,56.504-40.171
		c38.144-13.161,89.565-23.209,144.79-28.293c25.011-2.302,49.562-3.47,72.982-3.471H680.034 M680.016,518.871
		c-22.833,0-47.479,1.119-73.088,3.476c-114.392,10.531-205.032,41.804-202.45,69.852c2.004,21.77,59.556,35.194,138.711,35.194
		c22.833,0,47.479-1.118,73.089-3.476c114.391-10.531,205.031-41.805,202.449-69.853
		C816.723,532.297,759.171,518.869,680.016,518.871"/>
	<path clip-path="url(#SVGID_2_)" fill="#EAA307" d="M1121.319,545.45c-86.689,0-148.373-15.264-150.002-37.119
		c-0.974-13.07,20.032-27.59,57.634-39.836c38.414-12.511,90.055-21.673,145.411-25.799c20.568-1.533,40.935-2.311,60.534-2.311
		c86.687,0,148.367,15.264,149.996,37.119c0.974,13.071-20.032,27.591-57.635,39.837c-38.414,12.51-90.054,21.673-145.409,25.799
		C1161.282,544.673,1140.917,545.45,1121.319,545.45"/>
	<path clip-path="url(#SVGID_2_)" d="M1234.907,441.024c86.331,0,147.745,15.021,149.349,36.528
		c0.95,12.753-19.896,27.034-57.194,39.181c-38.366,12.496-89.954,21.648-145.261,25.77c-20.553,1.532-40.902,2.309-60.485,2.309
		c-86.339,0-147.758-15.021-149.361-36.527c-0.95-12.753,19.896-27.034,57.194-39.182c38.367-12.495,89.955-21.647,145.261-25.769
		c20.547-1.532,40.897-2.309,60.493-2.309H1234.907 M1234.895,439.747c-19.219,0-39.569,0.746-60.58,2.312
		c-114.558,8.539-205.728,38.231-203.634,66.32c1.71,22.937,65.067,37.71,150.635,37.71c19.219,0,39.569-0.746,60.581-2.312
		c114.557-8.539,205.727-38.232,203.633-66.32C1383.82,454.52,1320.461,439.746,1234.895,439.747"/>
	<path clip-path="url(#SVGID_2_)" fill="#EAA307" d="M478.34,730.983c-23.849,0-38.247-4.854-41.636-14.034
		c-4.538-12.296,11.654-32.043,44.424-54.177c33.479-22.613,80.595-45.652,132.67-64.873
		c65.471-24.166,129.147-38.594,170.335-38.594c23.85,0,38.247,4.854,41.636,14.034c4.539,12.296-11.653,32.043-44.423,54.177
		c-33.479,22.613-80.596,45.652-132.671,64.873C583.205,716.556,519.528,730.983,478.34,730.983"/>
	<path clip-path="url(#SVGID_2_)" d="M784.134,558.667v1.277c23.558,0,37.748,4.709,41.036,13.618
		c4.428,11.996-11.675,31.47-44.182,53.426c-33.438,22.584-80.505,45.599-132.534,64.803
		c-65.403,24.142-128.997,38.554-170.113,38.554c-23.559,0-37.75-4.709-41.038-13.617c-4.428-11.997,11.676-31.471,44.182-53.426
		c33.438-22.585,80.506-45.6,132.534-64.804c65.403-24.141,128.996-38.553,170.114-38.554L784.134,558.667 M784.133,558.667
		c-39.714,0.001-102.655,13.57-170.556,38.633c-107.769,39.778-187.225,93.446-177.472,119.87
		c3.608,9.775,18.918,14.452,42.236,14.452c39.713,0,102.655-13.569,170.556-38.633c107.768-39.778,187.225-93.446,177.471-119.87
		C822.76,563.345,807.451,558.667,784.133,558.667"/>
	<path clip-path="url(#SVGID_2_)" fill="#EAA307" d="M1006.479,504.235c-25.768,0-41.175-5.112-44.556-14.785
		c-4.323-12.372,12.21-31.834,45.36-53.396c33.867-22.027,81.377-44.242,133.778-62.555c63.88-22.324,126.613-35.651,167.813-35.651
		c25.767,0,41.174,5.112,44.554,14.784c4.323,12.373-12.209,31.835-45.359,53.395c-33.867,22.027-81.378,44.243-133.779,62.556
		C1110.411,490.907,1047.678,504.235,1006.479,504.235"/>
	<path clip-path="url(#SVGID_2_)" d="M1308.883,338.487c25.102,0,40.707,5.099,43.942,14.357
		c4.219,12.072-12.222,31.262-45.104,52.649c-33.826,22-81.287,44.192-133.642,62.488c-63.814,22.301-126.47,35.615-167.601,35.615
		c-25.107,0-40.717-5.098-43.952-14.356c-4.218-12.072,12.222-31.262,45.104-52.65c33.826-21.999,81.287-44.191,133.641-62.487
		c63.811-22.3,126.465-35.614,167.607-35.616H1308.883 M1308.873,337.21c-39.854,0.002-101.496,12.438-168.022,35.687
		c-108.443,37.897-188.823,90.175-179.53,116.764c3.592,10.278,20.047,15.213,45.158,15.213c39.854,0,101.496-12.439,168.022-35.687
		c108.444-37.898,188.822-90.175,179.53-116.765C1350.439,342.144,1333.984,337.209,1308.873,337.21"/>
	<path clip-path="url(#SVGID_2_)" fill="#EAA307" d="M517.985,836.108c-9.071,0-15.283-2.281-18.464-6.781
		c-7.566-10.702,2.963-33.966,28.888-63.828c26.485-30.507,66.034-64.956,111.359-97c72.221-51.06,144.529-85.364,179.927-85.364
		c9.072,0,15.284,2.281,18.465,6.781c7.567,10.702-2.963,33.966-28.887,63.827c-26.486,30.507-66.034,64.955-111.36,97
		C625.691,801.803,553.383,836.108,517.985,836.108"/>
	<path clip-path="url(#SVGID_2_)" d="M819.704,582.495v1.277c8.846,0,14.881,2.191,17.935,6.512
		c7.382,10.442-3.132,33.42-28.849,63.04c-26.452,30.47-65.96,64.882-111.245,96.897c-72.122,50.989-144.282,85.248-179.559,85.248
		c-8.852,0-14.889-2.19-17.943-6.511c-7.383-10.443,3.132-33.42,28.848-63.041c26.453-30.47,65.961-64.882,111.246-96.897
		c72.115-50.984,144.274-85.242,179.559-85.248L819.704,582.495 M819.696,582.495c-34.571,0.005-106.001,32.957-180.297,85.482
		C545.598,734.293,482.739,806.697,499,829.696c3.381,4.782,9.909,7.051,18.986,7.051c34.57,0,106.001-32.957,180.296-85.482
		c93.801-66.315,156.66-138.719,140.4-161.718C835.3,584.764,828.772,582.494,819.696,582.495"/>
	<path clip-path="url(#SVGID_2_)" fill="#EAA307" d="M967.272,480.753c-9.599,0-16.096-2.392-19.31-7.109
		c-7.378-10.832,3.554-33.911,29.995-63.316c27.012-30.042,67.153-63.797,113.029-95.048c72.202-49.184,144.708-82.23,180.421-82.23
		c9.599,0,16.095,2.392,19.309,7.109c7.38,10.833-3.553,33.91-29.993,63.316c-27.014,30.042-67.154,63.798-113.03,95.049
		C1075.49,447.708,1002.985,480.753,967.272,480.753"/>
	<path clip-path="url(#SVGID_2_)" d="M1271.415,232.412v1.277c9.37,0,15.687,2.298,18.773,6.83c7.2,10.57-3.714,33.361-29.941,62.53
		c-26.979,30.005-67.079,63.724-112.914,94.947c-72.104,49.118-144.466,82.12-180.061,82.12c-9.375,0-15.694-2.299-18.781-6.831
		c-7.2-10.569,3.713-33.36,29.94-62.529c26.979-30.005,67.08-63.724,112.914-94.948c72.099-49.113,144.459-82.114,180.062-82.119
		L1271.415,232.412 M1271.407,232.412c-34.932,0.004-106.283,31.593-180.78,82.341c-94.939,64.673-159.05,135.972-143.192,159.251
		c3.414,5.013,10.251,7.389,19.837,7.389c34.932,0,106.282-31.594,180.78-82.341c94.939-64.674,159.049-135.973,143.191-159.251
		C1287.83,234.788,1280.993,232.411,1271.407,232.412"/>
	<path clip-path="url(#SVGID_2_)" fill="#EAA307" d="M599.432,924.793c-4.201,0-7.615-1.068-10.149-3.175
		c-10.078-8.379-5.929-33.576,11.384-69.13c17.687-36.322,46.972-79.833,82.459-122.517
		c62.834-75.574,130.605-130.428,161.145-130.428c4.201,0,7.615,1.067,10.148,3.174c21.353,17.754-20.745,103.727-93.842,191.647
		C697.743,869.939,629.972,924.793,599.432,924.793"/>
	<path clip-path="url(#SVGID_2_)" d="M844.274,598.905v1.277c4.046,0,7.322,1.019,9.737,3.026
		c9.834,8.176,5.624,33.093-11.55,68.359c-17.665,36.277-46.92,79.742-82.376,122.388
		c-62.722,75.442-130.287,130.198-160.653,130.198c-4.048,0-7.325-1.019-9.741-3.026c-9.833-8.176-5.623-33.092,11.55-68.359
		c17.665-36.278,46.921-79.743,82.376-122.389c62.719-75.437,130.284-130.192,160.654-130.197L844.274,598.905 M844.271,598.905
		c-30.249,0.005-97.344,53.329-161.636,130.658c-73.441,88.333-115.419,174.539-93.76,192.546c2.698,2.243,6.252,3.322,10.557,3.322
		c30.249,0,97.343-53.329,161.636-130.658c73.441-88.334,115.418-174.539,93.76-192.547
		C852.13,599.983,848.575,598.904,844.271,598.905"/>
	<path clip-path="url(#SVGID_2_)" fill="#EAA307" d="M940.925,465.344c-4.408,0-7.953-1.128-10.537-3.354
		c-9.932-8.553-5.345-33.674,12.584-68.921c18.316-36.01,48.354-79.004,84.579-121.064
		c63.682-73.941,132.21-127.609,162.943-127.609c4.408,0,7.953,1.129,10.537,3.354c9.932,8.554,5.345,33.675-12.584,68.922
		c-18.316,36.009-48.354,79.004-84.579,121.063C1040.186,411.677,971.657,465.344,940.925,465.344"/>
	<path clip-path="url(#SVGID_2_)" d="M1190.5,143.757v1.277c4.246,0,7.649,1.077,10.114,3.2c9.69,8.345,5.048,33.184-12.737,68.148
		c-18.293,35.964-48.3,78.914-84.492,120.936c-63.572,73.813-131.896,127.387-162.459,127.387c-4.251,0-7.656-1.076-10.121-3.199
		c-9.69-8.346-5.047-33.185,12.737-68.148c18.294-35.965,48.301-78.915,84.493-120.937c63.565-73.807,131.892-127.38,162.46-127.387
		L1190.5,143.757 M1190.494,143.757c-30.469,0.006-98.13,52.014-163.428,127.831c-74.967,87.042-118.438,172.504-97.095,190.885
		c2.752,2.371,6.442,3.509,10.954,3.509c30.468,0,98.129-52.014,163.426-127.83c74.968-87.042,118.438-172.505,97.097-190.886
		C1198.695,144.896,1195.005,143.756,1190.494,143.757"/>
	<path clip-path="url(#SVGID_2_)" fill="#FFCB0C" d="M897,469.361c-13.107,0-26.025-22.028-35.442-60.436
		c-9.621-39.237-14.919-91.417-14.919-146.925c0-55.509,5.298-107.689,14.919-146.926c9.417-38.408,22.335-60.436,35.442-60.436
		s26.025,22.028,35.442,60.436c9.621,39.237,14.919,91.417,14.919,146.926c0,55.508-5.298,107.688-14.919,146.925
		C923.025,447.333,910.107,469.361,897,469.361"/>
	<path clip-path="url(#SVGID_2_)" d="M897,55.277c12.788,0,25.48,21.851,34.822,59.949c9.609,39.19,14.901,91.315,14.901,146.774
		s-5.292,107.584-14.901,146.774c-9.342,38.098-22.034,59.949-34.822,59.949s-25.48-21.851-34.822-59.949
		c-9.609-39.19-14.901-91.315-14.901-146.774s5.292-107.584,14.901-146.774C871.52,77.128,884.212,55.277,897,55.277 M897,54
		c-28.167,0-51,93.125-51,208s22.833,208,51,208s51-93.125,51-208S925.167,54,897,54"/>
	<path clip-path="url(#SVGID_2_)" fill="#FFCB0C" d="M897,469.361c-13.107,0-26.025-22.028-35.442-60.436
		c-9.621-39.237-14.919-91.417-14.919-146.925c0-55.509,5.298-107.689,14.919-146.926c9.417-38.408,22.335-60.436,35.442-60.436
		s26.025,22.028,35.442,60.436c9.621,39.237,14.919,91.417,14.919,146.926c0,55.508-5.298,107.688-14.919,146.925
		C923.025,447.333,910.107,469.361,897,469.361"/>
	<path clip-path="url(#SVGID_2_)" d="M897,55.277c12.788,0,25.48,21.851,34.822,59.949c9.609,39.19,14.901,91.315,14.901,146.774
		s-5.292,107.584-14.901,146.774c-9.342,38.098-22.034,59.949-34.822,59.949s-25.48-21.851-34.822-59.949
		c-9.609-39.19-14.901-91.315-14.901-146.774s5.292-107.584,14.901-146.774C871.52,77.128,884.212,55.277,897,55.277 M897,54
		c-28.167,0-51,93.125-51,208s22.833,208,51,208s51-93.125,51-208S925.167,54,897,54"/>
	<path clip-path="url(#SVGID_2_)" fill="#FFCB0C" d="M883.687,1025.861c-27.759-0.744-47.852-94.338-44.789-208.635
		c3.042-113.558,27.972-205.943,55.572-205.943l0.325,0.005c13.102,0.351,25.426,22.717,33.811,61.362
		c8.566,39.482,12.465,91.784,10.978,147.272c-3.043,113.558-27.972,205.943-55.572,205.943L883.687,1025.861z"/>
	<path clip-path="url(#SVGID_2_)" d="M894.47,611.922L894.47,611.922c0.104,0,0.204,0.002,0.308,0.004
		c12.784,0.343,24.886,22.525,33.204,60.86c8.555,39.433,12.449,91.681,10.964,147.12c-1.479,55.195-8.122,106.998-18.704,145.867
		c-10.287,37.783-23.492,59.453-36.23,59.453c-0.104,0-0.205-0.001-0.308-0.004c-12.784-0.342-24.886-22.524-33.204-60.859
		c-8.556-39.433-12.449-91.682-10.964-147.121c1.479-55.193,8.121-106.996,18.704-145.864
		C868.526,633.596,881.732,611.925,894.47,611.922 M894.47,610.645c-28.018,0.007-53.146,92.199-56.211,206.564
		c-3.077,114.834,17.254,208.536,45.411,209.291c0.115,0.003,0.227,0.004,0.342,0.004c28.018,0,53.146-92.199,56.21-206.563
		c3.078-114.834-17.253-208.537-45.41-209.291C894.697,610.646,894.585,610.645,894.47,610.645"/>
	<path clip-path="url(#SVGID_2_)" fill="#FFCB0C" d="M875.285,471.154c-27.362,0-70.885-82.438-99.084-187.68
		c-14.367-53.617-22.754-105.39-23.617-145.781c-0.844-39.536,5.933-64.157,18.594-67.549c1.037-0.278,2.123-0.419,3.23-0.419
		c27.361,0,70.884,82.439,99.083,187.68c14.367,53.618,22.754,105.391,23.617,145.781c0.844,39.536-5.932,64.157-18.593,67.549
		C877.478,471.013,876.391,471.154,875.285,471.154"/>
	<path clip-path="url(#SVGID_2_)" d="M774.408,69.086v1.277c12.671,0,30.292,19.491,48.345,53.475
		c18.59,34.994,36.39,82.487,50.121,133.732c14.354,53.57,22.733,105.288,23.595,145.63c0.837,39.217-5.767,63.608-18.12,66.918
		c-0.983,0.263-2.014,0.397-3.065,0.397c-12.67,0-30.291-19.49-48.344-53.472c-18.591-34.994-36.391-82.488-50.123-133.735
		c-14.353-53.569-22.733-105.288-23.595-145.629c-0.837-39.218,5.768-63.609,18.12-66.918c0.983-0.264,2.014-0.397,3.065-0.398
		L774.408,69.086 M774.407,69.086c-1.161,0-2.295,0.146-3.396,0.441c-27.207,7.289-25.16,103.151,4.572,214.112
		c28.529,106.471,72.179,188.154,99.701,188.154c1.161,0,2.295-0.146,3.396-0.441c27.207-7.29,25.16-103.152-4.572-214.113
		C845.579,150.77,801.928,69.083,774.407,69.086"/>
	<path clip-path="url(#SVGID_2_)" fill="#FFCB0C" d="M1006.8,1012.056c-27.373,0-68.827-83.577-94.374-190.271
		c-12.925-53.984-19.922-105.963-19.703-146.362c0.216-39.544,7.649-63.974,20.396-67.026c0.933-0.224,1.905-0.337,2.888-0.337
		c27.373,0,68.827,83.577,94.374,190.271c12.926,53.983,19.923,105.963,19.703,146.362c-0.215,39.544-7.649,63.975-20.396,67.026
		C1008.755,1011.942,1007.783,1012.056,1006.8,1012.056"/>
	<path clip-path="url(#SVGID_2_)" d="M916.011,607.421v1.277c12.646,0,29.777,19.79,47.001,54.296
		c17.732,35.525,34.334,83.642,46.748,135.485c12.913,53.935,19.904,105.859,19.685,146.209
		c-0.213,39.227-7.468,63.432-19.905,66.409c-0.886,0.212-1.806,0.319-2.739,0.319c-12.647,0-29.777-19.789-47.002-54.294
		c-17.734-35.525-34.337-83.643-46.75-135.487c-12.914-53.935-19.905-105.859-19.686-146.209
		c0.213-39.227,7.469-63.432,19.906-66.409c0.883-0.212,1.805-0.319,2.739-0.319L916.011,607.421 M916.007,607.421
		c-1.031,0-2.047,0.117-3.037,0.354c-27.392,6.559-27.914,102.44-1.165,214.158c25.783,107.681,67.486,190.761,94.995,190.761
		c1.031,0,2.048-0.117,3.037-0.354c27.393-6.559,27.914-102.439,1.165-214.158C985.219,690.501,943.516,607.411,916.007,607.421"/>
	<path clip-path="url(#SVGID_2_)" fill="#FFCB0C" d="M854.057,478.58c-28.615,0-88.946-67.123-140.336-156.133
		c-27.755-48.072-49.256-95.91-60.542-134.701c-11.049-37.97-10.875-63.506,0.476-70.06c1.992-1.15,4.333-1.733,6.959-1.733
		c28.614,0,88.945,67.123,140.335,156.133c27.754,48.072,49.256,95.91,60.543,134.701c11.048,37.97,10.875,63.506-0.476,70.06
		C859.023,477.997,856.682,478.58,854.057,478.58"/>
	<path clip-path="url(#SVGID_2_)" d="M660.614,115.314v1.277c28.403,0,88.497,66.986,139.781,155.813
		c27.729,48.029,49.21,95.817,60.483,134.56c10.959,37.665,10.893,62.934-0.182,69.328c-1.894,1.093-4.128,1.648-6.64,1.648
		c-13.545,0-35.047-15.534-60.547-43.741c-25.931-28.683-54.07-68.485-79.236-112.073c-27.729-48.029-49.209-95.816-60.482-134.56
		c-10.959-37.665-10.893-62.934,0.182-69.328c1.893-1.093,4.127-1.648,6.64-1.648L660.614,115.314 M660.613,115.314
		c-2.721,0-5.158,0.595-7.278,1.819c-24.393,14.083,2.395,106.148,59.832,205.633c52.446,90.839,112.31,156.452,140.889,156.452
		c2.721,0,5.159-0.594,7.279-1.819c24.392-14.083-2.396-106.148-59.833-205.633C749.056,180.929,689.192,115.313,660.613,115.314"/>
	<path clip-path="url(#SVGID_2_)" fill="#FFCB0C" d="M1121.206,966.999c-28.457,0-87.172-68.717-136.576-159.842
		c-26.457-48.799-46.67-97.195-56.913-136.274c-10.028-38.253-9.17-63.774,2.352-70.021c1.9-1.03,4.097-1.553,6.53-1.553
		c28.456,0,87.17,68.717,136.577,159.842c26.457,48.799,46.669,97.195,56.913,136.274c10.026,38.253,9.169,63.774-2.354,70.021
		C1125.835,966.477,1123.639,966.999,1121.206,966.999"/>
	<path clip-path="url(#SVGID_2_)" d="M936.6,598.67v1.277c13.436,0,34.529,15.934,59.393,44.867
		c25.274,29.413,52.487,70.127,76.621,114.641c26.433,48.755,46.625,97.101,56.856,136.132c9.946,37.944,9.203,63.203-2.039,69.298
		c-1.806,0.979-3.9,1.476-6.226,1.476c-13.437,0-34.528-15.934-59.392-44.865c-25.276-29.413-52.488-70.127-76.623-114.643
		c-26.433-48.755-46.625-97.101-56.857-136.132c-9.946-37.945-9.203-63.203,2.039-69.298c1.806-0.979,3.901-1.476,6.226-1.476
		L936.6,598.67 M936.599,598.67c-2.525,0-4.812,0.533-6.834,1.63c-24.762,13.425-0.449,106.174,54.303,207.162
		c50.281,92.74,108.746,160.176,137.138,160.176c2.524,0,4.812-0.533,6.834-1.63c24.762-13.425,0.449-106.174-54.303-207.162
		C1023.456,666.105,964.99,598.668,936.599,598.67"/>
	<path clip-path="url(#SVGID_2_)" fill="#FFCB0C" d="M833.302,491.484c-32.163,0-102.006-47.38-169.846-115.221
		c-39.251-39.251-72.401-79.893-93.343-114.442c-20.499-33.816-26.94-58.527-17.672-67.795c2.79-2.79,6.959-4.205,12.391-4.205
		c32.162,0,102.006,47.381,169.846,115.221c39.251,39.251,72.4,79.894,93.343,114.442c20.499,33.817,26.94,58.527,17.673,67.795
		C842.904,490.069,838.735,491.484,833.302,491.484"/>
	<path clip-path="url(#SVGID_2_)" d="M564.834,189.183v1.277c15.145,0,40.124,11.211,70.334,31.569
		c31.278,21.077,65.532,49.939,99.059,83.465c39.215,39.215,72.332,79.815,93.248,114.321c20.334,33.545,26.81,57.97,17.767,67.013
		c-2.666,2.666-6.683,4.018-11.94,4.018c-15.145,0-40.122-11.211-70.332-31.567c-31.28-21.077-65.535-49.94-99.062-83.467
		c-39.216-39.215-72.332-79.816-93.248-114.321c-20.334-33.545-26.81-57.97-17.767-67.013c2.665-2.666,6.682-4.018,11.939-4.018
		L564.834,189.183 M564.832,189.183c-5.521,0-9.873,1.422-12.843,4.392c-19.917,19.917,29.787,101.911,111.016,183.14
		c69.117,69.117,138.787,115.408,170.297,115.408c5.522,0,9.874-1.422,12.843-4.392c19.917-19.917-29.786-101.911-111.015-183.14
		C666.013,235.474,596.343,189.182,564.832,189.183"/>
	<path clip-path="url(#SVGID_2_)" fill="#FFCB0C" d="M1218.101,894.08c-15.065,0-39.87-11.724-69.847-33.011
		c-30.504-21.662-65.189-52.463-97.667-86.729c-38.186-40.288-70.235-81.805-90.244-116.901
		c-19.586-34.354-25.364-59.229-15.85-68.244c2.717-2.576,6.649-3.883,11.684-3.883c15.064,0,39.87,11.724,69.847,33.012
		c30.504,21.661,65.189,52.463,97.667,86.729c38.185,40.287,70.234,81.804,90.244,116.9c19.586,34.355,25.363,59.229,15.851,68.244
		C1227.067,892.774,1223.136,894.08,1218.101,894.08"/>
	<path clip-path="url(#SVGID_2_)" d="M956.176,584.674v1.277c14.935,0,39.61,11.683,69.48,32.895
		c30.471,21.639,65.121,52.41,97.57,86.646c38.151,40.252,70.168,81.725,90.153,116.777c19.428,34.078,25.247,58.668,15.966,67.465
		c-2.596,2.46-6.379,3.707-11.245,3.707c-14.934,0-39.607-11.682-69.478-32.893c-30.471-21.639-65.123-52.411-97.573-86.647
		c-38.15-40.252-70.168-81.725-90.152-116.778c-19.428-34.077-25.248-58.667-15.966-67.464c2.596-2.46,6.379-3.708,11.245-3.708
		V584.674 M956.176,584.674c-5.13,0-9.23,1.315-12.124,4.058c-20.443,19.376,27.046,102.673,106.071,186.049
		c67.839,71.574,136.863,119.938,167.978,119.938c5.13,0,9.23-1.314,12.124-4.057c20.443-19.377-27.047-102.674-106.07-186.049
		C1056.314,633.038,987.29,584.673,956.176,584.674"/>
	<path clip-path="url(#SVGID_2_)" fill="#FFCB0C" d="M809.93,510.021c-37.658,0-108.742-26.993-181.097-68.767
		c-48.072-27.754-90.611-58.432-119.782-86.383c-28.553-27.359-41.17-49.56-34.617-60.911c3.333-5.773,11.295-8.7,23.664-8.7
		c37.658,0,108.742,26.992,181.097,68.766c48.072,27.755,90.611,58.433,119.782,86.384c28.553,27.359,41.171,49.56,34.617,60.911
		C830.261,507.095,822.3,510.021,809.93,510.021"/>
	<path clip-path="url(#SVGID_2_)" d="M498.101,285.899c37.552,0,108.51,26.959,180.775,68.681
		c48.029,27.73,90.525,58.375,119.66,86.292c28.323,27.138,40.9,49.055,34.506,60.13c-3.211,5.561-10.986,8.381-23.111,8.381
		c-37.554,0-108.513-26.959-180.778-68.681c-48.029-27.73-90.525-58.375-119.659-86.291c-28.324-27.14-40.9-49.057-34.506-60.131
		c3.21-5.561,10.986-8.381,23.111-8.381H498.101 M498.099,284.622c-12.238,0-20.684,2.898-24.218,9.019
		c-14.083,24.393,55.149,90.73,154.634,148.167c74.522,43.026,144.879,68.852,181.416,68.852c12.238,0,20.683-2.898,24.217-9.019
		c14.083-24.393-55.149-90.73-154.633-148.167C604.992,310.448,534.635,284.621,498.099,284.622"/>
	<path clip-path="url(#SVGID_2_)" fill="#FFCB0C" d="M1286.942,799.19c-37.159,0-108.261-28.896-181.14-73.618
		c-47.312-29.033-89.015-60.84-117.426-89.562c-27.81-28.114-39.829-50.646-32.974-61.816c3.294-5.368,10.676-8.089,21.939-8.089
		c37.159,0,108.261,28.896,181.14,73.618c47.312,29.032,89.014,60.839,117.426,89.561c27.809,28.114,39.828,50.646,32.973,61.817
		C1305.588,796.469,1298.206,799.19,1286.942,799.19"/>
	<path clip-path="url(#SVGID_2_)" d="M977.346,566.743c17.736,0,43.926,6.771,75.735,19.58
		c32.649,13.147,68.981,31.801,105.067,53.944c47.27,29.007,88.928,60.779,117.305,89.466
		c27.587,27.888,39.572,50.134,32.884,61.034c-3.17,5.165-10.368,7.784-21.396,7.784c-17.736,0-43.925-6.771-75.734-19.578
		c-32.65-13.147-68.983-31.802-105.07-53.946c-47.271-29.006-88.929-60.779-117.306-89.466
		c-27.587-27.888-39.571-50.134-32.883-61.032c3.17-5.166,10.369-7.785,21.396-7.786H977.346 M977.344,565.466
		c-11.182,0.001-18.989,2.699-22.484,8.396c-14.732,24.006,52.698,92.173,150.609,152.255
		c74.682,45.827,145.523,73.713,181.473,73.713c11.182,0,18.989-2.698,22.484-8.394c14.73-24.007-52.698-92.175-150.609-152.256
		C1084.135,593.352,1013.292,565.465,977.344,565.466"/>
	<path clip-path="url(#SVGID_2_)" fill="#FFCB0C" d="M764.598,536.682c-40.659,0-96.202-8.634-152.386-23.688
		c-53.618-14.367-102.648-32.99-138.059-52.438c-34.661-19.037-52.595-37.216-49.202-49.876
		c3.224-12.037,24.868-18.665,60.944-18.665c40.66,0,96.202,8.634,152.385,23.688c53.618,14.367,102.648,32.99,138.059,52.438
		c34.661,19.037,52.595,37.216,49.202,49.876C822.317,530.054,800.673,536.682,764.598,536.682"/>
	<path clip-path="url(#SVGID_2_)" d="M485.898,392.653c40.604,0,96.085,8.626,152.217,23.667
		c53.57,14.354,102.55,32.956,137.917,52.381c34.382,18.883,52.203,36.798,48.893,49.151c-1.556,5.809-7.633,10.344-18.06,13.481
		c-10.388,3.126-24.61,4.71-42.268,4.71c-40.606,0-96.088-8.626-152.22-23.667c-53.569-14.354-102.549-32.956-137.916-52.38
		c-34.382-18.884-52.203-36.799-48.894-49.152c1.557-5.808,7.633-10.344,18.06-13.48c10.389-3.125,24.61-4.71,42.269-4.71H485.898
		 M485.895,391.376c-35.048,0-58.128,6.325-61.562,19.138c-7.29,27.207,76.752,73.364,187.713,103.096
		c58.704,15.73,113.18,23.71,152.551,23.71c35.048,0,58.129-6.324,61.562-19.137c7.29-27.207-76.752-73.365-187.713-103.097
		C579.742,399.356,525.267,391.376,485.895,391.376"/>
	<path clip-path="url(#SVGID_2_)" fill="#FFCB0C" d="M1305.428,692.034c-41.352,0-99.272-10.154-158.913-27.86
		c-53.213-15.798-101.727-35.728-136.604-56.117c-34.14-19.959-51.58-38.611-47.85-51.177c3.278-11.043,22.529-17.125,54.206-17.125
		c41.35,0,99.271,10.155,158.913,27.861c53.214,15.798,101.728,35.728,136.604,56.117c34.139,19.959,51.579,38.612,47.849,51.177
		C1356.355,685.953,1337.104,692.034,1305.428,692.034"/>
	<path clip-path="url(#SVGID_2_)" d="M1016.268,539.117v1.277c41.292,0,99.146,10.146,158.73,27.835
		c53.166,15.783,101.631,35.691,136.465,56.057c33.863,19.797,51.198,38.184,47.559,50.442
		c-3.191,10.749-22.224,16.668-53.594,16.668c-41.291,0-99.146-10.146-158.73-27.834c-53.166-15.784-101.63-35.691-136.464-56.057
		c-33.864-19.798-51.199-38.184-47.56-50.443c3.191-10.748,22.225-16.668,53.594-16.668V539.117 M1016.268,539.117
		c-30.983,0-51.311,5.761-54.818,17.583c-8.016,27,74.76,75.394,184.883,108.087c61.92,18.382,119.3,27.887,159.097,27.887
		c30.983,0,51.309-5.762,54.817-17.581c8.017-27.002-74.759-75.395-184.884-108.088
		C1113.444,548.622,1056.063,539.117,1016.268,539.117"/>
	<path clip-path="url(#SVGID_2_)" fill="#FFCB0C" d="M614.724,586.589c-55.509,0-107.688-5.298-146.926-14.919
		c-38.407-9.417-60.435-22.335-60.435-35.442s22.028-26.025,60.435-35.442c39.238-9.621,91.417-14.919,146.926-14.919
		c55.509,0,107.688,5.298,146.926,14.919c38.407,9.417,60.435,22.335,60.435,35.442s-22.028,26.025-60.435,35.442
		C722.412,581.291,670.232,586.589,614.724,586.589"/>
	<path clip-path="url(#SVGID_2_)" d="M614.724,486.505c55.459,0,107.584,5.292,146.774,14.901
		c38.098,9.342,59.949,22.033,59.949,34.822c0,12.789-21.851,25.48-59.949,34.822c-39.19,9.608-91.315,14.9-146.774,14.9
		s-107.585-5.292-146.774-14.9C429.852,561.708,408,549.017,408,536.228c0-12.789,21.851-25.48,59.949-34.822
		C507.139,491.797,559.265,486.505,614.724,486.505 M614.724,485.228c-114.875,0-208,22.833-208,51c0,28.167,93.125,51,208,51
		s208-22.833,208-51C822.724,508.061,729.599,485.228,614.724,485.228"/>
	<path clip-path="url(#SVGID_2_)" fill="#FFCB0C" d="M1192.785,594.638c-7.533,0-15.216-0.104-22.836-0.308
		c-55.49-1.486-107.509-8.181-146.474-18.85c-38.142-10.442-59.815-23.945-59.464-37.048c0.33-12.325,19.485-23.727,53.937-32.104
		c34.454-8.379,81.284-12.993,131.862-12.993c7.533,0,15.216,0.104,22.836,0.308c55.489,1.487,107.508,8.181,146.475,18.849
		c38.141,10.443,59.814,23.947,59.464,37.048c-0.33,12.326-19.485,23.727-53.938,32.104
		C1290.193,590.023,1243.363,594.638,1192.785,594.638"/>
	<path clip-path="url(#SVGID_2_)" d="M1149.817,493.975c7.522,0,15.197,0.104,22.813,0.308
		c55.439,1.485,107.404,8.171,146.322,18.827c37.834,10.358,59.337,23.631,58.994,36.415c-0.321,12.01-19.304,23.197-53.45,31.5
		c-34.406,8.367-81.183,12.975-131.712,12.975c-7.525,0-15.203-0.104-22.817-0.308c-55.439-1.485-107.405-8.172-146.323-18.826
		c-37.834-10.359-59.337-23.632-58.994-36.416c0.322-12.01,19.304-23.196,53.45-31.5c34.406-8.366,81.183-12.974,131.716-12.975
		H1149.817 M1149.812,492.697c-104.155,0.001-185.735,19.456-186.438,45.718c-0.755,28.157,91.725,53.476,206.559,56.553
		c7.725,0.208,15.342,0.308,22.853,0.308c104.156,0,185.735-19.455,186.439-45.718c0.754-28.156-91.726-53.476-206.56-56.553
		C1164.94,492.798,1157.322,492.697,1149.812,492.697"/>
	<path clip-path="url(#SVGID_2_)" fill="#FFCB0C" d="M483.812,680.716c-36.076,0-57.72-6.629-60.944-18.664
		c-3.393-12.66,14.541-30.84,49.202-49.877c35.411-19.448,84.441-38.071,138.059-52.438
		c56.183-15.054,111.726-23.688,152.386-23.688c36.075,0,57.719,6.628,60.943,18.664c7.188,26.823-76.817,72.721-187.261,102.314
		C580.014,672.082,524.472,680.716,483.812,680.716"/>
	<path clip-path="url(#SVGID_2_)" d="M762.525,536.687c17.657,0,31.876,1.585,42.262,4.711c10.424,3.137,16.498,7.672,18.055,13.48
		c3.31,12.353-14.512,30.268-48.894,49.151c-35.367,19.425-84.346,38.027-137.916,52.381
		c-56.132,15.042-111.614,23.667-152.22,23.667c-17.662,0-31.884-1.584-42.271-4.709c-10.425-3.137-16.5-7.673-18.057-13.482
		c-3.31-12.352,14.511-30.268,48.894-49.151c35.366-19.424,84.346-38.026,137.916-52.381
		c56.126-15.039,111.608-23.665,152.227-23.667H762.525 M762.514,535.41c-39.371,0.001-93.854,7.982-152.551,23.71
		C499.002,588.852,414.96,635.01,422.25,662.217c3.434,12.814,26.507,19.138,61.562,19.138c39.37,0,93.853-7.982,152.551-23.71
		c110.961-29.732,195.003-75.89,187.713-103.097C820.642,541.733,797.569,535.409,762.514,535.41"/>
	<path clip-path="url(#SVGID_2_)" fill="#FFCB0C" d="M1029.963,540.51c-40.646,0-65.739-7.436-68.843-20.4
		c-3.052-12.747,15.362-30.439,50.521-48.541c35.919-18.493,85.43-35.796,139.413-48.721
		c53.08-12.709,104.414-19.708,144.546-19.708c40.646,0,65.738,7.435,68.842,20.4c3.053,12.746-15.361,30.439-50.521,48.54
		c-35.919,18.493-85.43,35.796-139.413,48.722C1121.429,533.511,1070.096,540.51,1029.963,540.51"/>
	<path clip-path="url(#SVGID_2_)" d="M1295.606,403.778c40.321,0,65.185,7.257,68.215,19.91
		c2.978,12.437-15.316,29.868-50.192,47.824c-35.875,18.47-85.335,35.755-139.27,48.669c-53.032,12.697-104.313,19.69-144.396,19.69
		c-40.326,0-65.192-7.257-68.222-19.911c-2.978-12.436,15.316-29.867,50.192-47.823c35.874-18.47,85.334-35.754,139.27-48.668
		c53.028-12.697,104.31-19.69,144.4-19.691H1295.606 M1295.6,402.501c-38.552,0-89.708,6.56-144.694,19.726
		c-111.718,26.749-196.966,70.639-190.406,98.031c3.329,13.91,29.688,20.891,69.464,20.891c38.552,0,89.708-6.561,144.693-19.726
		c111.717-26.75,196.965-70.64,190.407-98.032C1361.732,409.481,1335.375,402.5,1295.6,402.501"/>
	<path clip-path="url(#SVGID_2_)" fill="#FFCB0C" d="M494.074,788.273c-12.369,0-20.331-2.927-23.664-8.699
		c-6.553-11.352,6.064-33.553,34.618-60.912c29.17-27.951,71.71-58.629,119.782-86.384c72.354-41.773,143.438-68.766,181.096-68.766
		c12.37,0,20.332,2.927,23.665,8.7c6.553,11.351-6.065,33.552-34.618,60.911c-29.171,27.951-71.71,58.628-119.782,86.384
		C602.815,761.281,531.731,788.273,494.074,788.273"/>
	<path clip-path="url(#SVGID_2_)" d="M805.913,562.874v1.277c12.12,0,19.894,2.819,23.104,8.381
		c6.394,11.075-6.183,32.991-34.506,60.131c-29.134,27.916-71.63,58.562-119.659,86.291
		c-72.265,41.722-143.224,68.681-180.778,68.681c-12.125,0-19.9-2.819-23.111-8.38c-6.394-11.075,6.183-32.992,34.506-60.131
		c29.135-27.917,71.631-58.562,119.66-86.292c72.259-41.719,143.218-68.678,180.777-68.681L805.913,562.874 M805.906,562.874
		c-36.539,0.003-106.899,25.83-181.416,68.852C525.006,689.164,455.774,755.5,469.857,779.895
		c3.535,6.121,11.974,9.018,24.217,9.018c36.54,0,106.9-25.829,181.416-68.852c99.485-57.438,168.717-123.774,154.634-148.166
		C826.589,565.771,818.149,562.873,805.906,562.874"/>
	<path clip-path="url(#SVGID_2_)" fill="#FFCB0C" d="M979.188,512.518c-13.623,0-22.237-3.149-25.604-9.359
		c-6.247-11.522,6.961-33.378,36.237-59.963c29.908-27.159,73.254-56.687,122.053-83.144
		c71.619-38.829,142.544-63.919,180.691-63.919c13.623,0,22.237,3.149,25.604,9.359c6.248,11.522-6.961,33.378-36.236,59.963
		c-29.909,27.159-73.255,56.687-122.055,83.143C1088.261,487.428,1017.334,512.518,979.188,512.518"/>
	<path clip-path="url(#SVGID_2_)" d="M1292.574,295.494v1.277c13.365,0,21.787,3.037,25.034,9.025
		c6.096,11.242-7.064,32.815-36.104,59.185c-29.871,27.126-73.173,56.622-121.928,83.056
		c-71.533,38.783-142.339,63.842-180.387,63.842c-13.371,0-21.797-3.036-25.043-9.025c-6.096-11.242,7.063-32.814,36.104-59.185
		c29.872-27.126,73.174-56.622,121.929-83.055c71.525-38.779,142.331-63.839,180.387-63.843L1292.574,295.494 M1292.565,295.494
		c-37.128,0.004-106.846,23.795-180.996,63.997c-100.987,54.752-171.971,119.211-158.546,143.972
		c3.567,6.58,12.728,9.694,26.166,9.694c37.127,0,106.845-23.795,180.996-63.997c100.986-54.752,171.971-119.211,158.546-143.973
		C1315.164,298.607,1306.004,295.493,1292.565,295.494"/>
	<path clip-path="url(#SVGID_2_)" fill="#FFCB0C" d="M559.141,884.992c-5.432,0-9.601-1.415-12.391-4.204
		c-9.268-9.269-2.826-33.979,17.673-67.796c20.942-34.549,54.092-75.191,93.343-114.442
		c67.839-67.84,137.683-115.221,169.846-115.221c5.432,0,9.601,1.415,12.391,4.204c9.268,9.269,2.826,33.98-17.673,67.796
		c-20.942,34.549-54.092,75.191-93.343,114.443C661.146,837.612,591.304,884.992,559.141,884.992"/>
	<path clip-path="url(#SVGID_2_)" d="M827.616,582.69v1.277c5.253,0,9.269,1.353,11.934,4.018
		c9.043,9.043,2.567,33.469-17.767,67.013c-20.916,34.506-54.032,75.106-93.248,114.322c-33.526,33.525-67.78,62.387-99.059,83.465
		c-30.21,20.357-55.189,31.568-70.335,31.568c-5.257,0-9.274-1.352-11.94-4.018c-9.043-9.043-2.567-33.469,17.767-67.013
		c20.916-34.506,54.033-75.106,93.248-114.321c33.524-33.524,67.778-62.386,99.059-83.463c30.21-20.356,55.189-31.568,70.336-31.571
		L827.616,582.69 M827.611,582.69c-31.514,0.005-101.186,46.296-170.298,115.408c-81.229,81.229-130.932,163.224-111.015,183.141
		c2.971,2.971,7.317,4.392,12.843,4.392c31.513,0,101.185-46.296,170.297-115.408c81.229-81.229,130.933-163.224,111.016-183.141
		C837.483,584.111,833.136,582.689,827.611,582.69"/>
	<path clip-path="url(#SVGID_2_)" fill="#FFCB0C" d="M955.069,493.283c-5.867,0-10.291-1.53-13.151-4.547
		c-9.016-9.513-1.915-34.041,19.483-67.297c21.86-33.975,56.087-73.716,96.375-111.901
		c68.729-65.144,139.457-110.642,171.994-110.642c5.866,0,10.291,1.53,13.15,4.547c9.017,9.513,1.915,34.042-19.482,67.298
		c-21.859,33.975-56.086,73.715-96.374,111.901C1058.333,447.786,987.606,493.283,955.069,493.283"/>
	<path clip-path="url(#SVGID_2_)" d="M1229.773,199.534c5.683,0,9.95,1.463,12.686,4.348c8.795,9.282,1.668,33.525-19.557,66.513
		c-21.834,33.933-56.025,73.631-96.278,111.782c-34.076,32.299-68.795,60.044-100.404,80.238
		c-30.513,19.493-55.781,30.229-71.15,30.229c-5.684,0-9.953-1.463-12.687-4.347c-8.798-9.282-1.67-33.525,19.556-66.514
		c21.833-33.933,56.024-73.631,96.276-111.782c34.076-32.297,68.796-60.042,100.405-80.236
		C1189.133,210.272,1214.401,199.536,1229.773,199.534L1229.773,199.534 M1229.771,198.257
		c-31.933,0.003-102.157,44.208-172.435,110.817c-83.375,79.024-135.256,159.658-115.88,180.101
		c3.044,3.212,7.662,4.746,13.614,4.746c31.934,0,102.157-44.207,172.435-110.816c83.375-79.025,135.258-159.659,115.881-180.102
		C1240.341,199.792,1235.723,198.257,1229.771,198.257"/>
	<path clip-path="url(#SVGID_2_)" fill="#FFCB0C" d="M653.643,960.526c-2.625,0-4.967-0.583-6.959-1.732
		c-11.351-6.554-11.524-32.089-0.476-70.06c11.287-38.791,32.789-86.629,60.543-134.701
		C758.141,665.022,818.472,597.9,847.085,597.9c2.626,0,4.967,0.583,6.959,1.732c24.049,13.886-2.897,105.741-60.066,204.762
		C742.588,893.404,682.258,960.526,653.643,960.526"/>
	<path clip-path="url(#SVGID_2_)" d="M847.091,597.262v1.277c2.509,0,4.741,0.555,6.635,1.647
		c11.075,6.395,11.141,31.663,0.182,69.328c-11.273,38.743-32.753,86.531-60.483,134.56
		c-51.284,88.829-111.378,155.814-139.782,155.814c-2.512,0-4.746-0.555-6.64-1.648c-11.075-6.394-11.141-31.663-0.182-69.327
		c11.273-38.744,32.753-86.531,60.482-134.561c25.164-43.584,53.303-83.384,79.234-112.067c25.5-28.207,47.003-43.743,60.549-43.746
		L847.091,597.262 M847.086,597.262c-28.582,0.007-88.447,65.62-140.889,156.452c-57.437,99.484-84.225,191.55-59.833,205.633
		c2.122,1.226,4.556,1.819,7.279,1.819c28.582,0,88.447-65.62,140.889-156.452c57.437-99.485,84.225-191.55,59.832-205.634
		C852.243,597.855,849.809,597.261,847.086,597.262"/>
	<path clip-path="url(#SVGID_2_)" fill="#FFCB0C" d="M934.322,479.75c-2.831,0-5.322-0.648-7.404-1.926
		c-11.171-6.855-10.661-32.386,1.4-70.047c12.322-38.475,35.097-85.719,64.129-133.031
		c53.288-86.839,115.184-152.325,143.974-152.325c2.831,0,5.321,0.648,7.403,1.926c23.668,14.524-5.728,105.625-65.528,203.079
		C1025.008,414.265,963.112,479.75,934.322,479.75"/>
	<path clip-path="url(#SVGID_2_)" d="M1136.422,121.783v1.277c2.71,0,5.089,0.616,7.068,1.831
		c10.9,6.689,10.289,31.951-1.674,69.309c-12.308,38.427-35.06,85.623-64.065,132.892C1051.592,369.72,1022.56,408.583,996,436.52
		c-26.11,27.465-48.015,42.591-61.678,42.591c-2.712,0-5.09-0.616-7.07-1.831c-10.9-6.689-10.289-31.951,1.674-69.308
		c12.308-38.428,35.059-85.623,64.065-132.892c26.158-42.629,55.191-81.491,81.751-109.428
		c26.11-27.465,48.015-42.591,61.679-42.592L1136.422,121.783 M1136.421,121.783c-28.789,0.002-89.984,63.76-144.519,152.629
		c-60.082,97.911-89.325,189.225-65.318,203.956c2.217,1.361,4.809,2.02,7.738,2.02c28.788,0,89.985-63.759,144.518-152.628
		c60.082-97.911,89.326-189.226,65.319-203.957C1141.941,122.442,1139.35,121.783,1136.421,121.783"/>
	<path clip-path="url(#SVGID_2_)" fill="#FFCB0C" d="M766.633,1008.696c-1.106,0-2.193-0.141-3.23-0.419
		c-12.661-3.392-19.437-28.013-18.593-67.549c0.863-40.391,9.25-92.163,23.616-145.781c28.2-105.241,71.722-187.68,99.084-187.68
		c1.107,0,2.193,0.141,3.23,0.419c12.661,3.392,19.438,28.013,18.594,67.549c-0.863,40.391-9.25,92.163-23.617,145.781
		C837.518,926.258,793.995,1008.696,766.633,1008.696"/>
	<path clip-path="url(#SVGID_2_)" d="M867.513,606.629v1.277h0.001c1.048,0,2.078,0.133,3.061,0.396
		c12.353,3.311,18.957,27.701,18.12,66.919c-0.861,40.341-9.241,92.06-23.595,145.629c-13.731,51.245-31.531,98.738-50.121,133.732
		c-18.054,33.983-35.676,53.475-48.346,53.475c-1.05,0-2.081-0.134-3.065-0.397c-12.352-3.31-18.957-27.7-18.12-66.918
		c0.862-40.341,9.242-92.061,23.596-145.63c13.73-51.242,31.53-98.735,50.121-133.729c18.054-33.982,35.675-53.474,48.346-53.477
		L867.513,606.629 M867.511,606.629c-27.522,0.007-71.174,81.689-99.701,188.153c-29.732,110.961-31.779,206.822-4.572,214.112
		c1.102,0.295,2.232,0.44,3.395,0.44c27.522,0,71.174-81.689,99.701-188.153c29.732-110.961,31.779-206.822,4.572-214.112
		C869.803,606.773,868.673,606.628,867.511,606.629"/>
	<path clip-path="url(#SVGID_2_)" fill="#FFCB0C" d="M914.181,469.677c-1.234,0-2.437-0.172-3.577-0.51
		c-12.565-3.73-18.68-28.524-16.777-68.023c1.944-40.353,11.715-91.883,27.513-145.096
		c30.791-103.718,76.349-184.964,103.716-184.964c1.233,0,2.438,0.172,3.577,0.51c12.564,3.73,18.68,28.523,16.777,68.023
		c-1.945,40.353-11.716,91.882-27.514,145.096C987.105,388.431,941.548,469.677,914.181,469.677"/>
	<path clip-path="url(#SVGID_2_)" d="M1025.058,70.445v1.277c1.171,0,2.312,0.163,3.394,0.484
		c12.26,3.639,18.208,28.198,16.32,67.38c-1.941,40.303-11.703,91.779-27.486,144.945c-15.026,50.612-34.001,97.452-53.431,131.89
		c-9.426,16.708-18.534,29.774-27.07,38.837c-8.612,9.144-16.217,13.779-22.604,13.779c-1.172,0-2.314-0.162-3.395-0.483
		c-12.26-3.64-18.208-28.199-16.321-67.38c1.942-40.303,11.703-91.779,27.487-144.945c15.026-50.612,34.001-97.451,53.43-131.889
		c9.427-16.708,18.534-29.774,27.071-38.838c8.61-9.143,16.216-13.779,22.604-13.78L1025.058,70.445 M1025.057,70.445
		c-27.553,0.002-73.103,80.236-104.33,185.42c-32.693,110.125-37.307,205.897-10.305,213.913c1.211,0.36,2.465,0.537,3.759,0.537
		c27.552,0,73.102-80.236,104.328-185.421c32.694-110.124,37.308-205.896,10.306-213.913
		C1027.604,70.622,1026.351,70.445,1025.057,70.445"/>
	<path clip-path="url(#SVGID_2_)" fill="#CCA117" d="M896.571,746.571c-113.815,0-206.41-92.596-206.41-206.41
		c0-113.815,92.595-206.41,206.41-206.41s206.411,92.595,206.411,206.41C1102.981,653.976,1010.386,746.571,896.571,746.571"/>
	<path clip-path="url(#SVGID_2_)" d="M896.571,334.18c27.808,0,54.783,5.446,80.177,16.187
		c24.527,10.374,46.556,25.226,65.474,44.143c18.917,18.918,33.769,40.946,44.144,65.474c10.74,25.394,16.187,52.369,16.187,80.177
		s-5.446,54.783-16.187,80.177c-10.375,24.528-25.227,46.557-44.144,65.474c-18.918,18.917-40.946,33.77-65.474,44.144
		c-25.395,10.74-52.369,16.187-80.177,16.187c-27.807,0-54.783-5.446-80.176-16.187c-24.529-10.374-46.557-25.227-65.474-44.144
		s-33.769-40.945-44.144-65.474c-10.741-25.394-16.186-52.369-16.186-80.177s5.445-54.783,16.186-80.177
		c10.375-24.528,25.227-46.556,44.144-65.474c18.917-18.917,40.945-33.769,65.474-44.143
		C841.788,339.626,868.764,334.18,896.571,334.18 M896.571,333.322c-114.234,0-206.838,92.605-206.838,206.839
		C689.733,654.396,782.337,747,896.571,747s206.839-92.604,206.839-206.839C1103.41,425.927,1010.805,333.322,896.571,333.322"/>
	<path clip-path="url(#SVGID_2_)" fill="#5B480E" d="M896.848,701.924c-89.098,0-161.585-72.486-161.585-161.584
		c0-89.099,72.487-161.585,161.585-161.585s161.583,72.486,161.583,161.585C1058.432,629.438,985.946,701.924,896.848,701.924"/>
	<path clip-path="url(#SVGID_2_)" d="M896.848,379.091c43.071,0,83.564,16.772,114.02,47.228
		c30.456,30.456,47.229,70.95,47.229,114.021c0,43.07-16.772,83.563-47.229,114.02s-70.949,47.229-114.02,47.229
		c-43.071,0-83.564-16.772-114.02-47.229s-47.229-70.949-47.229-114.02c0-43.071,16.773-83.565,47.229-114.021
		C813.284,395.863,853.777,379.091,896.848,379.091 M896.848,378.418c-89.426,0-161.921,72.495-161.921,161.921
		c0,89.426,72.495,161.92,161.921,161.92s161.919-72.494,161.919-161.92C1058.768,450.914,986.274,378.418,896.848,378.418"/>
</g>
</svg>
