<?xml version="1.0" encoding="utf-8"?>
<!-- Generator: Adobe Illustrator 16.0.3, SVG Export Plug-In . SVG Version: 6.00 Build 0)  -->
<!DOCTYPE svg PUBLIC "-//W3C//DTD SVG 1.1//EN" "http://www.w3.org/Graphics/SVG/1.1/DTD/svg11.dtd">
<svg version="1.1" xmlns="http://www.w3.org/2000/svg" xmlns:xlink="http://www.w3.org/1999/xlink" x="0px" y="0px" width="1008px"
	 height="1008px" viewBox="0 0 1008 1008" enable-background="new 0 0 1008 1008" xml:space="preserve">
<g id="Layer_1">
	<g>
		<defs>
			<rect id="SVGID_1_" x="-389.999" y="-31.996" width="1920" height="1080"/>
		</defs>
		<clipPath id="SVGID_2_">
			<use xlink:href="#SVGID_1_"  overflow="visible"/>
		</clipPath>
		<g clip-path="url(#SVGID_2_)">
			<path fill="#EAA307" stroke="#231F20" stroke-width="0.8209" stroke-miterlimit="10" d="M524.987,433.241
				c-1.648,0-3.18-0.321-4.552-0.953c-9.772-4.503-11.835-25.363-5.661-57.232c6.307-32.559,20.283-73.281,39.353-114.667
				c17.656-38.315,38.056-73.497,57.444-99.063c19.162-25.269,35.778-39.186,46.79-39.186c1.648,0,3.18,0.321,4.551,0.953
				c9.772,4.502,11.836,25.363,5.662,57.232c-6.307,32.56-20.283,73.281-39.354,114.667c-17.656,38.315-38.057,73.498-57.444,99.063
				C552.615,419.324,535.999,433.241,524.987,433.241"/>
			<path fill="#EAA307" stroke="#231F20" stroke-width="0.8209" stroke-miterlimit="10" d="M347.026,867.719
				c-1.737,0-3.339-0.348-4.763-1.034c-9.692-4.672-11.393-25.565-4.665-57.323c6.873-32.444,21.554-72.917,41.342-113.963
				c37.49-77.771,83.23-136.417,106.396-136.417c1.737,0,3.339,0.348,4.763,1.033c9.691,4.672,11.392,25.566,4.664,57.324
				c-6.872,32.443-21.555,72.917-41.342,113.964C415.93,809.072,370.191,867.719,347.026,867.719"/>
			<path fill="#EAA307" stroke="#231F20" stroke-width="0.8209" stroke-miterlimit="10" d="M505.325,430.005
				c-0.572,0-1.145-0.049-1.702-0.145c-10.604-1.82-17.997-21.437-20.282-53.818c-2.335-33.082,0.625-76.034,8.335-120.944
				c7.494-43.657,18.677-84.323,31.49-114.507c12.704-29.928,25.614-46.411,36.351-46.411c0.572,0,1.145,0.049,1.702,0.145
				c10.604,1.82,17.997,21.436,20.281,53.817c2.335,33.082-0.625,76.035-8.334,120.945c-7.494,43.656-18.678,84.322-31.492,114.506
				C528.971,413.521,516.062,430.005,505.325,430.005"/>
			<path fill="#EAA307" stroke="#231F20" stroke-width="0.8209" stroke-miterlimit="10" d="M445.831,895.744
				c-0.634,0-1.266-0.059-1.88-0.176c-10.571-2.004-17.621-21.745-19.343-54.162c-1.759-33.117,1.949-76.011,10.438-120.78
				c8.229-43.391,20.08-83.771,33.372-113.702c13.177-29.672,26.345-46.013,37.08-46.013c0.633,0,1.266,0.059,1.879,0.176
				c10.572,2.004,17.621,21.745,19.343,54.162c1.758,33.117-1.949,76.012-10.438,120.781c-8.229,43.391-20.08,83.771-33.372,113.702
				C469.733,879.403,456.565,895.744,445.831,895.744"/>
			<path fill="#EAA307" stroke="#231F20" stroke-width="0.8209" stroke-miterlimit="10" d="M485.838,431.908
				c-22.386,0-47.442-74.358-55.855-165.756c-4.177-45.376-3.773-88.428,1.139-121.227c4.808-32.104,13.709-51.083,24.424-52.068
				c0.304-0.028,0.609-0.042,0.915-0.042c22.385,0,47.443,74.358,55.856,165.756c4.178,45.376,3.773,88.428-1.138,121.227
				c-4.808,32.104-13.71,51.082-24.424,52.068C486.449,431.894,486.143,431.908,485.838,431.908"/>
			<path fill="#EAA307" stroke="#231F20" stroke-width="0.8209" stroke-miterlimit="10" d="M548.908,897.179
				c-22.449,0-46.286-74.784-53.138-166.706c-3.387-45.44-2.233-88.479,3.249-121.188c5.365-32.016,14.596-50.836,25.326-51.636
				c0.246-0.019,0.494-0.027,0.741-0.027c22.449,0,46.286,74.783,53.139,166.706c3.387,45.44,2.233,88.479-3.249,121.187
				c-5.365,32.016-14.596,50.836-25.326,51.637C549.404,897.17,549.154,897.179,548.908,897.179"/>
			<path fill="#EAA307" stroke="#231F20" stroke-width="0.8209" stroke-miterlimit="10" d="M467.331,438.803
				c-10.859,0-26.418-14.777-43.81-41.609c-17.579-27.122-35.431-64.197-50.27-104.398c-15.779-42.748-26.531-84.438-30.275-117.391
				c-3.666-32.254,0.021-52.89,10.115-56.616c1.138-0.42,2.364-0.632,3.647-0.632c10.859,0,26.417,14.777,43.809,41.608
				c17.579,27.121,35.433,64.197,50.271,104.399c15.778,42.748,26.531,84.438,30.275,117.39
				c3.665,32.256-0.021,52.891-10.115,56.616C469.841,438.59,468.614,438.803,467.331,438.803"/>
			<path fill="#EAA307" stroke="#231F20" stroke-width="0.8209" stroke-miterlimit="10" d="M648.701,871.892
				c-22.508,0-62.799-64.844-91.729-147.624c-15.033-43.016-25.058-84.886-28.228-117.898c-3.104-32.313,0.941-52.882,11.099-56.432
				c1.083-0.378,2.245-0.57,3.454-0.57c22.508,0,62.8,64.845,91.729,147.625c15.032,43.016,25.058,84.886,28.228,117.897
				c3.104,32.313-0.941,52.882-11.099,56.432C651.072,871.7,649.91,871.892,648.701,871.892"/>
			<path fill="#EAA307" stroke="#231F20" stroke-width="0.8209" stroke-miterlimit="10" d="M450.343,450.349
				c-11.619,0-30.494-11.624-53.148-32.727c-22.989-21.417-48.504-51.393-71.846-84.408c-26.305-37.208-47.48-74.694-59.625-105.554
				c-11.889-30.207-13.667-51.094-4.883-57.305c1.883-1.332,4.249-2.006,7.029-2.006c11.619,0,30.493,11.622,53.148,32.727
				c22.989,21.416,48.504,51.392,71.846,84.408c26.305,37.207,47.48,74.693,59.626,105.554
				c11.888,30.206,13.667,51.094,4.882,57.305C455.489,449.674,453.124,450.349,450.343,450.349"/>
			<path fill="#EAA307" stroke="#231F20" stroke-width="0.8209" stroke-miterlimit="10" d="M737.719,821.728
				c-11.545,0-30.222-11.854-52.59-33.38c-22.691-21.836-47.78-52.347-70.645-85.913c-25.654-37.659-46.174-75.508-57.78-106.575
				c-11.362-30.409-12.778-51.324-3.887-57.381c1.838-1.252,4.114-1.887,6.765-1.887c11.545,0,30.222,11.854,52.59,33.38
				c22.69,21.837,47.78,52.348,70.645,85.914c25.655,37.659,46.175,75.508,57.782,106.574c11.36,30.409,12.776,51.324,3.885,57.381
				C742.646,821.094,740.371,821.728,737.719,821.728"/>
			<path fill="#EAA307" stroke="#231F20" stroke-width="0.8209" stroke-miterlimit="10" d="M434.337,466.177
				c-27.521,0-87.063-33.523-144.796-81.523c-35.039-29.131-65.195-59.859-84.914-86.524c-19.302-26.1-26.426-45.815-19.548-54.089
				c2.477-2.978,6.69-4.488,12.526-4.488c27.521,0,87.062,33.523,144.795,81.523c35.039,29.131,65.195,59.86,84.914,86.525
				c19.301,26.1,26.427,45.816,19.548,54.088C444.386,464.668,440.171,466.177,434.337,466.177"/>
			<path fill="#EAA307" stroke="#231F20" stroke-width="0.8209" stroke-miterlimit="10" d="M808.314,750.495
				c-27.295,0-86.481-34.557-143.93-84.036c-34.527-29.735-64.143-60.984-83.396-87.988c-18.845-26.434-25.626-46.269-18.604-54.421
				c2.443-2.837,6.49-4.274,12.029-4.274c27.294,0,86.48,34.557,143.929,84.036c34.526,29.735,64.144,60.985,83.396,87.988
				c18.845,26.433,25.626,46.268,18.604,54.42C817.899,749.057,813.852,750.495,808.314,750.495"/>
			<path fill="#EAA307" stroke="#231F20" stroke-width="0.8209" stroke-miterlimit="10" d="M414.339,486.498
				c-32.689,0-88.661-16.434-146.073-42.89c-41.385-19.07-78.466-40.946-104.415-61.599c-25.399-20.216-37.384-37.415-32.881-47.187
				c2.773-6.017,11.703-9.198,25.826-9.198c32.689,0,88.662,16.435,146.073,42.89c41.385,19.07,78.467,40.947,104.415,61.6
				c25.399,20.216,37.384,37.415,32.881,47.187C437.392,483.317,428.462,486.498,414.339,486.498"/>
			<path fill="#EAA307" stroke="#231F20" stroke-width="0.8209" stroke-miterlimit="10" d="M850.175,664.233
				c-32.471,0-88.76-17.411-146.9-45.438c-41.047-19.787-77.742-42.306-103.327-63.406c-25.044-20.655-36.728-38.059-32.056-47.751
				c2.764-5.731,11.196-8.761,24.388-8.761c32.471,0,88.76,17.411,146.899,45.438c41.047,19.786,77.743,42.306,103.327,63.406
				c25.044,20.655,36.728,38.059,32.057,47.752C871.799,661.204,863.366,664.233,850.175,664.233"/>
			<path fill="#EAA307" stroke="#231F20" stroke-width="0.8209" stroke-miterlimit="10" d="M360.563,515.165
				c-29.148,0-62.894-3.148-97.588-9.104c-44.91-7.71-86.391-19.243-116.8-32.476c-29.765-12.953-45.793-26.464-43.973-37.068
				c2.262-13.182,31.112-21.051,77.172-21.051c29.148,0,62.895,3.148,97.59,9.104c44.91,7.709,86.39,19.242,116.799,32.476
				c29.767,12.953,45.795,26.464,43.974,37.067C435.474,507.295,406.624,515.165,360.563,515.165"/>
			<path fill="#EAA307" stroke="#231F20" stroke-width="0.8209" stroke-miterlimit="10" d="M832.57,573.549
				c-30.618,0-66.604-3.756-104.067-10.859c-44.769-8.489-86.043-20.742-116.218-34.503c-29.535-13.469-45.327-27.256-43.321-37.826
				c2.346-12.376,28.843-19.765,70.876-19.765c30.619,0,66.604,3.755,104.067,10.859c44.769,8.489,86.042,20.743,116.216,34.502
				c29.537,13.47,45.327,27.258,43.322,37.828C901.1,566.16,874.604,573.549,832.57,573.549"/>
			<path fill="#EAA307" stroke="#231F20" stroke-width="0.8209" stroke-miterlimit="10" d="M214.078,570.605
				c-66.231,0-111.78-11.419-113.345-28.415c-0.986-10.714,16.049-22.931,46.735-33.52c31.351-10.816,73.605-19.074,118.98-23.25
				c20.552-1.893,40.722-2.853,59.95-2.853c66.23,0,111.78,11.42,113.345,28.415c0.987,10.714-16.048,22.931-46.735,33.52
				c-31.35,10.816-73.604,19.074-118.98,23.252C253.476,569.646,233.306,570.605,214.078,570.605"/>
			<path fill="#EAA307" stroke="#231F20" stroke-width="0.8209" stroke-miterlimit="10" d="M688.662,503.863
				c-71.163,0-121.799-12.53-123.136-30.472c-0.8-10.729,16.444-22.647,47.312-32.7c31.533-10.271,73.925-17.792,119.366-21.179
				c16.885-1.259,33.604-1.896,49.692-1.896c71.16,0,121.794,12.53,123.131,30.471c0.799,10.729-16.444,22.648-47.313,32.701
				c-31.533,10.27-73.924,17.791-119.365,21.179C721.467,503.225,704.749,503.863,688.662,503.863"/>
			<path fill="#EAA307" stroke="#231F20" stroke-width="0.8209" stroke-miterlimit="10" d="M160.845,656.166
				c-19.578,0-31.397-3.984-34.179-11.521c-3.725-10.094,9.567-26.304,36.468-44.474c27.482-18.563,66.16-37.476,108.908-53.254
				c53.745-19.838,106.016-31.682,139.827-31.682c19.578,0,31.396,3.984,34.179,11.521c3.726,10.093-9.566,26.304-36.467,44.473
				c-27.483,18.563-66.161,37.476-108.909,53.254C246.927,644.322,194.655,656.166,160.845,656.166"/>
			<path fill="#EAA307" stroke="#231F20" stroke-width="0.8209" stroke-miterlimit="10" d="M594.39,470.029
				c-21.152,0-33.8-4.196-36.575-12.137c-3.549-10.156,10.023-26.132,37.236-43.832c27.801-18.082,66.801-36.317,109.817-51.351
				c52.438-18.326,103.936-29.266,137.757-29.266c21.151,0,33.799,4.196,36.574,12.136c3.549,10.157-10.022,26.133-37.235,43.832
				c-27.802,18.082-66.803,36.319-109.819,51.352C679.707,459.089,628.21,470.029,594.39,470.029"/>
			<path fill="#EAA307" stroke="#231F20" stroke-width="0.8209" stroke-miterlimit="10" d="M193.389,742.462
				c-7.446,0-12.546-1.872-15.157-5.566c-6.211-8.785,2.432-27.882,23.714-52.396c21.742-25.043,54.207-53.322,91.414-79.627
				c59.286-41.915,118.643-70.075,147.701-70.075c7.447,0,12.547,1.873,15.158,5.566c6.212,8.786-2.432,27.883-23.713,52.396
				c-21.742,25.043-54.207,53.321-91.415,79.627C281.804,714.301,222.447,742.462,193.389,742.462"/>
			<path fill="#EAA307" stroke="#231F20" stroke-width="0.8209" stroke-miterlimit="10" d="M562.206,450.754
				c-7.88,0-13.213-1.964-15.852-5.836c-6.056-8.892,2.917-27.837,24.623-51.976c22.174-24.661,55.126-52.371,92.785-78.024
				c59.27-40.375,118.79-67.502,148.106-67.502c7.879,0,13.212,1.963,15.85,5.835c6.059,8.893-2.916,27.837-24.621,51.976
				c-22.175,24.661-55.126,52.371-92.785,78.025C651.041,423.628,591.521,450.754,562.206,450.754"/>
			<path fill="#EAA307" stroke="#231F20" stroke-width="0.8209" stroke-miterlimit="10" d="M260.248,815.263
				c-3.449,0-6.251-0.877-8.331-2.606c-8.273-6.878-4.867-27.562,9.345-56.748c14.519-29.816,38.559-65.534,67.69-100.573
				c51.58-62.038,107.213-107.066,132.283-107.066c3.449,0,6.251,0.876,8.331,2.604c17.529,14.574-17.029,85.148-77.034,157.322
				C340.951,770.234,285.318,815.263,260.248,815.263"/>
			<path fill="#EAA307" stroke="#231F20" stroke-width="0.8209" stroke-miterlimit="10" d="M540.577,438.104
				c-3.619,0-6.529-0.927-8.65-2.754c-8.153-7.021-4.388-27.643,10.33-56.577c15.036-29.561,39.693-64.854,69.43-99.38
				c52.276-60.698,108.53-104.753,133.76-104.753c3.618,0,6.528,0.927,8.649,2.753c8.153,7.021,4.388,27.644-10.33,56.578
				c-15.036,29.559-39.693,64.854-69.431,99.379C622.06,394.049,565.805,438.104,540.577,438.104"/>
		</g>
		<g clip-path="url(#SVGID_2_)">
			<path d="M658.362,121.616v1.048h0.001c1.571,0,3.027,0.305,4.33,0.905c9.534,4.394,11.489,25.045,5.366,56.658
				c-6.3,32.518-20.263,73.198-39.315,114.546c-17.641,38.281-38.02,73.429-57.386,98.966
				c-19.06,25.135-35.528,38.978-46.372,38.978c-1.572,0-3.03-0.305-4.332-0.904c-9.535-4.394-11.491-25.044-5.366-56.657
				c6.299-32.519,20.262-73.199,39.315-114.547c17.64-38.281,38.019-73.427,57.385-98.964c19.06-25.134,35.528-38.978,46.372-38.979
				L658.362,121.616 M658.361,121.616c-22.995,0.003-67.988,58.863-104.71,138.554c-39.464,85.644-54.434,162.918-33.435,172.594
				c1.46,0.672,3.054,1,4.771,1c22.996,0,67.989-58.862,104.71-138.552c39.465-85.646,54.436-162.919,33.435-172.595
				C661.672,121.945,660.08,121.616,658.361,121.616"/>
			<path d="M485.337,558.457v1.049c1.657,0,3.183,0.33,4.534,0.981c9.457,4.559,11.053,25.24,4.379,56.742
				c-6.864,32.404-21.532,72.835-41.302,113.846c-18.237,37.831-39.155,72.529-58.902,97.703
				c-19.433,24.773-36.132,38.416-47.02,38.416c-1.658,0-3.185-0.331-4.536-0.981c-9.457-4.56-11.053-25.241-4.38-56.743
				c6.865-32.404,21.532-72.835,41.302-113.844c18.238-37.832,39.157-72.53,58.903-97.703c19.432-24.773,36.131-38.416,47.02-38.417
				L485.337,558.457 M485.336,558.457c-23.07,0.002-68.895,57.942-106.868,136.713c-40.948,84.946-57.261,161.946-36.432,171.987
				c1.513,0.729,3.182,1.085,4.99,1.085c23.068,0,68.894-57.942,106.867-136.712c40.949-84.945,57.26-161.947,36.433-171.987
				C488.812,558.813,487.145,558.457,485.336,558.457"/>
			<path d="M559.521,93.656v1.048c0.54,0,1.082,0.046,1.61,0.137c10.346,1.775,17.58,21.217,19.848,53.337
				c2.33,33.041-0.627,75.949-8.329,120.819c-7.487,43.617-18.659,84.243-31.458,114.39c-12.434,29.291-25.507,46.092-35.868,46.092
				c-0.542,0-1.085-0.046-1.613-0.137c-10.347-1.775-17.58-21.217-19.848-53.338c-2.331-33.042,0.626-75.949,8.329-120.819
				c7.487-43.615,18.659-84.24,31.457-114.388c12.434-29.29,25.507-46.091,35.868-46.094L559.521,93.656 M559.517,93.656
				c-22.616,0.008-52.818,70.83-68.358,161.354c-15.954,92.94-10.414,171.455,12.375,175.367c0.592,0.102,1.188,0.151,1.791,0.151
				c22.618,0,52.82-70.829,68.359-161.353c15.954-92.94,10.414-171.456-12.375-175.368
				C560.715,93.707,560.121,93.656,559.517,93.656"/>
			<path d="M505.498,560.387v1.049h0c0.6,0,1.199,0.056,1.781,0.166c10.314,1.956,17.209,21.521,18.917,53.675
				c1.756,33.077-1.948,75.927-10.43,120.655c-8.22,43.353-20.059,83.692-33.335,113.588c-12.898,29.044-26.238,45.701-36.6,45.701
				c-0.601,0-1.2-0.057-1.781-0.167c-10.314-1.955-17.209-21.52-18.917-53.675c-1.757-33.077,1.948-75.926,10.43-120.655
				c8.22-43.352,20.06-83.69,33.336-113.586c12.896-29.043,26.237-45.701,36.599-45.702L505.498,560.387 M505.497,560.387
				c-22.599,0.003-53.901,70.149-70.965,160.142c-17.569,92.649-13.396,171.248,9.322,175.556c0.652,0.123,1.309,0.186,1.977,0.186
				c22.6,0,53.901-70.15,70.966-160.142c17.569-92.649,13.395-171.249-9.322-175.557
				C506.823,560.447,506.164,560.387,505.497,560.387"/>
			<path d="M456.46,93.338c10.388,0,22.249,17.381,32.54,47.685c10.588,31.181,18.684,72.943,22.794,117.597
				c4.173,45.335,3.771,88.342-1.136,121.1c-4.769,31.846-13.499,50.662-23.953,51.624c-0.287,0.026-0.578,0.04-0.867,0.04
				c-10.389,0-22.249-17.379-32.539-47.681c-10.589-31.179-18.685-72.944-22.795-117.6c-4.173-45.334-3.77-88.341,1.136-121.1
				c4.769-31.846,13.499-50.661,23.953-51.624C455.879,93.353,456.171,93.338,456.46,93.338 M456.46,92.291
				c-0.322,0-0.643,0.015-0.963,0.044c-23.024,2.12-34.682,79.961-26.037,173.865c8.524,92.596,33.604,166.233,56.378,166.233
				c0.321,0,0.643-0.015,0.963-0.044c23.024-2.12,34.681-79.961,26.038-173.865C504.314,165.928,479.233,92.291,456.46,92.291"/>
			<path d="M525.087,557.098v1.049c10.403,0,21.991,17.496,31.792,48c10.084,31.386,17.479,73.37,20.822,118.22
				c3.383,45.4,2.232,88.394-3.243,121.062c-5.322,31.758-14.379,50.42-24.848,51.2c-0.232,0.018-0.469,0.026-0.703,0.026
				c-10.403,0-21.991-17.495-31.792-47.999c-10.084-31.385-17.48-73.37-20.823-118.221c-3.385-45.4-2.233-88.395,3.242-121.063
				c5.323-31.758,14.38-50.42,24.849-51.199c0.231-0.018,0.468-0.026,0.702-0.026L525.087,557.098 M525.085,557.098
				c-0.259,0-0.521,0.01-0.78,0.028c-23.058,1.719-36.067,79.347-29.058,173.386c6.931,92.982,30.835,167.19,53.661,167.19
				c0.259,0,0.521-0.009,0.781-0.028c23.057-1.719,36.067-79.347,29.058-173.386C571.814,631.305,547.911,557.091,525.085,557.098"
				/>
			<path d="M356.742,118.681c10.676,0,26.077,14.693,43.369,41.373c17.557,27.088,35.39,64.127,50.215,104.292
				c15.765,42.709,26.506,84.355,30.246,117.267c3.636,31.995,0.072,52.43-9.776,56.065c-1.079,0.397-2.245,0.6-3.466,0.6
				c-10.675,0-26.077-14.692-43.368-41.369c-17.559-27.09-35.394-64.129-50.22-104.296c-15.765-42.709-26.507-84.355-30.246-117.267
				c-3.637-31.996-0.073-52.43,9.775-56.066c1.078-0.398,2.244-0.599,3.468-0.6H356.742 M356.738,117.633
				c-1.34,0-2.621,0.219-3.829,0.665c-21.691,8.006-12.805,86.213,19.85,174.68c30.836,83.542,71.834,146.349,94.571,146.349
				c1.34,0,2.622-0.219,3.829-0.664c21.691-8.007,12.804-86.213-19.849-174.68C420.474,180.441,379.474,117.625,356.738,117.633"/>
			<path d="M543.299,549.892c10.646,0,25.805,14.871,42.684,41.874c17.136,27.415,34.376,64.847,48.549,105.398
				c15.02,42.978,25.034,84.805,28.201,117.775c3.078,32.054-0.84,52.424-10.75,55.887c-1.028,0.359-2.131,0.542-3.281,0.542
				c-10.646,0-25.804-14.871-42.683-41.873c-17.136-27.415-34.379-64.847-48.552-105.399
				c-15.019-42.978-25.034-84.805-28.201-117.775c-3.078-32.054,0.84-52.424,10.75-55.888
				C541.043,550.074,542.147,549.893,543.299,549.892L543.299,549.892 M543.297,548.843c-1.264,0.001-2.476,0.198-3.627,0.601
				c-21.828,7.628-14.302,85.978,16.808,174.998c29.47,84.326,69.528,147.976,92.224,147.976c1.264,0,2.477-0.198,3.627-0.601
				c21.828-7.628,14.303-85.978-16.807-174.998C606.053,612.492,565.993,548.838,543.297,548.843"/>
			<path d="M267.873,167.825v1.048h0c11.486,0,30.234,11.573,52.791,32.588c22.962,21.392,48.45,51.338,71.771,84.325
				c26.28,37.174,47.435,74.622,59.566,105.443c11.792,29.963,13.639,50.625,5.067,56.685c-1.793,1.268-4.055,1.909-6.727,1.909
				c-11.486,0-30.233-11.571-52.791-32.585c-22.963-21.393-48.453-51.339-71.774-84.327
				c-26.282-37.174-47.437-74.621-59.566-105.443c-11.793-29.964-13.641-50.625-5.067-56.685c1.791-1.267,4.055-1.91,6.726-1.911
				L267.873,167.825 M267.87,167.825c-2.863,0-5.329,0.685-7.333,2.102c-18.879,13.348,9.946,86.589,64.384,163.59
				c48.66,68.827,101.309,117.356,125.422,117.356c2.863,0,5.328-0.687,7.332-2.103c18.88-13.349-9.946-86.589-64.383-163.59
				C344.631,216.353,291.982,167.82,267.87,167.825"/>
			<path d="M559.583,536.067v1.049c11.409,0,29.958,11.803,52.229,33.235c22.663,21.812,47.728,52.292,70.572,85.829
				c25.63,37.625,46.131,75.436,57.723,106.463c11.27,30.165,12.758,50.854,4.082,56.765c-1.75,1.191-3.926,1.796-6.47,1.796
				c-11.41,0-29.957-11.803-52.227-33.234c-22.666-21.812-47.729-52.293-70.575-85.831c-25.632-37.625-46.132-75.435-57.724-106.463
				c-11.27-30.164-12.757-50.854-4.081-56.765c1.749-1.191,3.926-1.795,6.469-1.795L559.583,536.067 M559.583,536.067
				c-2.733,0-5.104,0.645-7.06,1.978c-19.109,13.017,8.438,86.749,61.528,164.685c47.656,69.959,99.693,119.523,123.669,119.523
				c2.733,0,5.104-0.646,7.06-1.979c19.108-13.017-8.438-86.749-61.528-164.685C635.596,585.632,583.558,536.066,559.583,536.067"/>
			<path d="M197.608,239.027v1.049h0.001c13.101,0,34.367,7.853,59.879,22.11c26.465,14.79,55.711,35.293,84.576,59.292
				c35.008,29.104,65.134,59.801,84.828,86.433c19.146,25.89,26.278,45.37,19.566,53.442c-2.372,2.853-6.45,4.3-12.123,4.3
				c-13.101,0-34.366-7.853-59.879-22.109c-26.468-14.791-55.716-35.294-84.582-59.293c-35.007-29.105-65.132-59.801-84.827-86.434
				c-19.146-25.89-26.277-45.369-19.566-53.442c2.372-2.852,6.45-4.299,12.123-4.299L197.608,239.027 M197.604,239.027
				c-5.881,0.001-10.295,1.51-12.929,4.679c-14.782,17.779,32.017,81.065,104.53,141.352
				c59.594,49.546,118.002,81.645,145.131,81.645c5.881,0,10.295-1.511,12.929-4.679c14.782-17.778-32.018-81.065-104.53-141.352
				C283.143,271.125,224.732,239.024,197.604,239.027"/>
			<path d="M574.417,520.299c27.178,0,86.222,34.505,143.584,83.909c34.495,29.71,64.081,60.925,83.311,87.896
				c18.693,26.219,25.484,45.818,18.634,53.773c-2.339,2.716-6.252,4.093-11.631,4.093c-27.181,0-86.226-34.504-143.588-83.908
				c-34.495-29.71-64.082-60.925-83.311-87.896c-18.692-26.22-25.485-45.82-18.634-53.774c2.339-2.716,6.253-4.093,11.633-4.094
				H574.417 M574.414,519.251c-5.592,0-9.828,1.439-12.427,4.457c-15.089,17.52,30.604,81.609,102.056,143.149
				c59.146,50.939,117.398,84.162,144.271,84.162c5.591,0,9.826-1.44,12.426-4.458c15.088-17.519-30.603-81.608-102.055-143.148
				C659.539,552.473,601.285,519.248,574.414,519.251"/>
			<path d="M156.803,326.15c32.616,0,88.5,16.416,145.847,42.841c41.348,19.054,78.392,40.905,104.308,61.533
				c25.195,20.054,37.125,37.022,32.731,46.557c-2.68,5.817-11.447,8.893-25.35,8.893c-32.618,0-88.506-16.416-145.853-42.841
				c-41.348-19.054-78.392-40.906-104.308-61.534c-25.195-20.054-37.125-37.022-32.731-46.557c2.68-5.816,11.446-8.891,25.354-8.892
				H156.803 M156.796,325.101c-13.99,0-23.333,3.058-26.303,9.502c-9.676,21,51.908,70.016,137.553,109.48
				c59.362,27.355,114.695,42.938,146.292,42.938c13.99,0,23.333-3.059,26.302-9.502c9.677-21-51.907-70.017-137.552-109.482
				C243.727,340.685,188.395,325.1,156.796,325.101"/>
			<path d="M592.28,498.353v1.049c15.521,0,37.147,4.106,62.544,11.874c26.154,8.001,55.245,19.589,84.127,33.512
				c41.01,19.77,77.668,42.265,103.222,63.339c24.842,20.488,36.476,37.662,31.916,47.12c-2.669,5.536-10.938,8.463-23.915,8.463
				c-15.52,0-37.146-4.105-62.542-11.874c-26.155-8-55.246-19.588-84.13-33.512c-41.01-19.77-77.668-42.264-103.221-63.339
				c-24.843-20.488-36.477-37.662-31.917-47.119c2.669-5.537,10.939-8.464,23.916-8.464L592.28,498.353 M592.279,498.353
				c-13.104,0-21.897,2.912-24.86,9.058c-10.041,20.828,50.682,70.908,135.627,111.857c59.883,28.867,115.817,45.49,147.127,45.49
				c13.104,0,21.897-2.912,24.86-9.057c10.04-20.828-50.683-70.909-135.628-111.857
				C679.523,514.977,623.591,498.353,592.279,498.353"/>
			<path d="M179.382,415.99c29.115,0,62.827,3.146,97.493,9.097c44.871,7.702,86.308,19.223,116.68,32.439
				c29.526,12.849,45.441,26.152,43.665,36.499c-1.083,6.315-8.762,11.557-22.206,15.155c-13.34,3.572-32.169,5.46-54.449,5.46
				c-29.12,0-62.834-3.146-97.501-9.097c-44.87-7.703-86.307-19.223-116.68-32.44c-29.525-12.849-45.441-26.151-43.666-36.498
				c1.084-6.315,8.763-11.556,22.206-15.155c13.34-3.571,32.168-5.459,54.456-5.46H179.382 M179.374,414.942
				c-44.739,0-75.287,7.49-77.689,21.485c-3.911,22.789,68.261,54.195,161.201,70.149c35.863,6.156,69.569,9.112,97.679,9.112
				c44.739,0,75.287-7.49,77.688-21.487c3.913-22.788-68.26-54.195-161.201-70.148C241.19,417.897,207.484,414.942,179.374,414.942"
				/>
			<path d="M639.842,471.12c30.584,0,66.535,3.752,103.967,10.851c44.729,8.481,85.96,20.721,116.098,34.464
				c29.298,13.361,44.979,26.938,43.024,37.253c-2.296,12.108-28.599,19.337-70.361,19.337c-30.585,0-66.538-3.752-103.97-10.85
				c-44.729-8.481-85.959-20.722-116.097-34.465c-29.299-13.36-44.98-26.939-43.024-37.253c2.296-12.108,28.6-19.337,70.361-19.337
				H639.842 M639.84,470.071c-41.098,0-68.88,6.941-71.392,20.19c-4.308,22.717,67.307,55.375,159.957,72.942
				c38.616,7.323,74.791,10.868,104.164,10.868c41.098,0,68.879-6.941,71.392-20.189c4.309-22.717-67.308-55.375-159.956-72.943
				C705.388,473.617,669.213,470.071,639.84,470.071"/>
			<path d="M326.413,483.093c32.241,0,60.05,2.668,80.419,7.715c20.146,4.99,31.648,12.174,32.388,20.225
				c0.963,10.453-15.943,22.473-46.383,32.975c-31.312,10.804-73.523,19.052-118.857,23.226
				c-20.537,1.891-40.691,2.849-59.902,2.849c-32.249,0-60.062-2.667-80.431-7.714c-20.147-4.99-31.65-12.173-32.392-20.224
				c-0.962-10.454,15.944-22.474,46.383-32.977c31.313-10.804,73.523-19.052,118.857-23.225c20.531-1.89,40.685-2.849,59.91-2.85
				H326.413 M326.398,482.044c-18.744,0-38.975,0.919-59.998,2.854c-93.903,8.645-168.31,34.317-166.19,57.342
				c1.645,17.87,48.889,28.891,113.867,28.891c18.743,0,38.975-0.918,59.998-2.854c93.903-8.645,168.309-34.317,166.189-57.341
				C438.62,493.065,391.377,482.043,326.398,482.044"/>
			<path d="M781.905,418.14c70.868,0,121.283,12.331,122.6,29.986c0.779,10.469-16.333,22.191-46.951,32.163
				c-31.494,10.258-73.843,17.771-119.243,21.154c-16.871,1.258-33.576,1.896-49.652,1.896c-70.875,0-121.293-12.33-122.609-29.985
				c-0.78-10.469,16.333-22.192,46.95-32.164c31.495-10.258,73.844-17.771,119.244-21.154c16.866-1.257,33.572-1.896,49.658-1.896
				H781.905 M781.895,417.092c-15.776,0-32.482,0.612-49.729,1.898c-94.04,7.009-168.88,31.383-167.162,54.441
				c1.404,18.828,53.414,30.956,123.655,30.956c15.777,0,32.482-0.613,49.73-1.898c94.039-7.009,168.88-31.385,167.161-54.441
				C904.146,429.219,852.136,417.091,781.895,417.092"/>
			<path d="M411.869,514.713v1.048c19.339,0,30.987,3.866,33.687,11.18c3.634,9.848-9.584,25.833-36.269,43.856
				c-27.449,18.539-66.086,37.432-108.796,53.196c-53.689,19.817-105.893,31.648-139.645,31.648
				c-19.339,0-30.989-3.865-33.688-11.179c-3.635-9.848,9.585-25.834,36.269-43.856c27.449-18.54,66.086-37.433,108.796-53.197
				c53.688-19.816,105.892-31.647,139.646-31.648L411.869,514.713 M411.868,514.713c-32.601,0-84.269,11.14-140.009,31.713
				c-88.467,32.654-153.691,76.71-145.685,98.4c2.961,8.024,15.529,11.864,34.671,11.864c32.6,0,84.269-11.14,140.008-31.714
				c88.466-32.653,153.691-76.709,145.685-98.4C443.577,518.553,431.009,514.713,411.868,514.713"/>
			<path d="M842.631,333.968c20.606,0,33.417,4.186,36.072,11.786c3.463,9.91-10.032,25.663-37.025,43.219
				c-27.768,18.06-66.729,36.277-109.706,51.295c-52.385,18.308-103.817,29.236-137.582,29.236c-20.61,0-33.424-4.185-36.08-11.784
				c-3.463-9.91,10.033-25.663,37.026-43.221c27.768-18.059,66.728-36.276,109.704-51.295
				c52.382-18.306,103.814-29.235,137.588-29.237H842.631 M842.623,332.92c-32.715,0.001-83.317,10.21-137.928,29.295
				c-89.021,31.109-155.004,74.024-147.376,95.851c2.949,8.437,16.456,12.487,37.07,12.487c32.716,0,83.317-10.211,137.929-29.295
				c89.021-31.11,155.003-74.023,147.375-95.852C876.745,336.97,863.237,332.919,842.623,332.92"/>
			<path d="M441.068,534.272v1.049c7.262,0,12.216,1.799,14.723,5.346c6.06,8.572-2.571,27.434-23.682,51.749
				c-21.714,25.013-54.146,53.261-91.32,79.542c-59.205,41.857-118.44,69.98-147.399,69.98c-7.267,0-12.223-1.799-14.729-5.345
				c-6.061-8.573,2.571-27.435,23.681-51.75c21.715-25.013,54.147-53.262,91.321-79.543
				c59.199-41.853,118.433-69.975,147.399-69.979L441.068,534.272 M441.062,534.272c-28.379,0.004-87.016,27.055-148.005,70.172
				c-77,54.438-128.601,113.875-115.252,132.754c2.775,3.926,8.134,5.788,15.585,5.788c28.378,0,87.016-27.054,148.004-70.172
				c77-54.438,128.601-113.873,115.253-132.753C453.871,536.135,448.512,534.272,441.062,534.272"/>
			<path d="M811.874,246.892v1.048c7.692,0,12.877,1.887,15.411,5.606c5.911,8.677-3.049,27.386-24.578,51.331
				c-22.146,24.63-55.065,52.31-92.691,77.941c-59.189,40.321-118.59,67.412-147.81,67.412c-7.696,0-12.883-1.888-15.417-5.607
				c-5.91-8.676,3.048-27.385,24.578-51.33c22.147-24.631,55.065-52.311,92.69-77.942c59.186-40.316,118.585-67.406,147.812-67.411
				L811.874,246.892 M811.868,246.892c-28.676,0.003-87.247,25.935-148.401,67.593c-77.936,53.09-130.563,111.619-117.545,130.728
				c2.802,4.115,8.415,6.065,16.284,6.065c28.675,0,87.247-25.935,148.402-67.593c77.935-53.091,130.562-111.62,117.545-130.728
				C825.35,248.842,819.737,246.891,811.868,246.892"/>
			<path d="M461.237,547.744v1.048c3.321,0,6.01,0.837,7.993,2.484c8.073,6.712,4.617,27.166-9.481,56.116
				c-14.501,29.779-38.516,65.46-67.622,100.467c-51.488,61.931-106.952,106.879-131.879,106.879c-3.323,0-6.013-0.836-7.997-2.484
				c-8.072-6.711-4.616-27.164,9.481-56.115c14.501-29.781,38.517-65.461,67.622-100.468
				c51.485-61.926,106.949-106.874,131.879-106.879L461.237,547.744 M461.234,547.744c-24.831,0.004-79.909,43.777-132.686,107.256
				c-60.287,72.513-94.747,143.278-76.967,158.06c2.215,1.842,5.132,2.728,8.667,2.728c24.831,0,79.908-43.777,132.686-107.257
				c60.287-72.513,94.746-143.277,76.967-158.06C467.686,548.629,464.768,547.743,461.234,547.744"/>
			<path d="M745.451,174.116v1.048c3.486,0,6.279,0.884,8.303,2.627c7.955,6.85,4.145,27.241-10.455,55.942
				c-15.017,29.522-39.649,64.78-69.359,99.275C621.754,393.602,565.667,437.58,540.577,437.58c-3.489,0-6.285-0.884-8.308-2.626
				c-7.955-6.852-4.143-27.242,10.456-55.942c15.018-29.523,39.65-64.781,69.359-99.276
				c52.181-60.588,108.27-104.565,133.363-104.571L745.451,174.116 M745.447,174.116c-25.012,0.005-80.555,42.698-134.157,104.936
				c-61.54,71.452-97.226,141.607-79.705,156.696c2.259,1.946,5.288,2.88,8.992,2.88c25.012,0,80.554-42.698,134.155-104.935
				c61.541-71.452,97.226-141.608,79.707-156.697C752.179,175.05,749.149,174.115,745.447,174.116"/>
		</g>
		<g clip-path="url(#SVGID_2_)">
			<path fill="#FFCB0C" stroke="#231F20" stroke-width="0.8209" stroke-miterlimit="10" d="M504.52,441.402
				c-10.76,0-21.364-18.083-29.094-49.612c-7.898-32.209-12.247-75.043-12.247-120.609c0-45.567,4.349-88.401,12.247-120.611
				c7.73-31.529,18.334-49.611,29.094-49.611c10.759,0,21.363,18.083,29.094,49.611c7.898,32.209,12.247,75.043,12.247,120.611
				c0,45.566-4.349,88.4-12.247,120.609C525.883,423.319,515.279,441.402,504.52,441.402"/>
			<path fill="#FFCB0C" stroke="#231F20" stroke-width="0.8209" stroke-miterlimit="10" d="M493.591,898.229
				c-22.787-0.611-39.281-77.441-36.767-171.268c2.498-93.219,22.962-169.057,45.619-169.057l0.267,0.004
				c10.755,0.287,20.872,18.647,27.755,50.371c7.031,32.411,10.232,75.346,9.012,120.896
				c-2.498,93.219-22.962,169.058-45.619,169.058L493.591,898.229z"/>
			<path fill="#FFCB0C" stroke="#231F20" stroke-width="0.8209" stroke-miterlimit="10" d="M486.693,442.873
				c-22.461,0-58.188-67.672-81.337-154.065c-11.794-44.014-18.678-86.514-19.387-119.67c-0.692-32.455,4.871-52.666,15.264-55.451
				c0.851-0.228,1.743-0.344,2.651-0.344c22.46,0,58.188,67.674,81.336,154.065c11.794,44.015,18.679,86.515,19.387,119.671
				c0.693,32.455-4.87,52.666-15.263,55.45C488.494,442.758,487.602,442.873,486.693,442.873"/>
			<path fill="#FFCB0C" stroke="#231F20" stroke-width="0.8209" stroke-miterlimit="10" d="M594.653,886.896
				c-22.471,0-56.5-68.608-77.471-156.192c-10.61-44.315-16.354-86.984-16.174-120.147c0.177-32.461,6.279-52.516,16.743-55.021
				c0.766-0.184,1.564-0.276,2.371-0.276c22.47,0,56.5,68.607,77.471,156.191c10.61,44.314,16.354,86.984,16.175,120.148
				c-0.177,32.461-6.279,52.516-16.743,55.021C596.258,886.804,595.461,886.896,594.653,886.896"/>
			<path fill="#FFCB0C" stroke="#231F20" stroke-width="0.8209" stroke-miterlimit="10" d="M469.268,448.97
				c-23.49,0-73.016-55.101-115.201-128.168c-22.784-39.462-40.434-78.732-49.698-110.575c-9.07-31.169-8.927-52.131,0.391-57.512
				c1.635-0.944,3.557-1.423,5.713-1.423c23.489,0,73.014,55.101,115.2,128.168c22.783,39.462,40.434,78.732,49.699,110.575
				c9.069,31.169,8.927,52.132-0.391,57.512C473.345,448.491,471.422,448.97,469.268,448.97"/>
			<path fill="#FFCB0C" stroke="#231F20" stroke-width="0.8209" stroke-miterlimit="10" d="M688.568,849.909
				c-23.359,0-71.559-56.409-112.114-131.213c-21.718-40.059-38.311-79.787-46.72-111.866c-8.231-31.402-7.527-52.353,1.931-57.48
				c1.56-0.846,3.363-1.274,5.361-1.274c23.359,0,71.558,56.409,112.114,131.213c21.719,40.059,38.311,79.787,46.72,111.866
				c8.23,31.402,7.527,52.353-1.932,57.48C692.368,849.48,690.565,849.909,688.568,849.909"/>
			<path fill="#FFCB0C" stroke="#231F20" stroke-width="0.8209" stroke-miterlimit="10" d="M452.23,459.563
				c-26.402,0-83.736-38.894-139.426-94.584c-32.221-32.221-59.434-65.583-76.625-93.945
				c-16.828-27.759-22.115-48.044-14.506-55.652c2.29-2.29,5.712-3.452,10.171-3.452c26.402,0,83.736,38.895,139.426,94.584
				c32.221,32.221,59.433,65.584,76.625,93.944c16.828,27.76,22.115,48.044,14.508,55.652
				C460.113,458.4,456.69,459.563,452.23,459.563"/>
			<path fill="#FFCB0C" stroke="#231F20" stroke-width="0.8209" stroke-miterlimit="10" d="M768.108,790.051
				c-12.366,0-32.729-9.624-57.336-27.099c-25.041-17.782-53.514-43.066-80.175-71.194c-31.346-33.072-57.655-67.153-74.081-95.964
				c-16.078-28.201-20.821-48.62-13.011-56.021c2.23-2.115,5.458-3.188,9.591-3.188c12.366,0,32.729,9.624,57.336,27.099
				c25.041,17.781,53.514,43.066,80.175,71.195c31.345,33.071,57.654,67.151,74.081,95.963c16.077,28.202,20.82,48.62,13.011,56.021
				C775.47,788.979,772.242,790.051,768.108,790.051"/>
			<path fill="#FFCB0C" stroke="#231F20" stroke-width="0.8209" stroke-miterlimit="10" d="M433.044,474.779
				c-30.914,0-89.266-22.158-148.662-56.45c-39.462-22.783-74.382-47.966-98.328-70.911c-23.439-22.458-33.796-40.683-28.417-50.001
				c2.736-4.739,9.272-7.141,19.426-7.141c30.914,0,89.266,22.157,148.662,56.449c39.461,22.784,74.382,47.967,98.328,70.912
				c23.439,22.459,33.797,40.684,28.417,50.001C449.734,472.377,443.199,474.779,433.044,474.779"/>
			<path fill="#FFCB0C" stroke="#231F20" stroke-width="0.8209" stroke-miterlimit="10" d="M824.621,712.156
				c-30.504,0-88.871-23.721-148.697-60.433c-38.838-23.833-73.071-49.942-96.394-73.521
				c-22.829-23.078-32.695-41.574-27.068-50.744c2.704-4.407,8.764-6.641,18.009-6.641c30.505,0,88.871,23.722,148.697,60.433
				c38.837,23.833,73.07,49.942,96.394,73.521c22.828,23.078,32.695,41.575,27.067,50.745
				C839.927,709.923,833.867,712.156,824.621,712.156"/>
			<path fill="#FFCB0C" stroke="#231F20" stroke-width="0.8209" stroke-miterlimit="10" d="M395.832,496.665
				c-33.376,0-78.972-7.088-125.093-19.445c-44.014-11.794-84.263-27.082-113.332-43.046c-28.453-15.628-43.175-30.55-40.39-40.943
				c2.647-9.881,20.414-15.322,50.028-15.322c33.378,0,78.972,7.087,125.092,19.445c44.014,11.793,84.263,27.081,113.332,43.046
				c28.453,15.627,43.175,30.55,40.39,40.942C443.212,491.224,425.445,496.665,395.832,496.665"/>
			<path fill="#FFCB0C" stroke="#231F20" stroke-width="0.8209" stroke-miterlimit="10" d="M839.795,624.192
				c-33.945,0-81.492-8.335-130.45-22.87c-43.683-12.968-83.507-29.328-112.138-46.066c-28.024-16.384-42.341-31.695-39.279-42.011
				c2.691-9.064,18.494-14.058,44.498-14.058c33.943,0,81.491,8.337,130.45,22.871c43.683,12.969,83.508,29.329,112.138,46.066
				c28.024,16.384,42.341,31.696,39.279,42.011C881.602,619.201,865.799,624.192,839.795,624.192"/>
			<path fill="#FFCB0C" stroke="#231F20" stroke-width="0.8209" stroke-miterlimit="10" d="M272.801,537.634
				c-45.567,0-88.4-4.35-120.611-12.247c-31.528-7.73-49.61-18.335-49.61-29.095c0-10.759,18.083-21.363,49.61-29.094
				c32.21-7.897,75.043-12.247,120.611-12.247c45.566,0,88.4,4.35,120.61,12.247c31.528,7.73,49.61,18.335,49.61,29.094
				c0,10.76-18.082,21.364-49.61,29.095C361.201,533.284,318.367,537.634,272.801,537.634"/>
			<path fill="#FFCB0C" stroke="#231F20" stroke-width="0.8209" stroke-miterlimit="10" d="M747.327,544.24
				c-6.184,0-12.49-0.085-18.745-0.252c-45.552-1.221-88.254-6.716-120.24-15.474c-31.31-8.572-49.102-19.656-48.813-30.412
				c0.271-10.117,15.996-19.478,44.276-26.354c28.283-6.878,66.726-10.665,108.245-10.665c6.185,0,12.491,0.085,18.746,0.252
				c45.551,1.221,88.253,6.716,120.24,15.474c31.31,8.572,49.101,19.657,48.813,30.412c-0.271,10.119-15.996,19.478-44.277,26.354
				C827.289,540.453,788.847,544.24,747.327,544.24"/>
			<path fill="#FFCB0C" stroke="#231F20" stroke-width="0.8209" stroke-miterlimit="10" d="M165.336,614.901
				c-29.614,0-47.382-5.441-50.028-15.321c-2.785-10.393,11.937-25.315,40.39-40.943c29.068-15.965,69.317-31.253,113.332-43.047
				c46.121-12.357,91.715-19.444,125.093-19.444c29.614,0,47.381,5.44,50.028,15.321c5.9,22.019-63.059,59.695-153.722,83.989
				C244.308,607.814,198.714,614.901,165.336,614.901"/>
			<path fill="#FFCB0C" stroke="#231F20" stroke-width="0.8209" stroke-miterlimit="10" d="M613.668,499.808
				c-33.367,0-53.965-6.104-56.513-16.746c-2.506-10.464,12.61-24.987,41.472-39.848c29.486-15.181,70.129-29.385,114.443-39.995
				c43.573-10.433,85.713-16.178,118.657-16.178c33.366,0,53.964,6.104,56.512,16.747c2.506,10.463-12.61,24.987-41.472,39.846
				c-29.486,15.181-70.129,29.385-114.443,39.995C688.752,494.062,646.612,499.808,613.668,499.808"/>
			<path fill="#FFCB0C" stroke="#231F20" stroke-width="0.8209" stroke-miterlimit="10" d="M173.76,703.195
				c-10.153,0-16.689-2.403-19.425-7.142c-5.38-9.318,4.978-27.543,28.417-50.002c23.945-22.945,58.866-48.129,98.328-70.912
				c59.395-34.292,117.747-56.449,148.661-56.449c10.155,0,16.69,2.402,19.426,7.142c5.379,9.317-4.979,27.543-28.417,50.002
				c-23.946,22.944-58.866,48.127-98.328,70.912C263.025,681.037,204.673,703.195,173.76,703.195"/>
			<path fill="#FFCB0C" stroke="#231F20" stroke-width="0.8209" stroke-miterlimit="10" d="M571.987,476.829
				c-11.183,0-18.254-2.585-21.018-7.683c-5.128-9.458,5.714-27.399,29.747-49.223c24.552-22.295,60.134-46.534,100.192-68.253
				C739.7,319.796,797.922,299.2,829.236,299.2c11.184,0,18.255,2.585,21.019,7.683c5.129,9.458-5.714,27.4-29.746,49.223
				c-24.552,22.295-60.135,46.534-100.194,68.251C661.524,456.233,603.301,476.829,571.987,476.829"/>
			<path fill="#FFCB0C" stroke="#231F20" stroke-width="0.8209" stroke-miterlimit="10" d="M227.173,782.591
				c-4.459,0-7.881-1.162-10.172-3.451c-7.608-7.608-2.319-27.894,14.508-55.653c17.191-28.361,44.404-61.724,76.625-93.945
				c55.688-55.688,113.023-94.584,139.425-94.584c4.459,0,7.881,1.162,10.171,3.451c7.608,7.608,2.32,27.895-14.507,55.653
				c-17.191,28.361-44.404,61.725-76.625,93.946C310.909,743.697,253.575,782.591,227.173,782.591"/>
			<path fill="#FFCB0C" stroke="#231F20" stroke-width="0.8209" stroke-miterlimit="10" d="M552.188,461.039
				c-4.816,0-8.448-1.256-10.796-3.732c-7.401-7.81-1.572-27.944,15.994-55.244c17.945-27.89,46.042-60.513,79.114-91.858
				c56.419-53.477,114.479-90.826,141.188-90.826c4.815,0,8.448,1.256,10.795,3.733c7.401,7.809,1.572,27.945-15.993,55.245
				c-17.943,27.89-46.04,60.512-79.112,91.858C636.957,423.69,578.897,461.039,552.188,461.039"/>
			<path fill="#FFCB0C" stroke="#231F20" stroke-width="0.8209" stroke-miterlimit="10" d="M304.749,844.597
				c-2.155,0-4.077-0.479-5.713-1.423c-9.318-5.38-9.46-26.341-0.391-57.511c9.266-31.844,26.917-71.113,49.699-110.576
				c42.186-73.068,91.711-128.168,115.2-128.168c2.156,0,4.078,0.479,5.712,1.422c19.742,11.399-2.378,86.803-49.308,168.088
				C377.764,789.496,328.239,844.597,304.749,844.597"/>
			<path fill="#FFCB0C" stroke="#231F20" stroke-width="0.8209" stroke-miterlimit="10" d="M535.157,449.93
				c-2.324,0-4.369-0.532-6.078-1.581c-9.171-5.627-8.752-26.586,1.149-57.501c10.115-31.584,28.811-70.366,52.643-109.204
				c43.744-71.286,94.554-125.043,118.188-125.043c2.324,0,4.368,0.532,6.077,1.581c19.429,11.923-4.702,86.707-53.792,166.707
				C609.6,396.174,558.791,449.93,535.157,449.93"/>
			<path fill="#FFCB0C" stroke="#231F20" stroke-width="0.8209" stroke-miterlimit="10" d="M397.502,884.139
				c-0.908,0-1.8-0.115-2.651-0.344c-10.394-2.784-15.956-22.996-15.263-55.45c0.708-33.157,7.593-75.656,19.386-119.671
				c23.149-86.393,58.876-154.065,81.337-154.065c0.909,0,1.8,0.115,2.651,0.344c10.394,2.784,15.957,22.996,15.264,55.45
				c-0.709,33.157-7.593,75.656-19.387,119.671C455.69,816.466,419.963,884.139,397.502,884.139"/>
			<path fill="#FFCB0C" stroke="#231F20" stroke-width="0.8209" stroke-miterlimit="10" d="M518.623,441.661
				c-1.013,0-2-0.142-2.937-0.419c-10.314-3.062-15.334-23.415-13.772-55.839c1.596-33.125,9.617-75.426,22.585-119.108
				c25.276-85.141,62.674-151.835,85.14-151.835c1.013,0,2.001,0.141,2.937,0.418c10.314,3.062,15.334,23.414,13.772,55.839
				c-1.597,33.125-9.618,75.426-22.586,119.108C578.486,374.967,541.088,441.661,518.623,441.661"/>
			<path fill="#FFCB0C" d="M504.52,441.402c-10.76,0-21.364-18.083-29.094-49.612c-7.898-32.209-12.247-75.043-12.247-120.609
				c0-45.567,4.349-88.401,12.247-120.611c7.73-31.529,18.334-49.611,29.094-49.611c10.759,0,21.363,18.083,29.094,49.611
				c7.898,32.209,12.247,75.043,12.247,120.611c0,45.566-4.349,88.4-12.247,120.609C525.883,423.319,515.279,441.402,504.52,441.402
				"/>
		</g>
		<g clip-path="url(#SVGID_2_)">
			<path d="M504.52,101.483c10.498,0,20.916,17.937,28.585,49.211c7.888,32.171,12.232,74.96,12.232,120.486
				s-4.344,88.315-12.232,120.485c-7.669,31.274-18.087,49.212-28.585,49.212c-10.498,0-20.917-17.938-28.585-49.212
				c-7.888-32.17-12.232-74.959-12.232-120.485s4.344-88.315,12.232-120.486C483.603,119.42,494.021,101.483,504.52,101.483
				 M504.52,100.435c-23.122,0-41.866,76.446-41.866,170.746c0,94.3,18.744,170.746,41.866,170.746s41.865-76.446,41.865-170.746
				C546.385,176.88,527.642,100.435,504.52,100.435"/>
			<path d="M504.52,101.483c10.498,0,20.916,17.937,28.585,49.211c7.888,32.171,12.232,74.96,12.232,120.486
				s-4.344,88.315-12.232,120.485c-7.669,31.274-18.087,49.212-28.585,49.212c-10.498,0-20.917-17.938-28.585-49.212
				c-7.888-32.17-12.232-74.959-12.232-120.485s4.344-88.315,12.232-120.486C483.603,119.42,494.021,101.483,504.52,101.483
				 M504.52,100.435c-23.122,0-41.866,76.446-41.866,170.746c0,94.3,18.744,170.746,41.866,170.746s41.865-76.446,41.865-170.746
				C546.385,176.88,527.642,100.435,504.52,100.435"/>
			<path d="M502.443,558.429L502.443,558.429c0.085,0,0.167,0.002,0.253,0.004c10.494,0.281,20.428,18.49,27.257,49.96
				c7.022,32.369,10.219,75.26,9,120.77c-1.214,45.31-6.667,87.834-15.354,119.741c-8.444,31.017-19.284,48.805-29.741,48.805
				c-0.085,0-0.168-0.001-0.253-0.003c-10.495-0.28-20.429-18.49-27.257-49.959c-7.023-32.37-10.219-75.261-9-120.771
				c1.214-45.309,6.667-87.833,15.354-119.739C481.146,576.221,491.986,558.432,502.443,558.429 M502.443,557.381
				c-23,0.005-43.627,75.686-46.143,169.567c-2.526,94.266,14.163,171.186,37.277,171.806c0.094,0.002,0.186,0.003,0.281,0.003
				c23,0,43.627-75.686,46.142-169.566c2.527-94.267-14.163-171.188-37.276-171.806
				C502.629,557.382,502.537,557.381,502.443,557.381"/>
			<path d="M403.885,112.819v1.048c10.401,0,24.866,16,39.686,43.897c15.261,28.727,29.873,67.713,41.145,109.78
				c11.783,43.975,18.662,86.43,19.369,119.546c0.687,32.193-4.734,52.216-14.875,54.933c-0.807,0.216-1.653,0.326-2.516,0.326
				c-10.401,0-24.866-15.999-39.686-43.895c-15.261-28.727-29.873-67.713-41.146-109.782
				c-11.782-43.975-18.662-86.431-19.369-119.546c-0.687-32.194,4.735-52.217,14.875-54.933c0.807-0.217,1.653-0.326,2.516-0.327
				L403.885,112.819 M403.884,112.819c-0.953,0-1.884,0.12-2.788,0.362c-22.334,5.983-20.654,84.676,3.753,175.763
				c23.419,87.401,59.251,154.454,81.844,154.454c0.953,0,1.884-0.12,2.788-0.361c22.334-5.984,20.654-84.678-3.753-175.765
				C462.309,179.872,426.476,112.816,403.884,112.819"/>
			<path d="M520.125,554.734v1.049c10.381,0,24.444,16.245,38.583,44.57c14.557,29.163,28.185,68.661,38.375,111.22
				c10.601,44.274,16.339,86.899,16.159,120.021c-0.175,32.201-6.131,52.071-16.34,54.515c-0.728,0.175-1.482,0.263-2.249,0.263
				c-10.382,0-24.444-16.245-38.583-44.569c-14.558-29.163-28.187-68.662-38.377-111.221c-10.601-44.274-16.34-86.899-16.16-120.022
				c0.175-32.2,6.131-52.07,16.341-54.515c0.725-0.174,1.482-0.262,2.249-0.262L520.125,554.734 M520.122,554.734
				c-0.847,0-1.68,0.096-2.493,0.291c-22.486,5.384-22.915,84.093-0.957,175.801c21.166,88.395,55.399,156.595,77.981,156.595
				c0.847,0,1.681-0.097,2.493-0.291c22.486-5.384,22.914-84.092,0.957-175.802C576.938,622.935,542.704,554.727,520.122,554.734"/>
			<path d="M310.472,150.768v1.048c23.316,0,72.647,54.988,114.746,127.906c22.763,39.427,40.396,78.656,49.65,110.459
				c8.997,30.919,8.942,51.662-0.149,56.911c-1.555,0.897-3.389,1.353-5.451,1.353c-11.119,0-28.77-12.751-49.703-35.906
				c-21.287-23.546-44.385-56.219-65.044-92c-22.763-39.426-40.396-78.654-49.649-110.459c-8.997-30.919-8.942-51.662,0.149-56.91
				c1.554-0.897,3.388-1.353,5.451-1.353L310.472,150.768 M310.471,150.768c-2.234,0-4.234,0.488-5.974,1.493
				c-20.024,11.561,1.966,87.136,49.115,168.803c43.053,74.569,92.194,128.431,115.655,128.431c2.234,0,4.235-0.488,5.976-1.493
				c20.023-11.562-1.967-87.137-49.117-168.803C383.073,204.63,333.932,150.767,310.471,150.768"/>
			<path d="M537.027,547.551v1.049c11.03,0,28.344,13.079,48.755,36.831c20.747,24.145,43.087,57.566,62.897,94.107
				c21.699,40.022,38.274,79.709,46.674,111.75c8.164,31.148,7.555,51.883-1.674,56.886c-1.482,0.804-3.202,1.212-5.111,1.212
				c-11.029,0-28.344-13.08-48.754-36.83c-20.749-24.145-43.087-57.566-62.899-94.109c-21.699-40.022-38.274-79.709-46.674-111.75
				c-8.164-31.148-7.555-51.883,1.674-56.886c1.483-0.804,3.202-1.211,5.111-1.211L537.027,547.551 M537.026,547.551
				c-2.073,0-3.95,0.438-5.61,1.338c-20.327,11.021-0.369,87.157,44.577,170.058c41.275,76.13,89.269,131.487,112.575,131.487
				c2.072,0,3.95-0.438,5.61-1.338c20.327-11.021,0.369-87.157-44.577-170.058C608.326,602.908,560.332,547.549,537.026,547.551"/>
			<path d="M231.847,211.405v1.048c12.433,0,32.938,9.203,57.736,25.915c25.676,17.301,53.795,40.995,81.317,68.516
				c32.191,32.191,59.377,65.52,76.546,93.845c16.692,27.537,22.008,47.587,14.585,55.011c-2.188,2.188-5.486,3.298-9.802,3.298
				c-12.433,0-32.936-9.202-57.735-25.913c-25.678-17.302-53.797-40.995-81.319-68.518c-32.192-32.191-59.377-65.52-76.546-93.845
				c-16.692-27.537-22.008-47.587-14.585-55.011c2.188-2.188,5.485-3.298,9.8-3.298L231.847,211.405 M231.845,211.405
				c-4.532,0-8.104,1.167-10.543,3.605c-16.35,16.35,24.452,83.658,91.133,150.338c56.738,56.738,113.929,94.738,139.795,94.738
				c4.533,0,8.105-1.168,10.543-3.605c16.35-16.35-24.451-83.658-91.131-150.338C314.903,249.405,257.712,211.404,231.845,211.405"
				/>
			<path d="M553.097,536.062v1.049c12.26,0,32.516,9.59,57.036,27.002c25.013,17.764,53.457,43.023,80.095,71.128
				c31.318,33.043,57.601,67.087,74.006,95.862c15.948,27.974,20.726,48.16,13.106,55.381c-2.131,2.02-5.236,3.043-9.231,3.043
				c-12.259,0-32.513-9.589-57.033-27.001c-25.014-17.763-53.459-43.024-80.097-71.128c-31.318-33.043-57.602-67.088-74.006-95.863
				c-15.949-27.974-20.726-48.159-13.107-55.381c2.131-2.019,5.236-3.043,9.231-3.043V536.062 M553.097,536.062
				c-4.211,0-7.577,1.08-9.952,3.331c-16.782,15.905,22.202,84.283,87.072,152.726c55.688,58.755,112.351,98.457,137.892,98.457
				c4.212,0,7.577-1.079,9.953-3.33c16.781-15.906-22.203-84.284-87.072-152.727C635.3,575.764,578.638,536.061,553.097,536.062"/>
			<path d="M177.065,290.799c30.826,0,89.075,22.131,148.397,56.38c39.427,22.764,74.312,47.92,98.228,70.837
				c23.25,22.277,33.575,40.269,28.326,49.36c-2.636,4.564-9.019,6.88-18.972,6.88c-30.828,0-89.078-22.131-148.4-56.38
				c-39.426-22.763-74.311-47.92-98.227-70.836c-23.251-22.279-33.574-40.271-28.326-49.361c2.635-4.565,9.019-6.88,18.972-6.88
				H177.065 M177.064,289.751c-10.046,0-16.979,2.379-19.88,7.403c-11.561,20.024,45.271,74.48,126.938,121.63
				c61.174,35.319,118.93,56.52,148.923,56.52c10.046,0,16.979-2.379,19.879-7.403c11.561-20.024-45.271-74.479-126.937-121.629
				C264.812,310.951,207.056,289.75,177.064,289.751"/>
			<path d="M570.475,521.342c14.56,0,36.059,5.559,62.171,16.073c26.802,10.793,56.626,26.105,86.249,44.283
				c38.803,23.812,73,49.893,96.295,73.441c22.646,22.893,32.484,41.154,26.994,50.103c-2.603,4.24-8.512,6.39-17.563,6.39
				c-14.56,0-36.058-5.558-62.17-16.071c-26.803-10.792-56.628-26.105-86.252-44.284c-38.804-23.811-73.001-49.893-96.296-73.441
				c-22.646-22.893-32.483-41.154-26.993-50.102c2.602-4.24,8.512-6.391,17.563-6.392H570.475 M570.473,520.294
				c-9.179,0-15.588,2.216-18.457,6.892c-12.093,19.706,43.259,75.664,123.634,124.985c61.306,37.619,119.459,60.51,148.97,60.51
				c9.179,0,15.588-2.215,18.457-6.89c12.092-19.707-43.26-75.666-123.635-124.986C658.137,543.185,599.982,520.293,570.473,520.294
				"/>
			<path d="M167.048,378.433c33.332,0,78.875,7.081,124.955,19.428c43.975,11.783,84.182,27.053,113.215,43
				c28.224,15.501,42.853,30.207,40.136,40.348c-1.277,4.769-6.266,8.491-14.825,11.066c-8.527,2.565-20.202,3.866-34.697,3.866
				c-33.333,0-78.878-7.081-124.957-19.428c-43.974-11.783-84.182-27.054-113.214-42.999
				c-28.224-15.502-42.854-30.208-40.137-40.349c1.278-4.767,6.266-8.491,14.826-11.066c8.528-2.565,20.202-3.867,34.698-3.867
				H167.048 M167.046,377.384c-28.771,0-47.717,5.192-50.536,15.71c-5.984,22.334,63.005,60.224,154.092,84.631
				c48.19,12.912,92.909,19.463,125.229,19.463c28.771,0,47.717-5.19,50.536-15.709c5.984-22.334-63.005-60.225-154.093-84.632
				C244.084,383.935,199.366,377.384,167.046,377.384"/>
			<path d="M602.426,498.663v1.049c33.896,0,81.389,8.328,130.301,22.85c43.644,12.956,83.428,29.299,112.022,46.017
				c27.799,16.251,42.028,31.345,39.041,41.407c-2.62,8.824-18.243,13.684-43.995,13.684c-33.896,0-81.389-8.329-130.301-22.85
				c-43.644-12.957-83.428-29.299-112.021-46.017c-27.8-16.251-42.03-31.344-39.042-41.408c2.62-8.823,18.244-13.683,43.995-13.683
				V498.663 M602.426,498.663c-25.435,0-42.121,4.73-45,14.434c-6.58,22.165,61.37,61.891,151.769,88.729
				c50.83,15.089,97.933,22.892,130.602,22.892c25.435,0,42.119-4.729,44.999-14.432c6.581-22.166-61.369-61.892-151.77-88.729
				C682.197,506.467,635.094,498.663,602.426,498.663"/>
			<path d="M272.801,455.476c45.526,0,88.315,4.344,120.485,12.232c31.275,7.668,49.212,18.086,49.212,28.584
				c0,10.499-17.937,20.917-49.212,28.586c-32.17,7.887-74.959,12.231-120.485,12.231s-88.316-4.345-120.486-12.231
				c-31.274-7.669-49.212-18.087-49.212-28.586c0-10.498,17.938-20.916,49.212-28.584
				C184.485,459.819,227.275,455.476,272.801,455.476 M272.801,454.427c-94.3,0-170.746,18.744-170.746,41.865
				c0,23.123,76.446,41.866,170.746,41.866c94.3,0,170.746-18.743,170.746-41.866C443.546,473.171,367.101,454.427,272.801,454.427"
				/>
			<path d="M712.056,461.607c6.175,0,12.476,0.085,18.727,0.252c45.51,1.22,88.167,6.708,120.115,15.455
				c31.058,8.503,48.709,19.398,48.428,29.893c-0.264,9.859-15.847,19.043-43.877,25.858
				c-28.244,6.869-66.643,10.651-108.122,10.651c-6.177,0-12.479-0.085-18.73-0.253c-45.51-1.22-88.168-6.708-120.115-15.454
				c-31.058-8.504-48.709-19.399-48.428-29.894c0.265-9.859,15.846-19.042,43.877-25.858c28.244-6.867,66.642-10.65,108.124-10.65
				H712.056 M712.051,460.559c-85.5,0.001-152.469,15.971-153.046,37.529c-0.62,23.114,75.296,43.898,169.563,46.425
				c6.341,0.171,12.594,0.252,18.759,0.252c85.502,0,152.47-15.971,153.048-37.529c0.618-23.113-75.297-43.898-169.563-46.424
				C724.47,460.642,718.217,460.559,712.051,460.559"/>
			<path d="M394.13,496.669c14.495,0,26.167,1.301,34.692,3.867c8.557,2.575,13.543,6.298,14.822,11.066
				c2.717,10.14-11.913,24.846-40.137,40.348c-29.032,15.945-69.239,31.217-113.214,42.999
				c-46.079,12.348-91.624,19.428-124.957,19.428c-14.498,0-26.173-1.3-34.7-3.865c-8.558-2.575-13.545-6.299-14.823-11.067
				c-2.717-10.14,11.912-24.847,40.137-40.349c29.032-15.944,69.239-31.215,113.214-42.999
				c46.074-12.345,91.619-19.426,124.962-19.428H394.13 M394.121,495.621c-32.32,0-77.044,6.552-125.228,19.464
				c-91.087,24.406-160.077,62.297-154.093,84.631c2.819,10.52,21.76,15.71,50.536,15.71c32.319,0,77.043-6.553,125.229-19.463
				c91.087-24.407,160.077-62.298,154.092-84.632C441.838,500.812,422.897,495.62,394.121,495.621"/>
			<path d="M831.732,387.565c33.1,0,53.51,5.958,55.998,16.344c2.443,10.209-12.573,24.519-41.203,39.259
				c-29.449,15.161-70.051,29.351-114.325,39.952c-43.534,10.422-85.63,16.163-118.534,16.163c-33.104,0-53.516-5.957-56.003-16.345
				c-2.444-10.209,12.573-24.519,41.202-39.258c29.449-15.162,70.051-29.351,114.326-39.952
				c43.53-10.422,85.627-16.163,118.537-16.164H831.732 M831.728,386.517c-31.647,0-73.641,5.385-118.779,16.193
				c-91.708,21.958-161.688,57.987-156.303,80.473c2.732,11.419,24.371,17.149,57.022,17.149c31.646,0,73.641-5.386,118.777-16.193
				c91.708-21.959,161.688-57.987,156.305-80.473C886.016,392.247,864.379,386.516,831.728,386.517"/>
			<path d="M429.747,518.166v1.049c9.949,0,16.331,2.314,18.966,6.88c5.249,9.091-5.075,27.082-28.326,49.36
				c-23.916,22.916-58.801,48.073-98.228,70.836c-59.321,34.249-117.571,56.38-148.399,56.38c-9.953,0-16.335-2.314-18.971-6.879
				c-5.249-9.092,5.076-27.083,28.326-49.361c23.917-22.917,58.801-48.073,98.228-70.837
				c59.317-34.246,117.566-56.377,148.398-56.379L429.747,518.166 M429.741,518.166c-29.995,0.002-87.752,21.204-148.923,56.52
				C199.152,621.837,142.32,676.291,153.88,696.316c2.902,5.025,9.83,7.402,19.879,7.402c29.996,0,87.753-21.202,148.923-56.52
				c81.667-47.149,138.499-101.605,126.938-121.628C446.719,520.545,439.791,518.165,429.741,518.166"/>
			<path d="M829.244,298.676v1.048c10.971,0,17.885,2.493,20.55,7.409c5.004,9.229-5.799,26.938-29.638,48.584
				c-24.521,22.268-60.067,46.481-100.09,68.181c-58.721,31.837-116.845,52.407-148.078,52.407c-10.977,0-17.893-2.492-20.558-7.409
				c-5.004-9.228,5.798-26.937,29.638-48.584c24.521-22.268,60.067-46.481,100.09-68.179
				c58.715-31.833,116.839-52.405,148.078-52.409L829.244,298.676 M829.236,298.676c-30.478,0.003-87.709,19.533-148.578,52.535
				c-82.9,44.945-141.17,97.86-130.149,118.185c2.928,5.402,10.448,7.958,21.479,7.958c30.477,0,87.708-19.533,148.578-52.534
				c82.899-44.946,141.17-97.86,130.149-118.187C847.787,301.231,840.268,298.675,829.236,298.676"/>
			<path d="M447.563,534.434v1.048c4.313,0,7.609,1.11,9.797,3.298c7.423,7.424,2.107,27.475-14.585,55.011
				c-17.17,28.325-44.354,61.654-76.547,93.847c-27.521,27.521-55.64,51.213-81.316,68.516
				c-24.799,16.711-45.305,25.914-57.738,25.914c-4.315,0-7.613-1.109-9.801-3.298c-7.423-7.424-2.107-27.475,14.585-55.011
				c17.169-28.325,44.355-61.654,76.546-93.846c27.52-27.52,55.638-51.212,81.317-68.514c24.799-16.711,45.304-25.914,57.738-25.917
				L447.563,534.434 M447.559,534.434c-25.87,0.004-83.063,38.004-139.796,94.737c-66.68,66.68-107.481,133.989-91.131,150.339
				c2.439,2.438,6.006,3.605,10.542,3.605c25.869,0,83.062-38.004,139.796-94.738c66.68-66.68,107.482-133.989,91.132-150.339
				C455.663,535.6,452.094,534.433,447.559,534.434"/>
			<path d="M777.691,219.903c4.664,0,8.168,1.201,10.413,3.569c7.22,7.62,1.369,27.521-16.054,54.6
				c-17.924,27.855-45.991,60.443-79.034,91.761c-27.974,26.515-56.474,49.29-82.421,65.867
				c-25.049,16.002-45.791,24.814-58.407,24.814c-4.666,0-8.17-1.201-10.415-3.568c-7.222-7.619-1.371-27.521,16.054-54.601
				c17.922-27.855,45.989-60.443,79.032-91.761c27.973-26.513,56.475-49.288,82.422-65.865
				C744.329,228.718,765.072,219.904,777.691,219.903L777.691,219.903 M777.688,218.854c-26.213,0.002-83.86,36.29-141.55,90.969
				c-68.442,64.871-111.032,131.063-95.126,147.844c2.499,2.637,6.29,3.896,11.176,3.896c26.214,0,83.86-36.289,141.55-90.968
				c68.442-64.872,111.032-131.063,95.126-147.845C786.365,220.115,782.574,218.854,777.688,218.854"/>
			<path d="M463.549,546.395v1.049c2.06,0,3.892,0.455,5.446,1.353c9.092,5.249,9.146,25.992,0.15,56.911
				c-9.254,31.804-26.887,71.032-49.65,110.459c-42.099,72.919-91.429,127.906-114.746,127.906c-2.063,0-3.896-0.455-5.451-1.353
				c-9.091-5.249-9.146-25.992-0.149-56.91c9.254-31.805,26.887-71.033,49.649-110.46c20.657-35.778,43.756-68.449,65.043-91.995
				c20.933-23.155,38.584-35.909,49.704-35.911L463.549,546.395 M463.545,546.395c-23.463,0.006-72.606,53.867-115.655,128.431
				c-47.15,81.666-69.14,157.242-49.117,168.803c1.742,1.006,3.74,1.493,5.976,1.493c23.462,0,72.605-53.867,115.654-128.431
				c47.15-81.667,69.14-157.241,49.116-168.803C467.778,546.882,465.78,546.394,463.545,546.395"/>
			<path d="M701.06,156.077v1.048c2.225,0,4.177,0.506,5.802,1.503c8.948,5.491,8.446,26.229-1.374,56.896
				c-10.103,31.544-28.78,70.287-52.591,109.09c-21.474,34.993-45.307,66.896-67.108,89.829
				c-21.434,22.546-39.416,34.963-50.631,34.963c-2.226,0-4.178-0.506-5.804-1.503c-8.948-5.491-8.446-26.229,1.374-56.895
				c10.104-31.545,28.779-70.288,52.591-109.09c21.473-34.994,45.306-66.895,67.108-89.829
				c21.434-22.546,39.415-34.963,50.632-34.964L701.06,156.077 M701.059,156.077c-23.633,0.001-73.867,52.34-118.635,125.292
				c-49.32,80.375-73.326,155.334-53.619,167.426c1.82,1.117,3.948,1.658,6.352,1.658c23.631,0,73.868-52.339,118.634-125.291
				c49.32-80.375,73.327-155.334,53.62-167.427C705.59,156.618,703.463,156.077,701.059,156.077"/>
			<path d="M480.313,554.084v1.049h0.001c0.86,0,1.706,0.108,2.513,0.325c10.141,2.718,15.562,22.74,14.875,54.934
				c-0.707,33.115-7.586,75.571-19.369,119.546c-11.271,42.066-25.883,81.054-41.144,109.78
				c-14.82,27.896-29.286,43.896-39.687,43.896c-0.862,0-1.708-0.109-2.517-0.326c-10.139-2.717-15.561-22.739-14.874-54.933
				c0.708-33.115,7.586-75.572,19.369-119.547c11.271-42.064,25.883-81.051,41.145-109.777
				c14.82-27.896,29.285-43.896,39.687-43.898L480.313,554.084 M480.312,554.084c-22.593,0.006-58.426,67.059-81.844,154.454
				c-24.407,91.087-26.087,169.779-3.753,175.764c0.905,0.241,1.832,0.361,2.787,0.361c22.593,0,58.426-67.059,81.844-154.454
				c24.407-91.087,26.087-169.779,3.753-175.764C482.193,554.203,481.266,554.083,480.312,554.084"/>
			<path d="M609.641,113.935v1.048c0.962,0,1.898,0.134,2.786,0.397c10.063,2.987,14.946,23.147,13.397,55.312
				c-1.594,33.084-9.607,75.341-22.563,118.984c-12.335,41.547-27.911,79.998-43.861,108.268
				c-7.738,13.715-15.214,24.442-22.221,31.881c-7.07,7.506-13.313,11.311-18.556,11.311c-0.962,0-1.899-0.133-2.787-0.396
				c-10.064-2.988-14.947-23.147-13.397-55.312c1.594-33.084,9.606-75.34,22.563-118.984c12.335-41.547,27.911-79.997,43.86-108.267
				c7.738-13.716,15.215-24.441,22.223-31.882c7.068-7.505,13.312-11.312,18.556-11.312V113.935 M609.641,113.935
				c-22.618,0.001-60.01,65.865-85.644,152.21c-26.837,90.401-30.625,169.02-8.459,175.6c0.994,0.296,2.023,0.441,3.086,0.441
				c22.617,0,60.008-65.866,85.643-152.211c26.838-90.4,30.625-169.019,8.459-175.6C611.73,114.08,610.703,113.935,609.641,113.935"
				/>
		</g>
	</g>
</g>
<g id="Layer_2">
	<path fill="#CCA117" d="M503.611,698.513c-109.955,0-199.41-89.456-199.41-199.41c0-109.956,89.455-199.41,199.41-199.41
		s199.412,89.455,199.412,199.41C703.023,609.057,613.566,698.513,503.611,698.513"/>
	<path fill="#5B480E" d="M503.613,656.268c-86.661,0-157.166-70.504-157.166-157.165c0-86.662,70.504-157.166,157.166-157.166
		c86.662,0,157.165,70.503,157.165,157.166C660.777,585.764,590.274,656.268,503.613,656.268"/>
	<circle fill="none" cx="503.612" cy="499.103" r="136.638"/>
	<text transform="matrix(1 0 0 1 415.3516 412.2251)"><tspan x="0" y="0" fill="#FFFFFF" font-family="'MyriadPro-Regular'" font-size="16">There is a continuing need </tspan><tspan x="-12.728" y="19.2" fill="#FFFFFF" font-family="'MyriadPro-Regular'" font-size="16">to show the power of CSS. The </tspan><tspan x="-25.959" y="38.4" fill="#FFFFFF" font-family="'MyriadPro-Regular'" font-size="16">Zen Garden aims to excite, inspire, </tspan><tspan x="-40.896" y="57.6" fill="#FFFFFF" font-family="'MyriadPro-Regular'" font-size="16">and encourage participation. To begin, </tspan><tspan x="-44.52" y="76.8" fill="#FFFFFF" font-family="'MyriadPro-Regular'" font-size="16">view some of the existing designs in the </tspan><tspan x="-32.375" y="96" fill="#FFFFFF" font-family="'MyriadPro-Regular'" font-size="16">list. Clicking on any one will load the </tspan><tspan x="-26.352" y="115.2" fill="#FFFFFF" font-family="'MyriadPro-Regular'" font-size="16">style sheet into this very page. The </tspan><tspan x="-22.288" y="134.4" fill="#FFFFFF" font-family="'MyriadPro-Regular'" font-size="16">HTML remains the same, the only </tspan><tspan x="-29.728" y="153.6" fill="#FFFFFF" font-family="'MyriadPro-Regular'" font-size="16">thing that has changed is the exter</tspan><tspan x="201.34" y="153.6" fill="#FFFFFF" font-family="'MyriadPro-Regular'" font-size="16">-</tspan><tspan x="14.192" y="172.8" fill="#FFFFFF" font-family="'MyriadPro-Regular'" font-size="16">nal CSS file. Yes, really.</tspan></text>
</g>
</svg>
