<?xml version="1.0" standalone="no"?>
<!DOCTYPE svg PUBLIC "-//W3C//DTD SVG 20010904//EN"
 "http://www.w3.org/TR/2001/REC-SVG-20010904/DTD/svg10.dtd">
<svg version="1.0" xmlns="http://www.w3.org/2000/svg"
 width="1280.000000pt" height="1280.000000pt" viewBox="0 0 1280.000000 1280.000000"
 preserveAspectRatio="xMidYMid meet">
<metadata>
Created by potrace 1.15, written by Peter Selinger 2001-2017
</metadata>
<g transform="translate(0.000000,1280.000000) scale(0.100000,-0.100000)"
fill="#000000" stroke="none">
<path d="M8489 12654 c-20 -51 -4 -290 30 -458 44 -215 54 -334 48 -536 -16
-466 -163 -927 -422 -1315 -157 -236 -271 -353 -655 -676 -863 -727 -1396
-1283 -1715 -1789 -87 -138 -215 -399 -259 -527 -48 -139 -109 -387 -140 -568
-162 -949 -60 -2116 297 -3395 120 -430 234 -1064 336 -1880 42 -328 54 -451
71 -710 14 -210 51 -362 103 -418 27 -29 40 -28 69 7 49 58 63 136 63 361 -1
189 -4 223 -38 430 -202 1233 -175 2083 90 2750 94 237 244 493 409 700 38 47
244 263 459 480 569 576 841 885 1165 1320 588 792 923 1539 1026 2290 21 159
29 547 15 755 -43 627 -189 1423 -406 2211 -87 317 -118 402 -220 603 -138
270 -211 368 -287 386 -24 6 -29 3 -39 -21z"/>
<path d="M6429 11661 c-72 -46 -218 -185 -256 -243 -85 -128 -418 -426 -729
-652 -752 -545 -1407 -1470 -1712 -2416 -143 -443 -232 -961 -232 -1355 0
-204 13 -303 65 -500 39 -147 67 -300 91 -490 13 -102 17 -226 19 -570 1 -342
5 -475 18 -595 64 -567 159 -1003 283 -1295 197 -463 651 -1189 1013 -1620
223 -266 396 -569 521 -915 65 -181 146 -352 204 -433 41 -59 89 -98 102 -84
9 8 -41 256 -86 432 -52 201 -98 331 -182 510 -391 838 -846 2121 -1073 3025
-222 890 -270 1436 -184 2135 105 861 416 1884 825 2710 213 432 418 749 649
1005 206 228 494 654 625 925 67 136 132 394 110 435 -14 26 -18 25 -71 -9z"/>
<path d="M776 11419 c-10 -14 -16 -44 -16 -75 0 -60 52 -173 121 -264 101
-132 206 -437 243 -711 38 -271 30 -432 -33 -691 -164 -668 -231 -1274 -218
-1983 14 -746 113 -1426 282 -1926 99 -291 213 -829 265 -1249 11 -91 25 -276
30 -412 14 -374 50 -638 131 -968 95 -389 229 -710 379 -908 178 -237 644
-574 1180 -855 233 -122 878 -517 1184 -724 204 -138 302 -192 422 -232 99
-33 152 -39 160 -17 3 7 -5 42 -16 77 -48 142 -142 257 -365 448 -786 671
-1458 1606 -1784 2485 -161 433 -234 875 -262 1591 -18 462 0 870 61 1375 13
112 13 799 0 1093 -18 396 -36 584 -65 689 -143 513 -586 1591 -988 2402 -155
314 -219 427 -302 536 -115 150 -298 318 -367 335 -20 5 -29 2 -42 -16z"/>
<path d="M11766 7790 c-40 -49 -82 -146 -116 -270 -189 -703 -475 -1134 -945
-1427 -197 -122 -336 -187 -811 -378 -379 -153 -536 -221 -719 -313 -431 -215
-808 -484 -1131 -806 -412 -413 -746 -1092 -969 -1972 -132 -522 -200 -988
-227 -1564 -22 -469 -15 -635 33 -737 23 -48 43 -59 74 -39 33 22 55 95 66
223 16 183 114 495 226 718 86 171 258 390 455 580 273 263 562 438 1178 710
601 266 861 410 1140 631 118 94 350 328 449 452 523 661 1008 1906 1398 3588
47 206 48 211 48 374 -1 184 -12 232 -60 250 -43 16 -62 12 -89 -20z"/>
</g>
</svg>
