<?xml version="1.0" encoding="utf-8"?>
<!-- Generator: Adobe Illustrator 16.0.3, SVG Export Plug-In . SVG Version: 6.00 Build 0)  -->
<!DOCTYPE svg PUBLIC "-//W3C//DTD SVG 1.1//EN" "http://www.w3.org/Graphics/SVG/1.1/DTD/svg11.dtd">
<svg version="1.1" id="Layer_1" xmlns="http://www.w3.org/2000/svg" xmlns:xlink="http://www.w3.org/1999/xlink" x="0px" y="0px"
	 width="1095.717px" height="238px" viewBox="0 0 1095.717 238" enable-background="new 0 0 1095.717 238" xml:space="preserve">
<g>
	<g>
		<path fill="#2D2B7B" d="M93.896,154.405c-21.928,81.838-76.086,50.568-16.177-9.34c-59.909,59.908-91.179,5.75-9.34-16.178
			c-81.839,21.928-81.839-40.61,0-18.681C-13.46,88.277,17.81,34.12,77.719,94.03c-59.909-59.91-5.75-91.178,16.177-9.34
			c-21.928-81.838,40.607-81.838,18.68,0c21.928-81.838,76.086-50.57,16.177,9.34c59.909-59.91,91.179-5.753,9.34,16.177
			c81.839-21.93,81.839,40.608,0,18.681c81.839,21.928,50.569,76.086-9.34,16.178c59.909,59.908,5.75,91.178-16.177,9.34
			C134.503,236.243,71.968,236.243,93.896,154.405z"/>
	</g>
	<circle fill="#FFCB0E" cx="103.236" cy="117.574" r="54.055"/>
</g>
<g>
	<g>
		<path fill="#2D2B7B" d="M313.718,154.403c-21.928,81.838-76.087,50.568-16.177-9.34c-59.91,59.908-91.179,5.75-9.34-16.178
			c-81.839,21.928-81.839-40.61,0-18.681c-81.839-21.93-50.57-76.087,9.34-16.177c-59.91-59.91-5.75-91.178,16.177-9.34
			c-21.928-81.838,40.607-81.838,18.679,0c21.928-81.838,76.088-50.57,16.178,9.34c59.91-59.91,91.18-5.753,9.34,16.177
			c81.84-21.93,81.84,40.608,0,18.681c81.84,21.928,50.57,76.086-9.34,16.178c59.91,59.908,5.75,91.178-16.178,9.34
			C354.325,236.241,291.791,236.241,313.718,154.403z"/>
	</g>
	<circle fill="#FFCB0E" cx="323.058" cy="117.572" r="54.055"/>
</g>
<g>
	<g>
		<path fill="#2D2B7B" d="M533.537,154.403c-21.928,81.838-76.087,50.568-16.177-9.34c-59.91,59.908-91.179,5.75-9.341-16.178
			c-81.838,21.928-81.838-40.61,0-18.681c-81.838-21.93-50.569-76.087,9.341-16.177c-59.91-59.91-5.751-91.178,16.177-9.34
			c-21.928-81.838,40.607-81.838,18.68,0c21.928-81.838,76.087-50.57,16.177,9.34c59.91-59.91,91.179-5.753,9.341,16.177
			c81.838-21.93,81.838,40.608,0,18.681c81.838,21.928,50.569,76.086-9.341,16.178c59.91,59.908,5.751,91.178-16.177,9.34
			C574.145,236.241,511.609,236.241,533.537,154.403z"/>
	</g>
	<circle fill="#FFCB0E" cx="542.877" cy="117.572" r="54.055"/>
</g>
<g>
	<g>
		<path fill="#2D2B7B" d="M753.355,154.403c-21.928,81.838-76.088,50.568-16.178-9.34c-59.91,59.908-91.18,5.75-9.34-16.178
			c-81.84,21.928-81.84-40.61,0-18.681c-81.84-21.93-50.57-76.087,9.34-16.177c-59.91-59.91-5.75-91.178,16.178-9.34
			c-21.928-81.838,40.607-81.838,18.68,0c21.928-81.838,76.087-50.57,16.177,9.34c59.91-59.91,91.18-5.753,9.34,16.177
			c81.84-21.93,81.84,40.608,0,18.681c81.84,21.928,50.57,76.086-9.34,16.178c59.91,59.908,5.751,91.178-16.177,9.34
			C793.963,236.241,731.428,236.241,753.355,154.403z"/>
	</g>
	<circle fill="#FFCB0E" cx="762.695" cy="117.572" r="54.055"/>
</g>
<g>
	<g>
		<path fill="#2D2B7B" d="M973.191,154.405c-21.928,81.838-76.088,50.568-16.178-9.34c-59.91,59.908-91.179,5.75-9.341-16.178
			c-81.838,21.928-81.838-40.61,0-18.681c-81.838-21.93-50.569-76.087,9.341-16.177c-59.91-59.91-5.75-91.178,16.178-9.34
			c-21.928-81.838,40.606-81.838,18.679,0c21.928-81.838,76.087-50.57,16.177,9.34c59.91-59.91,91.179-5.753,9.341,16.177
			c81.838-21.93,81.838,40.608,0,18.681c81.838,21.928,50.569,76.086-9.341,16.178c59.91,59.908,5.751,91.178-16.177,9.34
			C1013.798,236.243,951.264,236.243,973.191,154.405z"/>
	</g>
	<circle fill="#FFCB0E" cx="982.53" cy="117.574" r="54.055"/>
</g>
</svg>
