<?xml version="1.0" encoding="utf-8"?>
<!-- Generator: Adobe Illustrator 16.0.3, SVG Export Plug-In . SVG Version: 6.00 Build 0)  -->
<!DOCTYPE svg PUBLIC "-//W3C//DTD SVG 1.1//EN" "http://www.w3.org/Graphics/SVG/1.1/DTD/svg11.dtd">
<svg version="1.1" id="Layer_1" xmlns="http://www.w3.org/2000/svg" xmlns:xlink="http://www.w3.org/1999/xlink" x="0px" y="0px"
	 width="972.846px" height="190px" viewBox="0 0 972.846 190" enable-background="new 0 0 972.846 190" xml:space="preserve">
<g>
	<g>
		<path fill="#BB526C" d="M105.652,100.559c-49.346,110.881-115.076,26.339-4.196-5.396c-110.88,31.734-87.422-73.687,1.498-6.729
			c-88.92-66.957,6.063-113.875,6.063-2.994c0-110.881,94.982-63.963,6.063,2.994c88.92-66.957,112.377,38.464,1.498,6.729
			c110.88,31.734,45.151,116.276-4.195,5.396C161.728,211.439,56.307,211.439,105.652,100.559z"/>
		<path fill="none" stroke="#000000" stroke-width="0.5" stroke-miterlimit="10" d="M105.652,100.559
			c-49.346,110.881-115.076,26.339-4.196-5.396c-110.88,31.734-87.422-73.687,1.498-6.729c-88.92-66.957,6.063-113.875,6.063-2.994
			c0-110.881,94.982-63.963,6.063,2.994c88.92-66.957,112.377,38.464,1.498,6.729c110.88,31.734,45.151,116.276-4.195,5.396
			C161.728,211.439,56.307,211.439,105.652,100.559z"/>
	</g>
	<g>
		<path fill="#2D2B7B" d="M106.613,98.399c-35.246,79.199-82.197,18.813-2.997-3.854c-79.2,22.668-62.443-52.633,1.069-4.807
			c-63.513-47.826,4.331-81.339,4.331-2.14c0-79.199,67.845-45.687,4.331,2.14c63.515-47.826,80.27,27.475,1.069,4.807
			c79.2,22.668,32.251,83.054-2.997,3.854C146.668,177.599,71.367,177.599,106.613,98.399z"/>
	</g>
	<circle fill="#FFCB0E" cx="109.017" cy="93" r="29.708"/>
</g>
<g>
	<g>
		<path fill="#BB526C" d="M294.146,100.559c-49.346,110.881-115.076,26.339-4.195-5.396c-110.881,31.734-87.423-73.687,1.497-6.729
			c-88.92-66.957,6.063-113.875,6.063-2.994c0-110.881,94.981-63.963,6.063,2.994c88.918-66.957,112.378,38.464,1.497,6.729
			c110.881,31.734,45.151,116.276-4.195,5.396C350.222,211.439,244.8,211.439,294.146,100.559z"/>
		<path fill="none" stroke="#000000" stroke-width="0.5" stroke-miterlimit="10" d="M294.146,100.559
			c-49.346,110.881-115.076,26.339-4.195-5.396c-110.881,31.734-87.423-73.687,1.497-6.729c-88.92-66.957,6.063-113.875,6.063-2.994
			c0-110.881,94.981-63.963,6.063,2.994c88.918-66.957,112.378,38.464,1.497,6.729c110.881,31.734,45.151,116.276-4.195,5.396
			C350.222,211.439,244.8,211.439,294.146,100.559z"/>
	</g>
	<g>
		<path fill="#2D2B7B" d="M295.107,98.399c-35.247,79.199-82.197,18.813-2.997-3.854c-79.2,22.668-62.444-52.633,1.07-4.807
			c-63.514-47.826,4.33-81.339,4.33-2.14c0-79.199,67.846-45.687,4.331,2.14c63.516-47.826,80.271,27.475,1.07,4.807
			c79.201,22.668,32.251,83.054-2.997,3.854C335.162,177.599,259.86,177.599,295.107,98.399z"/>
	</g>
	<circle fill="#FFCB0E" cx="297.51" cy="93" r="29.708"/>
</g>
<g>
	<g>
		<path fill="#BB526C" d="M482.64,100.559c-49.346,110.881-115.076,26.339-4.195-5.396c-110.881,31.734-87.421-73.687,1.497-6.729
			c-88.918-66.957,6.063-113.875,6.063-2.994c0-110.881,94.98-63.963,6.063,2.994c88.918-66.957,112.378,38.464,1.497,6.729
			c110.881,31.734,45.154,116.276-4.195,5.396C538.718,211.439,433.294,211.439,482.64,100.559z"/>
		<path fill="none" stroke="#000000" stroke-width="0.5" stroke-miterlimit="10" d="M482.64,100.559
			c-49.346,110.881-115.076,26.339-4.195-5.396c-110.881,31.734-87.421-73.687,1.497-6.729
			c-88.918-66.957,6.063-113.875,6.063-2.994c0-110.881,94.98-63.963,6.063,2.994c88.918-66.957,112.378,38.464,1.497,6.729
			c110.881,31.734,45.154,116.276-4.195,5.396C538.718,211.439,433.294,211.439,482.64,100.559z"/>
	</g>
	<g>
		<path fill="#2D2B7B" d="M483.601,98.399c-35.244,79.199-82.196,18.813-2.997-3.854c-79.199,22.668-62.441-52.633,1.07-4.807
			c-63.512-47.826,4.33-81.339,4.33-2.14c0-79.199,67.846-45.687,4.33,2.14c63.516-47.826,80.27,27.475,1.07,4.807
			c79.199,22.668,32.251,83.054-2.997,3.854C523.655,177.599,448.356,177.599,483.601,98.399z"/>
	</g>
	<circle fill="#FFCB0E" cx="486.005" cy="93" r="29.708"/>
</g>
<g>
	<g>
		<path fill="#BB526C" d="M671.134,100.559c-49.346,110.881-115.076,26.339-4.195-5.396c-110.881,31.734-87.423-73.687,1.497-6.729
			c-88.92-66.957,6.063-113.875,6.063-2.994c0-110.881,94.98-63.963,6.063,2.994c88.918-66.957,112.378,38.464,1.497,6.729
			c110.881,31.734,45.152,116.276-4.195,5.396C727.21,211.439,621.788,211.439,671.134,100.559z"/>
		<path fill="none" stroke="#000000" stroke-width="0.5" stroke-miterlimit="10" d="M671.134,100.559
			c-49.346,110.881-115.076,26.339-4.195-5.396c-110.881,31.734-87.423-73.687,1.497-6.729c-88.92-66.957,6.063-113.875,6.063-2.994
			c0-110.881,94.98-63.963,6.063,2.994c88.918-66.957,112.378,38.464,1.497,6.729c110.881,31.734,45.152,116.276-4.195,5.396
			C727.21,211.439,621.788,211.439,671.134,100.559z"/>
	</g>
	<g>
		<path fill="#2D2B7B" d="M672.095,98.399c-35.246,79.199-82.196,18.813-2.997-3.854c-79.199,22.668-62.443-52.633,1.07-4.807
			c-63.514-47.826,4.33-81.339,4.33-2.14c0-79.199,67.846-45.687,4.33,2.14c63.516-47.826,80.27,27.475,1.07,4.807
			c79.199,22.668,32.251,83.054-2.997,3.854C712.149,177.599,636.849,177.599,672.095,98.399z"/>
	</g>
	<circle fill="#FFCB0E" cx="674.498" cy="93" r="29.708"/>
</g>
<g>
	<g>
		<path fill="#BB526C" d="M859.628,100.559c-49.346,110.881-115.076,26.339-4.195-5.396c-110.881,31.734-87.423-73.687,1.497-6.729
			c-88.92-66.957,6.063-113.875,6.063-2.994c0-110.881,94.98-63.963,6.063,2.994c88.918-66.957,112.377,38.464,1.497,6.729
			c110.88,31.734,45.152,116.276-4.195,5.396C915.704,211.439,810.282,211.439,859.628,100.559z"/>
		<path fill="none" stroke="#000000" stroke-width="0.5" stroke-miterlimit="10" d="M859.628,100.559
			c-49.346,110.881-115.076,26.339-4.195-5.396c-110.881,31.734-87.423-73.687,1.497-6.729c-88.92-66.957,6.063-113.875,6.063-2.994
			c0-110.881,94.98-63.963,6.063,2.994c88.918-66.957,112.377,38.464,1.497,6.729c110.88,31.734,45.152,116.276-4.195,5.396
			C915.704,211.439,810.282,211.439,859.628,100.559z"/>
	</g>
	<g>
		<path fill="#2D2B7B" d="M860.589,98.399c-35.246,79.199-82.196,18.813-2.997-3.854c-79.199,22.668-62.443-52.633,1.07-4.807
			c-63.514-47.826,4.33-81.339,4.33-2.14c0-79.199,67.846-45.687,4.33,2.14c63.516-47.826,80.27,27.475,1.07,4.807
			c79.199,22.668,32.251,83.054-2.997,3.854C900.644,177.599,825.343,177.599,860.589,98.399z"/>
	</g>
	<circle fill="#FFCB0E" cx="862.992" cy="93" r="29.708"/>
</g>
</svg>
