<?xml version="1.0" encoding="utf-8"?>
<!-- Generator: Adobe Illustrator 25.0.0, SVG Export Plug-In . SVG Version: 6.00 Build 0)  -->
<svg version="1.1" id="Layer_1" xmlns="http://www.w3.org/2000/svg" xmlns:xlink="http://www.w3.org/1999/xlink" x="0px" y="0px"
	 viewBox="0 0 800 600" style="enable-background:new 0 0 800 600;" xml:space="preserve">
<style type="text/css">
	.st0{clip-path:url(#SVGID_2_);}
	.st1{clip-path:url(#SVGID_4_);fill:#B7B6C2;}
</style>
<g id="Artwork_2_1_">
	<g>
		<defs>
			<rect id="SVGID_1_" x="175" y="147" width="375" height="250"/>
		</defs>
		<clipPath id="SVGID_2_">
			<use xlink:href="#SVGID_1_"  style="overflow:visible;"/>
		</clipPath>
		<g class="st0">
			<defs>
				<rect id="SVGID_3_" x="175" y="147" width="375" height="250"/>
			</defs>
			<clipPath id="SVGID_4_">
				<use xlink:href="#SVGID_3_"  style="overflow:visible;"/>
			</clipPath>
			<path class="st1" d="M301.18,395.72c-21.48,0-41.29-13.72-54.36-37.64l-0.47-0.85l-0.88,0.28c-5.21,1.66-10.67,2.5-16.22,2.5
				c-29.26,0-53.07-23.46-53.07-52.3c0-12.97,4.85-25.41,13.67-35.02l0.65-0.59l-0.01-1.18c-3.17-8.72-4.8-18.01-4.85-27.63
				c0.23-35.1,21.65-63.99,47.75-64.38c8.72,0.12,17.25,3.54,24.65,9.9l1.35,1.16l0.51-1.79c0.08-0.28,0.18-0.56,0.3-0.84
				c8.41-23.4,29.6-39.08,52.77-39.08c19.99,0,38.11,11.07,48.47,29.61l0.92,1.65l1.04-1.56c8.41-12.57,18.97-19.5,29.75-19.5
				c14.76,0,28.9,13.07,37.81,34.95l0.31,0.76h0.77c25.2,0,47.08,14.63,52.04,34.79l0.23,0.93l0.89,0.02
				c35.07,0.6,63.6,27.48,63.6,59.92c0,33.06-29.09,59.95-64.86,59.95c-13.02,0-25.57-3.55-36.3-10.26l-1.37-0.86l-0.37,1.66
				c-3.98,17.86-15.23,29.86-28,29.86c-8.77,0-17.03-5.7-22.65-15.64l-1.13-2.01l-0.94,2.12c-7.08,16.11-18.55,25.73-30.7,25.73
				c-5.86,0-11.45-2.12-16.63-6.3l-0.84-0.68l-0.72,0.82C332.18,388.1,316.86,395.72,301.18,395.72"/>
			<path class="st1" d="M312.97,149.55c19.58,0,37.32,10.84,47.46,29l1.84,3.3l2.09-3.12c8.29-12.41,18.25-18.97,28.79-18.97
				c14.28,0,28.01,12.78,36.73,34.19l0.64,1.52h1.54c24.65,0,46.05,14.23,50.88,33.85l0.46,1.86l1.78,0.03
				c34.43,0.59,62.44,26.9,62.44,58.65c0,32.35-28.57,58.67-63.68,58.67c-12.81,0-25.16-3.49-35.71-10.09l-2.74-1.71l-0.74,3.32
				c-3.85,17.28-14.64,28.89-26.86,28.89c-8.35,0-16.24-5.48-21.64-15.03l-2.27-4.02l-1.87,4.26c-6.88,15.65-17.96,25-29.64,25
				c-5.6,0-10.95-2.04-15.92-6.05l-1.68-1.36l-1.44,1.65c-11.9,13.58-26.92,21.07-42.27,21.07c-21.05,0-40.5-13.49-53.35-37.01
				l-0.93-1.71l-1.76,0.56c-5.11,1.62-10.45,2.45-15.89,2.45c-28.61,0-51.89-22.89-51.89-51.02c0-12.64,4.73-24.75,13.32-34.11
				l0.22-0.25l1.31-1.18l-0.62-1.71c-3.12-8.57-4.72-17.71-4.77-27.14c0.22-34.42,21.12-62.74,46.53-63.13
				c8.49,0.11,16.78,3.44,23.96,9.62l2.71,2.33l1.02-3.57c0.06-0.22,0.14-0.45,0.24-0.68l0.03-0.07l0.03-0.07
				C269.53,164.9,290.28,149.55,312.97,149.55 M312.97,147c-24.5,0-45.47,16.51-53.84,39.82c-0.14,0.33-0.26,0.66-0.35,0.99
				c-7.36-6.33-16.06-10.05-25.4-10.18c-26.93,0.41-48.68,29.59-48.92,65.66c0.05,10.08,1.84,19.59,4.93,28.09
				c-0.14,0.13-0.26,0.28-0.38,0.41c-8.7,9.49-14.01,22.09-14.01,35.92c0,29.59,24.29,53.57,54.25,53.57
				c5.78,0,11.34-0.89,16.56-2.55C258.51,382,278.58,397,301.18,397c16.67,0,32-8.19,43.99-21.86c5.21,4.21,11.11,6.56,17.33,6.56
				c13.14,0,24.74-10.46,31.77-26.45c5.61,9.92,14.13,16.25,23.66,16.25c13.63,0,25.17-12.93,29.15-30.84
				c10.52,6.58,23.23,10.43,36.89,10.43c36.46,0,66.04-27.42,66.04-61.22c0-33.39-28.89-60.59-64.76-61.2
				c-5.02-20.38-26.91-35.74-53.16-35.74h-0.02c-8.82-21.66-22.95-35.71-38.89-35.71c-11.65,0-22.33,7.5-30.71,20.03
				C352.33,159.12,333.96,147,312.97,147"/>
		</g>
	</g>
</g>
</svg>
