<?xml version="1.0" encoding="utf-8"?>
<!-- Generator: Adobe Illustrator 24.3.0, SVG Export Plug-In . SVG Version: 6.00 Build 0)  -->
<svg version="1.1" id="Layer_1" xmlns="http://www.w3.org/2000/svg" xmlns:xlink="http://www.w3.org/1999/xlink" x="0px" y="0px"
	 viewBox="0 0 1047 1047" style="enable-background:new 0 0 1047 1047;" xml:space="preserve">
<style type="text/css">
	.st0{clip-path:url(#SVGID_2_);}
	.st1{clip-path:url(#SVGID_4_);fill:#312F7D;}
	.st2{clip-path:url(#SVGID_4_);}
	.st3{clip-path:url(#SVGID_6_);}
	.st4{clip-path:url(#SVGID_8_);fill:#BB516C;}
	.st5{clip-path:url(#SVGID_10_);fill:#FFFFFF;}
	.st6{clip-path:url(#SVGID_10_);}
	.st7{clip-path:url(#SVGID_10_);fill:#CFA4AD;}
	.st8{clip-path:url(#SVGID_12_);}
	.st9{clip-path:url(#SVGID_14_);fill:#FECA0A;}
</style>
<g id="Artwork_41_1_">
	<g>
		<defs>
			
				<rect id="SVGID_1_" x="153.33" y="153.33" transform="matrix(0.7071 -0.7071 0.7071 0.7071 -216.8408 523.4999)" width="740.34" height="740.34"/>
		</defs>
		<clipPath id="SVGID_2_">
			<use xlink:href="#SVGID_1_"  style="overflow:visible;"/>
		</clipPath>
		<g class="st0">
			<defs>
				
					<rect id="SVGID_3_" x="153.33" y="153.33" transform="matrix(0.7071 -0.7071 0.7071 0.7071 -216.8408 523.4999)" width="740.34" height="740.34"/>
			</defs>
			<clipPath id="SVGID_4_">
				<use xlink:href="#SVGID_3_"  style="overflow:visible;"/>
			</clipPath>
			<path class="st1" d="M593.31,971.29c-1.12,1.12-2.25,2.23-3.39,3.34c-19.2,18.71-40.34,35.25-62.84,49.15
				c-26.9-16.09-51.74-35.75-73.85-58.42c-35.09-35.99-61.86-77.86-79.59-124.44c-17.12-45-25.07-92.31-23.61-140.64l0.02-0.82
				l-0.82,0.04c-103.6,4.6-204.52-35.34-276.87-109.57c-18.7-19.18-35.23-40.32-49.16-62.83c15.29-25.56,33.82-49.3,55.08-70.56
				c1.11-1.11,2.22-2.21,3.35-3.31c35.99-35.09,77.86-61.87,124.44-79.59c44.99-17.12,92.31-25.07,140.64-23.61l0.82,0.02
				l-0.04-0.82c-2.22-49.99,5.62-98.98,23.31-145.59c18.28-48.19,46.17-91.23,82.87-127.93c1.12-1.12,2.25-2.23,3.38-3.34
				c19.2-18.71,40.34-35.25,62.84-49.15c26.9,16.09,51.74,35.75,73.85,58.42c35.09,35.99,61.86,77.85,79.59,124.43
				c17.12,44.99,25.07,92.31,23.61,140.65l-0.02,0.82l0.82-0.04c103.6-4.6,204.52,35.34,276.86,109.56
				c18.71,19.2,35.25,40.34,49.15,62.84c-15.29,25.56-33.82,49.29-55.07,70.54c-1.11,1.11-2.22,2.21-3.35,3.31
				c-35.99,35.09-77.86,61.87-124.44,79.59c-45,17.12-92.31,25.07-140.65,23.61l-0.82-0.02l0.04,0.82
				c2.22,49.99-5.62,98.97-23.31,145.59C657.89,891.54,630.01,934.59,593.31,971.29"/>
			<path class="st2" d="M453.15,75.17l1.08,1.08c1.12-1.12,2.24-2.23,3.38-3.34c19.04-18.56,40.01-34.98,62.32-48.8
				c26.69,16.02,51.34,35.55,73.3,58.06c35.01,35.91,61.73,77.69,79.42,124.17c17.09,44.9,25.01,92.12,23.57,140.36l-0.05,1.64
				l1.64-0.07c50.66-2.25,100.24,5.85,147.37,24.06c48.76,18.85,92.14,47.54,128.92,85.27c18.56,19.05,34.98,40.01,48.8,62.32
				c-15.21,25.35-33.62,48.9-54.73,70c-1.1,1.1-2.21,2.2-3.34,3.3c-35.91,35.01-77.69,61.74-124.18,79.43
				c-44.9,17.09-92.12,25.01-140.35,23.56l-1.64-0.05l0.07,1.64c2.21,49.89-5.61,98.77-23.26,145.28
				c-18.25,48.09-46.07,91.04-82.69,127.67c-1.12,1.12-2.24,2.23-3.38,3.34c-19.04,18.56-40.01,34.98-62.32,48.8
				c-26.69-16.02-51.35-35.55-73.3-58.06c-35.01-35.91-61.73-77.69-79.42-124.18c-17.09-44.9-25.02-92.12-23.56-140.35l0.05-1.64
				l-1.64,0.07c-50.66,2.25-100.24-5.85-147.37-24.06c-48.76-18.85-92.13-47.54-128.92-85.28c-18.55-19.03-34.97-39.99-48.81-62.31
				c15.21-25.36,33.63-48.91,54.73-70.01c1.1-1.1,2.21-2.2,3.34-3.3c35.92-35.01,77.69-61.74,124.18-79.42
				c44.9-17.09,92.12-25.01,140.35-23.56l1.64,0.05l-0.07-1.64c-2.21-49.89,5.61-98.77,23.26-145.28
				c18.25-48.09,46.07-91.04,82.69-127.67L453.15,75.17 M453.15,75.17c-75.19,75.19-110.79,175.32-106.4,274.09
				c-95.43-2.88-191.86,31.5-265.64,103.42c-1.13,1.1-2.24,2.2-3.35,3.31c-21.81,21.81-40.3,45.73-55.43,71.09l-0.01,0.01
				c13.83,22.43,30.34,43.7,49.51,63.36c75.55,77.51,177.19,114.24,277.44,109.79c-2.88,95.43,31.5,191.86,103.42,265.64
				c22.7,23.28,47.75,42.88,74.4,58.78c22.44-13.82,43.71-30.33,63.37-49.5c1.14-1.11,2.27-2.23,3.39-3.35
				c75.19-75.19,110.79-175.32,106.4-274.1c95.43,2.88,191.86-31.49,265.64-103.42c1.13-1.1,2.24-2.2,3.35-3.31
				c21.81-21.81,40.3-45.73,55.43-71.09c-13.82-22.44-30.33-43.71-49.5-63.37c-75.55-77.51-177.19-114.24-277.44-109.79
				c2.87-95.44-31.5-191.86-103.42-265.64c-22.7-23.28-47.75-42.88-74.4-58.78c-22.44,13.82-43.71,30.33-63.37,49.5
				C455.4,72.94,454.27,74.05,453.15,75.17"/>
		</g>
	</g>
</g>
<g id="Artwork_64_1_">
	<g>
		<defs>
			<rect id="SVGID_5_" x="178" y="185.5" width="678" height="678.41"/>
		</defs>
		<clipPath id="SVGID_6_">
			<use xlink:href="#SVGID_5_"  style="overflow:visible;"/>
		</clipPath>
		<g class="st3">
			<defs>
				<rect id="SVGID_7_" x="178" y="185.5" width="678" height="678.41"/>
			</defs>
			<clipPath id="SVGID_8_">
				<use xlink:href="#SVGID_7_"  style="overflow:visible;"/>
			</clipPath>
			<path class="st4" d="M436.57,605.82c14.06,56.65,42.44,107.74,81.14,149.14c-63.06,68.38-153.92,110.57-254.24,108.91
				c-25.44-0.42-50.19-3.64-73.93-9.38c-6.95-27.92-10.4-57.21-9.9-87.34c1.59-95.48,42.59-181.06,107.26-241.47
				c41.55,38.34,92.76,66.42,149.67,80.13V605.82z"/>
			<path class="st4" d="M178.05,271.44c0.42-25.44,3.64-50.19,9.36-73.93h0.01c27.92-6.95,57.21-10.4,87.34-9.9
				c95.48,1.59,181.06,42.59,241.47,107.26c-38.34,41.55-66.42,92.76-80.13,149.67c-56.65,14.06-107.75,42.44-149.15,81.14
				C218.58,462.62,176.38,371.76,178.05,271.44"/>
			<path class="st4" d="M855.95,778.39c-0.42,25.44-3.64,50.19-9.38,73.93c-27.92,6.95-57.21,10.4-87.34,9.9
				c-95.48-1.59-181.06-42.59-241.47-107.26c38.34-41.55,66.42-92.76,80.13-149.68c56.65-14.06,107.75-42.44,149.15-81.14
				C815.42,587.21,857.62,678.06,855.95,778.39"/>
			<path class="st4" d="M597.44,443.61c-14.06-56.65-42.44-107.75-81.14-149.15c63.06-68.38,153.92-110.57,254.24-108.91
				c25.44,0.42,50.19,3.64,73.93,9.36l0,0.01c6.95,27.92,10.4,57.21,9.9,87.34c-1.59,95.48-42.59,181.06-107.26,241.47
				C705.56,485.4,654.35,457.32,597.44,443.61"/>
		</g>
		<g class="st3">
			<defs>
				
					<rect id="SVGID_9_" x="283.5" y="293.25" transform="matrix(0.0139 -0.9999 0.9999 0.0139 -17.3828 1035.8049)" width="465.94" height="466.93"/>
			</defs>
			<clipPath id="SVGID_10_">
				<use xlink:href="#SVGID_9_"  style="overflow:visible;"/>
			</clipPath>
			<path class="st5" d="M517.88,758.68c-39.63-42.27-68-94.08-82.05-149.87l0.01-0.48l-0.56-0.15
				c-56.15-13.34-108.44-41.02-151.26-80.07c42.38-39.57,94.33-67.87,150.29-81.89c28.72-7.22,58.48-10.66,88.44-10.24
				c25.33,0.35,50.53,3.47,74.91,9.28c56.15,13.34,108.44,41.02,151.26,80.07c-42.38,39.57-94.33,67.87-150.29,81.89l-0.42,0.11
				l-0.1,0.42C584.75,663.77,557.01,715.94,517.88,758.68"/>
			<path class="st6" d="M522.74,436.69c25.28,0.35,50.43,3.47,74.76,9.26c55.78,13.25,107.74,40.69,150.37,79.38
				c-42.19,39.21-93.82,67.27-149.41,81.19l-0.84,0.21l-0.2,0.85c-13.28,55.66-40.77,107.51-79.54,150.05
				c-39.25-42.06-67.36-93.51-81.32-148.9l0.01-0.97l-1.12-0.27c-55.78-13.25-107.74-40.69-150.37-79.38
				c42.19-39.21,93.82-67.27,149.41-81.19C463.15,439.71,492.84,436.27,522.74,436.69 M522.76,435.26
				c-30.58-0.43-60.3,3.15-88.63,10.27c-57.47,14.39-109.26,43.28-151.17,82.59c42.28,38.72,94.35,67.02,152.15,80.76l0,0.01
				c14.42,57.34,43.38,109.01,82.77,150.84c38.8-42.18,67.16-94.14,80.92-151.82c57.47-14.39,109.26-43.28,151.17-82.59
				c-42.28-38.72-94.35-67.02-152.15-80.76C573.72,438.82,548.59,435.62,522.76,435.26"/>
			<path class="st5" d="M517.88,758.68c-39.63-42.27-68-94.08-82.05-149.87l-0.02-0.11c-7.23-28.66-10.69-58.35-10.27-88.25
				c0.35-25.28,3.48-50.43,9.29-74.75c13.37-56.03,41.1-108.2,80.23-150.94c39.65,42.29,68.02,94.13,82.07,149.98l0.11,0.42
				l0.42,0.1c56.15,13.34,108.44,41.02,151.26,80.07c-42.38,39.57-94.33,67.87-150.29,81.89l-0.42,0.11l-0.1,0.42
				C584.75,663.77,557.01,715.94,517.88,758.68"/>
			<path class="st6" d="M515.07,295.81c39.29,42.1,67.42,93.62,81.37,149.1l0.21,0.84l0.85,0.2
				c55.78,13.25,107.74,40.69,150.37,79.38c-42.19,39.21-93.82,67.27-149.41,81.19l-0.84,0.21l-0.2,0.84
				c-13.28,55.66-40.77,107.51-79.54,150.05c-39.25-42.06-67.36-93.51-81.32-148.9l0-0.02l-0.05-0.18
				c-7.22-28.6-10.67-58.23-10.25-88.07c0.35-25.23,3.47-50.32,9.28-74.6C448.81,390.2,476.3,338.35,515.07,295.81 M515.06,293.7
				c-38.8,42.18-67.16,94.14-80.92,151.82c-5.75,24.06-8.96,49.14-9.31,74.91c-0.42,30.52,3.16,60.18,10.29,88.44l0,0.01
				c14.42,57.35,43.38,109.01,82.77,150.84c38.8-42.18,67.16-94.14,80.92-151.82c57.47-14.39,109.26-43.28,151.17-82.59
				c-42.28-38.72-94.35-67.02-152.15-80.76C583.41,387.21,554.46,335.53,515.06,293.7"/>
			<path class="st7" d="M749.98,525.32c-41.91,39.31-93.71,68.2-151.17,82.59c-28.32,7.11-58.05,10.69-88.63,10.27
				c-25.82-0.36-50.95-3.56-75.07-9.28l0-0.01c-57.8-13.74-109.87-42.04-152.15-80.76c41.92-39.31,93.71-68.2,151.17-82.59
				c13.76-57.68,42.12-109.64,80.92-151.82c39.4,41.83,68.35,93.51,82.77,150.85C655.64,458.29,707.71,486.6,749.98,525.32"/>
			<path class="st7" d="M608.13,533c-0.36,25.77-3.56,50.84-9.31,74.91c-13.76,57.68-42.12,109.64-80.92,151.82
				c-39.4-41.83-68.35-93.5-82.77-150.84l0-0.01c-57.8-13.74-109.87-42.04-152.15-80.76c41.92-39.31,93.71-68.2,151.17-82.59
				c13.76-57.68,42.12-109.64,80.92-151.82c39.4,41.83,68.35,93.51,82.77,150.85C604.96,472.82,608.55,502.48,608.13,533"/>
		</g>
	</g>
</g>
<g id="Artwork_51_1_">
	<g>
		<defs>
			
				<rect id="SVGID_11_" x="259" y="267.5" transform="matrix(0.7081 -0.7061 0.7061 0.7081 -222.7024 524.5637)" width="528.32" height="528.32"/>
		</defs>
		<clipPath id="SVGID_12_">
			<use xlink:href="#SVGID_11_"  style="overflow:visible;"/>
		</clipPath>
		<g class="st8">
			<defs>
				
					<rect id="SVGID_13_" x="259" y="267.5" transform="matrix(0.7081 -0.7061 0.7061 0.7081 -222.7024 524.5637)" width="528.32" height="528.32"/>
			</defs>
			<clipPath id="SVGID_14_">
				<use xlink:href="#SVGID_13_"  style="overflow:visible;"/>
			</clipPath>
			<path class="st9" d="M699.45,728.92c-52.67,52.52-109.79,97.88-170.15,136.02c-72.73-42.25-141.21-94.62-203.4-156.99
				c-52.52-52.67-97.88-109.79-136.05-170.12l0.03-0.03c42.25-72.73,94.62-141.21,156.99-203.4
				c52.67-52.52,109.79-97.88,170.15-136.02c72.73,42.25,141.21,94.62,203.4,156.99c52.52,52.67,97.88,109.79,136.02,170.15
				C814.19,598.25,761.82,666.73,699.45,728.92"/>
		</g>
	</g>
</g>
</svg>
