<?xml version="1.0" encoding="utf-8"?>
<!-- Generator: Adobe Illustrator 16.0.3, SVG Export Plug-In . SVG Version: 6.00 Build 0)  -->
<!DOCTYPE svg PUBLIC "-//W3C//DTD SVG 1.1//EN" "http://www.w3.org/Graphics/SVG/1.1/DTD/svg11.dtd">
<svg version="1.1" id="Layer_1" xmlns="http://www.w3.org/2000/svg" xmlns:xlink="http://www.w3.org/1999/xlink" x="0px" y="0px"
	 width="787.461px" height="190.491px" viewBox="0 0 787.461 190.491" enable-background="new 0 0 787.461 190.491"
	 xml:space="preserve">
<g>
	<g>
		<defs>
			<polygon id="SVGID_11_" points="92.939,34.505 23.88,103.564 23.88,103.564 92.939,172.624 161.999,103.564 			"/>
		</defs>
		<clipPath id="SVGID_2_">
			<use xlink:href="#SVGID_11_"  overflow="visible"/>
		</clipPath>
		<path clip-path="url(#SVGID_2_)" fill="#312F7D" d="M102.148,162.636c-0.147,0.148-0.296,0.295-0.446,0.441
			c-2.532,2.469-5.322,4.649-8.291,6.483c-3.548-2.123-6.826-4.716-9.742-7.706c-4.629-4.749-8.161-10.271-10.5-16.417
			c-2.259-5.936-3.307-12.177-3.115-18.553l0.003-0.108l-0.108,0.005c-13.667,0.606-26.979-4.662-36.524-14.454
			c-2.466-2.53-4.648-5.318-6.485-8.288c2.018-3.373,4.462-6.504,7.266-9.308c0.146-0.146,0.293-0.292,0.442-0.437
			c4.748-4.629,10.271-8.161,16.416-10.5c5.936-2.259,12.178-3.307,18.553-3.114l0.108,0.003l-0.004-0.108
			c-0.293-6.594,0.742-13.056,3.075-19.205c2.412-6.357,6.09-12.036,10.932-16.877c0.148-0.148,0.296-0.295,0.447-0.441
			c2.532-2.468,5.321-4.649,8.29-6.483c3.548,2.123,6.826,4.716,9.742,7.706c4.628,4.748,8.161,10.271,10.499,16.416
			c2.259,5.936,3.307,12.177,3.115,18.555l-0.003,0.107l0.108-0.004c13.667-0.606,26.979,4.661,36.523,14.453
			c2.469,2.532,4.65,5.322,6.484,8.29c-2.018,3.372-4.461,6.502-7.265,9.306c-0.146,0.146-0.294,0.291-0.442,0.437
			c-4.748,4.629-10.271,8.161-16.416,10.5c-5.936,2.259-12.178,3.307-18.554,3.114l-0.108-0.003l0.005,0.108
			c0.292,6.594-0.742,13.056-3.075,19.205C110.668,152.116,106.99,157.795,102.148,162.636"/>
		<path clip-path="url(#SVGID_2_)" d="M83.659,44.422l0.142,0.142c0.147-0.147,0.296-0.293,0.445-0.439
			c2.512-2.449,5.278-4.614,8.221-6.438c3.521,2.113,6.773,4.689,9.669,7.659c4.619,4.738,8.144,10.25,10.477,16.382
			c2.254,5.922,3.3,12.151,3.109,18.515l-0.006,0.217l0.216-0.01c6.684-0.296,13.224,0.771,19.44,3.174
			c6.433,2.486,12.154,6.271,17.007,11.25c2.449,2.513,4.615,5.277,6.438,8.221c-2.006,3.345-4.435,6.451-7.219,9.234
			c-0.146,0.146-0.292,0.29-0.44,0.436c-4.738,4.618-10.25,8.144-16.381,10.478c-5.924,2.253-12.152,3.3-18.515,3.107l-0.217-0.007
			l0.01,0.217c0.292,6.581-0.74,13.029-3.069,19.166c-2.407,6.344-6.077,12.01-10.909,16.842c-0.147,0.147-0.296,0.293-0.446,0.439
			c-2.512,2.449-5.278,4.615-8.221,6.438c-3.521-2.112-6.773-4.689-9.669-7.659c-4.619-4.738-8.144-10.25-10.478-16.382
			c-2.254-5.924-3.3-12.152-3.108-18.515l0.007-0.217l-0.216,0.01c-6.684,0.297-13.225-0.771-19.441-3.174
			c-6.433-2.487-12.154-6.271-17.006-11.249c-2.447-2.511-4.613-5.275-6.439-8.22c2.007-3.345,4.436-6.452,7.22-9.236
			c0.146-0.146,0.292-0.29,0.44-0.435c4.738-4.619,10.249-8.145,16.381-10.479c5.923-2.254,12.152-3.299,18.515-3.107l0.217,0.006
			l-0.01-0.216c-0.292-6.581,0.74-13.029,3.069-19.166c2.407-6.344,6.078-12.01,10.909-16.842L83.659,44.422 M83.659,44.422
			C73.74,54.341,69.044,67.55,69.623,80.581C57.034,80.2,44.312,84.734,34.58,94.223c-0.149,0.146-0.296,0.291-0.442,0.437
			c-2.878,2.878-5.316,6.033-7.313,9.379l-0.001,0.001c1.824,2.958,4.003,5.765,6.531,8.358c9.967,10.225,23.375,15.07,36.6,14.483
			c-0.379,12.589,4.155,25.312,13.643,35.043c2.994,3.071,6.299,5.657,9.814,7.754c2.959-1.822,5.766-4.001,8.359-6.529
			c0.15-0.146,0.299-0.293,0.447-0.441c9.919-9.919,14.615-23.128,14.037-36.158c12.588,0.38,25.311-4.154,35.042-13.643
			c0.149-0.146,0.295-0.291,0.442-0.437c2.877-2.877,5.316-6.033,7.313-9.379c-1.824-2.959-4.002-5.766-6.53-8.359
			c-9.966-10.225-23.375-15.07-36.6-14.483c0.378-12.591-4.155-25.312-13.642-35.043c-2.995-3.07-6.299-5.657-9.815-7.755
			c-2.959,1.823-5.766,4.002-8.359,6.529C83.956,44.127,83.807,44.273,83.659,44.422"/>
	</g>
	<g>
		<defs>
			<rect id="SVGID_13_" x="47.361" y="58.977" width="89.441" height="89.494"/>
		</defs>
		<clipPath id="SVGID_4_">
			<use xlink:href="#SVGID_13_"  overflow="visible"/>
		</clipPath>
		<path clip-path="url(#SVGID_4_)" fill="#BB516C" d="M81.472,114.425c1.854,7.473,5.599,14.212,10.704,19.674
			c-8.319,9.02-20.305,14.586-33.54,14.366c-3.356-0.056-6.621-0.48-9.752-1.236c-0.917-3.684-1.373-7.548-1.306-11.522
			c0.209-12.596,5.619-23.885,14.149-31.854c5.48,5.059,12.237,8.762,19.745,10.571V114.425z"/>
		<path clip-path="url(#SVGID_4_)" fill="#BB516C" d="M47.368,70.313c0.056-3.356,0.481-6.62,1.235-9.752h0.002
			c3.684-0.918,7.547-1.373,11.521-1.307c12.596,0.209,23.885,5.618,31.854,14.149c-5.058,5.48-8.762,12.237-10.571,19.745
			c-7.473,1.854-14.214,5.599-19.676,10.703C52.714,95.533,47.147,83.547,47.368,70.313"/>
		<path clip-path="url(#SVGID_4_)" fill="#BB516C" d="M136.796,137.189c-0.056,3.355-0.481,6.62-1.237,9.752
			c-3.683,0.917-7.547,1.372-11.521,1.307c-12.596-0.21-23.885-5.619-31.854-14.149c5.058-5.48,8.762-12.237,10.571-19.745
			c7.473-1.854,14.214-5.599,19.675-10.703C131.45,111.969,137.017,123.955,136.796,137.189"/>
		<path clip-path="url(#SVGID_4_)" fill="#BB516C" d="M102.693,93.025c-1.854-7.474-5.599-14.215-10.704-19.676
			c8.319-9.02,20.305-14.587,33.539-14.367c3.356,0.057,6.621,0.48,9.752,1.235v0.002c0.917,3.684,1.373,7.548,1.307,11.521
			c-0.209,12.596-5.62,23.886-14.15,31.854C116.958,98.538,110.201,94.834,102.693,93.025"/>
	</g>
	<g>
		<defs>
			
				<rect id="SVGID_15_" x="61.214" y="73.256" transform="matrix(-0.9999 -0.0139 0.0139 -0.9999 182.569 209.2483)" width="61.598" height="61.466"/>
		</defs>
		<clipPath id="SVGID_6_">
			<use xlink:href="#SVGID_15_"  overflow="visible"/>
		</clipPath>
		<path clip-path="url(#SVGID_6_)" fill="#FFFFFF" d="M92.198,134.589c-5.229-5.577-8.97-12.411-10.824-19.771l0.001-0.064
			l-0.074-0.019c-7.407-1.761-14.305-5.412-19.954-10.563c5.59-5.22,12.444-8.954,19.826-10.803
			c3.789-0.952,7.714-1.407,11.667-1.352c3.342,0.046,6.666,0.459,9.882,1.225c7.408,1.76,14.305,5.411,19.955,10.563
			c-5.591,5.219-12.444,8.953-19.826,10.802l-0.056,0.015l-0.014,0.056C101.019,122.068,97.36,128.951,92.198,134.589"/>
		<path clip-path="url(#SVGID_6_)" d="M92.84,92.113c3.335,0.046,6.653,0.457,9.862,1.222c7.358,1.748,14.213,5.367,19.837,10.472
			c-5.566,5.172-12.376,8.873-19.71,10.71l-0.111,0.027l-0.027,0.111c-1.752,7.343-5.378,14.183-10.493,19.795
			c-5.178-5.549-8.886-12.336-10.729-19.644l0.002-0.128l-0.147-0.035c-7.358-1.749-14.213-5.367-19.837-10.472
			c5.565-5.173,12.376-8.874,19.71-10.711C84.978,92.512,88.895,92.058,92.84,92.113 M92.842,91.924
			c-4.034-0.056-7.955,0.416-11.691,1.354c-7.581,1.898-14.413,5.709-19.943,10.896c5.577,5.107,12.446,8.841,20.072,10.653v0.001
			c1.903,7.565,5.723,14.382,10.919,19.899c5.119-5.564,8.86-12.419,10.675-20.028c7.581-1.898,14.413-5.709,19.942-10.895
			c-5.577-5.108-12.446-8.842-20.071-10.653C99.564,92.394,96.25,91.972,92.842,91.924"/>
		<path clip-path="url(#SVGID_6_)" fill="#FFFFFF" d="M92.198,134.589c-5.229-5.577-8.97-12.411-10.824-19.771l-0.003-0.015
			c-0.954-3.781-1.41-7.698-1.355-11.643c0.046-3.334,0.459-6.651,1.226-9.861c1.764-7.391,5.422-14.273,10.584-19.911
			c5.231,5.579,8.974,12.418,10.827,19.785l0.014,0.056l0.056,0.014c7.408,1.76,14.305,5.411,19.955,10.563
			c-5.591,5.219-12.444,8.953-19.826,10.802l-0.056,0.015l-0.014,0.056C101.019,122.068,97.36,128.951,92.198,134.589"/>
		<path clip-path="url(#SVGID_6_)" d="M91.828,73.528c5.184,5.553,8.894,12.351,10.734,19.668l0.028,0.112l0.112,0.026
			c7.358,1.748,14.213,5.367,19.837,10.472c-5.566,5.172-12.376,8.873-19.71,10.71l-0.111,0.027l-0.027,0.111
			c-1.752,7.343-5.378,14.183-10.493,19.794c-5.178-5.548-8.886-12.335-10.729-19.643v-0.002l-0.006-0.024
			c-0.952-3.772-1.407-7.682-1.352-11.617c0.047-3.328,0.458-6.639,1.224-9.841C83.086,85.979,86.713,79.14,91.828,73.528
			 M91.826,73.25c-5.119,5.565-8.86,12.419-10.675,20.028c-0.759,3.174-1.182,6.482-1.229,9.882
			c-0.056,4.025,0.417,7.938,1.358,11.667v0.001c1.903,7.566,5.722,14.382,10.919,19.899c5.119-5.564,8.86-12.419,10.675-20.028
			c7.581-1.898,14.413-5.709,19.942-10.895c-5.577-5.108-12.446-8.842-20.071-10.653C100.843,85.586,97.023,78.769,91.826,73.25"/>
		<path clip-path="url(#SVGID_6_)" fill="#CFA4AD" d="M122.817,103.805c-5.529,5.186-12.361,8.996-19.942,10.895
			c-3.736,0.938-7.657,1.41-11.692,1.354c-3.406-0.048-6.721-0.469-9.903-1.226v-0.001c-7.625-1.813-14.494-5.546-20.072-10.653
			c5.53-5.187,12.362-8.997,19.943-10.896c1.815-7.609,5.556-14.463,10.675-20.028c5.197,5.519,9.017,12.336,10.919,19.901
			C110.371,94.963,117.24,98.696,122.817,103.805"/>
		<path clip-path="url(#SVGID_6_)" fill="#CFA4AD" d="M104.103,104.817c-0.047,3.4-0.47,6.708-1.229,9.882
			c-1.815,7.609-5.557,14.464-10.675,20.028c-5.197-5.518-9.017-12.334-10.919-19.898v-0.002
			c-7.625-1.813-14.494-5.546-20.071-10.653c5.529-5.187,12.361-8.997,19.942-10.896c1.815-7.609,5.557-14.463,10.675-20.028
			c5.197,5.519,9.017,12.336,10.919,19.901C103.686,96.879,104.159,100.792,104.103,104.817"/>
	</g>
	<g>
		<defs>
			
				<rect id="SVGID_17_" x="46.342" y="58.001" transform="matrix(-0.9999 -0.0125 0.0125 -0.9999 182.4714 208.2236)" width="91.084" height="91.084"/>
		</defs>
		<clipPath id="SVGID_8_">
			<use xlink:href="#SVGID_17_"  overflow="visible"/>
		</clipPath>
		<path clip-path="url(#SVGID_8_)" fill="#FFFFFF" d="M137.434,103.202c-8.165,7.696-18.26,13.358-29.465,16.188
			c-2.668,11.28-8.186,21.444-15.743,29.703c-7.696-8.166-13.358-18.257-16.188-29.463l0-0.003
			c-11.28-2.668-21.445-8.186-29.703-15.743C54.5,96.188,64.594,90.526,75.8,87.696c2.668-11.28,8.186-21.445,15.743-29.703
			c7.697,8.166,13.359,18.261,16.188,29.467C119.011,90.127,129.176,95.646,137.434,103.202"/>
	</g>
	<g>
		<defs>
			
				<rect id="SVGID_19_" x="74.08" y="85.684" transform="matrix(-1 -0.01 0.01 -1 182.8882 208.0476)" width="35.767" height="35.766"/>
		</defs>
		<clipPath id="SVGID_10_">
			<use xlink:href="#SVGID_19_"  overflow="visible"/>
		</clipPath>
		<path clip-path="url(#SVGID_10_)" fill="#FECA0A" d="M109.836,104.724c-0.05,5.035-0.655,9.937-1.758,14.643
			c-5.517,1.411-11.308,2.134-17.271,2.073c-5.035-0.05-9.936-0.655-14.642-1.755v-0.003c-1.412-5.517-2.134-11.309-2.074-17.271
			c0.05-5.036,0.655-9.937,1.759-14.643c5.516-1.411,11.308-2.134,17.27-2.074c5.035,0.051,9.937,0.656,14.643,1.76
			C109.174,92.97,109.896,98.762,109.836,104.724"/>
	</g>
</g>
<g>
	<g>
		<defs>
			<polygon id="SVGID_21_" points="241.172,34.505 172.113,103.564 172.113,103.564 241.172,172.624 310.232,103.564 			"/>
		</defs>
		<clipPath id="SVGID_12_">
			<use xlink:href="#SVGID_21_"  overflow="visible"/>
		</clipPath>
		<path clip-path="url(#SVGID_12_)" fill="#312F7D" d="M250.381,162.636c-0.147,0.148-0.296,0.295-0.446,0.441
			c-2.532,2.469-5.322,4.649-8.291,6.483c-3.548-2.123-6.826-4.716-9.742-7.706c-4.629-4.749-8.161-10.271-10.5-16.417
			c-2.259-5.936-3.307-12.178-3.115-18.554l0.003-0.107l-0.108,0.005c-13.667,0.605-26.979-4.662-36.524-14.454
			c-2.466-2.53-4.648-5.318-6.485-8.288c2.018-3.373,4.462-6.504,7.267-9.308c0.146-0.146,0.293-0.292,0.441-0.437
			c4.748-4.629,10.271-8.161,16.416-10.5c5.936-2.259,12.178-3.307,18.554-3.114l0.108,0.003l-0.004-0.108
			c-0.293-6.594,0.742-13.056,3.075-19.206c2.412-6.356,6.09-12.035,10.932-16.876c0.147-0.148,0.296-0.295,0.446-0.441
			c2.532-2.468,5.321-4.649,8.29-6.483c3.548,2.123,6.826,4.716,9.742,7.706c4.628,4.748,8.161,10.271,10.499,16.416
			c2.259,5.935,3.307,12.177,3.115,18.555l-0.003,0.107l0.108-0.005c13.667-0.605,26.98,4.662,36.524,14.454
			c2.468,2.532,4.649,5.322,6.483,8.29c-2.017,3.372-4.46,6.502-7.265,9.306c-0.146,0.146-0.293,0.291-0.441,0.437
			c-4.748,4.629-10.271,8.161-16.416,10.5c-5.936,2.259-12.178,3.307-18.554,3.114l-0.108-0.003l0.005,0.108
			c0.292,6.594-0.742,13.056-3.075,19.205C258.901,152.116,255.223,157.795,250.381,162.636"/>
		<path clip-path="url(#SVGID_12_)" d="M231.892,44.422l0.142,0.142c0.147-0.147,0.296-0.293,0.445-0.439
			c2.512-2.449,5.278-4.615,8.221-6.438c3.521,2.113,6.773,4.689,9.669,7.659c4.619,4.738,8.144,10.25,10.477,16.382
			c2.254,5.922,3.299,12.151,3.108,18.515l-0.006,0.217l0.215-0.01c6.684-0.297,13.225,0.771,19.441,3.174
			c6.433,2.486,12.155,6.271,17.007,11.249c2.449,2.513,4.615,5.278,6.438,8.222c-2.007,3.345-4.436,6.451-7.219,9.234
			c-0.146,0.146-0.292,0.29-0.44,0.436c-4.738,4.618-10.25,8.144-16.381,10.478c-5.924,2.253-12.153,3.299-18.515,3.107
			l-0.217-0.007l0.01,0.217c0.292,6.581-0.741,13.029-3.069,19.166c-2.407,6.344-6.077,12.01-10.909,16.842
			c-0.147,0.147-0.296,0.293-0.445,0.439c-2.513,2.449-5.278,4.615-8.221,6.438c-3.521-2.113-6.773-4.689-9.669-7.659
			c-4.619-4.738-8.144-10.25-10.478-16.382c-2.254-5.924-3.3-12.152-3.108-18.515l0.007-0.217l-0.216,0.01
			c-6.684,0.297-13.224-0.771-19.441-3.174c-6.433-2.487-12.154-6.271-17.006-11.249c-2.447-2.511-4.613-5.275-6.439-8.221
			c2.007-3.344,4.436-6.451,7.22-9.235c0.146-0.146,0.292-0.29,0.44-0.436c4.738-4.618,10.25-8.144,16.381-10.478
			c5.923-2.254,12.152-3.299,18.515-3.107l0.217,0.006l-0.01-0.216c-0.292-6.581,0.74-13.029,3.069-19.166
			c2.407-6.344,6.078-12.01,10.909-16.842L231.892,44.422 M231.892,44.422c-9.919,9.919-14.615,23.128-14.037,36.158
			c-12.589-0.38-25.311,4.154-35.042,13.643c-0.149,0.146-0.296,0.291-0.442,0.437c-2.877,2.878-5.316,6.033-7.312,9.378
			l-0.001,0.002c1.824,2.958,4.003,5.765,6.53,8.358c9.967,10.225,23.375,15.07,36.601,14.483
			c-0.38,12.589,4.154,25.312,13.643,35.043c2.994,3.07,6.299,5.657,9.814,7.754c2.96-1.822,5.766-4.001,8.36-6.529
			c0.15-0.146,0.299-0.293,0.447-0.441c9.919-9.919,14.615-23.128,14.037-36.158c12.588,0.38,25.311-4.154,35.043-13.643
			c0.149-0.146,0.295-0.291,0.442-0.437c2.877-2.878,5.316-6.033,7.312-9.379c-1.823-2.96-4.002-5.766-6.53-8.359
			c-9.966-10.225-23.375-15.07-36.6-14.484c0.378-12.59-4.155-25.311-13.642-35.042c-2.995-3.07-6.299-5.657-9.815-7.755
			c-2.96,1.823-5.767,4.002-8.36,6.529C232.189,44.127,232.04,44.273,231.892,44.422"/>
	</g>
	<g>
		<defs>
			<rect id="SVGID_23_" x="195.594" y="58.977" width="89.441" height="89.494"/>
		</defs>
		<clipPath id="SVGID_14_">
			<use xlink:href="#SVGID_23_"  overflow="visible"/>
		</clipPath>
		<path clip-path="url(#SVGID_14_)" fill="#BB516C" d="M229.705,114.425c1.854,7.473,5.599,14.212,10.704,19.674
			c-8.319,9.02-20.305,14.586-33.54,14.366c-3.356-0.056-6.62-0.48-9.752-1.237c-0.917-3.684-1.373-7.547-1.306-11.522
			c0.209-12.595,5.619-23.884,14.149-31.854c5.48,5.058,12.238,8.762,19.745,10.571V114.425z"/>
		<path clip-path="url(#SVGID_14_)" fill="#BB516C" d="M195.601,70.313c0.056-3.356,0.481-6.62,1.235-9.753h0.002
			c3.684-0.917,7.547-1.372,11.522-1.306c12.596,0.209,23.884,5.618,31.854,14.149c-5.058,5.48-8.762,12.237-10.571,19.745
			c-7.473,1.854-14.214,5.599-19.676,10.703C200.947,95.533,195.381,83.547,195.601,70.313"/>
		<path clip-path="url(#SVGID_14_)" fill="#BB516C" d="M285.03,137.189c-0.056,3.355-0.481,6.62-1.238,9.752
			c-3.684,0.917-7.547,1.372-11.521,1.307c-12.596-0.21-23.885-5.619-31.854-14.149c5.058-5.48,8.762-12.237,10.571-19.745
			c7.473-1.854,14.214-5.599,19.675-10.704C279.683,111.969,285.25,123.955,285.03,137.189"/>
		<path clip-path="url(#SVGID_14_)" fill="#BB516C" d="M250.926,93.025c-1.854-7.474-5.599-14.215-10.704-19.676
			c8.319-9.02,20.305-14.587,33.539-14.367c3.356,0.057,6.621,0.48,9.753,1.235v0.002c0.917,3.684,1.373,7.547,1.307,11.521
			c-0.209,12.596-5.62,23.885-14.15,31.854C265.19,98.538,258.434,94.834,250.926,93.025"/>
	</g>
	<g>
		<defs>
			
				<rect id="SVGID_25_" x="209.447" y="73.256" transform="matrix(-0.9999 -0.0139 0.0139 -0.9999 479.0209 211.3116)" width="61.597" height="61.466"/>
		</defs>
		<clipPath id="SVGID_16_">
			<use xlink:href="#SVGID_25_"  overflow="visible"/>
		</clipPath>
		<path clip-path="url(#SVGID_16_)" fill="#FFFFFF" d="M240.431,134.589c-5.228-5.577-8.97-12.411-10.823-19.771l0-0.063
			l-0.073-0.019c-7.408-1.761-14.305-5.412-19.955-10.563c5.591-5.22,12.444-8.954,19.826-10.803
			c3.789-0.952,7.714-1.407,11.667-1.352c3.342,0.046,6.667,0.458,9.882,1.225c7.408,1.76,14.305,5.411,19.955,10.563
			c-5.591,5.219-12.443,8.953-19.826,10.802l-0.056,0.014l-0.014,0.057C249.252,122.068,245.593,128.951,240.431,134.589"/>
		<path clip-path="url(#SVGID_16_)" d="M241.073,92.112c3.334,0.047,6.652,0.458,9.862,1.222
			c7.358,1.749,14.213,5.368,19.836,10.473c-5.565,5.172-12.376,8.873-19.71,10.71l-0.111,0.027l-0.027,0.111
			c-1.751,7.343-5.378,14.183-10.493,19.795c-5.178-5.549-8.886-12.336-10.729-19.644l0.002-0.128l-0.147-0.035
			c-7.358-1.749-14.213-5.367-19.837-10.472c5.565-5.173,12.376-8.874,19.71-10.711C233.211,92.512,237.128,92.058,241.073,92.112
			 M241.076,91.924c-4.035-0.056-7.956,0.416-11.692,1.354c-7.581,1.898-14.413,5.709-19.942,10.896
			c5.577,5.107,12.446,8.841,20.071,10.653v0.001c1.903,7.565,5.723,14.382,10.919,19.899c5.119-5.565,8.86-12.419,10.675-20.028
			c7.581-1.898,14.413-5.709,19.943-10.895c-5.577-5.108-12.446-8.842-20.072-10.653C247.797,92.394,244.482,91.972,241.076,91.924"
			/>
		<path clip-path="url(#SVGID_16_)" fill="#FFFFFF" d="M240.431,134.589c-5.228-5.577-8.97-12.411-10.823-19.771l-0.003-0.014
			c-0.954-3.781-1.41-7.698-1.355-11.643c0.046-3.334,0.459-6.651,1.226-9.861c1.764-7.391,5.422-14.273,10.584-19.911
			c5.231,5.579,8.974,12.418,10.827,19.785l0.014,0.056l0.056,0.014c7.408,1.76,14.305,5.411,19.955,10.563
			c-5.591,5.219-12.443,8.953-19.826,10.802l-0.056,0.014l-0.014,0.057C249.252,122.068,245.593,128.951,240.431,134.589"/>
		<path clip-path="url(#SVGID_16_)" d="M240.061,73.528c5.184,5.553,8.894,12.351,10.734,19.668l0.028,0.111l0.112,0.026
			c7.357,1.749,14.212,5.368,19.836,10.473c-5.565,5.172-12.376,8.873-19.71,10.71l-0.111,0.027l-0.027,0.111
			c-1.751,7.343-5.378,14.183-10.493,19.794c-5.178-5.548-8.885-12.335-10.728-19.643v-0.002l-0.006-0.024
			c-0.952-3.772-1.407-7.682-1.352-11.617c0.046-3.328,0.458-6.639,1.224-9.841C231.319,85.979,234.946,79.14,240.061,73.528
			 M240.059,73.25c-5.119,5.565-8.86,12.419-10.675,20.028c-0.759,3.174-1.182,6.481-1.229,9.882
			c-0.056,4.025,0.417,7.938,1.357,11.667v0.001c1.903,7.565,5.723,14.382,10.919,19.899c5.119-5.565,8.86-12.419,10.675-20.028
			c7.581-1.898,14.413-5.709,19.943-10.895c-5.577-5.108-12.446-8.842-20.072-10.653C249.076,85.586,245.256,78.769,240.059,73.25"
			/>
		<path clip-path="url(#SVGID_16_)" fill="#CFA4AD" d="M271.05,103.805c-5.53,5.186-12.362,8.996-19.943,10.895
			c-3.736,0.938-7.657,1.41-11.692,1.354c-3.406-0.048-6.721-0.47-9.903-1.226v-0.001c-7.625-1.813-14.494-5.546-20.071-10.653
			c5.529-5.187,12.362-8.997,19.942-10.896c1.815-7.609,5.557-14.463,10.675-20.028c5.197,5.519,9.017,12.336,10.92,19.901
			C258.604,94.963,265.473,98.696,271.05,103.805"/>
		<path clip-path="url(#SVGID_16_)" fill="#CFA4AD" d="M252.336,104.817c-0.047,3.399-0.469,6.707-1.229,9.882
			c-1.815,7.609-5.557,14.463-10.675,20.028c-5.197-5.518-9.016-12.334-10.919-19.898v-0.002
			c-7.625-1.813-14.494-5.546-20.071-10.653c5.529-5.187,12.361-8.997,19.942-10.896c1.815-7.609,5.557-14.463,10.675-20.028
			c5.197,5.519,9.017,12.336,10.919,19.901C251.919,96.879,252.393,100.792,252.336,104.817"/>
	</g>
	<g>
		<defs>
			
				<rect id="SVGID_27_" x="194.575" y="58.001" transform="matrix(-0.9999 -0.0125 0.0125 -0.9999 478.9258 210.0703)" width="91.084" height="91.084"/>
		</defs>
		<clipPath id="SVGID_18_">
			<use xlink:href="#SVGID_27_"  overflow="visible"/>
		</clipPath>
		<path clip-path="url(#SVGID_18_)" fill="#FFFFFF" d="M285.667,103.202c-8.166,7.696-18.26,13.358-29.466,16.188
			c-2.667,11.28-8.185,21.444-15.743,29.703c-7.696-8.166-13.359-18.258-16.189-29.463v-0.003
			c-11.28-2.668-21.444-8.186-29.703-15.743c8.166-7.696,18.26-13.358,29.466-16.188c2.668-11.28,8.186-21.445,15.743-29.703
			c7.697,8.166,13.359,18.261,16.189,29.466C267.244,90.127,277.409,95.646,285.667,103.202"/>
	</g>
	<g>
		<defs>
			
				<rect id="SVGID_29_" x="222.314" y="85.684" transform="matrix(-1 -0.01 0.01 -1 479.3471 209.529)" width="35.766" height="35.766"/>
		</defs>
		<clipPath id="SVGID_20_">
			<use xlink:href="#SVGID_29_"  overflow="visible"/>
		</clipPath>
		<path clip-path="url(#SVGID_20_)" fill="#FECA0A" d="M258.069,104.724c-0.05,5.035-0.655,9.936-1.758,14.643
			c-5.516,1.411-11.308,2.134-17.271,2.073c-5.035-0.05-9.936-0.655-14.642-1.755v-0.003c-1.412-5.517-2.134-11.309-2.074-17.271
			c0.051-5.036,0.655-9.937,1.759-14.643c5.516-1.411,11.308-2.134,17.271-2.074c5.035,0.051,9.936,0.655,14.642,1.76
			C257.408,92.97,258.129,98.761,258.069,104.724"/>
	</g>
</g>
<g>
	<g>
		<defs>
			<polygon id="SVGID_31_" points="389.405,34.505 320.346,103.564 320.346,103.564 389.405,172.624 458.465,103.564 			"/>
		</defs>
		<clipPath id="SVGID_22_">
			<use xlink:href="#SVGID_31_"  overflow="visible"/>
		</clipPath>
		<path clip-path="url(#SVGID_22_)" fill="#312F7D" d="M398.614,162.636c-0.147,0.148-0.297,0.295-0.447,0.441
			c-2.531,2.468-5.321,4.649-8.289,6.483c-3.55-2.123-6.826-4.716-9.742-7.706c-4.629-4.749-8.161-10.271-10.5-16.417
			c-2.26-5.936-3.307-12.178-3.115-18.554l0.004-0.107l-0.108,0.005c-13.667,0.605-26.979-4.662-36.523-14.454
			c-2.467-2.53-4.648-5.318-6.485-8.288c2.018-3.373,4.462-6.504,7.267-9.308c0.146-0.146,0.293-0.292,0.441-0.437
			c4.748-4.629,10.271-8.161,16.416-10.5c5.937-2.259,12.179-3.307,18.554-3.114l0.108,0.003l-0.005-0.108
			c-0.293-6.594,0.742-13.056,3.075-19.206c2.412-6.356,6.09-12.035,10.932-16.876c0.148-0.148,0.297-0.295,0.447-0.441
			c2.531-2.469,5.321-4.649,8.289-6.483c3.549,2.123,6.826,4.716,9.742,7.706c4.629,4.748,8.161,10.271,10.5,16.416
			c2.259,5.935,3.307,12.177,3.115,18.555l-0.004,0.107l0.108-0.005c13.667-0.605,26.979,4.662,36.523,14.454
			c2.469,2.532,4.65,5.322,6.484,8.29c-2.018,3.372-4.461,6.502-7.266,9.306c-0.146,0.146-0.293,0.291-0.441,0.437
			c-4.747,4.629-10.271,8.161-16.416,10.5c-5.937,2.259-12.178,3.307-18.554,3.114l-0.108-0.003l0.005,0.108
			c0.293,6.594-0.742,13.056-3.075,19.205C407.134,152.116,403.456,157.795,398.614,162.636"/>
		<path clip-path="url(#SVGID_22_)" d="M380.125,44.422l0.142,0.142c0.147-0.147,0.296-0.293,0.445-0.439
			c2.513-2.449,5.278-4.615,8.221-6.438c3.521,2.113,6.774,4.689,9.67,7.659c4.618,4.738,8.144,10.25,10.477,16.382
			c2.255,5.922,3.3,12.151,3.109,18.515l-0.007,0.217l0.216-0.01c6.685-0.297,13.225,0.771,19.441,3.174
			c6.433,2.486,12.154,6.271,17.007,11.249c2.449,2.513,4.614,5.278,6.438,8.222c-2.007,3.345-4.436,6.451-7.22,9.234
			c-0.146,0.146-0.292,0.29-0.44,0.436c-4.737,4.618-10.249,8.144-16.381,10.478c-5.925,2.253-12.153,3.299-18.516,3.107
			l-0.217-0.007l0.01,0.217c0.293,6.581-0.74,13.029-3.069,19.166c-2.406,6.344-6.077,12.01-10.908,16.842
			c-0.147,0.147-0.296,0.293-0.445,0.439c-2.513,2.449-5.278,4.615-8.221,6.438c-3.521-2.113-6.774-4.689-9.67-7.659
			c-4.618-4.738-8.144-10.25-10.478-16.382c-2.255-5.924-3.3-12.152-3.108-18.515l0.007-0.217l-0.216,0.01
			c-6.684,0.297-13.225-0.771-19.441-3.174c-6.433-2.487-12.153-6.271-17.006-11.249c-2.447-2.511-4.613-5.275-6.439-8.221
			c2.007-3.344,4.436-6.451,7.221-9.235c0.146-0.146,0.291-0.29,0.439-0.436c4.738-4.618,10.249-8.144,16.381-10.478
			c5.924-2.254,12.153-3.299,18.516-3.107l0.217,0.006l-0.01-0.216c-0.293-6.581,0.74-13.029,3.068-19.166
			c2.407-6.344,6.078-12.01,10.909-16.842L380.125,44.422 M380.125,44.422c-9.92,9.919-14.615,23.128-14.037,36.158
			c-12.589-0.38-25.311,4.154-35.043,13.643c-0.148,0.146-0.295,0.291-0.442,0.437c-2.878,2.878-5.316,6.033-7.312,9.378
			l-0.001,0.002c1.824,2.958,4.003,5.765,6.53,8.358c9.967,10.225,23.375,15.07,36.601,14.483
			c-0.38,12.589,4.154,25.312,13.643,35.043c2.994,3.07,6.299,5.657,9.814,7.754c2.96-1.822,5.767-4.001,8.359-6.529
			c0.15-0.146,0.3-0.293,0.447-0.441c9.92-9.919,14.615-23.128,14.037-36.158c12.588,0.38,25.311-4.154,35.043-13.643
			c0.148-0.146,0.296-0.291,0.442-0.437c2.877-2.878,5.316-6.033,7.313-9.379c-1.823-2.96-4.002-5.766-6.53-8.359
			c-9.966-10.225-23.376-15.07-36.601-14.484c0.378-12.59-4.154-25.311-13.642-35.042c-2.994-3.07-6.3-5.657-9.815-7.755
			c-2.96,1.823-5.767,4.002-8.359,6.529C380.422,44.127,380.272,44.273,380.125,44.422"/>
	</g>
	<g>
		<defs>
			<rect id="SVGID_33_" x="343.827" y="58.977" width="89.44" height="89.494"/>
		</defs>
		<clipPath id="SVGID_24_">
			<use xlink:href="#SVGID_33_"  overflow="visible"/>
		</clipPath>
		<path clip-path="url(#SVGID_24_)" fill="#BB516C" d="M377.938,114.425c1.854,7.473,5.599,14.212,10.704,19.673
			c-8.319,9.021-20.305,14.587-33.54,14.367c-3.355-0.056-6.62-0.48-9.753-1.237c-0.916-3.684-1.372-7.547-1.306-11.522
			c0.209-12.595,5.619-23.884,14.149-31.854c5.48,5.058,12.237,8.762,19.745,10.571V114.425z"/>
		<path clip-path="url(#SVGID_24_)" fill="#BB516C" d="M343.833,70.313c0.056-3.356,0.48-6.62,1.235-9.753h0.002
			c3.684-0.917,7.547-1.372,11.521-1.306c12.596,0.209,23.885,5.618,31.854,14.149c-5.058,5.48-8.762,12.237-10.57,19.745
			c-7.474,1.854-14.215,5.599-19.676,10.703C349.18,95.533,343.613,83.547,343.833,70.313"/>
		<path clip-path="url(#SVGID_24_)" fill="#BB516C" d="M433.263,137.189c-0.057,3.355-0.481,6.62-1.238,9.752
			c-3.684,0.917-7.548,1.372-11.521,1.307c-12.596-0.21-23.886-5.619-31.854-14.15c5.059-5.479,8.762-12.236,10.57-19.745
			c7.475-1.854,14.215-5.598,19.676-10.703C427.915,111.969,433.482,123.955,433.263,137.189"/>
		<path clip-path="url(#SVGID_24_)" fill="#BB516C" d="M399.158,93.025c-1.854-7.474-5.6-14.215-10.703-19.676
			c8.318-9.02,20.305-14.587,33.538-14.367c3.357,0.057,6.622,0.48,9.753,1.235v0.002c0.918,3.684,1.373,7.547,1.308,11.521
			c-0.21,12.596-5.62,23.885-14.15,31.854C413.423,98.538,406.666,94.834,399.158,93.025"/>
	</g>
	<g>
		<defs>
			
				<rect id="SVGID_35_" x="357.679" y="73.256" transform="matrix(-0.9999 -0.0139 0.0139 -0.9999 775.4709 213.375)" width="61.598" height="61.466"/>
		</defs>
		<clipPath id="SVGID_26_">
			<use xlink:href="#SVGID_35_"  overflow="visible"/>
		</clipPath>
		<path clip-path="url(#SVGID_26_)" fill="#FFFFFF" d="M388.664,134.589c-5.229-5.577-8.971-12.411-10.824-19.771l0.001-0.063
			l-0.073-0.019c-7.407-1.761-14.305-5.412-19.955-10.563c5.592-5.221,12.444-8.954,19.826-10.804
			c3.79-0.951,7.715-1.406,11.668-1.351c3.342,0.046,6.667,0.458,9.883,1.225c7.406,1.76,14.304,5.411,19.954,10.563
			c-5.592,5.219-12.444,8.953-19.827,10.802l-0.055,0.014l-0.015,0.057C397.484,122.068,393.825,128.951,388.664,134.589"/>
		<path clip-path="url(#SVGID_26_)" d="M389.306,92.112c3.334,0.047,6.652,0.458,9.861,1.222
			c7.359,1.749,14.214,5.368,19.837,10.473c-5.565,5.172-12.376,8.873-19.71,10.71l-0.111,0.027l-0.027,0.111
			c-1.751,7.343-5.378,14.183-10.491,19.795c-5.179-5.549-8.887-12.336-10.729-19.644l0.002-0.128l-0.147-0.035
			c-7.358-1.749-14.213-5.368-19.837-10.472c5.565-5.173,12.376-8.874,19.71-10.711C381.443,92.512,385.36,92.058,389.306,92.112
			 M389.308,91.924c-4.034-0.056-7.955,0.416-11.691,1.354c-7.58,1.898-14.413,5.709-19.942,10.896
			c5.577,5.107,12.446,8.841,20.071,10.653v0.001c1.903,7.565,5.723,14.382,10.92,19.899c5.118-5.565,8.859-12.419,10.675-20.028
			c7.581-1.898,14.413-5.709,19.942-10.895c-5.577-5.108-12.446-8.843-20.071-10.653C396.029,92.394,392.715,91.972,389.308,91.924"
			/>
		<path clip-path="url(#SVGID_26_)" fill="#FFFFFF" d="M388.664,134.589c-5.229-5.577-8.971-12.411-10.824-19.771l-0.003-0.014
			c-0.954-3.781-1.409-7.698-1.354-11.643c0.046-3.334,0.458-6.651,1.227-9.861c1.763-7.391,5.422-14.273,10.584-19.911
			c5.23,5.579,8.974,12.418,10.826,19.785l0.014,0.056l0.057,0.014c7.406,1.76,14.304,5.411,19.954,10.563
			c-5.592,5.219-12.444,8.953-19.827,10.802l-0.055,0.014l-0.015,0.057C397.484,122.068,393.825,128.951,388.664,134.589"/>
		<path clip-path="url(#SVGID_26_)" d="M388.294,73.528c5.183,5.553,8.893,12.351,10.732,19.668l0.029,0.111l0.111,0.026
			c7.358,1.749,14.214,5.368,19.837,10.473c-5.565,5.172-12.376,8.873-19.71,10.71l-0.111,0.027l-0.027,0.111
			c-1.751,7.343-5.378,14.183-10.492,19.794c-5.178-5.548-8.886-12.335-10.729-19.643v-0.002l-0.006-0.024
			c-0.952-3.772-1.406-7.682-1.353-11.617c0.047-3.328,0.459-6.64,1.225-9.841C379.552,85.979,383.179,79.14,388.294,73.528
			 M388.292,73.25c-5.119,5.565-8.86,12.419-10.676,20.028c-0.759,3.174-1.182,6.481-1.229,9.882
			c-0.057,4.025,0.417,7.938,1.357,11.667v0.001c1.903,7.565,5.723,14.382,10.92,19.899c5.118-5.565,8.859-12.419,10.675-20.028
			c7.581-1.898,14.413-5.709,19.942-10.895c-5.577-5.108-12.446-8.843-20.071-10.653C397.308,85.586,393.488,78.769,388.292,73.25"
			/>
		<path clip-path="url(#SVGID_26_)" fill="#CFA4AD" d="M419.282,103.805c-5.529,5.186-12.361,8.996-19.942,10.895
			c-3.736,0.938-7.657,1.41-11.691,1.354c-3.406-0.048-6.722-0.47-9.903-1.226v-0.001c-7.625-1.813-14.494-5.546-20.071-10.653
			c5.529-5.187,12.362-8.997,19.942-10.896c1.815-7.609,5.557-14.463,10.676-20.028c5.196,5.519,9.016,12.336,10.919,19.901
			C406.836,94.962,413.705,98.696,419.282,103.805"/>
		<path clip-path="url(#SVGID_26_)" fill="#CFA4AD" d="M400.568,104.817c-0.047,3.399-0.469,6.707-1.229,9.882
			c-1.815,7.609-5.557,14.463-10.675,20.028c-5.197-5.518-9.017-12.334-10.92-19.898v-0.002
			c-7.625-1.813-14.494-5.546-20.071-10.653c5.529-5.187,12.361-8.997,19.942-10.896c1.815-7.609,5.557-14.463,10.676-20.028
			c5.196,5.519,9.016,12.336,10.919,19.901C400.151,96.879,400.624,100.792,400.568,104.817"/>
	</g>
	<g>
		<defs>
			
				<rect id="SVGID_37_" x="342.808" y="58.001" transform="matrix(-0.9999 -0.0125 0.0125 -0.9999 775.38 211.9172)" width="91.083" height="91.084"/>
		</defs>
		<clipPath id="SVGID_28_">
			<use xlink:href="#SVGID_37_"  overflow="visible"/>
		</clipPath>
		<path clip-path="url(#SVGID_28_)" fill="#FFFFFF" d="M433.899,103.202c-8.165,7.696-18.26,13.358-29.466,16.188
			c-2.667,11.28-8.186,21.444-15.742,29.703c-7.697-8.166-13.358-18.258-16.189-29.463v-0.003
			c-11.279-2.668-21.443-8.186-29.702-15.743c8.165-7.696,18.26-13.358,29.465-16.188c2.669-11.28,8.186-21.445,15.743-29.703
			c7.696,8.166,13.359,18.261,16.188,29.466C415.477,90.127,425.642,95.646,433.899,103.202"/>
	</g>
	<g>
		<defs>
			
				<rect id="SVGID_39_" x="370.546" y="85.684" transform="matrix(-1 -0.01 0.01 -1 775.8041 211.0102)" width="35.767" height="35.766"/>
		</defs>
		<clipPath id="SVGID_30_">
			<use xlink:href="#SVGID_39_"  overflow="visible"/>
		</clipPath>
		<path clip-path="url(#SVGID_30_)" fill="#FECA0A" d="M406.302,104.724c-0.05,5.035-0.655,9.936-1.759,14.643
			c-5.517,1.411-11.308,2.134-17.27,2.073c-5.036-0.05-9.937-0.655-14.643-1.755v-0.003c-1.412-5.517-2.134-11.309-2.074-17.271
			c0.05-5.036,0.656-9.937,1.759-14.643c5.517-1.411,11.308-2.134,17.27-2.074c5.036,0.051,9.938,0.655,14.644,1.76
			C405.64,92.97,406.361,98.761,406.302,104.724"/>
	</g>
</g>
<g>
	<g>
		<defs>
			<polygon id="SVGID_41_" points="537.637,34.505 468.578,103.564 468.578,103.564 537.637,172.624 606.697,103.564 			"/>
		</defs>
		<clipPath id="SVGID_32_">
			<use xlink:href="#SVGID_41_"  overflow="visible"/>
		</clipPath>
		<path clip-path="url(#SVGID_32_)" fill="#312F7D" d="M546.847,162.636c-0.147,0.148-0.297,0.295-0.447,0.441
			c-2.532,2.468-5.322,4.649-8.29,6.483c-3.549-2.123-6.826-4.716-9.742-7.706c-4.628-4.749-8.161-10.271-10.5-16.417
			c-2.26-5.936-3.307-12.178-3.115-18.554l0.003-0.107l-0.108,0.005c-13.667,0.605-26.979-4.662-36.523-14.454
			c-2.467-2.53-4.648-5.318-6.485-8.288c2.018-3.373,4.462-6.504,7.267-9.308c0.146-0.146,0.292-0.292,0.441-0.437
			c4.748-4.629,10.271-8.161,16.416-10.5c5.936-2.259,12.178-3.307,18.553-3.114l0.108,0.003l-0.005-0.108
			c-0.292-6.594,0.742-13.056,3.075-19.206c2.412-6.356,6.09-12.035,10.932-16.876c0.148-0.148,0.296-0.295,0.447-0.441
			c2.532-2.469,5.321-4.649,8.29-6.483c3.548,2.123,6.826,4.716,9.742,7.706c4.628,4.748,8.161,10.271,10.5,16.416
			c2.259,5.935,3.307,12.177,3.115,18.555l-0.003,0.107l0.108-0.005c13.667-0.605,26.979,4.662,36.524,14.454
			c2.468,2.532,4.649,5.322,6.483,8.29c-2.018,3.372-4.461,6.502-7.266,9.306c-0.146,0.146-0.293,0.291-0.441,0.437
			c-4.747,4.629-10.271,8.161-16.416,10.5c-5.936,2.259-12.178,3.307-18.554,3.114l-0.108-0.003l0.005,0.108
			c0.293,6.594-0.742,13.056-3.075,19.205C555.366,152.116,551.688,157.795,546.847,162.636"/>
		<path clip-path="url(#SVGID_32_)" d="M528.357,44.422l0.142,0.142c0.148-0.147,0.296-0.293,0.446-0.439
			c2.512-2.449,5.278-4.615,8.221-6.438c3.521,2.113,6.774,4.689,9.669,7.659c4.619,4.738,8.144,10.25,10.477,16.382
			c2.255,5.922,3.3,12.151,3.109,18.515l-0.006,0.217l0.216-0.01c6.684-0.297,13.224,0.771,19.441,3.174
			c6.433,2.486,12.154,6.271,17.007,11.249c2.449,2.513,4.615,5.278,6.438,8.222c-2.007,3.345-4.436,6.451-7.22,9.234
			c-0.146,0.146-0.292,0.29-0.439,0.436c-4.738,4.618-10.25,8.144-16.382,10.478c-5.924,2.253-12.153,3.299-18.516,3.107
			l-0.216-0.007l0.01,0.217c0.292,6.581-0.741,13.029-3.069,19.166c-2.407,6.344-6.077,12.01-10.908,16.842
			c-0.148,0.147-0.296,0.293-0.446,0.439c-2.513,2.449-5.278,4.615-8.221,6.438c-3.521-2.113-6.774-4.689-9.67-7.659
			c-4.618-4.738-8.144-10.25-10.477-16.382c-2.255-5.924-3.3-12.152-3.108-18.515l0.006-0.217l-0.216,0.01
			c-6.684,0.297-13.225-0.771-19.441-3.174c-6.432-2.487-12.153-6.271-17.006-11.249c-2.447-2.511-4.613-5.275-6.439-8.221
			c2.007-3.344,4.436-6.451,7.221-9.235c0.145-0.146,0.292-0.29,0.44-0.436c4.738-4.618,10.249-8.144,16.381-10.478
			c5.924-2.254,12.153-3.299,18.515-3.107l0.217,0.006l-0.01-0.216c-0.292-6.581,0.74-13.029,3.068-19.166
			c2.407-6.344,6.078-12.01,10.909-16.842L528.357,44.422 M528.357,44.422c-9.919,9.919-14.615,23.128-14.037,36.158
			c-12.588-0.38-25.31,4.154-35.042,13.643c-0.149,0.146-0.295,0.291-0.442,0.437c-2.878,2.878-5.316,6.033-7.312,9.378
			l-0.001,0.002c1.824,2.958,4.003,5.765,6.53,8.358c9.967,10.225,23.375,15.07,36.601,14.483
			c-0.379,12.589,4.155,25.312,13.643,35.043c2.994,3.07,6.299,5.657,9.814,7.754c2.96-1.822,5.767-4.001,8.359-6.529
			c0.151-0.146,0.3-0.293,0.447-0.441c9.92-9.919,14.615-23.128,14.037-36.158c12.588,0.38,25.311-4.154,35.043-13.643
			c0.149-0.146,0.296-0.291,0.442-0.437c2.877-2.878,5.316-6.033,7.313-9.379c-1.823-2.96-4.002-5.766-6.53-8.359
			c-9.966-10.225-23.375-15.07-36.6-14.484c0.378-12.59-4.155-25.311-13.642-35.042c-2.994-3.07-6.3-5.657-9.815-7.755
			c-2.96,1.823-5.766,4.002-8.359,6.529C528.654,44.127,528.505,44.273,528.357,44.422"/>
	</g>
	<g>
		<defs>
			<rect id="SVGID_43_" x="492.06" y="58.977" width="89.44" height="89.494"/>
		</defs>
		<clipPath id="SVGID_34_">
			<use xlink:href="#SVGID_43_"  overflow="visible"/>
		</clipPath>
		<path clip-path="url(#SVGID_34_)" fill="#BB516C" d="M526.17,114.425c1.854,7.473,5.599,14.212,10.704,19.673
			c-8.319,9.021-20.305,14.587-33.54,14.367c-3.355-0.056-6.62-0.48-9.752-1.237c-0.917-3.684-1.372-7.547-1.306-11.522
			c0.209-12.595,5.619-23.884,14.149-31.854c5.48,5.058,12.237,8.762,19.745,10.571V114.425z"/>
		<path clip-path="url(#SVGID_34_)" fill="#BB516C" d="M492.066,70.313c0.056-3.356,0.48-6.62,1.235-9.753h0.002
			c3.684-0.917,7.547-1.372,11.521-1.306c12.596,0.209,23.885,5.618,31.854,14.149c-5.058,5.48-8.762,12.237-10.571,19.745
			c-7.473,1.854-14.215,5.599-19.676,10.703C497.413,95.533,491.846,83.547,492.066,70.313"/>
		<path clip-path="url(#SVGID_34_)" fill="#BB516C" d="M581.495,137.189c-0.057,3.355-0.481,6.62-1.238,9.752
			c-3.684,0.917-7.547,1.372-11.521,1.307c-12.596-0.21-23.885-5.619-31.854-14.15c5.058-5.479,8.762-12.236,10.57-19.745
			c7.474-1.854,14.214-5.598,19.675-10.703C576.148,111.969,581.715,123.955,581.495,137.189"/>
		<path clip-path="url(#SVGID_34_)" fill="#BB516C" d="M547.391,93.025c-1.854-7.474-5.599-14.215-10.703-19.676
			c8.318-9.02,20.305-14.587,33.539-14.367c3.357,0.057,6.622,0.48,9.753,1.235v0.002c0.917,3.684,1.373,7.547,1.307,11.521
			c-0.209,12.596-5.62,23.885-14.15,31.854C561.655,98.538,554.898,94.834,547.391,93.025"/>
	</g>
	<g>
		<defs>
			
				<rect id="SVGID_45_" x="505.912" y="73.256" transform="matrix(-0.9999 -0.0139 0.0139 -0.9999 1071.9219 215.4384)" width="61.597" height="61.466"/>
		</defs>
		<clipPath id="SVGID_36_">
			<use xlink:href="#SVGID_45_"  overflow="visible"/>
		</clipPath>
		<path clip-path="url(#SVGID_36_)" fill="#FFFFFF" d="M536.896,134.589c-5.229-5.577-8.97-12.411-10.823-19.771l0.001-0.063
			L526,114.735c-7.407-1.761-14.305-5.412-19.955-10.563c5.591-5.221,12.444-8.954,19.826-10.804
			c3.79-0.951,7.714-1.406,11.668-1.351c3.341,0.046,6.667,0.458,9.882,1.225c7.406,1.76,14.304,5.411,19.954,10.563
			c-5.591,5.219-12.444,8.953-19.827,10.802l-0.055,0.014l-0.014,0.057C545.717,122.068,542.058,128.951,536.896,134.589"/>
		<path clip-path="url(#SVGID_36_)" d="M537.538,92.112c3.334,0.047,6.652,0.458,9.861,1.222
			c7.359,1.749,14.214,5.368,19.837,10.473c-5.565,5.172-12.376,8.873-19.709,10.71l-0.111,0.027l-0.027,0.111
			c-1.751,7.343-5.378,14.183-10.492,19.795c-5.178-5.549-8.886-12.336-10.729-19.644l0.001-0.128l-0.147-0.035
			c-7.358-1.749-14.213-5.368-19.836-10.472c5.565-5.173,12.376-8.874,19.71-10.711C529.676,92.512,533.593,92.058,537.538,92.112
			 M537.54,91.924c-4.034-0.056-7.955,0.416-11.691,1.354c-7.58,1.898-14.413,5.709-19.942,10.896
			c5.577,5.107,12.446,8.841,20.072,10.653v0.001c1.903,7.565,5.722,14.382,10.919,19.899c5.119-5.565,8.86-12.419,10.675-20.028
			c7.582-1.898,14.413-5.709,19.942-10.895c-5.577-5.108-12.446-8.843-20.071-10.653C544.262,92.394,540.948,91.972,537.54,91.924"
			/>
		<path clip-path="url(#SVGID_36_)" fill="#FFFFFF" d="M536.896,134.589c-5.229-5.577-8.97-12.411-10.823-19.771l-0.003-0.014
			c-0.954-3.781-1.41-7.698-1.355-11.643c0.046-3.334,0.458-6.651,1.227-9.861c1.763-7.391,5.422-14.273,10.583-19.911
			c5.231,5.579,8.974,12.418,10.827,19.785l0.014,0.056l0.057,0.014c7.406,1.76,14.304,5.411,19.954,10.563
			c-5.591,5.219-12.444,8.953-19.827,10.802l-0.055,0.014l-0.014,0.057C545.717,122.068,542.058,128.951,536.896,134.589"/>
		<path clip-path="url(#SVGID_36_)" d="M536.526,73.528c5.184,5.553,8.893,12.351,10.733,19.668l0.029,0.111l0.111,0.026
			c7.358,1.749,14.214,5.368,19.837,10.473c-5.565,5.172-12.376,8.873-19.709,10.71l-0.111,0.027l-0.027,0.111
			c-1.751,7.343-5.378,14.183-10.493,19.794c-5.178-5.548-8.885-12.335-10.728-19.643v-0.002l-0.006-0.024
			c-0.952-3.772-1.406-7.682-1.352-11.617c0.047-3.328,0.458-6.64,1.224-9.841C527.785,85.979,531.411,79.14,536.526,73.528
			 M536.524,73.25c-5.119,5.565-8.86,12.419-10.676,20.028c-0.759,3.174-1.181,6.481-1.229,9.882
			c-0.056,4.025,0.417,7.938,1.358,11.667v0.001c1.903,7.565,5.722,14.382,10.919,19.899c5.119-5.565,8.86-12.419,10.675-20.028
			c7.582-1.898,14.413-5.709,19.942-10.895c-5.577-5.108-12.446-8.843-20.071-10.653C545.54,85.586,541.721,78.769,536.524,73.25"/>
		<path clip-path="url(#SVGID_36_)" fill="#CFA4AD" d="M567.515,103.805c-5.529,5.186-12.361,8.996-19.942,10.895
			c-3.736,0.938-7.657,1.41-11.691,1.354c-3.406-0.048-6.722-0.47-9.903-1.226v-0.001c-7.625-1.813-14.494-5.546-20.072-10.653
			c5.53-5.187,12.362-8.997,19.942-10.896c1.815-7.609,5.557-14.463,10.675-20.028c5.197,5.519,9.016,12.336,10.92,19.901
			C555.069,94.962,561.938,98.696,567.515,103.805"/>
		<path clip-path="url(#SVGID_36_)" fill="#CFA4AD" d="M548.801,104.817c-0.047,3.399-0.469,6.707-1.229,9.882
			c-1.815,7.609-5.557,14.463-10.675,20.028c-5.197-5.518-9.016-12.334-10.919-19.898v-0.002
			c-7.625-1.813-14.494-5.546-20.072-10.653c5.53-5.187,12.362-8.997,19.942-10.896c1.815-7.609,5.557-14.463,10.676-20.028
			c5.196,5.519,9.016,12.336,10.919,19.901C548.384,96.879,548.857,100.792,548.801,104.817"/>
	</g>
	<g>
		<defs>
			
				<rect id="SVGID_47_" x="491.041" y="58.001" transform="matrix(-0.9999 -0.0125 0.0125 -0.9999 1071.8334 213.764)" width="91.083" height="91.084"/>
		</defs>
		<clipPath id="SVGID_38_">
			<use xlink:href="#SVGID_47_"  overflow="visible"/>
		</clipPath>
		<path clip-path="url(#SVGID_38_)" fill="#FFFFFF" d="M582.132,103.202c-8.165,7.696-18.26,13.358-29.466,16.188
			c-2.667,11.28-8.185,21.444-15.742,29.703c-7.697-8.166-13.358-18.258-16.189-29.463v-0.003
			c-11.279-2.668-21.443-8.186-29.702-15.743c8.165-7.696,18.26-13.358,29.465-16.188c2.668-11.28,8.186-21.445,15.743-29.703
			c7.697,8.166,13.359,18.261,16.189,29.466C563.709,90.127,573.874,95.646,582.132,103.202"/>
	</g>
	<g>
		<defs>
			
				<rect id="SVGID_49_" x="518.778" y="85.684" transform="matrix(-1 -0.01 0.01 -1 1072.262 212.4915)" width="35.767" height="35.766"/>
		</defs>
		<clipPath id="SVGID_40_">
			<use xlink:href="#SVGID_49_"  overflow="visible"/>
		</clipPath>
		<path clip-path="url(#SVGID_40_)" fill="#FECA0A" d="M554.534,104.724c-0.049,5.035-0.655,9.936-1.758,14.643
			c-5.517,1.411-11.308,2.134-17.27,2.073c-5.036-0.05-9.937-0.655-14.642-1.755v-0.003c-1.412-5.517-2.134-11.309-2.075-17.271
			c0.05-5.036,0.656-9.937,1.759-14.643c5.517-1.411,11.308-2.134,17.27-2.074c5.036,0.051,9.937,0.655,14.643,1.76
			C553.873,92.97,554.594,98.761,554.534,104.724"/>
	</g>
</g>
<g>
	<g>
		<defs>
			<polygon id="SVGID_51_" points="685.87,34.505 616.812,103.564 616.812,103.564 685.87,172.624 754.931,103.564 			"/>
		</defs>
		<clipPath id="SVGID_42_">
			<use xlink:href="#SVGID_51_"  overflow="visible"/>
		</clipPath>
		<path clip-path="url(#SVGID_42_)" fill="#312F7D" d="M695.079,162.636c-0.146,0.148-0.297,0.295-0.446,0.441
			c-2.532,2.468-5.321,4.649-8.29,6.483c-3.549-2.123-6.826-4.716-9.742-7.706c-4.628-4.749-8.16-10.271-10.499-16.417
			c-2.26-5.936-3.308-12.178-3.115-18.554l0.003-0.107l-0.107,0.005c-13.667,0.605-26.98-4.662-36.523-14.454
			c-2.467-2.53-4.648-5.318-6.485-8.288c2.018-3.373,4.462-6.504,7.267-9.308c0.146-0.146,0.293-0.292,0.441-0.437
			c4.748-4.629,10.271-8.161,16.416-10.5c5.936-2.259,12.178-3.307,18.553-3.114l0.109,0.003l-0.006-0.108
			c-0.292-6.594,0.742-13.056,3.076-19.206c2.412-6.356,6.09-12.035,10.932-16.876c0.148-0.148,0.297-0.295,0.447-0.441
			c2.531-2.469,5.32-4.649,8.289-6.483c3.549,2.123,6.826,4.716,9.742,7.706c4.629,4.748,8.161,10.271,10.5,16.416
			c2.258,5.935,3.307,12.177,3.115,18.555l-0.004,0.107l0.108-0.005c13.667-0.605,26.979,4.662,36.524,14.454
			c2.467,2.532,4.648,5.322,6.482,8.29c-2.018,3.372-4.461,6.502-7.266,9.306c-0.145,0.146-0.293,0.291-0.441,0.437
			c-4.746,4.629-10.27,8.161-16.416,10.5c-5.936,2.259-12.178,3.307-18.553,3.114l-0.109-0.003l0.006,0.108
			c0.293,6.594-0.742,13.056-3.076,19.205C703.599,152.116,699.921,157.795,695.079,162.636"/>
		<path clip-path="url(#SVGID_42_)" d="M676.591,44.422l0.141,0.142c0.148-0.147,0.297-0.293,0.446-0.439
			c2.513-2.449,5.278-4.615,8.221-6.438c3.521,2.113,6.774,4.689,9.669,7.659c4.619,4.738,8.145,10.25,10.477,16.382
			c2.256,5.922,3.301,12.151,3.109,18.515l-0.006,0.217l0.216-0.01c6.685-0.297,13.224,0.771,19.44,3.174
			c6.434,2.486,12.154,6.271,17.008,11.249c2.449,2.513,4.615,5.278,6.438,8.222c-2.006,3.345-4.436,6.451-7.219,9.234
			c-0.146,0.146-0.293,0.29-0.439,0.436c-4.738,4.618-10.25,8.144-16.383,10.478c-5.924,2.253-12.152,3.299-18.516,3.107
			l-0.216-0.007l0.01,0.217c0.292,6.581-0.741,13.029-3.069,19.166c-2.406,6.344-6.077,12.01-10.908,16.842
			c-0.148,0.147-0.296,0.293-0.445,0.439c-2.514,2.449-5.279,4.615-8.221,6.438c-3.521-2.113-6.775-4.689-9.67-7.659
			c-4.619-4.738-8.145-10.25-10.478-16.382c-2.255-5.924-3.3-12.152-3.108-18.515l0.006-0.217l-0.215,0.01
			c-6.684,0.297-13.225-0.771-19.441-3.174c-6.433-2.487-12.154-6.271-17.006-11.249c-2.447-2.511-4.613-5.275-6.439-8.221
			c2.006-3.344,4.436-6.451,7.221-9.235c0.145-0.146,0.291-0.29,0.439-0.436c4.738-4.618,10.249-8.144,16.381-10.478
			c5.924-2.254,12.152-3.299,18.516-3.107l0.217,0.006l-0.01-0.216c-0.293-6.581,0.74-13.029,3.068-19.166
			c2.406-6.344,6.078-12.01,10.908-16.842L676.591,44.422 M676.591,44.422c-9.92,9.919-14.615,23.128-14.037,36.158
			c-12.589-0.38-25.311,4.154-35.043,13.643c-0.148,0.146-0.295,0.291-0.442,0.437c-2.878,2.878-5.316,6.033-7.312,9.378
			l-0.002,0.002c1.824,2.958,4.004,5.765,6.531,8.358c9.967,10.225,23.375,15.07,36.6,14.483
			c-0.379,12.589,4.155,25.312,13.644,35.043c2.993,3.07,6.299,5.657,9.813,7.754c2.961-1.822,5.768-4.001,8.359-6.529
			c0.151-0.146,0.301-0.293,0.447-0.441c9.92-9.919,14.615-23.128,14.037-36.158c12.589,0.38,25.312-4.154,35.043-13.643
			c0.15-0.146,0.297-0.291,0.443-0.437c2.877-2.878,5.316-6.033,7.313-9.379c-1.824-2.96-4.002-5.766-6.531-8.359
			c-9.965-10.225-23.375-15.07-36.6-14.484c0.378-12.59-4.154-25.311-13.643-35.042c-2.994-3.07-6.299-5.657-9.814-7.755
			c-2.961,1.823-5.767,4.002-8.359,6.529C676.888,44.127,676.737,44.273,676.591,44.422"/>
	</g>
	<g>
		<defs>
			<rect id="SVGID_53_" x="640.293" y="58.977" width="89.44" height="89.494"/>
		</defs>
		<clipPath id="SVGID_44_">
			<use xlink:href="#SVGID_53_"  overflow="visible"/>
		</clipPath>
		<path clip-path="url(#SVGID_44_)" fill="#BB516C" d="M674.403,114.425c1.854,7.473,5.598,14.212,10.703,19.673
			c-8.318,9.021-20.305,14.587-33.539,14.367c-3.355-0.056-6.621-0.48-9.753-1.237c-0.917-3.684-1.372-7.547-1.306-11.522
			c0.209-12.595,5.619-23.884,14.149-31.854c5.48,5.058,12.237,8.762,19.745,10.571V114.425z"/>
		<path clip-path="url(#SVGID_44_)" fill="#BB516C" d="M640.299,70.313c0.056-3.356,0.48-6.62,1.235-9.753h0.002
			c3.684-0.917,7.547-1.372,11.521-1.306c12.596,0.209,23.885,5.618,31.854,14.149c-5.058,5.48-8.762,12.237-10.571,19.745
			c-7.473,1.854-14.215,5.599-19.676,10.703C645.646,95.533,640.079,83.547,640.299,70.313"/>
		<path clip-path="url(#SVGID_44_)" fill="#BB516C" d="M729.728,137.189c-0.057,3.355-0.48,6.62-1.238,9.752
			c-3.684,0.917-7.547,1.372-11.521,1.307c-12.596-0.21-23.885-5.619-31.854-14.15c5.059-5.479,8.762-12.236,10.57-19.745
			c7.475-1.854,14.215-5.598,19.676-10.703C724.381,111.969,729.948,123.955,729.728,137.189"/>
		<path clip-path="url(#SVGID_44_)" fill="#BB516C" d="M695.624,93.025c-1.855-7.474-5.6-14.215-10.703-19.676
			c8.318-9.02,20.305-14.587,33.538-14.367c3.356,0.057,6.622,0.48,9.753,1.235v0.002c0.918,3.684,1.373,7.547,1.307,11.521
			c-0.209,12.596-5.619,23.885-14.149,31.854C709.888,98.538,703.132,94.834,695.624,93.025"/>
	</g>
	<g>
		<defs>
			
				<rect id="SVGID_55_" x="654.144" y="73.256" transform="matrix(-0.9999 -0.0139 0.0139 -0.9999 1368.3728 217.5017)" width="61.598" height="61.466"/>
		</defs>
		<clipPath id="SVGID_46_">
			<use xlink:href="#SVGID_55_"  overflow="visible"/>
		</clipPath>
		<path clip-path="url(#SVGID_46_)" fill="#FFFFFF" d="M685.129,134.589c-5.229-5.577-8.97-12.411-10.823-19.771l0.001-0.063
			l-0.073-0.019c-7.408-1.761-14.305-5.412-19.955-10.563c5.592-5.221,12.443-8.954,19.826-10.804
			c3.789-0.951,7.715-1.406,11.668-1.351c3.342,0.046,6.666,0.458,9.883,1.225c7.406,1.76,14.304,5.411,19.953,10.563
			c-5.591,5.219-12.443,8.953-19.826,10.802l-0.055,0.014l-0.015,0.057C693.95,122.068,690.291,128.951,685.129,134.589"/>
		<path clip-path="url(#SVGID_46_)" d="M685.771,92.112c3.335,0.047,6.652,0.458,9.861,1.222
			c7.359,1.749,14.215,5.368,19.838,10.473c-5.566,5.172-12.377,8.873-19.71,10.71l-0.111,0.027l-0.027,0.111
			c-1.751,7.343-5.378,14.183-10.492,19.795c-5.179-5.549-8.886-12.336-10.729-19.644l0.001-0.128l-0.146-0.035
			c-7.358-1.749-14.213-5.368-19.837-10.472c5.565-5.173,12.376-8.874,19.71-10.711C677.909,92.512,681.826,92.058,685.771,92.112
			 M685.772,91.924c-4.033-0.056-7.954,0.416-11.691,1.354c-7.58,1.898-14.412,5.709-19.941,10.896
			c5.576,5.107,12.445,8.841,20.071,10.653v0.001c1.903,7.565,5.722,14.382,10.919,19.899c5.119-5.565,8.86-12.419,10.676-20.028
			c7.581-1.898,14.412-5.709,19.941-10.895c-5.576-5.108-12.445-8.843-20.07-10.653C692.495,92.394,689.181,91.972,685.772,91.924"
			/>
		<path clip-path="url(#SVGID_46_)" fill="#FFFFFF" d="M685.129,134.589c-5.229-5.577-8.97-12.411-10.823-19.771l-0.003-0.014
			c-0.954-3.781-1.409-7.698-1.354-11.643c0.046-3.334,0.458-6.651,1.227-9.861c1.762-7.391,5.422-14.273,10.583-19.911
			c5.231,5.579,8.974,12.418,10.827,19.785l0.014,0.056l0.057,0.014c7.406,1.76,14.304,5.411,19.953,10.563
			c-5.591,5.219-12.443,8.953-19.826,10.802l-0.055,0.014l-0.015,0.057C693.95,122.068,690.291,128.951,685.129,134.589"/>
		<path clip-path="url(#SVGID_46_)" d="M684.759,73.528c5.184,5.553,8.893,12.351,10.733,19.668l0.028,0.111l0.111,0.026
			c7.359,1.749,14.215,5.368,19.838,10.473c-5.566,5.172-12.377,8.873-19.71,10.71l-0.111,0.027l-0.027,0.111
			c-1.751,7.343-5.378,14.183-10.493,19.794c-5.178-5.548-8.885-12.335-10.728-19.643v-0.002l-0.007-0.024
			c-0.951-3.772-1.406-7.682-1.352-11.617c0.047-3.328,0.459-6.64,1.225-9.841C676.018,85.979,679.644,79.14,684.759,73.528
			 M684.757,73.25c-5.119,5.565-8.859,12.419-10.676,20.028c-0.758,3.174-1.181,6.481-1.229,9.882
			c-0.056,4.025,0.418,7.938,1.358,11.667v0.001c1.903,7.565,5.722,14.382,10.919,19.899c5.119-5.565,8.86-12.419,10.676-20.028
			c7.581-1.898,14.412-5.709,19.941-10.895c-5.576-5.108-12.445-8.843-20.07-10.653C693.772,85.586,689.954,78.769,684.757,73.25"/>
		<path clip-path="url(#SVGID_46_)" fill="#CFA4AD" d="M715.747,103.805c-5.529,5.186-12.36,8.996-19.941,10.895
			c-3.736,0.938-7.657,1.41-11.691,1.354c-3.406-0.048-6.723-0.47-9.903-1.226v-0.001c-7.626-1.813-14.494-5.546-20.071-10.653
			c5.529-5.187,12.361-8.997,19.941-10.896c1.816-7.609,5.557-14.463,10.676-20.028c5.197,5.519,9.016,12.336,10.92,19.901
			C703.302,94.962,710.171,98.696,715.747,103.805"/>
		<path clip-path="url(#SVGID_46_)" fill="#CFA4AD" d="M697.034,104.817c-0.047,3.399-0.469,6.707-1.229,9.882
			c-1.815,7.609-5.557,14.463-10.676,20.028c-5.197-5.518-9.016-12.334-10.919-19.898v-0.002
			c-7.626-1.813-14.494-5.546-20.071-10.653c5.529-5.187,12.361-8.997,19.941-10.896c1.816-7.609,5.557-14.463,10.676-20.028
			c5.197,5.519,9.016,12.336,10.92,19.901C696.616,96.879,697.09,100.792,697.034,104.817"/>
	</g>
	<g>
		<defs>
			
				<rect id="SVGID_57_" x="639.274" y="58.001" transform="matrix(-0.9999 -0.0125 0.0125 -0.9999 1368.2876 215.6107)" width="91.083" height="91.084"/>
		</defs>
		<clipPath id="SVGID_48_">
			<use xlink:href="#SVGID_57_"  overflow="visible"/>
		</clipPath>
		<path clip-path="url(#SVGID_48_)" fill="#FFFFFF" d="M730.364,103.202c-8.164,7.696-18.26,13.358-29.465,16.188
			c-2.668,11.28-8.186,21.444-15.742,29.703c-7.697-8.166-13.359-18.258-16.189-29.463v-0.003
			c-11.279-2.668-21.443-8.186-29.702-15.743c8.165-7.696,18.26-13.358,29.465-16.188c2.669-11.28,8.186-21.445,15.743-29.703
			c7.696,8.166,13.359,18.261,16.188,29.466C711.942,90.127,722.106,95.646,730.364,103.202"/>
	</g>
	<g>
		<defs>
			
				<rect id="SVGID_59_" x="667.011" y="85.684" transform="matrix(-1 -0.01 0.01 -1 1368.72 213.9728)" width="35.767" height="35.766"/>
		</defs>
		<clipPath id="SVGID_50_">
			<use xlink:href="#SVGID_59_"  overflow="visible"/>
		</clipPath>
		<path clip-path="url(#SVGID_50_)" fill="#FECA0A" d="M702.767,104.724c-0.049,5.035-0.654,9.936-1.758,14.643
			c-5.517,1.411-11.308,2.134-17.27,2.073c-5.036-0.05-9.938-0.655-14.643-1.755v-0.003c-1.412-5.517-2.134-11.309-2.074-17.271
			c0.05-5.036,0.656-9.937,1.758-14.643c5.518-1.411,11.309-2.134,17.271-2.074c5.036,0.051,9.937,0.655,14.644,1.76
			C702.105,92.97,702.827,98.761,702.767,104.724"/>
	</g>
</g>
</svg>
