<?xml version="1.0" encoding="utf-8"?>
<!-- Generator: Adobe Illustrator 16.0.3, SVG Export Plug-In . SVG Version: 6.00 Build 0)  -->
<!DOCTYPE svg PUBLIC "-//W3C//DTD SVG 1.1//EN" "http://www.w3.org/Graphics/SVG/1.1/DTD/svg11.dtd">
<svg version="1.1" id="Layer_2" xmlns="http://www.w3.org/2000/svg" xmlns:xlink="http://www.w3.org/1999/xlink" x="0px" y="0px"
	 width="216px" height="216px" viewBox="0 0 216 216" enable-background="new 0 0 216 216" xml:space="preserve">
<path fill="#FECA01" stroke="#BB516C" stroke-width="0.676" stroke-miterlimit="10" d="M107.024,58.613
	c0-24.522-19.881-44.4-44.402-44.4c-24.52,0-44.4,19.878-44.4,44.4c0,6.936,1.638,13.477,4.477,19.326
	c-2.839,5.852-4.477,12.393-4.477,19.329c0,24.522,19.881,44.4,44.4,44.4c24.521,0,44.402-19.878,44.402-44.4
	c0-6.936-1.638-13.477-4.477-19.329C105.387,72.089,107.024,65.549,107.024,58.613z"/>
<path fill="#251182" d="M83.333,97.407c-12.499,2.205-23.798-2.611-25.234-10.755c-1.438-8.146,7.533-16.535,20.033-18.74
	c12.5-2.204,23.799,2.612,25.235,10.755C104.803,86.814,95.834,95.203,83.333,97.407"/>
<path fill="#251182" d="M78.132,82.055c12.5,2.205,23.799-2.611,25.235-10.755c1.436-8.146-7.533-16.534-20.034-18.739
	c-12.499-2.205-23.798,2.612-25.234,10.754C56.661,71.462,65.632,79.851,78.132,82.055"/>
<path fill="#FECA01" stroke="#BB516C" stroke-width="0.676" stroke-miterlimit="10" d="M198.301,59.175
	c0-23.637-19.165-42.802-42.799-42.802c-23.639,0-42.801,19.165-42.801,42.802c0,6.686,1.579,12.991,4.313,18.628
	c-2.733,5.639-4.313,11.943-4.313,18.629c0,23.638,19.162,42.803,42.801,42.803c23.634,0,42.799-19.165,42.799-42.803
	c0-6.686-1.579-12.99-4.313-18.629C196.722,72.166,198.301,65.86,198.301,59.175z"/>
<path fill="#251182" d="M134.363,54.161c12.05-2.125,22.941,2.517,24.325,10.37c1.383,7.849-7.262,15.938-19.313,18.061
	c-12.049,2.126-22.941-2.517-24.324-10.366C113.667,64.372,122.313,56.286,134.363,54.161"/>
<path fill="#251182" d="M139.376,72.805c-12.049-2.123-22.941,2.52-24.324,10.369c-1.385,7.851,7.261,15.938,19.312,18.064
	c12.05,2.123,22.941-2.519,24.325-10.37C160.071,83.019,151.427,74.931,139.376,72.805"/>
<path fill="#FECA01" stroke="#BB516C" stroke-width="0.676" stroke-miterlimit="10" d="M134.162,87.043
	c-9.006,0-17.494,2.125-25.089,5.809c-7.594-3.684-16.086-5.809-25.096-5.809c-31.836,0-57.645,25.808-57.645,57.645
	s25.809,57.645,57.645,57.645c9.01,0,17.502-2.126,25.096-5.81c7.595,3.684,16.083,5.81,25.089,5.81
	c31.84,0,57.647-25.808,57.647-57.645S166.002,87.043,134.162,87.043z"/>
<path fill="#251182" d="M142.885,116.22c2.862,16.229-3.391,30.896-13.962,32.762c-10.576,1.864-21.468-9.78-24.33-26.012
	c-2.86-16.229,3.394-30.897,13.965-32.761C129.13,88.342,140.023,99.989,142.885,116.22"/>
<path fill="#251182" d="M113.815,122.97c2.862-16.229-3.391-30.897-13.962-32.761c-10.576-1.867-21.469,9.78-24.33,26.011
	c-2.859,16.229,3.391,30.896,13.965,32.762C100.063,150.846,110.954,139.201,113.815,122.97"/>
<path fill="#F1F5F6" d="M123.672,82.026c0,8.064-6.537,14.602-14.599,14.602c-8.064,0-14.603-6.538-14.603-14.602
	c0-8.064,6.538-14.603,14.603-14.603C117.135,67.424,123.672,73.962,123.672,82.026"/>
</svg>
