<?xml version="1.0" encoding="utf-8"?>
<!-- Generator: Adobe Illustrator 16.0.3, SVG Export Plug-In . SVG Version: 6.00 Build 0)  -->
<!DOCTYPE svg PUBLIC "-//W3C//DTD SVG 1.1//EN" "http://www.w3.org/Graphics/SVG/1.1/DTD/svg11.dtd">
<svg version="1.1" id="Layer_2" xmlns="http://www.w3.org/2000/svg" xmlns:xlink="http://www.w3.org/1999/xlink" x="0px" y="0px"
	 width="81px" height="86px" viewBox="0 0 81 86" enable-background="new 0 0 81 86" xml:space="preserve">
<path fill="#FECA01" d="M22.121,42.139c-9.069,0-16.421-7.352-16.421-16.421c0-9.069,7.352-16.421,16.421-16.421
	c9.069,0,16.421,7.352,16.421,16.421C38.542,34.787,31.19,42.139,22.121,42.139"/>
<path fill="#FECA01" d="M22.121,56.435c-9.069,0-16.421-7.352-16.421-16.421s7.352-16.421,16.421-16.421
	c9.069,0,16.421,7.352,16.421,16.421S31.19,56.435,22.121,56.435"/>
<path fill="#251182" d="M29.781,40.065c-4.624,0.815-8.802-0.966-9.333-3.978s2.786-6.115,7.409-6.93
	c4.624-0.815,8.802,0.966,9.333,3.978S34.404,39.25,29.781,40.065"/>
<path fill="#251182" d="M27.857,34.388c4.624,0.815,8.802-0.966,9.333-3.978s-2.786-6.115-7.41-6.93
	c-4.623-0.815-8.801,0.966-9.333,3.978S23.234,33.572,27.857,34.388"/>
<path fill="#FECA01" d="M56.472,23.877c8.741,0,15.829,7.087,15.829,15.829s-7.088,15.83-15.829,15.83
	c-8.742,0-15.829-7.088-15.829-15.83S47.729,23.877,56.472,23.877"/>
<path fill="#FECA01" d="M56.472,10.096c8.741,0,15.829,7.087,15.829,15.829c0,8.742-7.088,15.829-15.829,15.829
	c-8.742,0-15.829-7.087-15.829-15.829C40.643,17.183,47.729,10.096,56.472,10.096"/>
<path fill="#251182" d="M48.654,24.071c4.456-0.786,8.484,0.931,8.996,3.835c0.512,2.903-2.686,5.894-7.143,6.68
	c-4.456,0.786-8.484-0.931-8.996-3.834C41,27.848,44.197,24.857,48.654,24.071"/>
<path fill="#251182" d="M50.508,30.967c-4.456-0.786-8.484,0.931-8.996,3.834s2.686,5.895,7.143,6.68
	c4.456,0.786,8.484-0.931,8.996-3.834S54.965,31.753,50.508,30.967"/>
<path fill="#FECA01" d="M51.34,57.552c0,11.774-9.545,21.319-21.32,21.319S8.7,69.326,8.7,57.552s9.545-21.32,21.32-21.32
	S51.34,45.777,51.34,57.552"/>
<path fill="#FECA01" d="M69.9,57.552c0,11.774-9.545,21.319-21.32,21.319c-11.774,0-21.319-9.545-21.319-21.319
	s9.545-21.32,21.319-21.32C60.355,36.232,69.9,45.777,69.9,57.552"/>
<path fill="#251182" d="M51.806,47.023c1.059,6.002-1.254,11.427-5.164,12.116c-3.911,0.689-7.939-3.617-8.998-9.62
	c-1.058-6.002,1.254-11.427,5.165-12.116C46.719,36.713,50.747,41.021,51.806,47.023"/>
<path fill="#251182" d="M41.055,49.52c1.059-6.002-1.254-11.427-5.164-12.116c-3.911-0.69-7.939,3.617-8.998,9.62
	c-1.058,6.002,1.254,11.427,5.165,12.116S39.996,55.522,41.055,49.52"/>
<path fill="#F1F5F6" d="M44.7,34.377c0,2.982-2.418,5.4-5.399,5.4c-2.983,0-5.4-2.417-5.4-5.4s2.417-5.4,5.4-5.4
	C42.282,28.977,44.7,31.395,44.7,34.377"/>
</svg>
