<?xml version="1.0" encoding="utf-8"?>
<!-- Generator: Adobe Illustrator 24.3.0, SVG Export Plug-In . SVG Version: 6.00 Build 0)  -->
<svg version="1.1" id="Layer_1" xmlns="http://www.w3.org/2000/svg" xmlns:xlink="http://www.w3.org/1999/xlink" x="0px" y="0px"
	 viewBox="0 0 444 463.83" style="enable-background:new 0 0 444 463.83;" xml:space="preserve">
<style type="text/css">
	.st0{fill:#FECA01;}
	.st1{fill:#251182;}
	.st2{fill:#F1F5F6;}
</style>
<g>
	<g>
		<circle class="st0" cx="109.47" cy="109.47" r="109.47"/>
	</g>
	<g>
		<circle class="st0" cx="109.47" cy="204.78" r="109.47"/>
	</g>
	
		<ellipse transform="matrix(0.9848 -0.1736 0.1736 0.9848 -26.9641 29.3278)" class="st1" cx="154.13" cy="168.76" rx="56.67" ry="36.92"/>
	
		<ellipse transform="matrix(0.1736 -0.9848 0.9848 0.1736 -1.5614 259.9659)" class="st1" cx="154.13" cy="130.91" rx="36.92" ry="56.67"/>
</g>
<g>
	<g>
		<circle class="st0" cx="338.47" cy="202.73" r="105.53"/>
	</g>
	<g>
		<circle class="st0" cx="338.47" cy="110.86" r="105.53"/>
	</g>
	
		<ellipse transform="matrix(0.9848 -0.1736 0.1736 0.9848 -18.746 52.8277)" class="st1" cx="292.54" cy="133.55" rx="54.63" ry="35.59"/>
	
		<ellipse transform="matrix(0.1736 -0.9848 0.9848 0.1736 64.9471 436.4412)" class="st1" cx="292.54" cy="179.52" rx="35.59" ry="54.63"/>
</g>
<g>
	<g>
		<circle class="st0" cx="162.13" cy="321.7" r="142.13"/>
	</g>
	<g>
		<circle class="st0" cx="285.87" cy="321.7" r="142.13"/>
	</g>
	
		<ellipse transform="matrix(0.9848 -0.1736 0.1736 0.9848 -41.1669 49.1244)" class="st1" cx="260.16" cy="259.83" rx="47.93" ry="73.57"/>
	
		<ellipse transform="matrix(0.1736 -0.9848 0.9848 0.1736 -100.1244 400.3412)" class="st1" cx="188.49" cy="259.83" rx="73.57" ry="47.93"/>
</g>
<circle class="st2" cx="224" cy="167.2" r="36"/>
</svg>
