<?xml version="1.0" encoding="utf-8"?>
<!-- Generator: Adobe Illustrator 24.3.0, SVG Export Plug-In . SVG Version: 6.00 Build 0)  -->
<svg version="1.1" id="Layer_1" xmlns="http://www.w3.org/2000/svg" xmlns:xlink="http://www.w3.org/1999/xlink" x="0px" y="0px"
	 viewBox="0 0 1920 1080" style="enable-background:new 0 0 1920 1080;" xml:space="preserve">
<style type="text/css">
	.st0{fill:#EAA307;}
	.st1{fill:#FFCB0C;}
	.st2{fill:#CCA117;}
	.st3{fill:#5B480E;}
</style>
<g>
	<path class="st0" d="M921.93,459.42c-2.01,0-3.87-0.39-5.55-1.16c-11.9-5.49-14.42-30.9-6.9-69.72
		c7.68-39.66,24.71-89.27,47.94-139.68c21.51-46.67,46.36-89.53,69.98-120.68c23.34-30.78,43.58-47.73,57-47.73
		c2.01,0,3.87,0.39,5.54,1.16c11.9,5.49,14.42,30.9,6.9,69.72c-7.68,39.66-24.71,89.27-47.94,139.68
		c-21.51,46.68-46.36,89.53-69.98,120.68C955.59,442.47,935.35,459.42,921.93,459.42z"/>
	<path d="M1084.41,79.8v1.28h0c1.91,0,3.69,0.37,5.28,1.1c11.61,5.35,14,30.51,6.54,69.02c-7.67,39.61-24.68,89.17-47.89,139.54
		c-21.49,46.63-46.32,89.45-69.91,120.56c-23.22,30.62-43.28,47.48-56.49,47.48c-1.92,0-3.69-0.37-5.28-1.1
		c-11.61-5.35-14-30.51-6.54-69.02c7.67-39.61,24.68-89.17,47.89-139.54c21.49-46.63,46.32-89.45,69.91-120.56
		c23.22-30.62,43.28-47.48,56.49-47.48L1084.41,79.8 M1084.41,79.8c-28.01,0-82.82,71.71-127.56,168.78
		c-48.08,104.33-66.31,198.46-40.73,210.25c1.78,0.82,3.72,1.22,5.81,1.22c28.01,0,82.82-71.71,127.56-168.78
		c48.08-104.33,66.31-198.46,40.73-210.25C1088.44,80.2,1086.5,79.8,1084.41,79.8L1084.41,79.8z"/>
</g>
<g>
	<path class="st0" d="M705.14,988.69c-2.12,0-4.07-0.42-5.8-1.26c-11.81-5.69-13.88-31.14-5.68-69.83
		c8.37-39.52,26.26-88.83,50.36-138.83c45.67-94.74,101.39-166.18,129.61-166.18c2.12,0,4.07,0.42,5.8,1.26
		c11.81,5.69,13.88,31.14,5.68,69.83c-8.37,39.52-26.26,88.83-50.36,138.83C789.08,917.25,733.36,988.69,705.14,988.69z"/>
	<path d="M873.63,611.96v1.28c2.02,0,3.88,0.4,5.52,1.2c11.52,5.55,13.46,30.75,5.33,69.12c-8.36,39.47-26.23,88.73-50.31,138.68
		c-22.22,46.09-47.7,88.35-71.75,119.02c-23.67,30.18-44.01,46.8-57.28,46.8c-2.02,0-3.88-0.4-5.52-1.2
		c-11.52-5.55-13.46-30.75-5.34-69.12c8.36-39.47,26.23-88.73,50.31-138.68c22.22-46.09,47.7-88.35,71.75-119.02
		c23.67-30.18,44.01-46.8,57.28-46.8L873.63,611.96 M873.63,611.96c-28.1,0-83.93,70.58-130.18,166.54
		c-49.88,103.48-69.75,197.28-44.38,209.51c1.84,0.89,3.88,1.32,6.08,1.32c28.1,0,83.93-70.58,130.18-166.54
		c49.88-103.48,69.75-197.28,44.38-209.51C877.87,612.39,875.83,611.96,873.63,611.96L873.63,611.96z"/>
</g>
<g>
	<path class="st0" d="M897.98,455.48c-0.7,0-1.4-0.06-2.07-0.18c-12.92-2.22-21.92-26.11-24.71-65.56
		c-2.84-40.3,0.76-92.62,10.15-147.33c9.13-53.18,22.75-102.72,38.36-139.49c15.48-36.46,31.2-56.54,44.28-56.54
		c0.7,0,1.39,0.06,2.07,0.18c12.92,2.22,21.92,26.11,24.71,65.56c2.84,40.3-0.76,92.62-10.15,147.33
		c-9.13,53.18-22.75,102.72-38.36,139.49C926.79,435.4,911.06,455.48,897.98,455.48z"/>
	<path d="M964,45.74v1.28c0.66,0,1.32,0.06,1.96,0.17c12.6,2.16,21.42,25.85,24.18,64.98c2.84,40.25-0.76,92.52-10.15,147.18
		c-9.12,53.13-22.73,102.62-38.32,139.35c-15.15,35.68-31.07,56.15-43.69,56.15c-0.66,0-1.32-0.06-1.97-0.17
		c-12.6-2.16-21.42-25.85-24.18-64.98c-2.84-40.25,0.76-92.52,10.15-147.18c9.12-53.13,22.73-102.62,38.32-139.35
		c15.15-35.68,31.07-56.15,43.69-56.15L964,45.74 M964,45.74c-27.55,0.01-64.34,86.28-83.27,196.56
		c-19.44,113.22-12.69,208.86,15.07,213.63c0.72,0.12,1.45,0.18,2.18,0.18c27.55,0,64.34-86.28,83.27-196.56
		c19.43-113.22,12.69-208.86-15.07-213.63C965.46,45.8,964.73,45.74,964,45.74L964,45.74z"/>
</g>
<g>
	<path class="st0" d="M825.51,1022.83c-0.77,0-1.54-0.07-2.29-0.21c-12.88-2.44-21.47-26.49-23.56-65.98
		c-2.14-40.34,2.37-92.6,12.71-147.13c10.02-52.86,24.46-102.05,40.65-138.51c16.05-36.15,32.09-56.05,45.17-56.05
		c0.77,0,1.54,0.07,2.29,0.21c12.88,2.44,21.47,26.49,23.56,65.98c2.14,40.34-2.37,92.6-12.71,147.13
		c-10.02,52.86-24.46,102.05-40.65,138.51C854.62,1002.93,838.58,1022.83,825.51,1022.83z"/>
	<path d="M898.19,614.31l0,1.28h0c0.73,0,1.46,0.07,2.17,0.2c12.56,2.38,20.96,26.21,23.04,65.39c2.14,40.29-2.37,92.49-12.7,146.98
		c-10.01,52.81-24.44,101.95-40.61,138.37c-15.71,35.38-31.96,55.67-44.59,55.67c-0.73,0-1.46-0.07-2.17-0.2
		c-12.56-2.38-20.96-26.21-23.04-65.39c-2.14-40.29,2.37-92.49,12.7-146.98c10.01-52.81,24.44-101.95,40.61-138.37
		c15.71-35.38,31.96-55.67,44.59-55.67L898.19,614.31 M898.19,614.31c-27.53,0-65.66,85.46-86.45,195.08
		c-21.4,112.86-16.32,208.61,11.36,213.86c0.79,0.15,1.6,0.22,2.41,0.22c27.53,0,65.66-85.46,86.45-195.08
		c21.4-112.86,16.32-208.61-11.36-213.86C899.81,614.38,899,614.31,898.19,614.31L898.19,614.31z"/>
</g>
<g>
	<path class="st0" d="M874.24,457.8c-27.27,0-57.79-90.58-68.04-201.92c-5.09-55.28-4.6-107.72,1.39-147.68
		c5.86-39.11,16.7-62.23,29.75-63.43c0.37-0.03,0.74-0.05,1.11-0.05c27.27,0,57.79,90.58,68.04,201.92
		c5.09,55.28,4.6,107.72-1.39,147.68c-5.86,39.11-16.7,62.23-29.75,63.43C874.99,457.78,874.61,457.8,874.24,457.8z"/>
	<path d="M838.45,45.36c12.65,0,27.1,21.17,39.64,58.09c12.9,37.98,22.76,88.86,27.77,143.26c5.08,55.23,4.59,107.62-1.38,147.52
		c-5.81,38.79-16.45,61.72-29.18,62.89c-0.35,0.03-0.7,0.05-1.06,0.05c-12.66,0-27.1-21.17-39.64-58.09
		c-12.9-37.98-22.76-88.86-27.77-143.26c-5.08-55.23-4.59-107.62,1.38-147.52c5.81-38.79,16.45-61.72,29.18-62.89
		C837.75,45.37,838.1,45.36,838.45,45.36L838.45,45.36 M838.45,44.08c-0.39,0-0.78,0.02-1.17,0.05
		c-28.05,2.58-42.25,97.41-31.72,211.8c10.38,112.8,40.94,202.5,68.68,202.5c0.39,0,0.78-0.02,1.17-0.05
		c28.05-2.58,42.25-97.41,31.72-211.8C896.75,133.78,866.2,44.08,838.45,44.08L838.45,44.08z"/>
</g>
<g>
	<path class="st0" d="M951.07,1024.58c-27.35,0-56.39-91.1-64.73-203.08c-4.13-55.36-2.72-107.78,3.96-147.63
		c6.54-39,17.78-61.93,30.85-62.9c0.3-0.02,0.6-0.03,0.9-0.03c27.35,0,56.39,91.1,64.73,203.08c4.13,55.36,2.72,107.78-3.96,147.63
		c-6.54,39-17.78,61.93-30.85,62.9C951.68,1024.57,951.37,1024.58,951.07,1024.58z"/>
	<path d="M922.06,610.3v1.28h0c12.67,0,26.79,21.31,38.73,58.47c12.28,38.23,21.29,89.38,25.36,144.01
		c4.12,55.31,2.72,107.68-3.95,147.48c-6.48,38.69-17.52,61.42-30.27,62.37c-0.28,0.02-0.57,0.03-0.86,0.03
		c-12.67,0-26.79-21.31-38.73-58.47c-12.28-38.23-21.29-89.38-25.37-144.02c-4.12-55.31-2.72-107.68,3.95-147.48
		c6.48-38.69,17.52-61.42,30.27-62.37c0.28-0.02,0.57-0.03,0.86-0.03L922.06,610.3 M922.05,610.3c-0.32,0-0.63,0.01-0.95,0.04
		c-28.09,2.09-43.94,96.66-35.4,211.22c8.44,113.27,37.56,203.67,65.37,203.67c0.32,0,0.63-0.01,0.95-0.04
		c28.09-2.09,43.94-96.66,35.4-211.22C978.98,700.7,949.86,610.29,922.05,610.3L922.05,610.3z"/>
</g>
<g>
	<path class="st0" d="M851.7,466.19c-13.23,0-32.18-18-53.37-50.69c-21.41-33.04-43.16-78.2-61.24-127.18
		c-19.22-52.07-32.32-102.86-36.88-143c-4.46-39.29,0.03-64.43,12.32-68.97c1.39-0.51,2.88-0.77,4.44-0.77
		c13.23,0,32.18,18,53.37,50.69c21.41,33.04,43.16,78.2,61.24,127.18c19.22,52.08,32.32,102.86,36.88,143
		c4.47,39.29-0.03,64.43-12.32,68.97C854.75,465.94,853.26,466.19,851.7,466.19z"/>
	<path d="M716.98,76.23c13,0,31.77,17.9,52.83,50.4c21.39,33,43.11,78.12,61.17,127.05c19.2,52.03,32.29,102.76,36.85,142.85
		c4.43,38.98,0.09,63.87-11.91,68.3c-1.31,0.48-2.73,0.73-4.22,0.73c-13,0-31.77-17.9-52.83-50.39
		c-21.39-33-43.12-78.12-61.18-127.05c-19.2-52.03-32.29-102.76-36.85-142.85c-4.43-38.98-0.09-63.87,11.91-68.3
		C714.07,76.47,715.49,76.23,716.98,76.23L716.98,76.23 M716.98,74.95c-1.63,0-3.19,0.27-4.66,0.81
		c-26.42,9.75-15.6,105.02,24.18,212.79C774.06,390.32,824,466.83,851.7,466.83c1.63,0,3.19-0.27,4.66-0.81
		c26.42-9.75,15.6-105.02-24.18-212.79C794.62,151.46,744.67,74.94,716.98,74.95L716.98,74.95z"/>
</g>
<g>
	<path class="st0" d="M1072.64,993.78c-27.42,0-76.5-78.99-111.74-179.83c-18.31-52.4-30.52-103.41-34.39-143.62
		c-3.78-39.36,1.15-64.42,13.52-68.74c1.32-0.46,2.74-0.69,4.21-0.69c27.42,0,76.5,78.99,111.74,179.83
		c18.31,52.4,30.52,103.41,34.39,143.62c3.78,39.36-1.15,64.42-13.52,68.74C1075.53,993.54,1074.11,993.78,1072.64,993.78z"/>
	<path d="M944.24,601.52c12.97,0,31.43,18.12,52,51.01c20.87,33.4,41.88,78.99,59.14,128.39c18.3,52.35,30.5,103.31,34.35,143.47
		c3.75,39.05-1.02,63.86-13.1,68.08c-1.25,0.44-2.6,0.66-4,0.66c-12.97,0-31.43-18.12-52-51.01c-20.88-33.4-41.88-79-59.14-128.4
		c-18.3-52.35-30.5-103.31-34.35-143.47c-3.75-39.05,1.02-63.86,13.1-68.08C941.49,601.74,942.84,601.52,944.24,601.52
		L944.24,601.52 M944.24,600.24c-1.54,0-3.02,0.24-4.42,0.73c-26.59,9.29-17.42,104.74,20.47,213.18
		c35.9,102.73,84.7,180.26,112.35,180.26c1.54,0,3.02-0.24,4.42-0.73c26.59-9.29,17.42-104.74-20.47-213.18
		C1020.69,677.78,971.89,600.24,944.24,600.24L944.24,600.24z"/>
</g>
<g>
	<path class="st0" d="M831,480.26c-14.15,0-37.15-14.16-64.74-39.87c-28-26.09-59.09-62.6-87.52-102.82
		c-32.04-45.33-57.84-90.99-72.64-128.58c-14.48-36.8-16.65-62.24-5.95-69.81c2.29-1.62,5.17-2.44,8.56-2.44
		c14.15,0,37.15,14.16,64.74,39.87c28,26.09,59.09,62.61,87.52,102.82c32.04,45.33,57.84,90.99,72.64,128.58
		c14.48,36.8,16.65,62.24,5.95,69.81C837.27,479.44,834.39,480.26,831,480.26z"/>
	<path d="M608.72,136.09v1.28h0c13.99,0,36.83,14.1,64.31,39.7c27.97,26.06,59.02,62.54,87.43,102.72
		c32.02,45.29,57.79,90.9,72.56,128.45c14.37,36.5,16.62,61.67,6.17,69.05c-2.18,1.54-4.94,2.33-8.19,2.33
		c-13.99,0-36.83-14.1-64.31-39.7c-27.97-26.06-59.03-62.54-87.43-102.72c-32.02-45.28-57.79-90.9-72.56-128.45
		c-14.37-36.5-16.62-61.67-6.17-69.05c2.18-1.54,4.94-2.33,8.19-2.33L608.72,136.09 M608.72,136.09c-3.49,0-6.49,0.84-8.93,2.56
		c-23,16.26,12.12,105.48,78.43,199.28C737.49,421.78,801.63,480.9,831,480.9c3.49,0,6.49-0.84,8.93-2.56
		c23-16.26-12.12-105.48-78.43-199.28C702.23,195.21,638.09,136.09,608.72,136.09L608.72,136.09z"/>
</g>
<g>
	<path class="st0" d="M1181.08,932.67c-14.06,0-36.82-14.44-64.06-40.66c-27.64-26.6-58.2-63.77-86.06-104.66
		c-31.25-45.88-56.25-91.98-70.39-129.83c-13.84-37.04-15.57-62.52-4.73-69.9c2.24-1.53,5.01-2.3,8.24-2.3
		c14.06,0,36.82,14.44,64.06,40.66c27.64,26.6,58.21,63.77,86.06,104.66c31.25,45.88,56.25,91.98,70.39,129.83
		c13.84,37.04,15.56,62.52,4.73,69.9C1187.08,931.9,1184.31,932.67,1181.08,932.67z"/>
	<path d="M964.08,584.68v1.28c13.9,0,36.49,14.38,63.62,40.49c27.61,26.57,58.14,63.7,85.97,104.56
		c31.22,45.84,56.2,91.89,70.32,129.69c13.73,36.75,15.54,61.95,4.97,69.15c-2.13,1.45-4.78,2.19-7.88,2.19
		c-13.9,0-36.49-14.38-63.62-40.48c-27.61-26.57-58.14-63.7-85.97-104.56c-31.22-45.84-56.2-91.89-70.32-129.69
		c-13.73-36.75-15.54-61.95-4.97-69.15c2.13-1.45,4.78-2.19,7.88-2.19L964.08,584.68 M964.08,584.68c-3.33,0-6.22,0.79-8.6,2.41
		c-23.28,15.86,10.28,105.68,74.95,200.62c58.05,85.22,121.45,145.6,150.65,145.6c3.33,0,6.22-0.79,8.6-2.41
		c23.28-15.86-10.28-105.68-74.95-200.62C1056.67,645.06,993.28,584.68,964.08,584.68L964.08,584.68z"/>
</g>
<g>
	<path class="st0" d="M811.5,499.54c-33.52,0-106.06-40.84-176.39-99.31c-42.68-35.49-79.42-72.92-103.44-105.4
		c-23.51-31.8-32.19-55.81-23.81-65.89c3.02-3.63,8.15-5.47,15.26-5.47c33.53,0,106.06,40.84,176.39,99.31
		c42.68,35.49,79.42,72.92,103.44,105.4c23.51,31.8,32.19,55.81,23.81,65.89C823.75,497.7,818.61,499.54,811.5,499.54z"/>
	<path d="M523.13,222.83v1.28h0c15.96,0,41.86,9.57,72.94,26.93c32.24,18.02,67.87,42.99,103.03,72.23
		c42.65,35.46,79.34,72.85,103.34,105.29c23.32,31.54,32.01,55.27,23.84,65.1c-2.89,3.48-7.86,5.24-14.77,5.24
		c-15.96,0-41.86-9.57-72.94-26.93c-32.24-18.02-67.87-42.99-103.04-72.23c-42.65-35.46-79.34-72.85-103.34-105.29
		c-23.32-31.54-32.01-55.27-23.84-65.1c2.89-3.47,7.86-5.24,14.77-5.24L523.13,222.83 M523.12,222.83c-7.16,0-12.54,1.84-15.75,5.7
		c-18.01,21.66,39,98.75,127.34,172.19c72.6,60.36,143.75,99.46,176.8,99.46c7.16,0,12.54-1.84,15.75-5.7
		c18.01-21.66-39-98.75-127.34-172.19C627.32,261.93,556.17,222.83,523.12,222.83L523.12,222.83z"/>
</g>
<g>
	<path class="st0" d="M1267.08,845.89c-33.25,0-105.35-42.1-175.33-102.37c-42.06-36.22-78.14-74.29-101.59-107.19
		c-22.96-32.2-31.22-56.36-22.66-66.29c2.98-3.46,7.91-5.21,14.65-5.21c33.25,0,105.35,42.1,175.33,102.37
		c42.06,36.22,78.14,74.29,101.59,107.19c22.96,32.2,31.22,56.36,22.66,66.29C1278.75,844.14,1273.82,845.89,1267.08,845.89z"/>
	<path d="M982.15,565.47c33.11,0,105.03,42.03,174.91,102.22c42.02,36.19,78.06,74.22,101.49,107.07
		c22.77,31.94,31.04,55.82,22.7,65.51c-2.85,3.31-7.62,4.99-14.17,4.99c-33.11,0-105.04-42.03-174.92-102.22
		c-42.02-36.19-78.06-74.22-101.49-107.07c-22.77-31.94-31.04-55.82-22.7-65.51C970.82,567.15,975.59,565.47,982.15,565.47
		L982.15,565.47 M982.14,564.2c-6.81,0-11.97,1.75-15.14,5.43c-18.38,21.34,37.28,99.42,124.32,174.38
		c72.05,62.05,143.01,102.53,175.75,102.53c6.81,0,11.97-1.75,15.14-5.43c18.38-21.34-37.28-99.42-124.32-174.38
		C1085.84,604.67,1014.88,564.19,982.14,564.2L982.14,564.2z"/>
</g>
<g>
	<path class="st0" d="M787.14,524.3c-39.82,0-108.01-20.02-177.94-52.25c-50.41-23.23-95.59-49.88-127.2-75.04
		c-30.94-24.63-45.54-45.58-40.06-57.48c3.38-7.33,14.26-11.2,31.46-11.2c39.82,0,108.01,20.02,177.94,52.25
		c50.41,23.23,95.59,49.88,127.2,75.04c30.94,24.63,45.54,45.58,40.06,57.48C815.23,520.42,804.35,524.3,787.14,524.3z"/>
	<path d="M473.42,328.96c39.73,0,107.81,20,177.67,52.19c50.37,23.21,95.5,49.83,127.07,74.96c30.69,24.43,45.22,45.1,39.87,56.71
		c-3.27,7.09-13.94,10.83-30.88,10.83c-39.74,0-107.82-20-177.68-52.19c-50.37-23.21-95.5-49.83-127.07-74.96
		c-30.69-24.43-45.22-45.1-39.87-56.71C445.79,332.71,456.47,328.96,473.42,328.96L473.42,328.96 M473.41,327.69
		c-17.04,0-28.42,3.73-32.04,11.58c-11.79,25.58,63.23,85.29,167.56,133.37c72.31,33.32,139.72,52.31,178.21,52.31
		c17.04,0,28.42-3.73,32.04-11.58c11.79-25.58-63.23-85.29-167.56-133.37C579.31,346.67,511.9,327.68,473.41,327.69L473.41,327.69z"
		/>
</g>
<g>
	<path class="st0" d="M1318.07,740.81c-39.56,0-108.13-21.21-178.95-55.35c-50-24.1-94.7-51.54-125.87-77.24
		c-30.51-25.16-44.74-46.36-39.05-58.17c3.37-6.98,13.64-10.67,29.71-10.67c39.56,0,108.12,21.21,178.95,55.35
		c50,24.1,94.71,51.54,125.87,77.24c30.51,25.16,44.74,46.36,39.05,58.17C1344.41,737.12,1334.14,740.81,1318.07,740.81z"/>
	<path d="M1003.91,538.74v1.28c18.91,0,45.25,5,76.19,14.47c31.86,9.75,67.3,23.86,102.48,40.82
		c49.96,24.08,94.61,51.48,125.74,77.16c30.26,24.96,44.43,45.88,38.88,57.4c-3.25,6.75-13.33,10.31-29.13,10.31
		c-18.91,0-45.25-5-76.19-14.46c-31.86-9.75-67.3-23.86-102.49-40.82c-49.96-24.08-94.61-51.48-125.74-77.16
		c-30.26-24.96-44.43-45.88-38.88-57.4c3.25-6.75,13.33-10.31,29.13-10.31L1003.91,538.74 M1003.91,538.74
		c-15.96,0-26.67,3.55-30.28,11.03c-12.23,25.37,61.74,86.38,165.22,136.26c72.95,35.17,141.09,55.42,179.23,55.42
		c15.96,0,26.67-3.55,30.28-11.03c12.23-25.37-61.74-86.38-165.22-136.26C1110.19,558.99,1042.05,538.74,1003.91,538.74
		L1003.91,538.74z"/>
</g>
<g>
	<path class="st0" d="M721.64,559.22c-35.51,0-76.62-3.83-118.88-11.09c-54.71-9.39-105.24-23.44-142.28-39.56
		c-36.26-15.78-55.79-32.24-53.57-45.16c2.76-16.06,37.9-25.64,94.01-25.64c35.51,0,76.62,3.83,118.88,11.09
		c54.71,9.39,105.24,23.44,142.28,39.56c36.26,15.78,55.79,32.24,53.57,45.16C812.89,549.63,777.75,559.22,721.64,559.22z"/>
	<path d="M500.92,438.41c35.47,0,76.53,3.83,118.76,11.08c54.66,9.38,105.14,23.42,142.14,39.52
		c35.97,15.65,55.36,31.86,53.19,44.46c-1.32,7.69-10.67,14.08-27.05,18.46c-16.25,4.35-39.19,6.65-66.33,6.65
		c-35.47,0-76.54-3.83-118.77-11.08c-54.66-9.38-105.14-23.42-142.14-39.52c-35.97-15.65-55.36-31.86-53.19-44.46
		c1.32-7.69,10.67-14.08,27.05-18.46C450.83,440.71,473.77,438.41,500.92,438.41L500.92,438.41 M500.91,437.13
		c-54.5,0-91.71,9.13-94.64,26.17c-4.77,27.76,83.15,66.02,196.37,85.46c43.69,7.5,84.75,11.1,118.99,11.1
		c54.5,0,91.71-9.13,94.64-26.17c4.77-27.76-83.15-66.02-196.37-85.46C576.22,440.73,535.16,437.13,500.91,437.13L500.91,437.13z"/>
</g>
<g>
	<path class="st0" d="M1296.63,630.34c-37.3,0-81.14-4.58-126.77-13.23c-54.54-10.34-104.82-25.27-141.57-42.03
		c-35.98-16.41-55.22-33.2-52.77-46.08c2.86-15.08,35.14-24.08,86.34-24.08c37.3,0,81.14,4.57,126.77,13.23
		c54.54,10.34,104.82,25.27,141.57,42.03c35.98,16.41,55.22,33.2,52.77,46.08C1380.11,621.34,1347.83,630.34,1296.63,630.34z"/>
	<path d="M1061.85,505.56c37.26,0,81.05,4.57,126.65,13.22c54.49,10.33,104.72,25.24,141.43,41.98
		c35.69,16.28,54.79,32.82,52.41,45.38c-2.8,14.75-34.84,23.56-85.71,23.56c-37.26,0-81.05-4.57-126.65-13.22
		c-54.49-10.33-104.72-25.24-141.43-41.98c-35.69-16.28-54.79-32.82-52.41-45.38C978.93,514.37,1010.97,505.56,1061.85,505.56
		L1061.85,505.56 M1061.85,504.29c-50.07,0-83.91,8.46-86.97,24.6c-5.25,27.67,81.99,67.46,194.86,88.86
		c47.04,8.92,91.11,13.24,126.89,13.24c50.07,0,83.91-8.46,86.97-24.6c5.25-27.67-81.99-67.46-194.86-88.86
		C1141.69,508.61,1097.63,504.29,1061.85,504.29L1061.85,504.29z"/>
</g>
<g>
	<path class="st0" d="M543.19,626.75c-80.68,0-136.17-13.91-138.07-34.61c-1.2-13.05,19.55-27.93,56.93-40.83
		c38.19-13.18,89.66-23.24,144.94-28.32c25.04-2.3,49.61-3.47,73.03-3.47c80.68,0,136.17,13.91,138.08,34.61
		c1.2,13.05-19.55,27.93-56.93,40.83c-38.19,13.18-89.66,23.24-144.94,28.33C591.18,625.59,566.61,626.75,543.19,626.75z"/>
	<path d="M680.03,520.15c39.28,0,73.15,3.25,97.97,9.4c24.54,6.08,38.55,14.83,39.46,24.64c1.17,12.73-19.42,27.38-56.5,40.17
		c-38.14,13.16-89.56,23.21-144.79,28.29c-25.02,2.3-49.57,3.47-72.97,3.47c-39.28,0-73.17-3.25-97.98-9.4
		c-24.54-6.08-38.56-14.83-39.46-24.64c-1.17-12.73,19.42-27.38,56.5-40.17c38.14-13.16,89.56-23.21,144.79-28.29
		C632.05,521.32,656.61,520.15,680.03,520.15L680.03,520.15 M680.02,518.87c-22.83,0-47.48,1.12-73.09,3.48
		c-114.39,10.53-205.03,41.8-202.45,69.85c2,21.77,59.56,35.19,138.71,35.19c22.83,0,47.48-1.12,73.09-3.48
		c114.39-10.53,205.03-41.8,202.45-69.85C816.72,532.3,759.17,518.87,680.02,518.87L680.02,518.87z"/>
</g>
<g>
	<path class="st0" d="M1121.32,545.45c-86.69,0-148.37-15.26-150-37.12c-0.97-13.07,20.03-27.59,57.63-39.84
		c38.41-12.51,90.06-21.67,145.41-25.8c20.57-1.53,40.93-2.31,60.53-2.31c86.69,0,148.37,15.26,150,37.12
		c0.97,13.07-20.03,27.59-57.63,39.84c-38.41,12.51-90.05,21.67-145.41,25.8C1161.28,544.67,1140.92,545.45,1121.32,545.45z"/>
	<path d="M1234.91,441.02c86.33,0,147.75,15.02,149.35,36.53c0.95,12.75-19.9,27.03-57.19,39.18
		c-38.37,12.5-89.95,21.65-145.26,25.77c-20.55,1.53-40.9,2.31-60.49,2.31c-86.34,0-147.76-15.02-149.36-36.53
		c-0.95-12.75,19.9-27.03,57.19-39.18c38.37-12.5,89.95-21.65,145.26-25.77C1194.96,441.8,1215.31,441.02,1234.91,441.02
		L1234.91,441.02 M1234.89,439.75c-19.22,0-39.57,0.75-60.58,2.31c-114.56,8.54-205.73,38.23-203.63,66.32
		c1.71,22.94,65.07,37.71,150.63,37.71c19.22,0,39.57-0.75,60.58-2.31c114.56-8.54,205.73-38.23,203.63-66.32
		C1383.82,454.52,1320.46,439.75,1234.89,439.75L1234.89,439.75z"/>
</g>
<g>
	<path class="st0" d="M478.34,730.98c-23.85,0-38.25-4.85-41.64-14.03c-4.54-12.3,11.65-32.04,44.42-54.18
		c33.48-22.61,80.6-45.65,132.67-64.87c65.47-24.17,129.15-38.59,170.34-38.59c23.85,0,38.25,4.85,41.64,14.03
		c4.54,12.3-11.65,32.04-44.42,54.18c-33.48,22.61-80.6,45.65-132.67,64.87C583.21,716.56,519.53,730.98,478.34,730.98z"/>
	<path d="M784.13,558.67v1.28c23.56,0,37.75,4.71,41.04,13.62c4.43,12-11.68,31.47-44.18,53.43c-33.44,22.58-80.51,45.6-132.53,64.8
		c-65.4,24.14-129,38.55-170.11,38.55c-23.56,0-37.75-4.71-41.04-13.62c-4.43-12,11.68-31.47,44.18-53.43
		c33.44-22.58,80.51-45.6,132.53-64.8c65.4-24.14,129-38.55,170.11-38.55L784.13,558.67 M784.13,558.67
		c-39.71,0-102.66,13.57-170.56,38.63c-107.77,39.78-187.23,93.45-177.47,119.87c3.61,9.78,18.92,14.45,42.24,14.45
		c39.71,0,102.66-13.57,170.56-38.63c107.77-39.78,187.23-93.45,177.47-119.87C822.76,563.34,807.45,558.67,784.13,558.67
		L784.13,558.67z"/>
</g>
<g>
	<path class="st0" d="M1006.48,504.23c-25.77,0-41.17-5.11-44.56-14.78c-4.32-12.37,12.21-31.83,45.36-53.4
		c33.87-22.03,81.38-44.24,133.78-62.56c63.88-22.32,126.61-35.65,167.81-35.65c25.77,0,41.17,5.11,44.55,14.78
		c4.32,12.37-12.21,31.83-45.36,53.4c-33.87,22.03-81.38,44.24-133.78,62.56C1110.41,490.91,1047.68,504.23,1006.48,504.23z"/>
	<path d="M1308.88,338.49c25.1,0,40.71,5.1,43.94,14.36c4.22,12.07-12.22,31.26-45.1,52.65c-33.83,22-81.29,44.19-133.64,62.49
		c-63.82,22.3-126.47,35.62-167.6,35.62c-25.11,0-40.72-5.1-43.95-14.36c-4.22-12.07,12.22-31.26,45.1-52.65
		c33.83-22,81.29-44.19,133.64-62.49C1205.08,351.8,1267.74,338.49,1308.88,338.49L1308.88,338.49 M1308.87,337.21
		c-39.85,0-101.5,12.44-168.02,35.69c-108.44,37.9-188.82,90.17-179.53,116.76c3.59,10.28,20.05,15.21,45.16,15.21
		c39.85,0,101.5-12.44,168.02-35.69c108.44-37.9,188.82-90.17,179.53-116.76C1350.44,342.14,1333.98,337.21,1308.87,337.21
		L1308.87,337.21z"/>
</g>
<g>
	<path class="st0" d="M517.99,836.11c-9.07,0-15.28-2.28-18.46-6.78c-7.57-10.7,2.96-33.97,28.89-63.83
		c26.49-30.51,66.03-64.96,111.36-97c72.22-51.06,144.53-85.36,179.93-85.36c9.07,0,15.28,2.28,18.46,6.78
		c7.57,10.7-2.96,33.97-28.89,63.83c-26.49,30.51-66.03,64.96-111.36,97C625.69,801.8,553.38,836.11,517.99,836.11z"/>
	<path d="M819.7,582.5v1.28h0c8.85,0,14.88,2.19,17.94,6.51c7.38,10.44-3.13,33.42-28.85,63.04
		c-26.45,30.47-65.96,64.88-111.25,96.9c-72.12,50.99-144.28,85.25-179.56,85.25c-8.85,0-14.89-2.19-17.94-6.51
		c-7.38-10.44,3.13-33.42,28.85-63.04c26.45-30.47,65.96-64.88,111.25-96.9c72.12-50.98,144.27-85.24,179.56-85.25L819.7,582.5
		 M819.7,582.5c-34.57,0-106,32.96-180.3,85.48C545.6,734.29,482.74,806.7,499,829.7c3.38,4.78,9.91,7.05,18.99,7.05
		c34.57,0,106-32.96,180.3-85.48c93.8-66.32,156.66-138.72,140.4-161.72C835.3,584.76,828.77,582.49,819.7,582.5L819.7,582.5z"/>
</g>
<g>
	<path class="st0" d="M967.27,480.75c-9.6,0-16.1-2.39-19.31-7.11c-7.38-10.83,3.55-33.91,29.99-63.32
		c27.01-30.04,67.15-63.8,113.03-95.05c72.2-49.18,144.71-82.23,180.42-82.23c9.6,0,16.1,2.39,19.31,7.11
		c7.38,10.83-3.55,33.91-29.99,63.32c-27.01,30.04-67.15,63.8-113.03,95.05C1075.49,447.71,1002.99,480.75,967.27,480.75z"/>
	<path d="M1271.41,232.41v1.28h0c9.37,0,15.69,2.3,18.77,6.83c7.2,10.57-3.71,33.36-29.94,62.53c-26.98,30-67.08,63.72-112.91,94.95
		c-72.1,49.12-144.47,82.12-180.06,82.12c-9.38,0-15.69-2.3-18.78-6.83c-7.2-10.57,3.71-33.36,29.94-62.53
		c26.98-30,67.08-63.72,112.91-94.95c72.1-49.11,144.46-82.11,180.06-82.12L1271.41,232.41 M1271.41,232.41
		c-34.93,0-106.28,31.59-180.78,82.34C995.69,379.43,931.58,450.73,947.44,474c3.41,5.01,10.25,7.39,19.84,7.39
		c34.93,0,106.28-31.59,180.78-82.34c94.94-64.67,159.05-135.97,143.19-159.25C1287.83,234.79,1280.99,232.41,1271.41,232.41
		L1271.41,232.41z"/>
</g>
<g>
	<path class="st0" d="M599.43,924.79c-4.2,0-7.62-1.07-10.15-3.17c-10.08-8.38-5.93-33.58,11.38-69.13
		c17.69-36.32,46.97-79.83,82.46-122.52c62.83-75.58,130.6-130.43,161.15-130.43c4.2,0,7.62,1.07,10.15,3.17
		c21.35,17.75-20.75,103.73-93.84,191.65C697.74,869.94,629.97,924.79,599.43,924.79z"/>
	<path d="M844.27,598.91v1.28c4.05,0,7.32,1.02,9.74,3.03c9.83,8.18,5.62,33.09-11.55,68.36c-17.67,36.28-46.92,79.74-82.38,122.39
		c-62.72,75.44-130.29,130.2-160.65,130.2c-4.05,0-7.32-1.02-9.74-3.03c-9.83-8.18-5.62-33.09,11.55-68.36
		c17.67-36.28,46.92-79.74,82.38-122.39c62.72-75.44,130.28-130.19,160.65-130.2L844.27,598.91 M844.27,598.91
		c-30.25,0-97.34,53.33-161.64,130.66c-73.44,88.33-115.42,174.54-93.76,192.55c2.7,2.24,6.25,3.32,10.56,3.32
		c30.25,0,97.34-53.33,161.64-130.66c73.44-88.33,115.42-174.54,93.76-192.55C852.13,599.98,848.58,598.9,844.27,598.91
		L844.27,598.91z"/>
</g>
<g>
	<path class="st0" d="M940.92,465.34c-4.41,0-7.95-1.13-10.54-3.35c-9.93-8.55-5.34-33.67,12.58-68.92
		c18.32-36.01,48.35-79,84.58-121.06c63.68-73.94,132.21-127.61,162.94-127.61c4.41,0,7.95,1.13,10.54,3.35
		c9.93,8.55,5.34,33.67-12.58,68.92c-18.32,36.01-48.35,79-84.58,121.06C1040.19,411.68,971.66,465.34,940.92,465.34z"/>
	<path d="M1190.5,143.76v1.28c4.25,0,7.65,1.08,10.11,3.2c9.69,8.35,5.05,33.18-12.74,68.15c-18.29,35.96-48.3,78.91-84.49,120.94
		c-63.57,73.81-131.9,127.39-162.46,127.39c-4.25,0-7.66-1.08-10.12-3.2c-9.69-8.35-5.05-33.18,12.74-68.15
		c18.29-35.96,48.3-78.91,84.49-120.94c63.57-73.81,131.89-127.38,162.46-127.39L1190.5,143.76 M1190.49,143.76
		c-30.47,0.01-98.13,52.01-163.43,127.83c-74.97,87.04-118.44,172.5-97.1,190.89c2.75,2.37,6.44,3.51,10.95,3.51
		c30.47,0,98.13-52.01,163.43-127.83c74.97-87.04,118.44-172.5,97.1-190.89C1198.7,144.9,1195.01,143.76,1190.49,143.76
		L1190.49,143.76z"/>
</g>
<g>
	<path class="st1" d="M897,469.36c-13.11,0-26.02-22.03-35.44-60.44c-9.62-39.24-14.92-91.42-14.92-146.93s5.3-107.69,14.92-146.93
		c9.42-38.41,22.33-60.44,35.44-60.44s26.02,22.03,35.44,60.44c9.62,39.24,14.92,91.42,14.92,146.93s-5.3,107.69-14.92,146.93
		C923.02,447.33,910.11,469.36,897,469.36z"/>
	<path d="M897,55.28c12.79,0,25.48,21.85,34.82,59.95c9.61,39.19,14.9,91.31,14.9,146.77s-5.29,107.58-14.9,146.77
		c-9.34,38.1-22.03,59.95-34.82,59.95s-25.48-21.85-34.82-59.95c-9.61-39.19-14.9-91.31-14.9-146.77s5.29-107.58,14.9-146.77
		C871.52,77.13,884.21,55.28,897,55.28 M897,54c-28.17,0-51,93.12-51,208s22.83,208,51,208s51-93.12,51-208S925.17,54,897,54L897,54
		z"/>
</g>
<g>
	<path class="st1" d="M897,469.36c-13.11,0-26.02-22.03-35.44-60.44c-9.62-39.24-14.92-91.42-14.92-146.93s5.3-107.69,14.92-146.93
		c9.42-38.41,22.33-60.44,35.44-60.44s26.02,22.03,35.44,60.44c9.62,39.24,14.92,91.42,14.92,146.93s-5.3,107.69-14.92,146.93
		C923.02,447.33,910.11,469.36,897,469.36z"/>
	<path d="M897,55.28c12.79,0,25.48,21.85,34.82,59.95c9.61,39.19,14.9,91.31,14.9,146.77s-5.29,107.58-14.9,146.77
		c-9.34,38.1-22.03,59.95-34.82,59.95s-25.48-21.85-34.82-59.95c-9.61-39.19-14.9-91.31-14.9-146.77s5.29-107.58,14.9-146.77
		C871.52,77.13,884.21,55.28,897,55.28 M897,54c-28.17,0-51,93.12-51,208s22.83,208,51,208s51-93.12,51-208S925.17,54,897,54L897,54
		z"/>
</g>
<g>
	<path class="st1" d="M883.69,1025.86c-27.76-0.74-47.85-94.34-44.79-208.63c3.04-113.56,27.97-205.94,55.57-205.94l0.33,0
		c13.1,0.35,25.43,22.72,33.81,61.36c8.57,39.48,12.47,91.78,10.98,147.27c-3.04,113.56-27.97,205.94-55.57,205.94L883.69,1025.86z"
		/>
	<path d="M894.47,611.92L894.47,611.92c0.1,0,0.2,0,0.31,0c12.78,0.34,24.89,22.53,33.2,60.86c8.56,39.43,12.45,91.68,10.96,147.12
		c-1.48,55.2-8.12,107-18.7,145.87c-10.29,37.78-23.49,59.45-36.23,59.45c-0.1,0-0.2,0-0.31,0c-12.78-0.34-24.89-22.53-33.2-60.86
		c-8.56-39.43-12.45-91.68-10.96-147.12c1.48-55.19,8.12-107,18.7-145.86C868.53,633.6,881.73,611.93,894.47,611.92 M894.47,610.64
		c-28.02,0.01-53.15,92.2-56.21,206.56c-3.08,114.83,17.25,208.54,45.41,209.29c0.12,0,0.23,0,0.34,0
		c28.02,0,53.15-92.2,56.21-206.56c3.08-114.83-17.25-208.54-45.41-209.29C894.7,610.65,894.59,610.64,894.47,610.64L894.47,610.64z
		"/>
</g>
<g>
	<path class="st1" d="M875.28,471.15c-27.36,0-70.88-82.44-99.08-187.68c-14.37-53.62-22.75-105.39-23.62-145.78
		c-0.84-39.54,5.93-64.16,18.59-67.55c1.04-0.28,2.12-0.42,3.23-0.42c27.36,0,70.88,82.44,99.08,187.68
		c14.37,53.62,22.75,105.39,23.62,145.78c0.84,39.54-5.93,64.16-18.59,67.55C877.48,471.01,876.39,471.15,875.28,471.15z"/>
	<path d="M774.41,69.09v1.28c12.67,0,30.29,19.49,48.34,53.47c18.59,34.99,36.39,82.49,50.12,133.73
		c14.35,53.57,22.73,105.29,23.59,145.63c0.84,39.22-5.77,63.61-18.12,66.92c-0.98,0.26-2.01,0.4-3.06,0.4
		c-12.67,0-30.29-19.49-48.34-53.47c-18.59-34.99-36.39-82.49-50.12-133.73c-14.35-53.57-22.73-105.29-23.59-145.63
		c-0.84-39.22,5.77-63.61,18.12-66.92c0.98-0.26,2.01-0.4,3.07-0.4L774.41,69.09 M774.41,69.09c-1.16,0-2.29,0.15-3.4,0.44
		c-27.21,7.29-25.16,103.15,4.57,214.11c28.53,106.47,72.18,188.15,99.7,188.15c1.16,0,2.29-0.15,3.4-0.44
		c27.21-7.29,25.16-103.15-4.57-214.11C845.58,150.77,801.93,69.08,774.41,69.09L774.41,69.09z"/>
</g>
<g>
	<path class="st1" d="M1006.8,1012.06c-27.37,0-68.83-83.58-94.37-190.27c-12.93-53.98-19.92-105.96-19.7-146.36
		c0.22-39.54,7.65-63.97,20.4-67.03c0.93-0.22,1.91-0.34,2.89-0.34c27.37,0,68.83,83.58,94.37,190.27
		c12.93,53.98,19.92,105.96,19.7,146.36c-0.21,39.54-7.65,63.97-20.4,67.03C1008.75,1011.94,1007.78,1012.06,1006.8,1012.06z"/>
	<path d="M916.01,607.42v1.28c12.65,0,29.78,19.79,47,54.3c17.73,35.53,34.33,83.64,46.75,135.49
		c12.91,53.93,19.91,105.86,19.69,146.21c-0.21,39.23-7.47,63.43-19.91,66.41c-0.88,0.21-1.81,0.32-2.74,0.32
		c-12.65,0-29.78-19.79-47-54.29c-17.73-35.53-34.34-83.64-46.75-135.49c-12.91-53.93-19.9-105.86-19.69-146.21
		c0.21-39.23,7.47-63.43,19.91-66.41c0.88-0.21,1.81-0.32,2.74-0.32L916.01,607.42 M916.01,607.42c-1.03,0-2.05,0.12-3.04,0.35
		c-27.39,6.56-27.91,102.44-1.16,214.16c25.78,107.68,67.49,190.76,94.99,190.76c1.03,0,2.05-0.12,3.04-0.35
		c27.39-6.56,27.91-102.44,1.16-214.16C985.22,690.5,943.52,607.41,916.01,607.42L916.01,607.42z"/>
</g>
<g>
	<path class="st1" d="M854.06,478.58c-28.61,0-88.95-67.12-140.34-156.13c-27.75-48.07-49.26-95.91-60.54-134.7
		c-11.05-37.97-10.88-63.51,0.48-70.06c1.99-1.15,4.33-1.73,6.96-1.73c28.61,0,88.95,67.12,140.34,156.13
		c27.75,48.07,49.26,95.91,60.54,134.7c11.05,37.97,10.87,63.51-0.48,70.06C859.02,478,856.68,478.58,854.06,478.58z"/>
	<path d="M660.61,115.31v1.28c28.4,0,88.5,66.99,139.78,155.81c27.73,48.03,49.21,95.82,60.48,134.56
		c10.96,37.66,10.89,62.93-0.18,69.33c-1.89,1.09-4.13,1.65-6.64,1.65c-13.54,0-35.05-15.53-60.55-43.74
		c-25.93-28.68-54.07-68.48-79.24-112.07c-27.73-48.03-49.21-95.82-60.48-134.56c-10.96-37.66-10.89-62.93,0.18-69.33
		c1.89-1.09,4.13-1.65,6.64-1.65L660.61,115.31 M660.61,115.31c-2.72,0-5.16,0.59-7.28,1.82c-24.39,14.08,2.4,106.15,59.83,205.63
		c52.45,90.84,112.31,156.45,140.89,156.45c2.72,0,5.16-0.59,7.28-1.82c24.39-14.08-2.4-106.15-59.83-205.63
		C749.06,180.93,689.19,115.31,660.61,115.31L660.61,115.31z"/>
</g>
<g>
	<path class="st1" d="M1121.21,967c-28.46,0-87.17-68.72-136.58-159.84c-26.46-48.8-46.67-97.2-56.91-136.27
		c-10.03-38.25-9.17-63.77,2.35-70.02c1.9-1.03,4.1-1.55,6.53-1.55c28.46,0,87.17,68.72,136.58,159.84
		c26.46,48.8,46.67,97.2,56.91,136.27c10.03,38.25,9.17,63.77-2.35,70.02C1125.83,966.48,1123.64,967,1121.21,967z"/>
	<path d="M936.6,598.67v1.28c13.44,0,34.53,15.93,59.39,44.87c25.28,29.41,52.49,70.13,76.62,114.64
		c26.43,48.75,46.63,97.1,56.86,136.13c9.95,37.94,9.2,63.2-2.04,69.3c-1.81,0.98-3.9,1.48-6.23,1.48
		c-13.44,0-34.53-15.93-59.39-44.87c-25.28-29.41-52.49-70.13-76.62-114.64c-26.43-48.75-46.63-97.1-56.86-136.13
		c-9.95-37.94-9.2-63.2,2.04-69.3c1.81-0.98,3.9-1.48,6.23-1.48L936.6,598.67 M936.6,598.67c-2.52,0-4.81,0.53-6.83,1.63
		c-24.76,13.42-0.45,106.17,54.3,207.16c50.28,92.74,108.75,160.18,137.14,160.18c2.52,0,4.81-0.53,6.83-1.63
		c24.76-13.42,0.45-106.17-54.3-207.16C1023.46,666.11,964.99,598.67,936.6,598.67L936.6,598.67z"/>
</g>
<g>
	<path class="st1" d="M833.3,491.48c-32.16,0-102.01-47.38-169.85-115.22c-39.25-39.25-72.4-79.89-93.34-114.44
		c-20.5-33.82-26.94-58.53-17.67-67.8c2.79-2.79,6.96-4.2,12.39-4.2c32.16,0,102.01,47.38,169.85,115.22
		c39.25,39.25,72.4,79.89,93.34,114.44c20.5,33.82,26.94,58.53,17.67,67.8C842.9,490.07,838.73,491.48,833.3,491.48z"/>
	<path d="M564.83,189.18v1.28c15.15,0,40.12,11.21,70.33,31.57c31.28,21.08,65.53,49.94,99.06,83.47
		c39.22,39.22,72.33,79.82,93.25,114.32c20.33,33.54,26.81,57.97,17.77,67.01c-2.67,2.67-6.68,4.02-11.94,4.02
		c-15.15,0-40.12-11.21-70.33-31.57c-31.28-21.08-65.53-49.94-99.06-83.47c-39.22-39.22-72.33-79.82-93.25-114.32
		c-20.33-33.54-26.81-57.97-17.77-67.01c2.67-2.67,6.68-4.02,11.94-4.02L564.83,189.18 M564.83,189.18c-5.52,0-9.87,1.42-12.84,4.39
		C532.07,213.49,581.78,295.49,663,376.72c69.12,69.12,138.79,115.41,170.3,115.41c5.52,0,9.87-1.42,12.84-4.39
		c19.92-19.92-29.79-101.91-111.02-183.14C666.01,235.47,596.34,189.18,564.83,189.18L564.83,189.18z"/>
</g>
<g>
	<path class="st1" d="M1218.1,894.08c-15.07,0-39.87-11.72-69.85-33.01c-30.5-21.66-65.19-52.46-97.67-86.73
		c-38.19-40.29-70.24-81.8-90.24-116.9c-19.59-34.35-25.36-59.23-15.85-68.24c2.72-2.58,6.65-3.88,11.68-3.88
		c15.06,0,39.87,11.72,69.85,33.01c30.5,21.66,65.19,52.46,97.67,86.73c38.19,40.29,70.23,81.8,90.24,116.9
		c19.59,34.35,25.36,59.23,15.85,68.24C1227.07,892.77,1223.14,894.08,1218.1,894.08z"/>
	<path d="M956.18,584.67v1.28c14.93,0,39.61,11.68,69.48,32.89c30.47,21.64,65.12,52.41,97.57,86.65
		c38.15,40.25,70.17,81.72,90.15,116.78c19.43,34.08,25.25,58.67,15.97,67.46c-2.6,2.46-6.38,3.71-11.24,3.71
		c-14.93,0-39.61-11.68-69.48-32.89c-30.47-21.64-65.12-52.41-97.57-86.65c-38.15-40.25-70.17-81.72-90.15-116.78
		c-19.43-34.08-25.25-58.67-15.97-67.46c2.6-2.46,6.38-3.71,11.24-3.71L956.18,584.67 M956.18,584.67c-5.13,0-9.23,1.32-12.12,4.06
		c-20.44,19.38,27.05,102.67,106.07,186.05c67.84,71.57,136.86,119.94,167.98,119.94c5.13,0,9.23-1.32,12.12-4.06
		c20.44-19.38-27.05-102.67-106.07-186.05C1056.31,633.04,987.29,584.67,956.18,584.67L956.18,584.67z"/>
</g>
<g>
	<path class="st1" d="M809.93,510.02c-37.66,0-108.74-26.99-181.1-68.77c-48.07-27.75-90.61-58.43-119.78-86.38
		c-28.55-27.36-41.17-49.56-34.62-60.91c3.33-5.77,11.29-8.7,23.66-8.7c37.66,0,108.74,26.99,181.1,68.77
		c48.07,27.75,90.61,58.43,119.78,86.38c28.55,27.36,41.17,49.56,34.62,60.91C830.26,507.09,822.3,510.02,809.93,510.02z"/>
	<path d="M498.1,285.9c37.55,0,108.51,26.96,180.78,68.68c48.03,27.73,90.53,58.38,119.66,86.29c28.32,27.14,40.9,49.06,34.51,60.13
		c-3.21,5.56-10.99,8.38-23.11,8.38c-37.55,0-108.51-26.96-180.78-68.68c-48.03-27.73-90.53-58.38-119.66-86.29
		c-28.32-27.14-40.9-49.06-34.51-60.13C478.2,288.72,485.97,285.9,498.1,285.9L498.1,285.9 M498.1,284.62
		c-12.24,0-20.68,2.9-24.22,9.02c-14.08,24.39,55.15,90.73,154.63,148.17c74.52,43.03,144.88,68.85,181.42,68.85
		c12.24,0,20.68-2.9,24.22-9.02c14.08-24.39-55.15-90.73-154.63-148.17C604.99,310.45,534.63,284.62,498.1,284.62L498.1,284.62z"/>
</g>
<g>
	<path class="st1" d="M1286.94,799.19c-37.16,0-108.26-28.9-181.14-73.62c-47.31-29.03-89.01-60.84-117.43-89.56
		c-27.81-28.11-39.83-50.65-32.97-61.82c3.29-5.37,10.68-8.09,21.94-8.09c37.16,0,108.26,28.9,181.14,73.62
		c47.31,29.03,89.01,60.84,117.43,89.56c27.81,28.11,39.83,50.65,32.97,61.82C1305.59,796.47,1298.21,799.19,1286.94,799.19z"/>
	<path d="M977.35,566.74c17.74,0,43.93,6.77,75.74,19.58c32.65,13.15,68.98,31.8,105.07,53.94c47.27,29.01,88.93,60.78,117.31,89.47
		c27.59,27.89,39.57,50.13,32.88,61.03c-3.17,5.17-10.37,7.78-21.4,7.78c-17.74,0-43.93-6.77-75.73-19.58
		c-32.65-13.15-68.98-31.8-105.07-53.95c-47.27-29.01-88.93-60.78-117.31-89.47c-27.59-27.89-39.57-50.13-32.88-61.03
		C959.12,569.36,966.32,566.74,977.35,566.74L977.35,566.74 M977.34,565.47c-11.18,0-18.99,2.7-22.48,8.39
		c-14.73,24.01,52.7,92.17,150.61,152.26c74.68,45.83,145.52,73.71,181.47,73.71c11.18,0,18.99-2.7,22.48-8.39
		c14.73-24.01-52.7-92.17-150.61-152.26C1084.13,593.35,1013.29,565.46,977.34,565.47L977.34,565.47z"/>
</g>
<g>
	<path class="st1" d="M764.6,536.68c-40.66,0-96.2-8.63-152.39-23.69c-53.62-14.37-102.65-32.99-138.06-52.44
		c-34.66-19.04-52.6-37.22-49.2-49.88c3.22-12.04,24.87-18.66,60.94-18.66c40.66,0,96.2,8.63,152.39,23.69
		c53.62,14.37,102.65,32.99,138.06,52.44c34.66,19.04,52.6,37.22,49.2,49.88C822.32,530.05,800.67,536.68,764.6,536.68z"/>
	<path d="M485.9,392.65c40.6,0,96.09,8.63,152.22,23.67c53.57,14.35,102.55,32.96,137.92,52.38c34.38,18.88,52.2,36.8,48.89,49.15
		c-1.56,5.81-7.63,10.34-18.06,13.48c-10.39,3.13-24.61,4.71-42.27,4.71c-40.61,0-96.09-8.63-152.22-23.67
		c-53.57-14.35-102.55-32.96-137.92-52.38c-34.38-18.88-52.2-36.8-48.89-49.15c1.56-5.81,7.63-10.34,18.06-13.48
		C454.02,394.24,468.24,392.65,485.9,392.65L485.9,392.65 M485.89,391.38c-35.05,0-58.13,6.33-61.56,19.14
		c-7.29,27.21,76.75,73.36,187.71,103.1c58.7,15.73,113.18,23.71,152.55,23.71c35.05,0,58.13-6.33,61.56-19.14
		c7.29-27.21-76.75-73.36-187.71-103.1C579.74,399.36,525.27,391.38,485.89,391.38L485.89,391.38z"/>
</g>
<g>
	<path class="st1" d="M1305.43,692.03c-41.35,0-99.27-10.15-158.91-27.86c-53.21-15.8-101.73-35.73-136.6-56.12
		c-34.14-19.96-51.58-38.61-47.85-51.18c3.28-11.04,22.53-17.12,54.21-17.12c41.35,0,99.27,10.15,158.91,27.86
		c53.21,15.8,101.73,35.73,136.6,56.12c34.14,19.96,51.58,38.61,47.85,51.18C1356.36,685.95,1337.1,692.03,1305.43,692.03z"/>
	<path d="M1016.27,539.12v1.28c41.29,0,99.15,10.15,158.73,27.83c53.17,15.78,101.63,35.69,136.46,56.06
		c33.86,19.8,51.2,38.18,47.56,50.44c-3.19,10.75-22.22,16.67-53.59,16.67c-41.29,0-99.15-10.15-158.73-27.83
		c-53.17-15.78-101.63-35.69-136.46-56.06c-33.86-19.8-51.2-38.18-47.56-50.44c3.19-10.75,22.22-16.67,53.59-16.67L1016.27,539.12
		 M1016.27,539.12c-30.98,0-51.31,5.76-54.82,17.58c-8.02,27,74.76,75.39,184.88,108.09c61.92,18.38,119.3,27.89,159.1,27.89
		c30.98,0,51.31-5.76,54.82-17.58c8.02-27-74.76-75.39-184.88-108.09C1113.44,548.62,1056.06,539.12,1016.27,539.12L1016.27,539.12z
		"/>
</g>
<g>
	<path class="st1" d="M614.72,586.59c-55.51,0-107.69-5.3-146.93-14.92c-38.41-9.42-60.44-22.33-60.44-35.44
		s22.03-26.02,60.44-35.44c39.24-9.62,91.42-14.92,146.93-14.92c55.51,0,107.69,5.3,146.93,14.92
		c38.41,9.42,60.44,22.33,60.44,35.44s-22.03,26.02-60.44,35.44C722.41,581.29,670.23,586.59,614.72,586.59z"/>
	<path d="M614.72,486.51c55.46,0,107.58,5.29,146.77,14.9c38.1,9.34,59.95,22.03,59.95,34.82c0,12.79-21.85,25.48-59.95,34.82
		c-39.19,9.61-91.31,14.9-146.77,14.9s-107.58-5.29-146.77-14.9c-38.1-9.34-59.95-22.03-59.95-34.82
		c0-12.79,21.85-25.48,59.95-34.82C507.14,491.8,559.26,486.51,614.72,486.51 M614.72,485.23c-114.88,0-208,22.83-208,51
		c0,28.17,93.12,51,208,51s208-22.83,208-51C822.72,508.06,729.6,485.23,614.72,485.23L614.72,485.23z"/>
</g>
<g>
	<path class="st1" d="M1192.79,594.64c-7.53,0-15.22-0.1-22.84-0.31c-55.49-1.49-107.51-8.18-146.47-18.85
		c-38.14-10.44-59.82-23.95-59.46-37.05c0.33-12.32,19.49-23.73,53.94-32.1c34.45-8.38,81.28-12.99,131.86-12.99
		c7.53,0,15.22,0.1,22.84,0.31c55.49,1.49,107.51,8.18,146.47,18.85c38.14,10.44,59.81,23.95,59.46,37.05
		c-0.33,12.33-19.49,23.73-53.94,32.1C1290.19,590.02,1243.36,594.64,1192.79,594.64z"/>
	<path d="M1149.82,493.97c7.52,0,15.2,0.1,22.81,0.31c55.44,1.49,107.4,8.17,146.32,18.83c37.83,10.36,59.34,23.63,58.99,36.41
		c-0.32,12.01-19.3,23.2-53.45,31.5c-34.41,8.37-81.18,12.97-131.71,12.97c-7.53,0-15.2-0.1-22.82-0.31
		c-55.44-1.49-107.4-8.17-146.32-18.83c-37.83-10.36-59.34-23.63-58.99-36.41c0.32-12.01,19.3-23.2,53.45-31.5
		C1052.51,498.58,1099.28,493.98,1149.82,493.97L1149.82,493.97 M1149.81,492.7c-104.16,0-185.74,19.46-186.44,45.72
		c-0.75,28.16,91.73,53.48,206.56,56.55c7.72,0.21,15.34,0.31,22.85,0.31c104.16,0,185.74-19.46,186.44-45.72
		c0.75-28.16-91.73-53.48-206.56-56.55C1164.94,492.8,1157.32,492.7,1149.81,492.7L1149.81,492.7z"/>
</g>
<g>
	<path class="st1" d="M483.81,680.72c-36.08,0-57.72-6.63-60.94-18.66c-3.39-12.66,14.54-30.84,49.2-49.88
		c35.41-19.45,84.44-38.07,138.06-52.44c56.18-15.05,111.73-23.69,152.39-23.69c36.08,0,57.72,6.63,60.94,18.66
		c7.19,26.82-76.82,72.72-187.26,102.31C580.01,672.08,524.47,680.72,483.81,680.72z"/>
	<path d="M762.52,536.69c17.66,0,31.88,1.58,42.26,4.71c10.42,3.14,16.5,7.67,18.05,13.48c3.31,12.35-14.51,30.27-48.89,49.15
		c-35.37,19.42-84.35,38.03-137.92,52.38c-56.13,15.04-111.61,23.67-152.22,23.67c-17.66,0-31.88-1.58-42.27-4.71
		c-10.42-3.14-16.5-7.67-18.06-13.48c-3.31-12.35,14.51-30.27,48.89-49.15c35.37-19.42,84.35-38.03,137.92-52.38
		C666.42,545.31,721.9,536.69,762.52,536.69L762.52,536.69 M762.51,535.41c-39.37,0-93.85,7.98-152.55,23.71
		c-110.96,29.73-195,75.89-187.71,103.1c3.43,12.81,26.51,19.14,61.56,19.14c39.37,0,93.85-7.98,152.55-23.71
		c110.96-29.73,195-75.89,187.71-103.1C820.64,541.73,797.57,535.41,762.51,535.41L762.51,535.41z"/>
</g>
<g>
	<path class="st1" d="M1029.96,540.51c-40.65,0-65.74-7.44-68.84-20.4c-3.05-12.75,15.36-30.44,50.52-48.54
		c35.92-18.49,85.43-35.8,139.41-48.72c53.08-12.71,104.41-19.71,144.55-19.71c40.65,0,65.74,7.44,68.84,20.4
		c3.05,12.75-15.36,30.44-50.52,48.54c-35.92,18.49-85.43,35.8-139.41,48.72C1121.43,533.51,1070.1,540.51,1029.96,540.51z"/>
	<path d="M1295.61,403.78c40.32,0,65.19,7.26,68.22,19.91c2.98,12.44-15.32,29.87-50.19,47.82
		c-35.87,18.47-85.33,35.75-139.27,48.67c-53.03,12.7-104.31,19.69-144.4,19.69c-40.33,0-65.19-7.26-68.22-19.91
		c-2.98-12.44,15.32-29.87,50.19-47.82c35.87-18.47,85.33-35.75,139.27-48.67C1204.23,410.77,1255.51,403.78,1295.61,403.78
		L1295.61,403.78 M1295.6,402.5c-38.55,0-89.71,6.56-144.69,19.73c-111.72,26.75-196.97,70.64-190.41,98.03
		c3.33,13.91,29.69,20.89,69.46,20.89c38.55,0,89.71-6.56,144.69-19.73c111.72-26.75,196.97-70.64,190.41-98.03
		C1361.73,409.48,1335.37,402.5,1295.6,402.5L1295.6,402.5z"/>
</g>
<g>
	<path class="st1" d="M494.07,788.27c-12.37,0-20.33-2.93-23.66-8.7c-6.55-11.35,6.06-33.55,34.62-60.91
		c29.17-27.95,71.71-58.63,119.78-86.38c72.35-41.77,143.44-68.77,181.1-68.77c12.37,0,20.33,2.93,23.67,8.7
		c6.55,11.35-6.06,33.55-34.62,60.91c-29.17,27.95-71.71,58.63-119.78,86.38C602.82,761.28,531.73,788.27,494.07,788.27z"/>
	<path d="M805.91,562.87v1.28c12.12,0,19.89,2.82,23.1,8.38c6.39,11.08-6.18,32.99-34.51,60.13
		c-29.13,27.92-71.63,58.56-119.66,86.29c-72.26,41.72-143.22,68.68-180.78,68.68c-12.12,0-19.9-2.82-23.11-8.38
		c-6.39-11.08,6.18-32.99,34.51-60.13c29.13-27.92,71.63-58.56,119.66-86.29c72.26-41.72,143.22-68.68,180.78-68.68L805.91,562.87
		 M805.91,562.87c-36.54,0-106.9,25.83-181.42,68.85c-99.48,57.44-168.72,123.77-154.63,148.17c3.53,6.12,11.97,9.02,24.22,9.02
		c36.54,0,106.9-25.83,181.42-68.85c99.48-57.44,168.72-123.77,154.63-148.17C826.59,565.77,818.15,562.87,805.91,562.87
		L805.91,562.87z"/>
</g>
<g>
	<path class="st1" d="M979.19,512.52c-13.62,0-22.24-3.15-25.6-9.36c-6.25-11.52,6.96-33.38,36.24-59.96
		c29.91-27.16,73.25-56.69,122.05-83.14c71.62-38.83,142.54-63.92,180.69-63.92c13.62,0,22.24,3.15,25.6,9.36
		c6.25,11.52-6.96,33.38-36.24,59.96c-29.91,27.16-73.25,56.69-122.05,83.14C1088.26,487.43,1017.33,512.52,979.19,512.52z"/>
	<path d="M1292.57,295.49v1.28c13.36,0,21.79,3.04,25.03,9.02c6.1,11.24-7.06,32.81-36.1,59.18
		c-29.87,27.13-73.17,56.62-121.93,83.06c-71.53,38.78-142.34,63.84-180.39,63.84c-13.37,0-21.8-3.04-25.04-9.02
		c-6.1-11.24,7.06-32.81,36.1-59.19c29.87-27.13,73.17-56.62,121.93-83.06c71.53-38.78,142.33-63.84,180.39-63.84L1292.57,295.49
		 M1292.57,295.49c-37.13,0-106.85,23.79-181,64C1010.58,414.24,939.6,478.7,953.02,503.46c3.57,6.58,12.73,9.69,26.17,9.69
		c37.13,0,106.85-23.79,181-64c100.99-54.75,171.97-119.21,158.55-143.97C1315.16,298.61,1306,295.49,1292.57,295.49L1292.57,295.49
		z"/>
</g>
<g>
	<path class="st1" d="M559.14,884.99c-5.43,0-9.6-1.42-12.39-4.2c-9.27-9.27-2.83-33.98,17.67-67.8
		c20.94-34.55,54.09-75.19,93.34-114.44c67.84-67.84,137.68-115.22,169.85-115.22c5.43,0,9.6,1.42,12.39,4.2
		c9.27,9.27,2.83,33.98-17.67,67.8c-20.94,34.55-54.09,75.19-93.34,114.44C661.15,837.61,591.3,884.99,559.14,884.99z"/>
	<path d="M827.62,582.69v1.28c5.25,0,9.27,1.35,11.93,4.02c9.04,9.04,2.57,33.47-17.77,67.01c-20.92,34.51-54.03,75.11-93.25,114.32
		c-33.53,33.53-67.78,62.39-99.06,83.46c-30.21,20.36-55.19,31.57-70.34,31.57c-5.26,0-9.27-1.35-11.94-4.02
		c-9.04-9.04-2.57-33.47,17.77-67.01C585.88,778.82,619,738.22,658.22,699c33.52-33.52,67.78-62.39,99.06-83.46
		c30.21-20.36,55.19-31.57,70.34-31.57L827.62,582.69 M827.61,582.69c-31.51,0.01-101.19,46.3-170.3,115.41
		c-81.23,81.23-130.93,163.22-111.02,183.14c2.97,2.97,7.32,4.39,12.84,4.39c31.51,0,101.19-46.3,170.3-115.41
		C810.67,688.99,860.37,607,840.45,587.08C837.48,584.11,833.14,582.69,827.61,582.69L827.61,582.69z"/>
</g>
<g>
	<path class="st1" d="M955.07,493.28c-5.87,0-10.29-1.53-13.15-4.55c-9.02-9.51-1.92-34.04,19.48-67.3
		c21.86-33.98,56.09-73.72,96.38-111.9c68.73-65.14,139.46-110.64,171.99-110.64c5.87,0,10.29,1.53,13.15,4.55
		c9.02,9.51,1.92,34.04-19.48,67.3c-21.86,33.97-56.09,73.71-96.37,111.9C1058.33,447.79,987.61,493.28,955.07,493.28z"/>
	<path d="M1229.77,199.53c5.68,0,9.95,1.46,12.68,4.35c8.8,9.28,1.67,33.52-19.56,66.51c-21.83,33.93-56.03,73.63-96.28,111.78
		c-34.08,32.3-68.8,60.04-100.41,80.24c-30.51,19.49-55.78,30.23-71.15,30.23c-5.68,0-9.95-1.46-12.69-4.35
		c-8.8-9.28-1.67-33.52,19.56-66.51c21.83-33.93,56.03-73.63,96.28-111.78c34.08-32.3,68.8-60.04,100.41-80.24
		C1189.13,210.27,1214.4,199.54,1229.77,199.53L1229.77,199.53 M1229.77,198.26c-31.93,0-102.16,44.21-172.43,110.82
		c-83.38,79.02-135.26,159.66-115.88,180.1c3.04,3.21,7.66,4.75,13.61,4.75c31.93,0,102.16-44.21,172.43-110.82
		c83.38-79.02,135.26-159.66,115.88-180.1C1240.34,199.79,1235.72,198.26,1229.77,198.26L1229.77,198.26z"/>
</g>
<g>
	<path class="st1" d="M653.64,960.53c-2.63,0-4.97-0.58-6.96-1.73c-11.35-6.55-11.52-32.09-0.48-70.06
		c11.29-38.79,32.79-86.63,60.54-134.7c51.39-89.01,111.72-156.13,140.34-156.13c2.63,0,4.97,0.58,6.96,1.73
		c24.05,13.89-2.9,105.74-60.07,204.76C742.59,893.4,682.26,960.53,653.64,960.53z"/>
	<path d="M847.09,597.26v1.28c2.51,0,4.74,0.55,6.63,1.65c11.08,6.39,11.14,31.66,0.18,69.33c-11.27,38.74-32.75,86.53-60.48,134.56
		c-51.29,88.83-111.38,155.81-139.78,155.81c-2.51,0-4.75-0.55-6.64-1.65c-11.08-6.39-11.14-31.66-0.18-69.33
		c11.27-38.74,32.75-86.53,60.48-134.56c25.16-43.58,53.3-83.38,79.23-112.07c25.5-28.21,47-43.74,60.55-43.75L847.09,597.26
		 M847.09,597.26c-28.58,0.01-88.45,65.62-140.89,156.45c-57.44,99.48-84.23,191.55-59.83,205.63c2.12,1.22,4.56,1.82,7.28,1.82
		c28.58,0,88.45-65.62,140.89-156.45c57.44-99.48,84.23-191.55,59.83-205.63C852.24,597.86,849.81,597.26,847.09,597.26
		L847.09,597.26z"/>
</g>
<g>
	<path class="st1" d="M934.32,479.75c-2.83,0-5.32-0.65-7.4-1.93c-11.17-6.85-10.66-32.39,1.4-70.05
		c12.32-38.48,35.1-85.72,64.13-133.03c53.29-86.84,115.18-152.32,143.97-152.32c2.83,0,5.32,0.65,7.4,1.93
		c23.67,14.52-5.73,105.62-65.53,203.08C1025.01,414.26,963.11,479.75,934.32,479.75z"/>
	<path d="M1136.42,121.78v1.28c2.71,0,5.09,0.62,7.07,1.83c10.9,6.69,10.29,31.95-1.67,69.31c-12.31,38.43-35.06,85.62-64.07,132.89
		c-26.16,42.63-55.19,81.49-81.75,109.43c-26.11,27.47-48.02,42.59-61.68,42.59c-2.71,0-5.09-0.62-7.07-1.83
		c-10.9-6.69-10.29-31.95,1.67-69.31c12.31-38.43,35.06-85.62,64.07-132.89c26.16-42.63,55.19-81.49,81.75-109.43
		c26.11-27.46,48.02-42.59,61.68-42.59L1136.42,121.78 M1136.42,121.78c-28.79,0-89.98,63.76-144.52,152.63
		c-60.08,97.91-89.33,189.23-65.32,203.96c2.22,1.36,4.81,2.02,7.74,2.02c28.79,0,89.98-63.76,144.52-152.63
		c60.08-97.91,89.33-189.23,65.32-203.96C1141.94,122.44,1139.35,121.78,1136.42,121.78L1136.42,121.78z"/>
</g>
<g>
	<path class="st1" d="M766.63,1008.7c-1.11,0-2.19-0.14-3.23-0.42c-12.66-3.39-19.44-28.01-18.59-67.55
		c0.86-40.39,9.25-92.16,23.62-145.78c28.2-105.24,71.72-187.68,99.08-187.68c1.11,0,2.19,0.14,3.23,0.42
		c12.66,3.39,19.44,28.01,18.59,67.55c-0.86,40.39-9.25,92.16-23.62,145.78C837.52,926.26,793.99,1008.7,766.63,1008.7z"/>
	<path d="M867.51,606.63v1.28h0c1.05,0,2.08,0.13,3.06,0.4c12.35,3.31,18.96,27.7,18.12,66.92c-0.86,40.34-9.24,92.06-23.59,145.63
		c-13.73,51.24-31.53,98.74-50.12,133.73c-18.05,33.98-35.68,53.47-48.35,53.47c-1.05,0-2.08-0.13-3.06-0.4
		c-12.35-3.31-18.96-27.7-18.12-66.92c0.86-40.34,9.24-92.06,23.59-145.63c13.73-51.24,31.53-98.74,50.12-133.73
		c18.05-33.98,35.67-53.47,48.35-53.48L867.51,606.63 M867.51,606.63c-27.52,0.01-71.17,81.69-99.7,188.15
		c-29.73,110.96-31.78,206.82-4.57,214.11c1.1,0.3,2.23,0.44,3.4,0.44c27.52,0,71.17-81.69,99.7-188.15
		c29.73-110.96,31.78-206.82,4.57-214.11C869.8,606.77,868.67,606.63,867.51,606.63L867.51,606.63z"/>
</g>
<g>
	<path class="st1" d="M914.18,469.68c-1.23,0-2.44-0.17-3.58-0.51c-12.56-3.73-18.68-28.52-16.78-68.02
		c1.94-40.35,11.71-91.88,27.51-145.1c30.79-103.72,76.35-184.96,103.72-184.96c1.23,0,2.44,0.17,3.58,0.51
		c12.56,3.73,18.68,28.52,16.78,68.02c-1.94,40.35-11.71,91.88-27.51,145.1C987.11,388.43,941.55,469.68,914.18,469.68z"/>
	<path d="M1025.06,70.45v1.28c1.17,0,2.31,0.16,3.39,0.48c12.26,3.64,18.21,28.2,16.32,67.38c-1.94,40.3-11.7,91.78-27.49,144.95
		c-15.03,50.61-34,97.45-53.43,131.89c-9.43,16.71-18.53,29.77-27.07,38.84c-8.61,9.14-16.22,13.78-22.6,13.78
		c-1.17,0-2.31-0.16-3.4-0.48c-12.26-3.64-18.21-28.2-16.32-67.38c1.94-40.3,11.7-91.78,27.49-144.95
		c15.03-50.61,34-97.45,53.43-131.89c9.43-16.71,18.53-29.77,27.07-38.84c8.61-9.14,16.22-13.78,22.6-13.78L1025.06,70.45
		 M1025.06,70.45c-27.55,0-73.1,80.24-104.33,185.42c-32.69,110.12-37.31,205.9-10.31,213.91c1.21,0.36,2.46,0.54,3.76,0.54
		c27.55,0,73.1-80.24,104.33-185.42c32.69-110.12,37.31-205.9,10.31-213.91C1027.6,70.62,1026.35,70.45,1025.06,70.45L1025.06,70.45
		z"/>
</g>
<g>
	<g>
		<path class="st2" d="M896.21,851.35c-83.22,0-161.46-32.41-220.3-91.25c-58.85-58.84-91.25-137.08-91.25-220.3
			s32.41-161.46,91.25-220.3c58.85-58.85,137.08-91.25,220.3-91.25c83.22,0,161.46,32.41,220.3,91.25
			c58.85,58.85,91.25,137.08,91.25,220.3s-32.41,161.46-91.25,220.3C1057.66,818.94,979.42,851.35,896.21,851.35z"/>
		<path d="M896.2,228.89c41.97,0,82.69,8.22,121.02,24.43c37.02,15.66,70.27,38.08,98.83,66.63c28.55,28.55,50.97,61.8,66.63,98.83
			c16.21,38.33,24.43,79.05,24.43,121.02s-8.22,82.69-24.43,121.02c-15.66,37.02-38.08,70.27-66.63,98.83
			c-28.55,28.55-61.8,50.97-98.83,66.63c-38.33,16.21-79.05,24.43-121.02,24.43s-82.69-8.22-121.02-24.43
			c-37.02-15.66-70.27-38.08-98.83-66.63c-28.55-28.55-50.97-61.8-66.63-98.83c-16.21-38.33-24.43-79.05-24.43-121.02
			s8.22-82.69,24.43-121.02c15.66-37.02,38.08-70.27,66.63-98.83c28.55-28.55,61.8-50.97,98.83-66.63
			C813.51,237.11,854.23,228.89,896.2,228.89 M896.2,227.59c-172.43,0-312.2,139.78-312.2,312.2S723.78,852,896.2,852
			s312.2-139.78,312.2-312.2S1068.63,227.59,896.2,227.59L896.2,227.59z"/>
	</g>
	<g>
		<path class="st3" d="M895,813.87c-73.57,0-142.74-28.65-194.76-80.67c-52.02-52.02-80.67-121.19-80.67-194.76
			s28.65-142.74,80.67-194.76c52.02-52.02,121.19-80.67,194.76-80.67s142.74,28.65,194.76,80.67
			c52.02,52.02,80.67,121.19,80.67,194.76s-28.65,142.74-80.67,194.76S968.57,813.87,895,813.87z"/>
		<path d="M895,263.59c37.11,0,73.1,7.27,106.99,21.6c32.73,13.84,62.12,33.66,87.37,58.9c25.24,25.24,45.06,54.64,58.9,87.37
			c14.33,33.88,21.6,69.88,21.6,106.99s-7.27,73.1-21.6,106.99c-13.84,32.73-33.66,62.12-58.9,87.37
			c-25.24,25.24-54.64,45.06-87.37,58.9c-33.88,14.33-69.88,21.6-106.99,21.6s-73.1-7.27-106.99-21.6
			c-32.73-13.84-62.12-33.66-87.37-58.9c-25.24-25.24-45.06-54.64-58.9-87.37c-14.33-33.88-21.6-69.88-21.6-106.99
			s7.27-73.1,21.6-106.99c13.84-32.73,33.66-62.12,58.9-87.37c25.24-25.24,54.64-45.06,87.37-58.9
			C821.9,270.85,857.89,263.59,895,263.59 M895,262.44c-152.43,0-276,123.57-276,276s123.57,276,276,276s276-123.57,276-276
			S1047.43,262.44,895,262.44L895,262.44z"/>
	</g>
</g>
</svg>
