<?xml version="1.0" encoding="utf-8"?>
<!-- Generator: Adobe Illustrator 16.0.3, SVG Export Plug-In . SVG Version: 6.00 Build 0)  -->
<!DOCTYPE svg PUBLIC "-//W3C//DTD SVG 1.1//EN" "http://www.w3.org/Graphics/SVG/1.1/DTD/svg11.dtd">
<svg version="1.1" id="Layer_1" xmlns="http://www.w3.org/2000/svg" xmlns:xlink="http://www.w3.org/1999/xlink" x="0px" y="0px"
	 width="1047px" height="1047px" viewBox="0 0 1047 1047" enable-background="new 0 0 1047 1047" xml:space="preserve">
<g>
	<defs>
		<polygon id="SVGID_1_" points="523.499,0 0,523.499 0,523.501 523.499,1047 1046.999,523.5 		"/>
	</defs>
	<clipPath id="SVGID_2_">
		<use xlink:href="#SVGID_1_"  overflow="visible"/>
	</clipPath>
	<path clip-path="url(#SVGID_2_)" fill="#312F7D" d="M593.311,971.287c-1.12,1.12-2.249,2.234-3.389,3.342
		c-19.195,18.714-40.339,35.247-62.843,49.149c-26.898-16.094-51.742-35.748-73.847-58.42
		c-35.087-35.991-61.865-77.858-79.592-124.44c-17.124-44.995-25.067-92.313-23.611-140.645l0.025-0.819l-0.819,0.036
		c-103.601,4.598-204.515-35.338-276.866-109.565c-18.696-19.181-35.233-40.317-49.158-62.829
		c15.294-25.563,33.823-49.297,55.081-70.556c1.108-1.108,2.223-2.21,3.35-3.307c35.99-35.087,77.857-61.865,124.439-79.592
		c44.994-17.124,92.313-25.067,140.643-23.611l0.82,0.025l-0.035-0.819c-2.219-49.992,5.624-98.976,23.312-145.591
		c18.285-48.189,46.166-91.232,82.869-127.934c1.12-1.12,2.245-2.231,3.383-3.34c19.198-18.714,40.341-35.248,62.845-49.15
		c26.898,16.095,51.743,35.748,73.848,58.421c35.085,35.988,61.861,77.854,79.588,124.435c17.12,44.99,25.064,92.31,23.612,140.649
		l-0.022,0.821l0.818-0.037c103.604-4.597,204.516,35.337,276.864,109.564c18.715,19.197,35.248,40.341,49.15,62.845
		c-15.291,25.557-33.816,49.286-55.07,70.54c-1.108,1.109-2.225,2.209-3.35,3.308c-35.99,35.087-77.857,61.865-124.439,79.592
		c-44.995,17.123-92.314,25.067-140.646,23.61l-0.82-0.024l0.036,0.82c2.219,49.992-5.624,98.975-23.311,145.588
		C657.892,891.542,630.01,934.585,593.311,971.287"/>
	<path clip-path="url(#SVGID_2_)" d="M453.149,75.174l1.077,1.077c1.118-1.118,2.244-2.228,3.379-3.336
		c19.044-18.564,40.008-34.979,62.318-48.804c26.687,16.017,51.345,35.548,73.298,58.062c35.012,35.913,61.731,77.692,79.42,124.174
		c17.086,44.896,25.014,92.119,23.564,140.355l-0.049,1.641l1.641-0.073c50.663-2.247,100.243,5.848,147.366,24.062
		c48.763,18.847,92.137,47.538,128.92,85.275c18.564,19.045,34.98,40.007,48.804,62.318c-15.214,25.35-33.622,48.899-54.726,70.001
		c-1.104,1.104-2.215,2.201-3.338,3.295c-35.914,35.014-77.693,61.736-124.177,79.426c-44.903,17.086-92.123,25.014-140.351,23.561
		l-1.643-0.05l0.074,1.641c2.214,49.887-5.612,98.769-23.264,145.283c-18.247,48.088-46.069,91.04-82.695,127.666
		c-1.118,1.118-2.243,2.229-3.379,3.336c-19.043,18.565-40.005,34.98-62.318,48.805c-26.686-16.018-51.345-35.549-73.296-58.063
		c-35.011-35.914-61.734-77.694-79.423-124.178c-17.09-44.901-25.016-92.121-23.563-140.351l0.05-1.641l-1.64,0.072
		c-50.663,2.249-100.245-5.848-147.368-24.061c-48.76-18.848-92.134-47.539-128.917-85.275
		c-18.549-19.027-34.968-39.985-48.813-62.306c15.215-25.354,33.627-48.907,54.734-70.014c1.104-1.104,2.213-2.201,3.336-3.295
		c35.916-35.013,77.694-61.736,124.178-79.425c44.903-17.088,92.122-25.015,140.351-23.561l1.641,0.048l-0.074-1.639
		c-2.212-49.887,5.613-98.768,23.263-145.284c18.249-48.087,46.071-91.041,82.695-127.666L453.149,75.174 M453.149,75.174
		c-75.19,75.19-110.786,175.319-106.402,274.094c-95.426-2.876-191.864,31.496-265.637,103.42c-1.128,1.097-2.243,2.199-3.351,3.308
		c-21.814,21.813-40.301,45.731-55.431,71.09l-0.011,0.012c13.831,22.426,30.344,43.699,49.506,63.357
		c75.553,77.514,177.193,114.244,277.445,109.795c-2.876,95.427,31.496,191.864,103.419,265.641
		c22.696,23.276,47.749,42.88,74.398,58.778c22.438-13.819,43.711-30.332,63.369-49.495c1.14-1.111,2.27-2.227,3.393-3.349
		c75.189-75.189,110.786-175.319,106.402-274.095c95.426,2.876,191.863-31.494,265.639-103.418c1.128-1.099,2.242-2.199,3.351-3.309
		c21.813-21.813,40.301-45.731,55.431-71.092c-13.82-22.437-30.333-43.711-49.496-63.369
		C899.622,379.031,797.979,342.3,697.729,346.749c2.865-95.437-31.496-191.864-103.418-265.639
		c-22.696-23.277-47.751-42.882-74.4-58.78C497.474,36.15,476.2,52.663,456.543,71.825
		C455.402,72.937,454.271,74.052,453.149,75.174"/>
</g>
<g>
	<defs>
		<rect id="SVGID_3_" x="178" y="185.503" width="678" height="678.408"/>
	</defs>
	<clipPath id="SVGID_4_">
		<use xlink:href="#SVGID_3_"  overflow="visible"/>
	</clipPath>
	<path clip-path="url(#SVGID_4_)" fill="#BB516C" d="M436.571,605.822c14.057,56.65,42.441,107.735,81.138,149.136
		c-63.061,68.376-153.919,110.573-254.242,108.906c-25.44-0.423-50.185-3.646-73.928-9.377c-6.95-27.922-10.403-57.215-9.901-87.343
		c1.585-95.479,42.593-181.056,107.259-241.467c41.545,38.339,92.764,66.418,149.674,80.13V605.822z"/>
	<path clip-path="url(#SVGID_4_)" fill="#BB516C" d="M178.048,271.437c0.422-25.442,3.644-50.186,9.363-73.929h0.014
		c27.923-6.949,57.212-10.403,87.34-9.902c95.481,1.587,181.056,42.593,241.469,107.261c-38.339,41.545-66.418,92.764-80.13,149.674
		c-56.651,14.056-107.751,42.439-149.151,81.138C218.578,462.617,176.379,371.76,178.048,271.437"/>
	<path clip-path="url(#SVGID_4_)" fill="#BB516C" d="M855.953,778.389c-0.424,25.439-3.645,50.186-9.379,73.927
		c-27.921,6.95-57.21,10.404-87.339,9.903c-95.48-1.589-181.058-42.595-241.469-107.26c38.34-41.546,66.417-92.765,80.13-149.676
		c56.65-14.055,107.751-42.438,149.149-81.137C815.423,587.208,857.621,678.063,855.953,778.389"/>
	<path clip-path="url(#SVGID_4_)" fill="#BB516C" d="M597.436,443.607c-14.057-56.651-42.441-107.75-81.138-149.15
		c63.061-68.376,153.919-110.573,254.242-108.906c25.44,0.424,50.186,3.645,73.929,9.363l-0.001,0.014
		c6.951,27.923,10.403,57.212,9.903,87.34c-1.587,95.482-42.594,181.056-107.261,241.469
		C705.564,485.398,654.346,457.319,597.436,443.607"/>
</g>
<g>
	<defs>
		
			<rect id="SVGID_5_" x="283.006" y="293.748" transform="matrix(-0.9999 -0.0139 0.0139 -0.9999 1025.564 1060.5737)" width="466.935" height="465.938"/>
	</defs>
	<clipPath id="SVGID_6_">
		<use xlink:href="#SVGID_5_"  overflow="visible"/>
	</clipPath>
	<path clip-path="url(#SVGID_6_)" fill="#FFFFFF" d="M517.882,758.676c-39.634-42.272-67.997-94.077-82.047-149.87l0.006-0.479
		l-0.558-0.147c-56.151-13.342-108.436-41.022-151.263-80.071c42.379-39.566,94.329-67.873,150.292-81.887
		c28.721-7.215,58.477-10.661,88.444-10.244c25.33,0.353,50.534,3.475,74.911,9.28c56.149,13.342,108.436,41.021,151.263,80.069
		c-42.38,39.565-94.33,67.874-150.292,81.887l-0.421,0.106l-0.102,0.423C584.748,663.769,557.013,715.941,517.882,758.676"/>
	<path clip-path="url(#SVGID_6_)" d="M522.745,436.691c25.279,0.352,50.431,3.467,74.756,9.26
		c55.78,13.254,107.741,40.69,150.371,79.381c-42.188,39.207-93.815,67.267-149.409,81.188l-0.843,0.21l-0.203,0.846
		c-13.28,55.661-40.771,107.51-79.541,150.047c-39.252-42.059-67.357-93.509-81.324-148.901l0.013-0.973l-1.117-0.265
		c-55.78-13.255-107.741-40.69-150.371-79.382c42.187-39.207,93.815-67.267,149.409-81.188
		C463.147,439.715,492.843,436.275,522.745,436.691 M522.765,435.261c-30.583-0.426-60.305,3.151-88.628,10.266
		c-57.465,14.39-109.256,43.278-151.172,82.587c42.277,38.722,94.346,67.024,152.151,80.76v0.014
		c14.424,57.345,43.377,109.013,82.772,150.841c38.802-42.185,67.162-94.141,80.924-151.821
		c57.465-14.392,109.255-43.278,151.171-82.587c-42.276-38.722-94.346-67.025-152.149-80.76
		C573.716,438.817,548.59,435.621,522.765,435.261"/>
	<path clip-path="url(#SVGID_6_)" fill="#FFFFFF" d="M517.882,758.676c-39.634-42.272-67.997-94.077-82.047-149.87l-0.023-0.106
		c-7.233-28.66-10.688-58.354-10.272-88.255c0.352-25.275,3.479-50.426,9.294-74.751c13.368-56.029,41.103-108.203,80.233-150.937
		c39.654,42.293,68.023,94.134,82.07,149.976l0.105,0.422l0.424,0.101c56.149,13.342,108.436,41.021,151.263,80.069
		c-42.38,39.565-94.33,67.874-150.292,81.887l-0.421,0.106l-0.102,0.423C584.75,663.769,557.013,715.941,517.882,758.676"/>
	<path clip-path="url(#SVGID_6_)" d="M515.072,295.812c39.293,42.099,67.416,93.621,81.369,149.096l0.212,0.843l0.847,0.2
		c55.78,13.254,107.741,40.69,150.371,79.381c-42.187,39.207-93.814,67.267-149.408,81.188l-0.844,0.211l-0.202,0.844
		c-13.28,55.661-40.77,107.511-79.542,150.047c-39.252-42.056-67.357-93.509-81.324-148.899v-0.015l-0.046-0.184
		c-7.217-28.599-10.665-58.229-10.249-88.07c0.351-25.225,3.473-50.323,9.275-74.596
		C448.812,390.197,476.301,338.349,515.072,295.812 M515.061,293.705c-38.802,42.185-67.162,94.141-80.924,151.822
		c-5.753,24.064-8.955,49.137-9.314,74.907c-0.425,30.518,3.162,60.177,10.293,88.44v0.014
		c14.425,57.346,43.377,109.012,82.772,150.841c38.803-42.185,67.164-94.141,80.924-151.822
		c57.465-14.391,109.256-43.277,151.172-82.587c-42.277-38.722-94.346-67.025-152.151-80.76
		C583.408,387.216,554.456,335.534,515.061,293.705"/>
	<path clip-path="url(#SVGID_6_)" fill="#CFA4AD" d="M749.982,525.32c-41.914,39.309-93.706,68.195-151.17,82.587
		c-28.325,7.114-58.046,10.691-88.63,10.266c-25.823-0.36-50.951-3.556-75.067-9.285v-0.014
		c-57.805-13.735-109.873-42.038-152.151-80.76c41.916-39.31,93.708-68.197,151.172-82.587
		c13.761-57.681,42.121-109.637,80.923-151.822c39.396,41.829,68.349,93.511,82.772,150.855
		C655.637,458.295,707.706,486.598,749.982,525.32"/>
	<path clip-path="url(#SVGID_6_)" fill="#CFA4AD" d="M608.126,532.999c-0.359,25.771-3.562,50.844-9.314,74.907
		c-13.761,57.681-42.121,109.638-80.924,151.822c-39.395-41.829-68.347-93.496-82.772-150.84v-0.015
		c-57.804-13.735-109.873-42.038-152.15-80.761c41.915-39.309,93.706-68.196,151.171-82.586
		c13.762-57.681,42.122-109.638,80.924-151.822c39.395,41.829,68.348,93.51,82.772,150.854
		C604.965,472.822,608.551,502.481,608.126,532.999"/>
</g>
<g>
	<defs>
		
			<rect id="SVGID_7_" x="170.272" y="178.113" transform="matrix(-0.9999 -0.0125 0.0125 -0.9999 1024.4406 1053.0604)" width="690.455" height="690.455"/>
	</defs>
	<clipPath id="SVGID_8_">
		<use xlink:href="#SVGID_7_"  overflow="visible"/>
	</clipPath>
	<path clip-path="url(#SVGID_8_)" fill="#FFFFFF" d="M860.785,520.752C798.89,579.096,722.367,622.018,637.426,643.47
		c-20.226,85.505-62.05,162.56-119.339,225.158c-58.342-61.897-101.264-138.397-122.718-223.34l0.001-0.021
		c-85.506-20.226-162.558-62.051-225.158-119.338c61.897-58.343,138.42-101.265,223.361-122.717
		c20.226-85.505,62.05-162.561,119.337-225.157c58.344,61.897,101.266,138.417,122.717,223.361
		C721.133,421.641,798.187,463.466,860.785,520.752"/>
</g>
<g>
	<defs>
		
			<rect id="SVGID_9_" x="380.542" y="387.959" transform="matrix(-1 -0.01 0.01 -1 1026.9557 1052.1713)" width="271.126" height="271.124"/>
	</defs>
	<clipPath id="SVGID_10_">
		<use xlink:href="#SVGID_9_"  overflow="visible"/>
	</clipPath>
	<path clip-path="url(#SVGID_10_)" fill="#FECA0A" d="M651.588,532.288c-0.382,38.167-4.969,75.319-13.332,110.991
		c-41.815,10.704-85.719,16.175-130.917,15.723c-38.168-0.381-75.319-4.967-110.992-13.31v-0.021
		c-10.703-41.814-16.174-85.718-15.723-130.917c0.381-38.167,4.968-75.318,13.331-110.991
		c41.816-10.703,85.719-16.175,130.918-15.723c38.167,0.381,75.318,4.968,110.991,13.331
		C646.567,443.187,652.039,487.089,651.588,532.288"/>
</g>
</svg>
