<?xml version="1.0" encoding="utf-8"?>
<!-- Generator: Adobe Illustrator 24.3.0, SVG Export Plug-In . SVG Version: 6.00 Build 0)  -->
<svg version="1.1" id="Layer_1" xmlns="http://www.w3.org/2000/svg" xmlns:xlink="http://www.w3.org/1999/xlink" x="0px" y="0px"
	 viewBox="0 0 224.03 213.07" style="enable-background:new 0 0 224.03 213.07;" xml:space="preserve">
<style type="text/css">
	.st0{fill:#251182;}
	.st1{fill:#C6B90B;}
	.st2{fill:#FECA0A;}
	.st3{fill:#F1F5F6;}
</style>
<path class="st0" d="M224,81.39L224,81.39c-2.3,7.09-5.75,13.94-10.36,20.29c-14.23,19.58-36.38,29.98-58.86,30.01
	c18.17,13.24,29.98,34.67,29.98,58.87c0,7.86-1.24,15.42-3.55,22.51c-7.45,0-15.03-1.16-22.5-3.58
	c-23.02-7.48-39.76-25.34-46.72-46.71c-6.97,21.37-23.71,39.23-46.72,46.71c-7.47,2.43-15.05,3.58-22.5,3.58
	c-2.3-7.09-3.55-14.66-3.55-22.51c0-24.2,11.81-45.63,29.98-58.87c-22.48-0.02-44.63-10.43-58.86-30.01
	C5.71,95.33,2.27,88.48-0.03,81.39c6.03-4.38,12.84-7.9,20.31-10.33c23.02-7.48,47.06-2.87,65.26,10.32
	C78.61,60,81.66,35.71,95.88,16.13C100.5,9.77,105.95,4.38,111.98,0c6.03,4.38,11.48,9.77,16.1,16.13
	c14.23,19.58,17.27,43.87,10.35,65.26c18.2-13.19,42.24-17.8,65.26-10.32C211.16,73.49,217.97,77.01,224,81.39z"/>
<path class="st1" d="M103.42,123.42c1.89-2.12,4.44-3.69,7.43-4.33C108.81,121.36,106.19,122.82,103.42,123.42z"/>
<path class="st1" d="M110.85,119.08c1.54,2.64,2.11,5.58,1.82,8.4C111.24,125.03,110.54,122.12,110.85,119.08z"/>
<path class="st1" d="M119.41,119.94c-2.77,0.61-5.76,0.37-8.56-0.86C113.84,118.43,116.81,118.8,119.41,119.94z"/>
<path class="st1" d="M110.85,119.08c1.54,2.64,2.11,5.58,1.82,8.4C111.24,125.03,110.54,122.12,110.85,119.08z"/>
<path class="st1" d="M110.85,119.08c0.3-3.04,1.57-5.76,3.46-7.87C114.03,114.04,112.88,116.8,110.85,119.08z"/>
<path class="st1" d="M119.41,119.94c-2.77,0.61-5.76,0.37-8.56-0.86C113.84,118.43,116.81,118.8,119.41,119.94z"/>
<path class="st1" d="M110.85,119.08c0.3-3.04,1.57-5.76,3.46-7.87C114.03,114.04,112.88,116.8,110.85,119.08z"/>
<path class="st1" d="M119.41,119.94c-2.77,0.61-5.76,0.37-8.56-0.86C113.84,118.43,116.81,118.8,119.41,119.94z"/>
<path class="st1" d="M103.42,123.42c1.89-2.12,4.44-3.69,7.43-4.33C108.81,121.36,106.19,122.82,103.42,123.42z"/>
<path class="st1" d="M114.31,111.22c-0.28,2.83-1.43,5.59-3.46,7.87C111.15,116.04,112.42,113.33,114.31,111.22z"/>
<path class="st2" d="M142.54,101.19c0.96-9.46-4.18-18.87-13.36-22.9s-19.58-1.47-25.9,5.62c-8.7-3.83-19.22-1.85-25.9,5.63
	c-6.67,7.48-7.45,18.17-2.66,26.38c-6.33,7.08-7.7,17.7-2.65,26.36c5.04,8.66,14.98,12.7,24.26,10.68
	c4.79,8.2,14.47,12.79,24.26,10.66c9.79-2.13,16.7-10.32,17.65-19.77c9.28-2.01,16.64-9.81,17.64-19.78
	C156.89,114.11,151.24,105.01,142.54,101.19z M111.02,119.56c-3.31,3.7-7.55,6.06-12.05,7.03
	C102.03,123.15,106.18,120.61,111.02,119.56c0.49-4.93,2.54-9.33,5.62-12.75C116.18,111.39,114.32,115.87,111.02,119.56
	c4.85-1.05,9.67-0.46,13.88,1.4C120.41,121.94,115.57,121.56,111.02,119.56c2.49,4.28,3.42,9.04,2.96,13.62
	C111.66,129.21,110.53,124.49,111.02,119.56z"/>
<path class="st1" d="M103.42,123.42c1.89-2.12,4.44-3.69,7.43-4.33C108.81,121.36,106.19,122.82,103.42,123.42z"/>
<path class="st1" d="M112.67,127.48c-1.43-2.45-2.13-5.36-1.82-8.4C112.39,121.72,112.96,124.66,112.67,127.48z"/>
<circle class="st3" cx="111.38" cy="120" r="35.62"/>
</svg>
